G04 #@! TF.GenerationSoftware,KiCad,Pcbnew,(5.1.10)-1*
G04 #@! TF.CreationDate,2021-11-22T08:37:42+00:00*
G04 #@! TF.ProjectId,EnvMCRO,456e764d-4352-44f2-9e6b-696361645f70,rev?*
G04 #@! TF.SameCoordinates,Original*
G04 #@! TF.FileFunction,Paste,Bot*
G04 #@! TF.FilePolarity,Positive*
%FSLAX46Y46*%
G04 Gerber Fmt 4.6, Leading zero omitted, Abs format (unit mm)*
G04 Created by KiCad (PCBNEW (5.1.10)-1) date 2021-11-22 08:37:42*
%MOMM*%
%LPD*%
G01*
G04 APERTURE LIST*
G04 APERTURE END LIST*
G36*
G01*
X73453000Y-53190000D02*
X72017000Y-53190000D01*
G75*
G02*
X71935000Y-53108000I0J82000D01*
G01*
X71935000Y-52452000D01*
G75*
G02*
X72017000Y-52370000I82000J0D01*
G01*
X73453000Y-52370000D01*
G75*
G02*
X73535000Y-52452000I0J-82000D01*
G01*
X73535000Y-53108000D01*
G75*
G02*
X73453000Y-53190000I-82000J0D01*
G01*
G37*
G36*
G01*
X73453000Y-54690000D02*
X72017000Y-54690000D01*
G75*
G02*
X71935000Y-54608000I0J82000D01*
G01*
X71935000Y-53952000D01*
G75*
G02*
X72017000Y-53870000I82000J0D01*
G01*
X73453000Y-53870000D01*
G75*
G02*
X73535000Y-53952000I0J-82000D01*
G01*
X73535000Y-54608000D01*
G75*
G02*
X73453000Y-54690000I-82000J0D01*
G01*
G37*
G36*
G01*
X78653000Y-53190000D02*
X77217000Y-53190000D01*
G75*
G02*
X77135000Y-53108000I0J82000D01*
G01*
X77135000Y-52452000D01*
G75*
G02*
X77217000Y-52370000I82000J0D01*
G01*
X78653000Y-52370000D01*
G75*
G02*
X78735000Y-52452000I0J-82000D01*
G01*
X78735000Y-53108000D01*
G75*
G02*
X78653000Y-53190000I-82000J0D01*
G01*
G37*
G36*
G01*
X78653000Y-54690000D02*
X77217000Y-54690000D01*
G75*
G02*
X77135000Y-54608000I0J82000D01*
G01*
X77135000Y-53952000D01*
G75*
G02*
X77217000Y-53870000I82000J0D01*
G01*
X78653000Y-53870000D01*
G75*
G02*
X78735000Y-53952000I0J-82000D01*
G01*
X78735000Y-54608000D01*
G75*
G02*
X78653000Y-54690000I-82000J0D01*
G01*
G37*
G36*
G01*
X92518000Y-53190000D02*
X91082000Y-53190000D01*
G75*
G02*
X91000000Y-53108000I0J82000D01*
G01*
X91000000Y-52452000D01*
G75*
G02*
X91082000Y-52370000I82000J0D01*
G01*
X92518000Y-52370000D01*
G75*
G02*
X92600000Y-52452000I0J-82000D01*
G01*
X92600000Y-53108000D01*
G75*
G02*
X92518000Y-53190000I-82000J0D01*
G01*
G37*
G36*
G01*
X92518000Y-54690000D02*
X91082000Y-54690000D01*
G75*
G02*
X91000000Y-54608000I0J82000D01*
G01*
X91000000Y-53952000D01*
G75*
G02*
X91082000Y-53870000I82000J0D01*
G01*
X92518000Y-53870000D01*
G75*
G02*
X92600000Y-53952000I0J-82000D01*
G01*
X92600000Y-54608000D01*
G75*
G02*
X92518000Y-54690000I-82000J0D01*
G01*
G37*
G36*
G01*
X97718000Y-53190000D02*
X96282000Y-53190000D01*
G75*
G02*
X96200000Y-53108000I0J82000D01*
G01*
X96200000Y-52452000D01*
G75*
G02*
X96282000Y-52370000I82000J0D01*
G01*
X97718000Y-52370000D01*
G75*
G02*
X97800000Y-52452000I0J-82000D01*
G01*
X97800000Y-53108000D01*
G75*
G02*
X97718000Y-53190000I-82000J0D01*
G01*
G37*
G36*
G01*
X97718000Y-54690000D02*
X96282000Y-54690000D01*
G75*
G02*
X96200000Y-54608000I0J82000D01*
G01*
X96200000Y-53952000D01*
G75*
G02*
X96282000Y-53870000I82000J0D01*
G01*
X97718000Y-53870000D01*
G75*
G02*
X97800000Y-53952000I0J-82000D01*
G01*
X97800000Y-54608000D01*
G75*
G02*
X97718000Y-54690000I-82000J0D01*
G01*
G37*
G36*
G01*
X111568000Y-53190000D02*
X110132000Y-53190000D01*
G75*
G02*
X110050000Y-53108000I0J82000D01*
G01*
X110050000Y-52452000D01*
G75*
G02*
X110132000Y-52370000I82000J0D01*
G01*
X111568000Y-52370000D01*
G75*
G02*
X111650000Y-52452000I0J-82000D01*
G01*
X111650000Y-53108000D01*
G75*
G02*
X111568000Y-53190000I-82000J0D01*
G01*
G37*
G36*
G01*
X111568000Y-54690000D02*
X110132000Y-54690000D01*
G75*
G02*
X110050000Y-54608000I0J82000D01*
G01*
X110050000Y-53952000D01*
G75*
G02*
X110132000Y-53870000I82000J0D01*
G01*
X111568000Y-53870000D01*
G75*
G02*
X111650000Y-53952000I0J-82000D01*
G01*
X111650000Y-54608000D01*
G75*
G02*
X111568000Y-54690000I-82000J0D01*
G01*
G37*
G36*
G01*
X116768000Y-53190000D02*
X115332000Y-53190000D01*
G75*
G02*
X115250000Y-53108000I0J82000D01*
G01*
X115250000Y-52452000D01*
G75*
G02*
X115332000Y-52370000I82000J0D01*
G01*
X116768000Y-52370000D01*
G75*
G02*
X116850000Y-52452000I0J-82000D01*
G01*
X116850000Y-53108000D01*
G75*
G02*
X116768000Y-53190000I-82000J0D01*
G01*
G37*
G36*
G01*
X116768000Y-54690000D02*
X115332000Y-54690000D01*
G75*
G02*
X115250000Y-54608000I0J82000D01*
G01*
X115250000Y-53952000D01*
G75*
G02*
X115332000Y-53870000I82000J0D01*
G01*
X116768000Y-53870000D01*
G75*
G02*
X116850000Y-53952000I0J-82000D01*
G01*
X116850000Y-54608000D01*
G75*
G02*
X116768000Y-54690000I-82000J0D01*
G01*
G37*
G36*
G01*
X130603000Y-53175000D02*
X129167000Y-53175000D01*
G75*
G02*
X129085000Y-53093000I0J82000D01*
G01*
X129085000Y-52437000D01*
G75*
G02*
X129167000Y-52355000I82000J0D01*
G01*
X130603000Y-52355000D01*
G75*
G02*
X130685000Y-52437000I0J-82000D01*
G01*
X130685000Y-53093000D01*
G75*
G02*
X130603000Y-53175000I-82000J0D01*
G01*
G37*
G36*
G01*
X130603000Y-54675000D02*
X129167000Y-54675000D01*
G75*
G02*
X129085000Y-54593000I0J82000D01*
G01*
X129085000Y-53937000D01*
G75*
G02*
X129167000Y-53855000I82000J0D01*
G01*
X130603000Y-53855000D01*
G75*
G02*
X130685000Y-53937000I0J-82000D01*
G01*
X130685000Y-54593000D01*
G75*
G02*
X130603000Y-54675000I-82000J0D01*
G01*
G37*
G36*
G01*
X135803000Y-53175000D02*
X134367000Y-53175000D01*
G75*
G02*
X134285000Y-53093000I0J82000D01*
G01*
X134285000Y-52437000D01*
G75*
G02*
X134367000Y-52355000I82000J0D01*
G01*
X135803000Y-52355000D01*
G75*
G02*
X135885000Y-52437000I0J-82000D01*
G01*
X135885000Y-53093000D01*
G75*
G02*
X135803000Y-53175000I-82000J0D01*
G01*
G37*
G36*
G01*
X135803000Y-54675000D02*
X134367000Y-54675000D01*
G75*
G02*
X134285000Y-54593000I0J82000D01*
G01*
X134285000Y-53937000D01*
G75*
G02*
X134367000Y-53855000I82000J0D01*
G01*
X135803000Y-53855000D01*
G75*
G02*
X135885000Y-53937000I0J-82000D01*
G01*
X135885000Y-54593000D01*
G75*
G02*
X135803000Y-54675000I-82000J0D01*
G01*
G37*
G36*
G01*
X73453000Y-76987500D02*
X72017000Y-76987500D01*
G75*
G02*
X71935000Y-76905500I0J82000D01*
G01*
X71935000Y-76249500D01*
G75*
G02*
X72017000Y-76167500I82000J0D01*
G01*
X73453000Y-76167500D01*
G75*
G02*
X73535000Y-76249500I0J-82000D01*
G01*
X73535000Y-76905500D01*
G75*
G02*
X73453000Y-76987500I-82000J0D01*
G01*
G37*
G36*
G01*
X73453000Y-78487500D02*
X72017000Y-78487500D01*
G75*
G02*
X71935000Y-78405500I0J82000D01*
G01*
X71935000Y-77749500D01*
G75*
G02*
X72017000Y-77667500I82000J0D01*
G01*
X73453000Y-77667500D01*
G75*
G02*
X73535000Y-77749500I0J-82000D01*
G01*
X73535000Y-78405500D01*
G75*
G02*
X73453000Y-78487500I-82000J0D01*
G01*
G37*
G36*
G01*
X78653000Y-76987500D02*
X77217000Y-76987500D01*
G75*
G02*
X77135000Y-76905500I0J82000D01*
G01*
X77135000Y-76249500D01*
G75*
G02*
X77217000Y-76167500I82000J0D01*
G01*
X78653000Y-76167500D01*
G75*
G02*
X78735000Y-76249500I0J-82000D01*
G01*
X78735000Y-76905500D01*
G75*
G02*
X78653000Y-76987500I-82000J0D01*
G01*
G37*
G36*
G01*
X78653000Y-78487500D02*
X77217000Y-78487500D01*
G75*
G02*
X77135000Y-78405500I0J82000D01*
G01*
X77135000Y-77749500D01*
G75*
G02*
X77217000Y-77667500I82000J0D01*
G01*
X78653000Y-77667500D01*
G75*
G02*
X78735000Y-77749500I0J-82000D01*
G01*
X78735000Y-78405500D01*
G75*
G02*
X78653000Y-78487500I-82000J0D01*
G01*
G37*
G36*
G01*
X92503000Y-76987500D02*
X91067000Y-76987500D01*
G75*
G02*
X90985000Y-76905500I0J82000D01*
G01*
X90985000Y-76249500D01*
G75*
G02*
X91067000Y-76167500I82000J0D01*
G01*
X92503000Y-76167500D01*
G75*
G02*
X92585000Y-76249500I0J-82000D01*
G01*
X92585000Y-76905500D01*
G75*
G02*
X92503000Y-76987500I-82000J0D01*
G01*
G37*
G36*
G01*
X92503000Y-78487500D02*
X91067000Y-78487500D01*
G75*
G02*
X90985000Y-78405500I0J82000D01*
G01*
X90985000Y-77749500D01*
G75*
G02*
X91067000Y-77667500I82000J0D01*
G01*
X92503000Y-77667500D01*
G75*
G02*
X92585000Y-77749500I0J-82000D01*
G01*
X92585000Y-78405500D01*
G75*
G02*
X92503000Y-78487500I-82000J0D01*
G01*
G37*
G36*
G01*
X97703000Y-76987500D02*
X96267000Y-76987500D01*
G75*
G02*
X96185000Y-76905500I0J82000D01*
G01*
X96185000Y-76249500D01*
G75*
G02*
X96267000Y-76167500I82000J0D01*
G01*
X97703000Y-76167500D01*
G75*
G02*
X97785000Y-76249500I0J-82000D01*
G01*
X97785000Y-76905500D01*
G75*
G02*
X97703000Y-76987500I-82000J0D01*
G01*
G37*
G36*
G01*
X97703000Y-78487500D02*
X96267000Y-78487500D01*
G75*
G02*
X96185000Y-78405500I0J82000D01*
G01*
X96185000Y-77749500D01*
G75*
G02*
X96267000Y-77667500I82000J0D01*
G01*
X97703000Y-77667500D01*
G75*
G02*
X97785000Y-77749500I0J-82000D01*
G01*
X97785000Y-78405500D01*
G75*
G02*
X97703000Y-78487500I-82000J0D01*
G01*
G37*
G36*
G01*
X111553000Y-76987500D02*
X110117000Y-76987500D01*
G75*
G02*
X110035000Y-76905500I0J82000D01*
G01*
X110035000Y-76249500D01*
G75*
G02*
X110117000Y-76167500I82000J0D01*
G01*
X111553000Y-76167500D01*
G75*
G02*
X111635000Y-76249500I0J-82000D01*
G01*
X111635000Y-76905500D01*
G75*
G02*
X111553000Y-76987500I-82000J0D01*
G01*
G37*
G36*
G01*
X111553000Y-78487500D02*
X110117000Y-78487500D01*
G75*
G02*
X110035000Y-78405500I0J82000D01*
G01*
X110035000Y-77749500D01*
G75*
G02*
X110117000Y-77667500I82000J0D01*
G01*
X111553000Y-77667500D01*
G75*
G02*
X111635000Y-77749500I0J-82000D01*
G01*
X111635000Y-78405500D01*
G75*
G02*
X111553000Y-78487500I-82000J0D01*
G01*
G37*
G36*
G01*
X116753000Y-76987500D02*
X115317000Y-76987500D01*
G75*
G02*
X115235000Y-76905500I0J82000D01*
G01*
X115235000Y-76249500D01*
G75*
G02*
X115317000Y-76167500I82000J0D01*
G01*
X116753000Y-76167500D01*
G75*
G02*
X116835000Y-76249500I0J-82000D01*
G01*
X116835000Y-76905500D01*
G75*
G02*
X116753000Y-76987500I-82000J0D01*
G01*
G37*
G36*
G01*
X116753000Y-78487500D02*
X115317000Y-78487500D01*
G75*
G02*
X115235000Y-78405500I0J82000D01*
G01*
X115235000Y-77749500D01*
G75*
G02*
X115317000Y-77667500I82000J0D01*
G01*
X116753000Y-77667500D01*
G75*
G02*
X116835000Y-77749500I0J-82000D01*
G01*
X116835000Y-78405500D01*
G75*
G02*
X116753000Y-78487500I-82000J0D01*
G01*
G37*
G36*
G01*
X130618000Y-76990000D02*
X129182000Y-76990000D01*
G75*
G02*
X129100000Y-76908000I0J82000D01*
G01*
X129100000Y-76252000D01*
G75*
G02*
X129182000Y-76170000I82000J0D01*
G01*
X130618000Y-76170000D01*
G75*
G02*
X130700000Y-76252000I0J-82000D01*
G01*
X130700000Y-76908000D01*
G75*
G02*
X130618000Y-76990000I-82000J0D01*
G01*
G37*
G36*
G01*
X130618000Y-78490000D02*
X129182000Y-78490000D01*
G75*
G02*
X129100000Y-78408000I0J82000D01*
G01*
X129100000Y-77752000D01*
G75*
G02*
X129182000Y-77670000I82000J0D01*
G01*
X130618000Y-77670000D01*
G75*
G02*
X130700000Y-77752000I0J-82000D01*
G01*
X130700000Y-78408000D01*
G75*
G02*
X130618000Y-78490000I-82000J0D01*
G01*
G37*
G36*
G01*
X135818000Y-76990000D02*
X134382000Y-76990000D01*
G75*
G02*
X134300000Y-76908000I0J82000D01*
G01*
X134300000Y-76252000D01*
G75*
G02*
X134382000Y-76170000I82000J0D01*
G01*
X135818000Y-76170000D01*
G75*
G02*
X135900000Y-76252000I0J-82000D01*
G01*
X135900000Y-76908000D01*
G75*
G02*
X135818000Y-76990000I-82000J0D01*
G01*
G37*
G36*
G01*
X135818000Y-78490000D02*
X134382000Y-78490000D01*
G75*
G02*
X134300000Y-78408000I0J82000D01*
G01*
X134300000Y-77752000D01*
G75*
G02*
X134382000Y-77670000I82000J0D01*
G01*
X135818000Y-77670000D01*
G75*
G02*
X135900000Y-77752000I0J-82000D01*
G01*
X135900000Y-78408000D01*
G75*
G02*
X135818000Y-78490000I-82000J0D01*
G01*
G37*
G36*
G01*
X73453000Y-100800000D02*
X72017000Y-100800000D01*
G75*
G02*
X71935000Y-100718000I0J82000D01*
G01*
X71935000Y-100062000D01*
G75*
G02*
X72017000Y-99980000I82000J0D01*
G01*
X73453000Y-99980000D01*
G75*
G02*
X73535000Y-100062000I0J-82000D01*
G01*
X73535000Y-100718000D01*
G75*
G02*
X73453000Y-100800000I-82000J0D01*
G01*
G37*
G36*
G01*
X73453000Y-102300000D02*
X72017000Y-102300000D01*
G75*
G02*
X71935000Y-102218000I0J82000D01*
G01*
X71935000Y-101562000D01*
G75*
G02*
X72017000Y-101480000I82000J0D01*
G01*
X73453000Y-101480000D01*
G75*
G02*
X73535000Y-101562000I0J-82000D01*
G01*
X73535000Y-102218000D01*
G75*
G02*
X73453000Y-102300000I-82000J0D01*
G01*
G37*
G36*
G01*
X78653000Y-100800000D02*
X77217000Y-100800000D01*
G75*
G02*
X77135000Y-100718000I0J82000D01*
G01*
X77135000Y-100062000D01*
G75*
G02*
X77217000Y-99980000I82000J0D01*
G01*
X78653000Y-99980000D01*
G75*
G02*
X78735000Y-100062000I0J-82000D01*
G01*
X78735000Y-100718000D01*
G75*
G02*
X78653000Y-100800000I-82000J0D01*
G01*
G37*
G36*
G01*
X78653000Y-102300000D02*
X77217000Y-102300000D01*
G75*
G02*
X77135000Y-102218000I0J82000D01*
G01*
X77135000Y-101562000D01*
G75*
G02*
X77217000Y-101480000I82000J0D01*
G01*
X78653000Y-101480000D01*
G75*
G02*
X78735000Y-101562000I0J-82000D01*
G01*
X78735000Y-102218000D01*
G75*
G02*
X78653000Y-102300000I-82000J0D01*
G01*
G37*
G36*
G01*
X111568000Y-100790000D02*
X110132000Y-100790000D01*
G75*
G02*
X110050000Y-100708000I0J82000D01*
G01*
X110050000Y-100052000D01*
G75*
G02*
X110132000Y-99970000I82000J0D01*
G01*
X111568000Y-99970000D01*
G75*
G02*
X111650000Y-100052000I0J-82000D01*
G01*
X111650000Y-100708000D01*
G75*
G02*
X111568000Y-100790000I-82000J0D01*
G01*
G37*
G36*
G01*
X111568000Y-102290000D02*
X110132000Y-102290000D01*
G75*
G02*
X110050000Y-102208000I0J82000D01*
G01*
X110050000Y-101552000D01*
G75*
G02*
X110132000Y-101470000I82000J0D01*
G01*
X111568000Y-101470000D01*
G75*
G02*
X111650000Y-101552000I0J-82000D01*
G01*
X111650000Y-102208000D01*
G75*
G02*
X111568000Y-102290000I-82000J0D01*
G01*
G37*
G36*
G01*
X116768000Y-100790000D02*
X115332000Y-100790000D01*
G75*
G02*
X115250000Y-100708000I0J82000D01*
G01*
X115250000Y-100052000D01*
G75*
G02*
X115332000Y-99970000I82000J0D01*
G01*
X116768000Y-99970000D01*
G75*
G02*
X116850000Y-100052000I0J-82000D01*
G01*
X116850000Y-100708000D01*
G75*
G02*
X116768000Y-100790000I-82000J0D01*
G01*
G37*
G36*
G01*
X116768000Y-102290000D02*
X115332000Y-102290000D01*
G75*
G02*
X115250000Y-102208000I0J82000D01*
G01*
X115250000Y-101552000D01*
G75*
G02*
X115332000Y-101470000I82000J0D01*
G01*
X116768000Y-101470000D01*
G75*
G02*
X116850000Y-101552000I0J-82000D01*
G01*
X116850000Y-102208000D01*
G75*
G02*
X116768000Y-102290000I-82000J0D01*
G01*
G37*
G36*
G01*
X130618000Y-100790000D02*
X129182000Y-100790000D01*
G75*
G02*
X129100000Y-100708000I0J82000D01*
G01*
X129100000Y-100052000D01*
G75*
G02*
X129182000Y-99970000I82000J0D01*
G01*
X130618000Y-99970000D01*
G75*
G02*
X130700000Y-100052000I0J-82000D01*
G01*
X130700000Y-100708000D01*
G75*
G02*
X130618000Y-100790000I-82000J0D01*
G01*
G37*
G36*
G01*
X130618000Y-102290000D02*
X129182000Y-102290000D01*
G75*
G02*
X129100000Y-102208000I0J82000D01*
G01*
X129100000Y-101552000D01*
G75*
G02*
X129182000Y-101470000I82000J0D01*
G01*
X130618000Y-101470000D01*
G75*
G02*
X130700000Y-101552000I0J-82000D01*
G01*
X130700000Y-102208000D01*
G75*
G02*
X130618000Y-102290000I-82000J0D01*
G01*
G37*
G36*
G01*
X135818000Y-100790000D02*
X134382000Y-100790000D01*
G75*
G02*
X134300000Y-100708000I0J82000D01*
G01*
X134300000Y-100052000D01*
G75*
G02*
X134382000Y-99970000I82000J0D01*
G01*
X135818000Y-99970000D01*
G75*
G02*
X135900000Y-100052000I0J-82000D01*
G01*
X135900000Y-100708000D01*
G75*
G02*
X135818000Y-100790000I-82000J0D01*
G01*
G37*
G36*
G01*
X135818000Y-102290000D02*
X134382000Y-102290000D01*
G75*
G02*
X134300000Y-102208000I0J82000D01*
G01*
X134300000Y-101552000D01*
G75*
G02*
X134382000Y-101470000I82000J0D01*
G01*
X135818000Y-101470000D01*
G75*
G02*
X135900000Y-101552000I0J-82000D01*
G01*
X135900000Y-102208000D01*
G75*
G02*
X135818000Y-102290000I-82000J0D01*
G01*
G37*
G36*
G01*
X92518000Y-100790000D02*
X91082000Y-100790000D01*
G75*
G02*
X91000000Y-100708000I0J82000D01*
G01*
X91000000Y-100052000D01*
G75*
G02*
X91082000Y-99970000I82000J0D01*
G01*
X92518000Y-99970000D01*
G75*
G02*
X92600000Y-100052000I0J-82000D01*
G01*
X92600000Y-100708000D01*
G75*
G02*
X92518000Y-100790000I-82000J0D01*
G01*
G37*
G36*
G01*
X92518000Y-102290000D02*
X91082000Y-102290000D01*
G75*
G02*
X91000000Y-102208000I0J82000D01*
G01*
X91000000Y-101552000D01*
G75*
G02*
X91082000Y-101470000I82000J0D01*
G01*
X92518000Y-101470000D01*
G75*
G02*
X92600000Y-101552000I0J-82000D01*
G01*
X92600000Y-102208000D01*
G75*
G02*
X92518000Y-102290000I-82000J0D01*
G01*
G37*
G36*
G01*
X97718000Y-100790000D02*
X96282000Y-100790000D01*
G75*
G02*
X96200000Y-100708000I0J82000D01*
G01*
X96200000Y-100052000D01*
G75*
G02*
X96282000Y-99970000I82000J0D01*
G01*
X97718000Y-99970000D01*
G75*
G02*
X97800000Y-100052000I0J-82000D01*
G01*
X97800000Y-100708000D01*
G75*
G02*
X97718000Y-100790000I-82000J0D01*
G01*
G37*
G36*
G01*
X97718000Y-102290000D02*
X96282000Y-102290000D01*
G75*
G02*
X96200000Y-102208000I0J82000D01*
G01*
X96200000Y-101552000D01*
G75*
G02*
X96282000Y-101470000I82000J0D01*
G01*
X97718000Y-101470000D01*
G75*
G02*
X97800000Y-101552000I0J-82000D01*
G01*
X97800000Y-102208000D01*
G75*
G02*
X97718000Y-102290000I-82000J0D01*
G01*
G37*
M02*
