M48
; DRILL file {KiCad (5.1.10)-1} date 11/22/21 08:37:43
; FORMAT={-:-/ absolute / metric / decimal}
; #@! TF.CreationDate,2021-11-22T08:37:43+00:00
; #@! TF.GenerationSoftware,Kicad,Pcbnew,(5.1.10)-1
; #@! TF.FileFunction,Plated,1,2,PTH
FMAT,2
METRIC
T1C0.400
T2C0.800
T3C1.000
T4C1.020
T5C1.470
T6C2.000
T7C2.200
%
G90
G05
T1
X87.75Y-52.76
X88.82Y-100.57
X100.03Y-52.56
X102.73Y-76.79
X103.61Y-100.36
X121.65Y-52.5
X122.02Y-76.47
X122.25Y-100.36
X137.055Y-54.265
X139.3Y-100.8
X140.55Y-56.91
T2
X83.86Y-41.315
X83.86Y-48.935
X83.86Y-65.127
X83.86Y-72.748
X83.86Y-88.94
X83.86Y-96.56
X102.91Y-41.315
X102.91Y-48.935
X102.91Y-65.127
X102.91Y-72.748
X102.91Y-88.94
X102.91Y-96.56
X121.96Y-41.315
X121.96Y-48.935
X121.96Y-65.127
X121.96Y-72.748
X121.96Y-88.94
X121.96Y-96.56
X141.01Y-41.315
X141.01Y-48.935
X141.01Y-65.528
X141.01Y-73.147
X141.01Y-88.94
X141.01Y-96.56
X147.5Y-92.7
X147.5Y-100.32
T3
X151.4Y-96.8
X151.4Y-99.3
X151.4Y-101.8
X165.9Y-96.8
X165.9Y-101.8
T4
X147.21Y-40.27
X147.21Y-42.81
X147.21Y-45.35
X147.21Y-47.89
X147.21Y-50.43
X147.21Y-52.97
X147.21Y-55.51
X147.21Y-58.05
X147.21Y-60.59
X147.21Y-63.13
X147.21Y-65.67
X147.21Y-68.21
X147.21Y-70.75
X147.21Y-73.29
X147.21Y-75.83
X147.21Y-78.37
X147.21Y-80.91
X147.21Y-83.45
X147.21Y-85.99
X147.21Y-88.53
X153.56Y-88.3
X156.1Y-88.3
X158.64Y-88.3
X164.99Y-40.27
X164.99Y-42.81
X164.99Y-45.35
X164.99Y-47.89
X164.99Y-50.43
X164.99Y-52.97
X164.99Y-55.51
X164.99Y-58.05
X164.99Y-60.59
X164.99Y-63.13
X164.99Y-65.67
X164.99Y-68.21
X164.99Y-70.75
X164.99Y-73.29
X164.99Y-75.83
X164.99Y-78.37
X164.99Y-80.91
X164.99Y-83.45
X164.99Y-85.99
X164.99Y-88.53
T5
X71.525Y-45.895
X71.525Y-69.707
X71.525Y-93.52
X77.875Y-43.355
X77.875Y-67.168
X77.875Y-90.98
X90.575Y-45.895
X90.575Y-69.707
X90.575Y-93.52
X96.925Y-43.355
X96.925Y-67.168
X96.925Y-90.98
X109.625Y-45.895
X109.625Y-69.707
X109.625Y-93.52
X115.975Y-43.355
X115.975Y-67.168
X115.975Y-90.98
X128.675Y-45.895
X128.675Y-69.707
X128.675Y-93.52
X135.025Y-43.355
X135.025Y-67.168
X135.025Y-90.98
T7
X65.9Y-41.3
X65.9Y-106.0
X170.5Y-41.3
X170.5Y-106.0
T6
X158.65Y-93.7G85X159.15Y-93.7
G05
X158.65Y-104.9G85X159.15Y-104.9
G05
T0
M30
