%FSLAX45Y45*%
G04 Gerber Fmt 4.5, Leading zero omitted, Abs format (unit mm)*
G04 Created by KiCad (PCBNEW (5.1.9)-1) date 2021-06-06 12:20:09*
%MOMM*%
%LPD*%
G01*
G04 APERTURE LIST*
%TA.AperFunction,Profile*%
%ADD10C,0.100000*%
%TD*%
%ADD11C,0.200000*%
%ADD12C,0.300000*%
G04 APERTURE END LIST*
D10*
X17100000Y-3880000D02*
G75*
G02*
X17300000Y-4080000I0J-200000D01*
G01*
X17300000Y-10650000D02*
G75*
G02*
X17100000Y-10850000I-200000J0D01*
G01*
X6540000Y-10850000D02*
G75*
G02*
X6340000Y-10650000I0J200000D01*
G01*
X6340000Y-4080000D02*
X6340000Y-10650000D01*
X17100000Y-3880000D02*
X6540000Y-3880000D01*
X6340000Y-4080000D02*
G75*
G02*
X6540000Y-3880000I200000J0D01*
G01*
X17300000Y-10650000D02*
X17300000Y-4080000D01*
X6540000Y-10850000D02*
X17100000Y-10850000D01*
D11*
X7243500Y-5248000D02*
X7303500Y-5308000D01*
X7303500Y-5248000D02*
X7243500Y-5308000D01*
X7243500Y-5398000D02*
X7303500Y-5458000D01*
X7303500Y-5398000D02*
X7243500Y-5458000D01*
X7243500Y-7627750D02*
X7303500Y-7687750D01*
X7303500Y-7627750D02*
X7243500Y-7687750D01*
X7243500Y-7777750D02*
X7303500Y-7837750D01*
X7303500Y-7777750D02*
X7243500Y-7837750D01*
X7243500Y-10009000D02*
X7303500Y-10069000D01*
X7303500Y-10009000D02*
X7243500Y-10069000D01*
X7243500Y-10159000D02*
X7303500Y-10219000D01*
X7303500Y-10159000D02*
X7243500Y-10219000D01*
X7763500Y-5248000D02*
X7823500Y-5308000D01*
X7823500Y-5248000D02*
X7763500Y-5308000D01*
X7763500Y-5398000D02*
X7823500Y-5458000D01*
X7823500Y-5398000D02*
X7763500Y-5458000D01*
X7763500Y-7627750D02*
X7823500Y-7687750D01*
X7823500Y-7627750D02*
X7763500Y-7687750D01*
X7763500Y-7777750D02*
X7823500Y-7837750D01*
X7823500Y-7777750D02*
X7763500Y-7837750D01*
X7763500Y-10009000D02*
X7823500Y-10069000D01*
X7823500Y-10009000D02*
X7763500Y-10069000D01*
X7763500Y-10159000D02*
X7823500Y-10219000D01*
X7823500Y-10159000D02*
X7763500Y-10219000D01*
X9148500Y-7627750D02*
X9208500Y-7687750D01*
X9208500Y-7627750D02*
X9148500Y-7687750D01*
X9148500Y-7777750D02*
X9208500Y-7837750D01*
X9208500Y-7777750D02*
X9148500Y-7837750D01*
X9150000Y-5248000D02*
X9210000Y-5308000D01*
X9210000Y-5248000D02*
X9150000Y-5308000D01*
X9150000Y-5398000D02*
X9210000Y-5458000D01*
X9210000Y-5398000D02*
X9150000Y-5458000D01*
X9150000Y-10008000D02*
X9210000Y-10068000D01*
X9210000Y-10008000D02*
X9150000Y-10068000D01*
X9150000Y-10158000D02*
X9210000Y-10218000D01*
X9210000Y-10158000D02*
X9150000Y-10218000D01*
X9668500Y-7627750D02*
X9728500Y-7687750D01*
X9728500Y-7627750D02*
X9668500Y-7687750D01*
X9668500Y-7777750D02*
X9728500Y-7837750D01*
X9728500Y-7777750D02*
X9668500Y-7837750D01*
X9670000Y-5248000D02*
X9730000Y-5308000D01*
X9730000Y-5248000D02*
X9670000Y-5308000D01*
X9670000Y-5398000D02*
X9730000Y-5458000D01*
X9730000Y-5398000D02*
X9670000Y-5458000D01*
X9670000Y-10008000D02*
X9730000Y-10068000D01*
X9730000Y-10008000D02*
X9670000Y-10068000D01*
X9670000Y-10158000D02*
X9730000Y-10218000D01*
X9730000Y-10158000D02*
X9670000Y-10218000D01*
X11053500Y-7627750D02*
X11113500Y-7687750D01*
X11113500Y-7627750D02*
X11053500Y-7687750D01*
X11053500Y-7777750D02*
X11113500Y-7837750D01*
X11113500Y-7777750D02*
X11053500Y-7837750D01*
X11055000Y-5248000D02*
X11115000Y-5308000D01*
X11115000Y-5248000D02*
X11055000Y-5308000D01*
X11055000Y-5398000D02*
X11115000Y-5458000D01*
X11115000Y-5398000D02*
X11055000Y-5458000D01*
X11055000Y-10008000D02*
X11115000Y-10068000D01*
X11115000Y-10008000D02*
X11055000Y-10068000D01*
X11055000Y-10158000D02*
X11115000Y-10218000D01*
X11115000Y-10158000D02*
X11055000Y-10218000D01*
X11573500Y-7627750D02*
X11633500Y-7687750D01*
X11633500Y-7627750D02*
X11573500Y-7687750D01*
X11573500Y-7777750D02*
X11633500Y-7837750D01*
X11633500Y-7777750D02*
X11573500Y-7837750D01*
X11575000Y-5248000D02*
X11635000Y-5308000D01*
X11635000Y-5248000D02*
X11575000Y-5308000D01*
X11575000Y-5398000D02*
X11635000Y-5458000D01*
X11635000Y-5398000D02*
X11575000Y-5458000D01*
X11575000Y-10008000D02*
X11635000Y-10068000D01*
X11635000Y-10008000D02*
X11575000Y-10068000D01*
X11575000Y-10158000D02*
X11635000Y-10218000D01*
X11635000Y-10158000D02*
X11575000Y-10218000D01*
X12958500Y-5246500D02*
X13018500Y-5306500D01*
X13018500Y-5246500D02*
X12958500Y-5306500D01*
X12958500Y-5396500D02*
X13018500Y-5456500D01*
X13018500Y-5396500D02*
X12958500Y-5456500D01*
X12960000Y-7628000D02*
X13020000Y-7688000D01*
X13020000Y-7628000D02*
X12960000Y-7688000D01*
X12960000Y-7778000D02*
X13020000Y-7838000D01*
X13020000Y-7778000D02*
X12960000Y-7838000D01*
X12960000Y-10008000D02*
X13020000Y-10068000D01*
X13020000Y-10008000D02*
X12960000Y-10068000D01*
X12960000Y-10158000D02*
X13020000Y-10218000D01*
X13020000Y-10158000D02*
X12960000Y-10218000D01*
X13478500Y-5246500D02*
X13538500Y-5306500D01*
X13538500Y-5246500D02*
X13478500Y-5306500D01*
X13478500Y-5396500D02*
X13538500Y-5456500D01*
X13538500Y-5396500D02*
X13478500Y-5456500D01*
X13480000Y-7628000D02*
X13540000Y-7688000D01*
X13540000Y-7628000D02*
X13480000Y-7688000D01*
X13480000Y-7778000D02*
X13540000Y-7838000D01*
X13540000Y-7778000D02*
X13480000Y-7838000D01*
X13480000Y-10008000D02*
X13540000Y-10068000D01*
X13540000Y-10008000D02*
X13480000Y-10068000D01*
X13480000Y-10158000D02*
X13540000Y-10218000D01*
X13540000Y-10158000D02*
X13480000Y-10218000D01*
X8426000Y-4131500D02*
G75*
G03*
X8426000Y-4131500I-40000J0D01*
G01*
X8426000Y-4893500D02*
G75*
G03*
X8426000Y-4893500I-40000J0D01*
G01*
X8426000Y-6512750D02*
G75*
G03*
X8426000Y-6512750I-40000J0D01*
G01*
X8426000Y-7274750D02*
G75*
G03*
X8426000Y-7274750I-40000J0D01*
G01*
X8426000Y-8894000D02*
G75*
G03*
X8426000Y-8894000I-40000J0D01*
G01*
X8426000Y-9656000D02*
G75*
G03*
X8426000Y-9656000I-40000J0D01*
G01*
X10331000Y-4131500D02*
G75*
G03*
X10331000Y-4131500I-40000J0D01*
G01*
X10331000Y-4893500D02*
G75*
G03*
X10331000Y-4893500I-40000J0D01*
G01*
X10331000Y-6512750D02*
G75*
G03*
X10331000Y-6512750I-40000J0D01*
G01*
X10331000Y-7274750D02*
G75*
G03*
X10331000Y-7274750I-40000J0D01*
G01*
X10331000Y-8894000D02*
G75*
G03*
X10331000Y-8894000I-40000J0D01*
G01*
X10331000Y-9656000D02*
G75*
G03*
X10331000Y-9656000I-40000J0D01*
G01*
X12236000Y-4131500D02*
G75*
G03*
X12236000Y-4131500I-40000J0D01*
G01*
X12236000Y-4893500D02*
G75*
G03*
X12236000Y-4893500I-40000J0D01*
G01*
X12236000Y-6512750D02*
G75*
G03*
X12236000Y-6512750I-40000J0D01*
G01*
X12236000Y-7274750D02*
G75*
G03*
X12236000Y-7274750I-40000J0D01*
G01*
X12236000Y-8894000D02*
G75*
G03*
X12236000Y-8894000I-40000J0D01*
G01*
X12236000Y-9656000D02*
G75*
G03*
X12236000Y-9656000I-40000J0D01*
G01*
X14141000Y-4131500D02*
G75*
G03*
X14141000Y-4131500I-40000J0D01*
G01*
X14141000Y-4893500D02*
G75*
G03*
X14141000Y-4893500I-40000J0D01*
G01*
X14141000Y-6552750D02*
G75*
G03*
X14141000Y-6552750I-40000J0D01*
G01*
X14141000Y-7314750D02*
G75*
G03*
X14141000Y-7314750I-40000J0D01*
G01*
X14141000Y-8894000D02*
G75*
G03*
X14141000Y-8894000I-40000J0D01*
G01*
X14141000Y-9656000D02*
G75*
G03*
X14141000Y-9656000I-40000J0D01*
G01*
X14721000Y-3976000D02*
X14721000Y-4078000D01*
X14670000Y-4027000D02*
X14772000Y-4027000D01*
X14721000Y-4230000D02*
X14721000Y-4332000D01*
X14670000Y-4281000D02*
X14772000Y-4281000D01*
X14721000Y-4484000D02*
X14721000Y-4586000D01*
X14670000Y-4535000D02*
X14772000Y-4535000D01*
X14721000Y-4738000D02*
X14721000Y-4840000D01*
X14670000Y-4789000D02*
X14772000Y-4789000D01*
X14721000Y-4992000D02*
X14721000Y-5094000D01*
X14670000Y-5043000D02*
X14772000Y-5043000D01*
X14721000Y-5246000D02*
X14721000Y-5348000D01*
X14670000Y-5297000D02*
X14772000Y-5297000D01*
X14721000Y-5500000D02*
X14721000Y-5602000D01*
X14670000Y-5551000D02*
X14772000Y-5551000D01*
X14721000Y-5754000D02*
X14721000Y-5856000D01*
X14670000Y-5805000D02*
X14772000Y-5805000D01*
X14721000Y-6008000D02*
X14721000Y-6110000D01*
X14670000Y-6059000D02*
X14772000Y-6059000D01*
X14721000Y-6262000D02*
X14721000Y-6364000D01*
X14670000Y-6313000D02*
X14772000Y-6313000D01*
X14721000Y-6516000D02*
X14721000Y-6618000D01*
X14670000Y-6567000D02*
X14772000Y-6567000D01*
X14721000Y-6770000D02*
X14721000Y-6872000D01*
X14670000Y-6821000D02*
X14772000Y-6821000D01*
X14721000Y-7024000D02*
X14721000Y-7126000D01*
X14670000Y-7075000D02*
X14772000Y-7075000D01*
X14721000Y-7278000D02*
X14721000Y-7380000D01*
X14670000Y-7329000D02*
X14772000Y-7329000D01*
X14721000Y-7532000D02*
X14721000Y-7634000D01*
X14670000Y-7583000D02*
X14772000Y-7583000D01*
X14721000Y-7786000D02*
X14721000Y-7888000D01*
X14670000Y-7837000D02*
X14772000Y-7837000D01*
X14721000Y-8040000D02*
X14721000Y-8142000D01*
X14670000Y-8091000D02*
X14772000Y-8091000D01*
X14721000Y-8294000D02*
X14721000Y-8396000D01*
X14670000Y-8345000D02*
X14772000Y-8345000D01*
X14721000Y-8548000D02*
X14721000Y-8650000D01*
X14670000Y-8599000D02*
X14772000Y-8599000D01*
X14721000Y-8802000D02*
X14721000Y-8904000D01*
X14670000Y-8853000D02*
X14772000Y-8853000D01*
X15356000Y-8779000D02*
X15356000Y-8881000D01*
X15305000Y-8830000D02*
X15407000Y-8830000D01*
X15610000Y-8779000D02*
X15610000Y-8881000D01*
X15559000Y-8830000D02*
X15661000Y-8830000D01*
X15864000Y-8779000D02*
X15864000Y-8881000D01*
X15813000Y-8830000D02*
X15915000Y-8830000D01*
X16499000Y-3976000D02*
X16499000Y-4078000D01*
X16448000Y-4027000D02*
X16550000Y-4027000D01*
X16499000Y-4230000D02*
X16499000Y-4332000D01*
X16448000Y-4281000D02*
X16550000Y-4281000D01*
X16499000Y-4484000D02*
X16499000Y-4586000D01*
X16448000Y-4535000D02*
X16550000Y-4535000D01*
X16499000Y-4738000D02*
X16499000Y-4840000D01*
X16448000Y-4789000D02*
X16550000Y-4789000D01*
X16499000Y-4992000D02*
X16499000Y-5094000D01*
X16448000Y-5043000D02*
X16550000Y-5043000D01*
X16499000Y-5246000D02*
X16499000Y-5348000D01*
X16448000Y-5297000D02*
X16550000Y-5297000D01*
X16499000Y-5500000D02*
X16499000Y-5602000D01*
X16448000Y-5551000D02*
X16550000Y-5551000D01*
X16499000Y-5754000D02*
X16499000Y-5856000D01*
X16448000Y-5805000D02*
X16550000Y-5805000D01*
X16499000Y-6008000D02*
X16499000Y-6110000D01*
X16448000Y-6059000D02*
X16550000Y-6059000D01*
X16499000Y-6262000D02*
X16499000Y-6364000D01*
X16448000Y-6313000D02*
X16550000Y-6313000D01*
X16499000Y-6516000D02*
X16499000Y-6618000D01*
X16448000Y-6567000D02*
X16550000Y-6567000D01*
X16499000Y-6770000D02*
X16499000Y-6872000D01*
X16448000Y-6821000D02*
X16550000Y-6821000D01*
X16499000Y-7024000D02*
X16499000Y-7126000D01*
X16448000Y-7075000D02*
X16550000Y-7075000D01*
X16499000Y-7278000D02*
X16499000Y-7380000D01*
X16448000Y-7329000D02*
X16550000Y-7329000D01*
X16499000Y-7532000D02*
X16499000Y-7634000D01*
X16448000Y-7583000D02*
X16550000Y-7583000D01*
X16499000Y-7786000D02*
X16499000Y-7888000D01*
X16448000Y-7837000D02*
X16550000Y-7837000D01*
X16499000Y-8040000D02*
X16499000Y-8142000D01*
X16448000Y-8091000D02*
X16550000Y-8091000D01*
X16499000Y-8294000D02*
X16499000Y-8396000D01*
X16448000Y-8345000D02*
X16550000Y-8345000D01*
X16499000Y-8548000D02*
X16499000Y-8650000D01*
X16448000Y-8599000D02*
X16550000Y-8599000D01*
X16499000Y-8802000D02*
X16499000Y-8904000D01*
X16448000Y-8853000D02*
X16550000Y-8853000D01*
X7204473Y-4641473D02*
X7204473Y-4537527D01*
X7100527Y-4537527D01*
X7100527Y-4641473D01*
X7204473Y-4641473D01*
X7204473Y-7022723D02*
X7204473Y-6918777D01*
X7100527Y-6918777D01*
X7100527Y-7022723D01*
X7204473Y-7022723D01*
X7204473Y-9403973D02*
X7204473Y-9300027D01*
X7100527Y-9300027D01*
X7100527Y-9403973D01*
X7204473Y-9403973D01*
X7839473Y-4387473D02*
X7839473Y-4283527D01*
X7735527Y-4283527D01*
X7735527Y-4387473D01*
X7839473Y-4387473D01*
X7839473Y-6768723D02*
X7839473Y-6664777D01*
X7735527Y-6664777D01*
X7735527Y-6768723D01*
X7839473Y-6768723D01*
X7839473Y-9149973D02*
X7839473Y-9046027D01*
X7735527Y-9046027D01*
X7735527Y-9149973D01*
X7839473Y-9149973D01*
X9109473Y-4641473D02*
X9109473Y-4537527D01*
X9005527Y-4537527D01*
X9005527Y-4641473D01*
X9109473Y-4641473D01*
X9109473Y-7022723D02*
X9109473Y-6918777D01*
X9005527Y-6918777D01*
X9005527Y-7022723D01*
X9109473Y-7022723D01*
X9109473Y-9403973D02*
X9109473Y-9300027D01*
X9005527Y-9300027D01*
X9005527Y-9403973D01*
X9109473Y-9403973D01*
X9744473Y-4387473D02*
X9744473Y-4283527D01*
X9640527Y-4283527D01*
X9640527Y-4387473D01*
X9744473Y-4387473D01*
X9744473Y-6768723D02*
X9744473Y-6664777D01*
X9640527Y-6664777D01*
X9640527Y-6768723D01*
X9744473Y-6768723D01*
X9744473Y-9149973D02*
X9744473Y-9046027D01*
X9640527Y-9046027D01*
X9640527Y-9149973D01*
X9744473Y-9149973D01*
X11014473Y-4641473D02*
X11014473Y-4537527D01*
X10910527Y-4537527D01*
X10910527Y-4641473D01*
X11014473Y-4641473D01*
X11014473Y-7022723D02*
X11014473Y-6918777D01*
X10910527Y-6918777D01*
X10910527Y-7022723D01*
X11014473Y-7022723D01*
X11014473Y-9403973D02*
X11014473Y-9300027D01*
X10910527Y-9300027D01*
X10910527Y-9403973D01*
X11014473Y-9403973D01*
X11649473Y-4387473D02*
X11649473Y-4283527D01*
X11545527Y-4283527D01*
X11545527Y-4387473D01*
X11649473Y-4387473D01*
X11649473Y-6768723D02*
X11649473Y-6664777D01*
X11545527Y-6664777D01*
X11545527Y-6768723D01*
X11649473Y-6768723D01*
X11649473Y-9149973D02*
X11649473Y-9046027D01*
X11545527Y-9046027D01*
X11545527Y-9149973D01*
X11649473Y-9149973D01*
X12919473Y-4641473D02*
X12919473Y-4537527D01*
X12815527Y-4537527D01*
X12815527Y-4641473D01*
X12919473Y-4641473D01*
X12919473Y-7022723D02*
X12919473Y-6918777D01*
X12815527Y-6918777D01*
X12815527Y-7022723D01*
X12919473Y-7022723D01*
X12919473Y-9403973D02*
X12919473Y-9300027D01*
X12815527Y-9300027D01*
X12815527Y-9403973D01*
X12919473Y-9403973D01*
X13554473Y-4387473D02*
X13554473Y-4283527D01*
X13450527Y-4283527D01*
X13450527Y-4387473D01*
X13554473Y-4387473D01*
X13554473Y-6768723D02*
X13554473Y-6664777D01*
X13450527Y-6664777D01*
X13450527Y-6768723D01*
X13554473Y-6768723D01*
X13554473Y-9149973D02*
X13554473Y-9046027D01*
X13450527Y-9046027D01*
X13450527Y-9149973D01*
X13554473Y-9149973D01*
D12*
X6621428Y-11320714D02*
X6621428Y-11020714D01*
X6692857Y-11020714D01*
X6735714Y-11035000D01*
X6764286Y-11063572D01*
X6778571Y-11092143D01*
X6792857Y-11149286D01*
X6792857Y-11192143D01*
X6778571Y-11249286D01*
X6764286Y-11277857D01*
X6735714Y-11306429D01*
X6692857Y-11320714D01*
X6621428Y-11320714D01*
X6921428Y-11320714D02*
X6921428Y-11120714D01*
X6921428Y-11177857D02*
X6935714Y-11149286D01*
X6950000Y-11135000D01*
X6978571Y-11120714D01*
X7007143Y-11120714D01*
X7107143Y-11320714D02*
X7107143Y-11120714D01*
X7107143Y-11020714D02*
X7092857Y-11035000D01*
X7107143Y-11049286D01*
X7121428Y-11035000D01*
X7107143Y-11020714D01*
X7107143Y-11049286D01*
X7292857Y-11320714D02*
X7264286Y-11306429D01*
X7250000Y-11277857D01*
X7250000Y-11020714D01*
X7450000Y-11320714D02*
X7421428Y-11306429D01*
X7407143Y-11277857D01*
X7407143Y-11020714D01*
X7792857Y-11320714D02*
X7792857Y-11020714D01*
X7892857Y-11235000D01*
X7992857Y-11020714D01*
X7992857Y-11320714D01*
X8264286Y-11320714D02*
X8264286Y-11163572D01*
X8250000Y-11135000D01*
X8221428Y-11120714D01*
X8164286Y-11120714D01*
X8135714Y-11135000D01*
X8264286Y-11306429D02*
X8235714Y-11320714D01*
X8164286Y-11320714D01*
X8135714Y-11306429D01*
X8121428Y-11277857D01*
X8121428Y-11249286D01*
X8135714Y-11220714D01*
X8164286Y-11206429D01*
X8235714Y-11206429D01*
X8264286Y-11192143D01*
X8407143Y-11120714D02*
X8407143Y-11420714D01*
X8407143Y-11135000D02*
X8435714Y-11120714D01*
X8492857Y-11120714D01*
X8521428Y-11135000D01*
X8535714Y-11149286D01*
X8550000Y-11177857D01*
X8550000Y-11263571D01*
X8535714Y-11292143D01*
X8521428Y-11306429D01*
X8492857Y-11320714D01*
X8435714Y-11320714D01*
X8407143Y-11306429D01*
X8678571Y-11292143D02*
X8692857Y-11306429D01*
X8678571Y-11320714D01*
X8664286Y-11306429D01*
X8678571Y-11292143D01*
X8678571Y-11320714D01*
X8678571Y-11135000D02*
X8692857Y-11149286D01*
X8678571Y-11163572D01*
X8664286Y-11149286D01*
X8678571Y-11135000D01*
X8678571Y-11163572D01*
X6275000Y-11785000D02*
X6335000Y-11845000D01*
X6335000Y-11785000D02*
X6275000Y-11845000D01*
X6678571Y-11650714D02*
X6707143Y-11650714D01*
X6735714Y-11665000D01*
X6750000Y-11679286D01*
X6764286Y-11707857D01*
X6778571Y-11765000D01*
X6778571Y-11836429D01*
X6764286Y-11893571D01*
X6750000Y-11922143D01*
X6735714Y-11936429D01*
X6707143Y-11950714D01*
X6678571Y-11950714D01*
X6650000Y-11936429D01*
X6635714Y-11922143D01*
X6621428Y-11893571D01*
X6607143Y-11836429D01*
X6607143Y-11765000D01*
X6621428Y-11707857D01*
X6635714Y-11679286D01*
X6650000Y-11665000D01*
X6678571Y-11650714D01*
X6907143Y-11922143D02*
X6921428Y-11936429D01*
X6907143Y-11950714D01*
X6892857Y-11936429D01*
X6907143Y-11922143D01*
X6907143Y-11950714D01*
X7178571Y-11650714D02*
X7121428Y-11650714D01*
X7092857Y-11665000D01*
X7078571Y-11679286D01*
X7050000Y-11722143D01*
X7035714Y-11779286D01*
X7035714Y-11893571D01*
X7050000Y-11922143D01*
X7064286Y-11936429D01*
X7092857Y-11950714D01*
X7150000Y-11950714D01*
X7178571Y-11936429D01*
X7192857Y-11922143D01*
X7207143Y-11893571D01*
X7207143Y-11822143D01*
X7192857Y-11793571D01*
X7178571Y-11779286D01*
X7150000Y-11765000D01*
X7092857Y-11765000D01*
X7064286Y-11779286D01*
X7050000Y-11793571D01*
X7035714Y-11822143D01*
X7392857Y-11650714D02*
X7421428Y-11650714D01*
X7450000Y-11665000D01*
X7464286Y-11679286D01*
X7478571Y-11707857D01*
X7492857Y-11765000D01*
X7492857Y-11836429D01*
X7478571Y-11893571D01*
X7464286Y-11922143D01*
X7450000Y-11936429D01*
X7421428Y-11950714D01*
X7392857Y-11950714D01*
X7364286Y-11936429D01*
X7350000Y-11922143D01*
X7335714Y-11893571D01*
X7321428Y-11836429D01*
X7321428Y-11765000D01*
X7335714Y-11707857D01*
X7350000Y-11679286D01*
X7364286Y-11665000D01*
X7392857Y-11650714D01*
X7621428Y-11950714D02*
X7621428Y-11750714D01*
X7621428Y-11779286D02*
X7635714Y-11765000D01*
X7664286Y-11750714D01*
X7707143Y-11750714D01*
X7735714Y-11765000D01*
X7750000Y-11793571D01*
X7750000Y-11950714D01*
X7750000Y-11793571D02*
X7764286Y-11765000D01*
X7792857Y-11750714D01*
X7835714Y-11750714D01*
X7864286Y-11765000D01*
X7878571Y-11793571D01*
X7878571Y-11950714D01*
X8021428Y-11950714D02*
X8021428Y-11750714D01*
X8021428Y-11779286D02*
X8035714Y-11765000D01*
X8064286Y-11750714D01*
X8107143Y-11750714D01*
X8135714Y-11765000D01*
X8150000Y-11793571D01*
X8150000Y-11950714D01*
X8150000Y-11793571D02*
X8164286Y-11765000D01*
X8192857Y-11750714D01*
X8235714Y-11750714D01*
X8264286Y-11765000D01*
X8278571Y-11793571D01*
X8278571Y-11950714D01*
X8864286Y-11636429D02*
X8607143Y-12022143D01*
X9250000Y-11650714D02*
X9278571Y-11650714D01*
X9307143Y-11665000D01*
X9321428Y-11679286D01*
X9335714Y-11707857D01*
X9350000Y-11765000D01*
X9350000Y-11836429D01*
X9335714Y-11893571D01*
X9321428Y-11922143D01*
X9307143Y-11936429D01*
X9278571Y-11950714D01*
X9250000Y-11950714D01*
X9221428Y-11936429D01*
X9207143Y-11922143D01*
X9192857Y-11893571D01*
X9178571Y-11836429D01*
X9178571Y-11765000D01*
X9192857Y-11707857D01*
X9207143Y-11679286D01*
X9221428Y-11665000D01*
X9250000Y-11650714D01*
X9478571Y-11922143D02*
X9492857Y-11936429D01*
X9478571Y-11950714D01*
X9464286Y-11936429D01*
X9478571Y-11922143D01*
X9478571Y-11950714D01*
X9678571Y-11650714D02*
X9707143Y-11650714D01*
X9735714Y-11665000D01*
X9750000Y-11679286D01*
X9764286Y-11707857D01*
X9778571Y-11765000D01*
X9778571Y-11836429D01*
X9764286Y-11893571D01*
X9750000Y-11922143D01*
X9735714Y-11936429D01*
X9707143Y-11950714D01*
X9678571Y-11950714D01*
X9650000Y-11936429D01*
X9635714Y-11922143D01*
X9621428Y-11893571D01*
X9607143Y-11836429D01*
X9607143Y-11765000D01*
X9621428Y-11707857D01*
X9635714Y-11679286D01*
X9650000Y-11665000D01*
X9678571Y-11650714D01*
X9892857Y-11679286D02*
X9907143Y-11665000D01*
X9935714Y-11650714D01*
X10007143Y-11650714D01*
X10035714Y-11665000D01*
X10050000Y-11679286D01*
X10064286Y-11707857D01*
X10064286Y-11736429D01*
X10050000Y-11779286D01*
X9878571Y-11950714D01*
X10064286Y-11950714D01*
X10321428Y-11750714D02*
X10321428Y-11950714D01*
X10250000Y-11636429D02*
X10178571Y-11850714D01*
X10364286Y-11850714D01*
X10464286Y-11650714D02*
X10464286Y-11707857D01*
X10578571Y-11650714D02*
X10578571Y-11707857D01*
X11021428Y-12065000D02*
X11007143Y-12050714D01*
X10978571Y-12007857D01*
X10964286Y-11979286D01*
X10950000Y-11936429D01*
X10935714Y-11865000D01*
X10935714Y-11807857D01*
X10950000Y-11736429D01*
X10964286Y-11693571D01*
X10978571Y-11665000D01*
X11007143Y-11622143D01*
X11021428Y-11607857D01*
X11264286Y-11750714D02*
X11264286Y-11950714D01*
X11192857Y-11636429D02*
X11121428Y-11850714D01*
X11307143Y-11850714D01*
X11464286Y-11779286D02*
X11435714Y-11765000D01*
X11421428Y-11750714D01*
X11407143Y-11722143D01*
X11407143Y-11707857D01*
X11421428Y-11679286D01*
X11435714Y-11665000D01*
X11464286Y-11650714D01*
X11521428Y-11650714D01*
X11550000Y-11665000D01*
X11564286Y-11679286D01*
X11578571Y-11707857D01*
X11578571Y-11722143D01*
X11564286Y-11750714D01*
X11550000Y-11765000D01*
X11521428Y-11779286D01*
X11464286Y-11779286D01*
X11435714Y-11793571D01*
X11421428Y-11807857D01*
X11407143Y-11836429D01*
X11407143Y-11893571D01*
X11421428Y-11922143D01*
X11435714Y-11936429D01*
X11464286Y-11950714D01*
X11521428Y-11950714D01*
X11550000Y-11936429D01*
X11564286Y-11922143D01*
X11578571Y-11893571D01*
X11578571Y-11836429D01*
X11564286Y-11807857D01*
X11550000Y-11793571D01*
X11521428Y-11779286D01*
X11935714Y-11950714D02*
X11935714Y-11650714D01*
X12064286Y-11950714D02*
X12064286Y-11793571D01*
X12050000Y-11765000D01*
X12021428Y-11750714D01*
X11978571Y-11750714D01*
X11950000Y-11765000D01*
X11935714Y-11779286D01*
X12250000Y-11950714D02*
X12221428Y-11936429D01*
X12207143Y-11922143D01*
X12192857Y-11893571D01*
X12192857Y-11807857D01*
X12207143Y-11779286D01*
X12221428Y-11765000D01*
X12250000Y-11750714D01*
X12292857Y-11750714D01*
X12321428Y-11765000D01*
X12335714Y-11779286D01*
X12350000Y-11807857D01*
X12350000Y-11893571D01*
X12335714Y-11922143D01*
X12321428Y-11936429D01*
X12292857Y-11950714D01*
X12250000Y-11950714D01*
X12521428Y-11950714D02*
X12492857Y-11936429D01*
X12478571Y-11907857D01*
X12478571Y-11650714D01*
X12750000Y-11936429D02*
X12721428Y-11950714D01*
X12664286Y-11950714D01*
X12635714Y-11936429D01*
X12621428Y-11907857D01*
X12621428Y-11793571D01*
X12635714Y-11765000D01*
X12664286Y-11750714D01*
X12721428Y-11750714D01*
X12750000Y-11765000D01*
X12764286Y-11793571D01*
X12764286Y-11822143D01*
X12621428Y-11850714D01*
X12878571Y-11936429D02*
X12907143Y-11950714D01*
X12964286Y-11950714D01*
X12992857Y-11936429D01*
X13007143Y-11907857D01*
X13007143Y-11893571D01*
X12992857Y-11865000D01*
X12964286Y-11850714D01*
X12921428Y-11850714D01*
X12892857Y-11836429D01*
X12878571Y-11807857D01*
X12878571Y-11793571D01*
X12892857Y-11765000D01*
X12921428Y-11750714D01*
X12964286Y-11750714D01*
X12992857Y-11765000D01*
X13107143Y-12065000D02*
X13121428Y-12050714D01*
X13150000Y-12007857D01*
X13164286Y-11979286D01*
X13178571Y-11936429D01*
X13192857Y-11865000D01*
X13192857Y-11807857D01*
X13178571Y-11736429D01*
X13164286Y-11693571D01*
X13150000Y-11665000D01*
X13121428Y-11622143D01*
X13107143Y-11607857D01*
X6335000Y-12211000D02*
G75*
G03*
X6335000Y-12211000I-40000J0D01*
G01*
X6678571Y-12046714D02*
X6707143Y-12046714D01*
X6735714Y-12061000D01*
X6750000Y-12075286D01*
X6764286Y-12103857D01*
X6778571Y-12161000D01*
X6778571Y-12232429D01*
X6764286Y-12289571D01*
X6750000Y-12318143D01*
X6735714Y-12332429D01*
X6707143Y-12346714D01*
X6678571Y-12346714D01*
X6650000Y-12332429D01*
X6635714Y-12318143D01*
X6621428Y-12289571D01*
X6607143Y-12232429D01*
X6607143Y-12161000D01*
X6621428Y-12103857D01*
X6635714Y-12075286D01*
X6650000Y-12061000D01*
X6678571Y-12046714D01*
X6907143Y-12318143D02*
X6921428Y-12332429D01*
X6907143Y-12346714D01*
X6892857Y-12332429D01*
X6907143Y-12318143D01*
X6907143Y-12346714D01*
X7092857Y-12175286D02*
X7064286Y-12161000D01*
X7050000Y-12146714D01*
X7035714Y-12118143D01*
X7035714Y-12103857D01*
X7050000Y-12075286D01*
X7064286Y-12061000D01*
X7092857Y-12046714D01*
X7150000Y-12046714D01*
X7178571Y-12061000D01*
X7192857Y-12075286D01*
X7207143Y-12103857D01*
X7207143Y-12118143D01*
X7192857Y-12146714D01*
X7178571Y-12161000D01*
X7150000Y-12175286D01*
X7092857Y-12175286D01*
X7064286Y-12189571D01*
X7050000Y-12203857D01*
X7035714Y-12232429D01*
X7035714Y-12289571D01*
X7050000Y-12318143D01*
X7064286Y-12332429D01*
X7092857Y-12346714D01*
X7150000Y-12346714D01*
X7178571Y-12332429D01*
X7192857Y-12318143D01*
X7207143Y-12289571D01*
X7207143Y-12232429D01*
X7192857Y-12203857D01*
X7178571Y-12189571D01*
X7150000Y-12175286D01*
X7392857Y-12046714D02*
X7421428Y-12046714D01*
X7450000Y-12061000D01*
X7464286Y-12075286D01*
X7478571Y-12103857D01*
X7492857Y-12161000D01*
X7492857Y-12232429D01*
X7478571Y-12289571D01*
X7464286Y-12318143D01*
X7450000Y-12332429D01*
X7421428Y-12346714D01*
X7392857Y-12346714D01*
X7364286Y-12332429D01*
X7350000Y-12318143D01*
X7335714Y-12289571D01*
X7321428Y-12232429D01*
X7321428Y-12161000D01*
X7335714Y-12103857D01*
X7350000Y-12075286D01*
X7364286Y-12061000D01*
X7392857Y-12046714D01*
X7621428Y-12346714D02*
X7621428Y-12146714D01*
X7621428Y-12175286D02*
X7635714Y-12161000D01*
X7664286Y-12146714D01*
X7707143Y-12146714D01*
X7735714Y-12161000D01*
X7750000Y-12189571D01*
X7750000Y-12346714D01*
X7750000Y-12189571D02*
X7764286Y-12161000D01*
X7792857Y-12146714D01*
X7835714Y-12146714D01*
X7864286Y-12161000D01*
X7878571Y-12189571D01*
X7878571Y-12346714D01*
X8021428Y-12346714D02*
X8021428Y-12146714D01*
X8021428Y-12175286D02*
X8035714Y-12161000D01*
X8064286Y-12146714D01*
X8107143Y-12146714D01*
X8135714Y-12161000D01*
X8150000Y-12189571D01*
X8150000Y-12346714D01*
X8150000Y-12189571D02*
X8164286Y-12161000D01*
X8192857Y-12146714D01*
X8235714Y-12146714D01*
X8264286Y-12161000D01*
X8278571Y-12189571D01*
X8278571Y-12346714D01*
X8864286Y-12032429D02*
X8607143Y-12418143D01*
X9250000Y-12046714D02*
X9278571Y-12046714D01*
X9307143Y-12061000D01*
X9321428Y-12075286D01*
X9335714Y-12103857D01*
X9350000Y-12161000D01*
X9350000Y-12232429D01*
X9335714Y-12289571D01*
X9321428Y-12318143D01*
X9307143Y-12332429D01*
X9278571Y-12346714D01*
X9250000Y-12346714D01*
X9221428Y-12332429D01*
X9207143Y-12318143D01*
X9192857Y-12289571D01*
X9178571Y-12232429D01*
X9178571Y-12161000D01*
X9192857Y-12103857D01*
X9207143Y-12075286D01*
X9221428Y-12061000D01*
X9250000Y-12046714D01*
X9478571Y-12318143D02*
X9492857Y-12332429D01*
X9478571Y-12346714D01*
X9464286Y-12332429D01*
X9478571Y-12318143D01*
X9478571Y-12346714D01*
X9678571Y-12046714D02*
X9707143Y-12046714D01*
X9735714Y-12061000D01*
X9750000Y-12075286D01*
X9764286Y-12103857D01*
X9778571Y-12161000D01*
X9778571Y-12232429D01*
X9764286Y-12289571D01*
X9750000Y-12318143D01*
X9735714Y-12332429D01*
X9707143Y-12346714D01*
X9678571Y-12346714D01*
X9650000Y-12332429D01*
X9635714Y-12318143D01*
X9621428Y-12289571D01*
X9607143Y-12232429D01*
X9607143Y-12161000D01*
X9621428Y-12103857D01*
X9635714Y-12075286D01*
X9650000Y-12061000D01*
X9678571Y-12046714D01*
X9878571Y-12046714D02*
X10064286Y-12046714D01*
X9964286Y-12161000D01*
X10007143Y-12161000D01*
X10035714Y-12175286D01*
X10050000Y-12189571D01*
X10064286Y-12218143D01*
X10064286Y-12289571D01*
X10050000Y-12318143D01*
X10035714Y-12332429D01*
X10007143Y-12346714D01*
X9921428Y-12346714D01*
X9892857Y-12332429D01*
X9878571Y-12318143D01*
X10350000Y-12346714D02*
X10178571Y-12346714D01*
X10264286Y-12346714D02*
X10264286Y-12046714D01*
X10235714Y-12089571D01*
X10207143Y-12118143D01*
X10178571Y-12132429D01*
X10464286Y-12046714D02*
X10464286Y-12103857D01*
X10578571Y-12046714D02*
X10578571Y-12103857D01*
X11021428Y-12461000D02*
X11007143Y-12446714D01*
X10978571Y-12403857D01*
X10964286Y-12375286D01*
X10950000Y-12332429D01*
X10935714Y-12261000D01*
X10935714Y-12203857D01*
X10950000Y-12132429D01*
X10964286Y-12089571D01*
X10978571Y-12061000D01*
X11007143Y-12018143D01*
X11021428Y-12003857D01*
X11121428Y-12075286D02*
X11135714Y-12061000D01*
X11164286Y-12046714D01*
X11235714Y-12046714D01*
X11264286Y-12061000D01*
X11278571Y-12075286D01*
X11292857Y-12103857D01*
X11292857Y-12132429D01*
X11278571Y-12175286D01*
X11107143Y-12346714D01*
X11292857Y-12346714D01*
X11550000Y-12146714D02*
X11550000Y-12346714D01*
X11478571Y-12032429D02*
X11407143Y-12246714D01*
X11592857Y-12246714D01*
X11935714Y-12346714D02*
X11935714Y-12046714D01*
X12064286Y-12346714D02*
X12064286Y-12189571D01*
X12050000Y-12161000D01*
X12021428Y-12146714D01*
X11978571Y-12146714D01*
X11950000Y-12161000D01*
X11935714Y-12175286D01*
X12250000Y-12346714D02*
X12221428Y-12332429D01*
X12207143Y-12318143D01*
X12192857Y-12289571D01*
X12192857Y-12203857D01*
X12207143Y-12175286D01*
X12221428Y-12161000D01*
X12250000Y-12146714D01*
X12292857Y-12146714D01*
X12321428Y-12161000D01*
X12335714Y-12175286D01*
X12350000Y-12203857D01*
X12350000Y-12289571D01*
X12335714Y-12318143D01*
X12321428Y-12332429D01*
X12292857Y-12346714D01*
X12250000Y-12346714D01*
X12521428Y-12346714D02*
X12492857Y-12332429D01*
X12478571Y-12303857D01*
X12478571Y-12046714D01*
X12750000Y-12332429D02*
X12721428Y-12346714D01*
X12664286Y-12346714D01*
X12635714Y-12332429D01*
X12621428Y-12303857D01*
X12621428Y-12189571D01*
X12635714Y-12161000D01*
X12664286Y-12146714D01*
X12721428Y-12146714D01*
X12750000Y-12161000D01*
X12764286Y-12189571D01*
X12764286Y-12218143D01*
X12621428Y-12246714D01*
X12878571Y-12332429D02*
X12907143Y-12346714D01*
X12964286Y-12346714D01*
X12992857Y-12332429D01*
X13007143Y-12303857D01*
X13007143Y-12289571D01*
X12992857Y-12261000D01*
X12964286Y-12246714D01*
X12921428Y-12246714D01*
X12892857Y-12232429D01*
X12878571Y-12203857D01*
X12878571Y-12189571D01*
X12892857Y-12161000D01*
X12921428Y-12146714D01*
X12964286Y-12146714D01*
X12992857Y-12161000D01*
X13107143Y-12461000D02*
X13121428Y-12446714D01*
X13150000Y-12403857D01*
X13164286Y-12375286D01*
X13178571Y-12332429D01*
X13192857Y-12261000D01*
X13192857Y-12203857D01*
X13178571Y-12132429D01*
X13164286Y-12089571D01*
X13150000Y-12061000D01*
X13121428Y-12018143D01*
X13107143Y-12003857D01*
X6284000Y-12556000D02*
X6284000Y-12658000D01*
X6233000Y-12607000D02*
X6335000Y-12607000D01*
X6778571Y-12742714D02*
X6607143Y-12742714D01*
X6692857Y-12742714D02*
X6692857Y-12442714D01*
X6664286Y-12485571D01*
X6635714Y-12514143D01*
X6607143Y-12528429D01*
X6907143Y-12714143D02*
X6921428Y-12728429D01*
X6907143Y-12742714D01*
X6892857Y-12728429D01*
X6907143Y-12714143D01*
X6907143Y-12742714D01*
X7107143Y-12442714D02*
X7135714Y-12442714D01*
X7164286Y-12457000D01*
X7178571Y-12471286D01*
X7192857Y-12499857D01*
X7207143Y-12557000D01*
X7207143Y-12628429D01*
X7192857Y-12685571D01*
X7178571Y-12714143D01*
X7164286Y-12728429D01*
X7135714Y-12742714D01*
X7107143Y-12742714D01*
X7078571Y-12728429D01*
X7064286Y-12714143D01*
X7050000Y-12685571D01*
X7035714Y-12628429D01*
X7035714Y-12557000D01*
X7050000Y-12499857D01*
X7064286Y-12471286D01*
X7078571Y-12457000D01*
X7107143Y-12442714D01*
X7321428Y-12471286D02*
X7335714Y-12457000D01*
X7364286Y-12442714D01*
X7435714Y-12442714D01*
X7464286Y-12457000D01*
X7478571Y-12471286D01*
X7492857Y-12499857D01*
X7492857Y-12528429D01*
X7478571Y-12571286D01*
X7307143Y-12742714D01*
X7492857Y-12742714D01*
X7621428Y-12742714D02*
X7621428Y-12542714D01*
X7621428Y-12571286D02*
X7635714Y-12557000D01*
X7664286Y-12542714D01*
X7707143Y-12542714D01*
X7735714Y-12557000D01*
X7750000Y-12585571D01*
X7750000Y-12742714D01*
X7750000Y-12585571D02*
X7764286Y-12557000D01*
X7792857Y-12542714D01*
X7835714Y-12542714D01*
X7864286Y-12557000D01*
X7878571Y-12585571D01*
X7878571Y-12742714D01*
X8021428Y-12742714D02*
X8021428Y-12542714D01*
X8021428Y-12571286D02*
X8035714Y-12557000D01*
X8064286Y-12542714D01*
X8107143Y-12542714D01*
X8135714Y-12557000D01*
X8150000Y-12585571D01*
X8150000Y-12742714D01*
X8150000Y-12585571D02*
X8164286Y-12557000D01*
X8192857Y-12542714D01*
X8235714Y-12542714D01*
X8264286Y-12557000D01*
X8278571Y-12585571D01*
X8278571Y-12742714D01*
X8864286Y-12428429D02*
X8607143Y-12814143D01*
X9250000Y-12442714D02*
X9278571Y-12442714D01*
X9307143Y-12457000D01*
X9321428Y-12471286D01*
X9335714Y-12499857D01*
X9350000Y-12557000D01*
X9350000Y-12628429D01*
X9335714Y-12685571D01*
X9321428Y-12714143D01*
X9307143Y-12728429D01*
X9278571Y-12742714D01*
X9250000Y-12742714D01*
X9221428Y-12728429D01*
X9207143Y-12714143D01*
X9192857Y-12685571D01*
X9178571Y-12628429D01*
X9178571Y-12557000D01*
X9192857Y-12499857D01*
X9207143Y-12471286D01*
X9221428Y-12457000D01*
X9250000Y-12442714D01*
X9478571Y-12714143D02*
X9492857Y-12728429D01*
X9478571Y-12742714D01*
X9464286Y-12728429D01*
X9478571Y-12714143D01*
X9478571Y-12742714D01*
X9678571Y-12442714D02*
X9707143Y-12442714D01*
X9735714Y-12457000D01*
X9750000Y-12471286D01*
X9764286Y-12499857D01*
X9778571Y-12557000D01*
X9778571Y-12628429D01*
X9764286Y-12685571D01*
X9750000Y-12714143D01*
X9735714Y-12728429D01*
X9707143Y-12742714D01*
X9678571Y-12742714D01*
X9650000Y-12728429D01*
X9635714Y-12714143D01*
X9621428Y-12685571D01*
X9607143Y-12628429D01*
X9607143Y-12557000D01*
X9621428Y-12499857D01*
X9635714Y-12471286D01*
X9650000Y-12457000D01*
X9678571Y-12442714D01*
X10035714Y-12542714D02*
X10035714Y-12742714D01*
X9964286Y-12428429D02*
X9892857Y-12642714D01*
X10078571Y-12642714D01*
X10250000Y-12442714D02*
X10278571Y-12442714D01*
X10307143Y-12457000D01*
X10321428Y-12471286D01*
X10335714Y-12499857D01*
X10350000Y-12557000D01*
X10350000Y-12628429D01*
X10335714Y-12685571D01*
X10321428Y-12714143D01*
X10307143Y-12728429D01*
X10278571Y-12742714D01*
X10250000Y-12742714D01*
X10221428Y-12728429D01*
X10207143Y-12714143D01*
X10192857Y-12685571D01*
X10178571Y-12628429D01*
X10178571Y-12557000D01*
X10192857Y-12499857D01*
X10207143Y-12471286D01*
X10221428Y-12457000D01*
X10250000Y-12442714D01*
X10464286Y-12442714D02*
X10464286Y-12499857D01*
X10578571Y-12442714D02*
X10578571Y-12499857D01*
X11021428Y-12857000D02*
X11007143Y-12842714D01*
X10978571Y-12799857D01*
X10964286Y-12771286D01*
X10950000Y-12728429D01*
X10935714Y-12657000D01*
X10935714Y-12599857D01*
X10950000Y-12528429D01*
X10964286Y-12485571D01*
X10978571Y-12457000D01*
X11007143Y-12414143D01*
X11021428Y-12399857D01*
X11264286Y-12542714D02*
X11264286Y-12742714D01*
X11192857Y-12428429D02*
X11121428Y-12642714D01*
X11307143Y-12642714D01*
X11392857Y-12442714D02*
X11578571Y-12442714D01*
X11478571Y-12557000D01*
X11521428Y-12557000D01*
X11550000Y-12571286D01*
X11564286Y-12585571D01*
X11578571Y-12614143D01*
X11578571Y-12685571D01*
X11564286Y-12714143D01*
X11550000Y-12728429D01*
X11521428Y-12742714D01*
X11435714Y-12742714D01*
X11407143Y-12728429D01*
X11392857Y-12714143D01*
X11935714Y-12742714D02*
X11935714Y-12442714D01*
X12064286Y-12742714D02*
X12064286Y-12585571D01*
X12050000Y-12557000D01*
X12021428Y-12542714D01*
X11978571Y-12542714D01*
X11950000Y-12557000D01*
X11935714Y-12571286D01*
X12250000Y-12742714D02*
X12221428Y-12728429D01*
X12207143Y-12714143D01*
X12192857Y-12685571D01*
X12192857Y-12599857D01*
X12207143Y-12571286D01*
X12221428Y-12557000D01*
X12250000Y-12542714D01*
X12292857Y-12542714D01*
X12321428Y-12557000D01*
X12335714Y-12571286D01*
X12350000Y-12599857D01*
X12350000Y-12685571D01*
X12335714Y-12714143D01*
X12321428Y-12728429D01*
X12292857Y-12742714D01*
X12250000Y-12742714D01*
X12521428Y-12742714D02*
X12492857Y-12728429D01*
X12478571Y-12699857D01*
X12478571Y-12442714D01*
X12750000Y-12728429D02*
X12721428Y-12742714D01*
X12664286Y-12742714D01*
X12635714Y-12728429D01*
X12621428Y-12699857D01*
X12621428Y-12585571D01*
X12635714Y-12557000D01*
X12664286Y-12542714D01*
X12721428Y-12542714D01*
X12750000Y-12557000D01*
X12764286Y-12585571D01*
X12764286Y-12614143D01*
X12621428Y-12642714D01*
X12878571Y-12728429D02*
X12907143Y-12742714D01*
X12964286Y-12742714D01*
X12992857Y-12728429D01*
X13007143Y-12699857D01*
X13007143Y-12685571D01*
X12992857Y-12657000D01*
X12964286Y-12642714D01*
X12921428Y-12642714D01*
X12892857Y-12628429D01*
X12878571Y-12599857D01*
X12878571Y-12585571D01*
X12892857Y-12557000D01*
X12921428Y-12542714D01*
X12964286Y-12542714D01*
X12992857Y-12557000D01*
X13107143Y-12857000D02*
X13121428Y-12842714D01*
X13150000Y-12799857D01*
X13164286Y-12771286D01*
X13178571Y-12728429D01*
X13192857Y-12657000D01*
X13192857Y-12599857D01*
X13178571Y-12528429D01*
X13164286Y-12485571D01*
X13150000Y-12457000D01*
X13121428Y-12414143D01*
X13107143Y-12399857D01*
X6313473Y-13054973D02*
X6313473Y-12951027D01*
X6209527Y-12951027D01*
X6209527Y-13054973D01*
X6313473Y-13054973D01*
X6778571Y-13138714D02*
X6607143Y-13138714D01*
X6692857Y-13138714D02*
X6692857Y-12838714D01*
X6664286Y-12881571D01*
X6635714Y-12910143D01*
X6607143Y-12924429D01*
X6907143Y-13110143D02*
X6921428Y-13124429D01*
X6907143Y-13138714D01*
X6892857Y-13124429D01*
X6907143Y-13110143D01*
X6907143Y-13138714D01*
X7178571Y-12938714D02*
X7178571Y-13138714D01*
X7107143Y-12824429D02*
X7035714Y-13038714D01*
X7221428Y-13038714D01*
X7307143Y-12838714D02*
X7507143Y-12838714D01*
X7378571Y-13138714D01*
X7621428Y-13138714D02*
X7621428Y-12938714D01*
X7621428Y-12967286D02*
X7635714Y-12953000D01*
X7664286Y-12938714D01*
X7707143Y-12938714D01*
X7735714Y-12953000D01*
X7750000Y-12981571D01*
X7750000Y-13138714D01*
X7750000Y-12981571D02*
X7764286Y-12953000D01*
X7792857Y-12938714D01*
X7835714Y-12938714D01*
X7864286Y-12953000D01*
X7878571Y-12981571D01*
X7878571Y-13138714D01*
X8021428Y-13138714D02*
X8021428Y-12938714D01*
X8021428Y-12967286D02*
X8035714Y-12953000D01*
X8064286Y-12938714D01*
X8107143Y-12938714D01*
X8135714Y-12953000D01*
X8150000Y-12981571D01*
X8150000Y-13138714D01*
X8150000Y-12981571D02*
X8164286Y-12953000D01*
X8192857Y-12938714D01*
X8235714Y-12938714D01*
X8264286Y-12953000D01*
X8278571Y-12981571D01*
X8278571Y-13138714D01*
X8864286Y-12824429D02*
X8607143Y-13210143D01*
X9250000Y-12838714D02*
X9278571Y-12838714D01*
X9307143Y-12853000D01*
X9321428Y-12867286D01*
X9335714Y-12895857D01*
X9350000Y-12953000D01*
X9350000Y-13024429D01*
X9335714Y-13081571D01*
X9321428Y-13110143D01*
X9307143Y-13124429D01*
X9278571Y-13138714D01*
X9250000Y-13138714D01*
X9221428Y-13124429D01*
X9207143Y-13110143D01*
X9192857Y-13081571D01*
X9178571Y-13024429D01*
X9178571Y-12953000D01*
X9192857Y-12895857D01*
X9207143Y-12867286D01*
X9221428Y-12853000D01*
X9250000Y-12838714D01*
X9478571Y-13110143D02*
X9492857Y-13124429D01*
X9478571Y-13138714D01*
X9464286Y-13124429D01*
X9478571Y-13110143D01*
X9478571Y-13138714D01*
X9678571Y-12838714D02*
X9707143Y-12838714D01*
X9735714Y-12853000D01*
X9750000Y-12867286D01*
X9764286Y-12895857D01*
X9778571Y-12953000D01*
X9778571Y-13024429D01*
X9764286Y-13081571D01*
X9750000Y-13110143D01*
X9735714Y-13124429D01*
X9707143Y-13138714D01*
X9678571Y-13138714D01*
X9650000Y-13124429D01*
X9635714Y-13110143D01*
X9621428Y-13081571D01*
X9607143Y-13024429D01*
X9607143Y-12953000D01*
X9621428Y-12895857D01*
X9635714Y-12867286D01*
X9650000Y-12853000D01*
X9678571Y-12838714D01*
X10050000Y-12838714D02*
X9907143Y-12838714D01*
X9892857Y-12981571D01*
X9907143Y-12967286D01*
X9935714Y-12953000D01*
X10007143Y-12953000D01*
X10035714Y-12967286D01*
X10050000Y-12981571D01*
X10064286Y-13010143D01*
X10064286Y-13081571D01*
X10050000Y-13110143D01*
X10035714Y-13124429D01*
X10007143Y-13138714D01*
X9935714Y-13138714D01*
X9907143Y-13124429D01*
X9892857Y-13110143D01*
X10235714Y-12967286D02*
X10207143Y-12953000D01*
X10192857Y-12938714D01*
X10178571Y-12910143D01*
X10178571Y-12895857D01*
X10192857Y-12867286D01*
X10207143Y-12853000D01*
X10235714Y-12838714D01*
X10292857Y-12838714D01*
X10321428Y-12853000D01*
X10335714Y-12867286D01*
X10350000Y-12895857D01*
X10350000Y-12910143D01*
X10335714Y-12938714D01*
X10321428Y-12953000D01*
X10292857Y-12967286D01*
X10235714Y-12967286D01*
X10207143Y-12981571D01*
X10192857Y-12995857D01*
X10178571Y-13024429D01*
X10178571Y-13081571D01*
X10192857Y-13110143D01*
X10207143Y-13124429D01*
X10235714Y-13138714D01*
X10292857Y-13138714D01*
X10321428Y-13124429D01*
X10335714Y-13110143D01*
X10350000Y-13081571D01*
X10350000Y-13024429D01*
X10335714Y-12995857D01*
X10321428Y-12981571D01*
X10292857Y-12967286D01*
X10464286Y-12838714D02*
X10464286Y-12895857D01*
X10578571Y-12838714D02*
X10578571Y-12895857D01*
X11021428Y-13253000D02*
X11007143Y-13238714D01*
X10978571Y-13195857D01*
X10964286Y-13167286D01*
X10950000Y-13124429D01*
X10935714Y-13053000D01*
X10935714Y-12995857D01*
X10950000Y-12924429D01*
X10964286Y-12881571D01*
X10978571Y-12853000D01*
X11007143Y-12810143D01*
X11021428Y-12795857D01*
X11121428Y-12867286D02*
X11135714Y-12853000D01*
X11164286Y-12838714D01*
X11235714Y-12838714D01*
X11264286Y-12853000D01*
X11278571Y-12867286D01*
X11292857Y-12895857D01*
X11292857Y-12924429D01*
X11278571Y-12967286D01*
X11107143Y-13138714D01*
X11292857Y-13138714D01*
X11550000Y-12938714D02*
X11550000Y-13138714D01*
X11478571Y-12824429D02*
X11407143Y-13038714D01*
X11592857Y-13038714D01*
X11935714Y-13138714D02*
X11935714Y-12838714D01*
X12064286Y-13138714D02*
X12064286Y-12981571D01*
X12050000Y-12953000D01*
X12021428Y-12938714D01*
X11978571Y-12938714D01*
X11950000Y-12953000D01*
X11935714Y-12967286D01*
X12250000Y-13138714D02*
X12221428Y-13124429D01*
X12207143Y-13110143D01*
X12192857Y-13081571D01*
X12192857Y-12995857D01*
X12207143Y-12967286D01*
X12221428Y-12953000D01*
X12250000Y-12938714D01*
X12292857Y-12938714D01*
X12321428Y-12953000D01*
X12335714Y-12967286D01*
X12350000Y-12995857D01*
X12350000Y-13081571D01*
X12335714Y-13110143D01*
X12321428Y-13124429D01*
X12292857Y-13138714D01*
X12250000Y-13138714D01*
X12521428Y-13138714D02*
X12492857Y-13124429D01*
X12478571Y-13095857D01*
X12478571Y-12838714D01*
X12750000Y-13124429D02*
X12721428Y-13138714D01*
X12664286Y-13138714D01*
X12635714Y-13124429D01*
X12621428Y-13095857D01*
X12621428Y-12981571D01*
X12635714Y-12953000D01*
X12664286Y-12938714D01*
X12721428Y-12938714D01*
X12750000Y-12953000D01*
X12764286Y-12981571D01*
X12764286Y-13010143D01*
X12621428Y-13038714D01*
X12878571Y-13124429D02*
X12907143Y-13138714D01*
X12964286Y-13138714D01*
X12992857Y-13124429D01*
X13007143Y-13095857D01*
X13007143Y-13081571D01*
X12992857Y-13053000D01*
X12964286Y-13038714D01*
X12921428Y-13038714D01*
X12892857Y-13024429D01*
X12878571Y-12995857D01*
X12878571Y-12981571D01*
X12892857Y-12953000D01*
X12921428Y-12938714D01*
X12964286Y-12938714D01*
X12992857Y-12953000D01*
X13107143Y-13253000D02*
X13121428Y-13238714D01*
X13150000Y-13195857D01*
X13164286Y-13167286D01*
X13178571Y-13124429D01*
X13192857Y-13053000D01*
X13192857Y-12995857D01*
X13178571Y-12924429D01*
X13164286Y-12881571D01*
X13150000Y-12853000D01*
X13121428Y-12810143D01*
X13107143Y-12795857D01*
M02*
