G04 #@! TF.GenerationSoftware,KiCad,Pcbnew,(5.1.10)-1*
G04 #@! TF.CreationDate,2021-11-22T08:37:42+00:00*
G04 #@! TF.ProjectId,EnvMCRO,456e764d-4352-44f2-9e6b-696361645f70,rev?*
G04 #@! TF.SameCoordinates,Original*
G04 #@! TF.FileFunction,Legend,Top*
G04 #@! TF.FilePolarity,Positive*
%FSLAX46Y46*%
G04 Gerber Fmt 4.6, Leading zero omitted, Abs format (unit mm)*
G04 Created by KiCad (PCBNEW (5.1.10)-1) date 2021-11-22 08:37:42*
%MOMM*%
%LPD*%
G01*
G04 APERTURE LIST*
%ADD10C,0.100000*%
%ADD11C,0.120000*%
%ADD12C,0.150000*%
%ADD13C,0.300000*%
%ADD14R,2.000000X2.000000*%
%ADD15C,2.000000*%
%ADD16R,3.000000X2.500000*%
%ADD17C,3.987800*%
%ADD18C,1.750000*%
%ADD19O,1.600000X1.600000*%
%ADD20R,1.600000X1.600000*%
%ADD21O,1.700000X1.700000*%
%ADD22R,1.700000X3.500000*%
%ADD23R,1.700000X1.700000*%
%ADD24O,1.500000X1.500000*%
%ADD25O,1.800000X1.800000*%
%ADD26R,3.500000X1.700000*%
%ADD27C,4.400000*%
G04 APERTURE END LIST*
D10*
X120434800Y-65248500D02*
X120434800Y-79247900D01*
X125485500Y-55435200D02*
X125485500Y-41436000D01*
X106435500Y-65248500D02*
X120434800Y-65248500D01*
X106435500Y-55435200D02*
X106435500Y-41436000D01*
X120434800Y-55435200D02*
X106435500Y-55435200D01*
X120434800Y-41436000D02*
X120434800Y-55435200D01*
X106435500Y-41436000D02*
X120434800Y-41436000D01*
X82335000Y-79247900D02*
X68335450Y-79247900D01*
X139484800Y-55435200D02*
X125485500Y-55435200D01*
X125485500Y-79247900D02*
X125485500Y-65248500D01*
X139484800Y-41436000D02*
X139484800Y-55435200D01*
X125485500Y-41436000D02*
X139484800Y-41436000D01*
X120434800Y-79247900D02*
X106435500Y-79247900D01*
X68335450Y-79247900D02*
X68335450Y-65248500D01*
X82335000Y-65248500D02*
X82335000Y-79247900D01*
X68335450Y-65248500D02*
X82335000Y-65248500D01*
X101384800Y-65248500D02*
X101384800Y-79247900D01*
X106435500Y-79247900D02*
X106435500Y-65248500D01*
X87385500Y-65248500D02*
X101384800Y-65248500D01*
X139484800Y-79247900D02*
X125485500Y-79247900D01*
X139484800Y-65248500D02*
X139484800Y-79247900D01*
X87385500Y-79247900D02*
X87385500Y-65248500D01*
X101384800Y-79247900D02*
X87385500Y-79247900D01*
X87385500Y-89060900D02*
X101384800Y-89060900D01*
X120434800Y-89060900D02*
X120434800Y-103060370D01*
X125485500Y-103060370D02*
X125485500Y-89060900D01*
X125485500Y-89060900D02*
X139484800Y-89060900D01*
X139484800Y-103060370D02*
X125485500Y-103060370D01*
X125485500Y-65248500D02*
X139484800Y-65248500D01*
X68335450Y-89060900D02*
X82335000Y-89060900D01*
X68335450Y-103060370D02*
X68335450Y-89060900D01*
X82335000Y-103060370D02*
X68335450Y-103060370D01*
X106435500Y-89060900D02*
X120434800Y-89060900D01*
X82335000Y-89060900D02*
X82335000Y-103060370D01*
X139484800Y-89060900D02*
X139484800Y-103060370D01*
X106435500Y-103060370D02*
X106435500Y-89060900D01*
X87385500Y-103060370D02*
X87385500Y-89060900D01*
X101384800Y-103060370D02*
X87385500Y-103060370D01*
X101384800Y-89060900D02*
X101384800Y-103060370D01*
X120434800Y-103060370D02*
X106435500Y-103060370D01*
X101384800Y-41436000D02*
X101384800Y-55435200D01*
X87385500Y-41436000D02*
X101384800Y-41436000D01*
X82335000Y-55435200D02*
X68335450Y-55435200D01*
X87385500Y-55435200D02*
X87385500Y-41436000D01*
X68335450Y-55435200D02*
X68335450Y-41436000D01*
X68335450Y-41436000D02*
X82335000Y-41436000D01*
X101384800Y-55435200D02*
X87385500Y-55435200D01*
X82335000Y-41436000D02*
X82335000Y-55435200D01*
D11*
X161900000Y-99300000D02*
G75*
G03*
X161900000Y-99300000I-3000000J0D01*
G01*
X160700000Y-93000000D02*
X165600000Y-93000000D01*
X165600000Y-105600000D02*
X160700000Y-105600000D01*
X157100000Y-105600000D02*
X152200000Y-105600000D01*
X152200000Y-105600000D02*
X152200000Y-102800000D01*
X157000000Y-93000000D02*
X152200000Y-93000000D01*
X152200000Y-93000000D02*
X152200000Y-95500000D01*
X151400000Y-95500000D02*
X151100000Y-95200000D01*
X151100000Y-95200000D02*
X151700000Y-95200000D01*
X151700000Y-95200000D02*
X151400000Y-95500000D01*
X165600000Y-93000000D02*
X165600000Y-95600000D01*
X165600000Y-98000000D02*
X165600000Y-100600000D01*
X165600000Y-103000000D02*
X165600000Y-105600000D01*
X158900000Y-98800000D02*
X158900000Y-99800000D01*
X158400000Y-99300000D02*
X159400000Y-99300000D01*
X82740000Y-46645000D02*
X84980000Y-46645000D01*
X82740000Y-46405000D02*
X84980000Y-46405000D01*
X82740000Y-46525000D02*
X84980000Y-46525000D01*
X83860000Y-42355000D02*
X83860000Y-43005000D01*
X83860000Y-47895000D02*
X83860000Y-47245000D01*
X82740000Y-43005000D02*
X82740000Y-47245000D01*
X84980000Y-43005000D02*
X82740000Y-43005000D01*
X84980000Y-47245000D02*
X84980000Y-43005000D01*
X82740000Y-47245000D02*
X84980000Y-47245000D01*
X101790000Y-46645000D02*
X104030000Y-46645000D01*
X101790000Y-46405000D02*
X104030000Y-46405000D01*
X101790000Y-46525000D02*
X104030000Y-46525000D01*
X102910000Y-42355000D02*
X102910000Y-43005000D01*
X102910000Y-47895000D02*
X102910000Y-47245000D01*
X101790000Y-43005000D02*
X101790000Y-47245000D01*
X104030000Y-43005000D02*
X101790000Y-43005000D01*
X104030000Y-47245000D02*
X104030000Y-43005000D01*
X101790000Y-47245000D02*
X104030000Y-47245000D01*
X120840000Y-46645000D02*
X123080000Y-46645000D01*
X120840000Y-46405000D02*
X123080000Y-46405000D01*
X120840000Y-46525000D02*
X123080000Y-46525000D01*
X121960000Y-42355000D02*
X121960000Y-43005000D01*
X121960000Y-47895000D02*
X121960000Y-47245000D01*
X120840000Y-43005000D02*
X120840000Y-47245000D01*
X123080000Y-43005000D02*
X120840000Y-43005000D01*
X123080000Y-47245000D02*
X123080000Y-43005000D01*
X120840000Y-47245000D02*
X123080000Y-47245000D01*
X139890000Y-46645000D02*
X142130000Y-46645000D01*
X139890000Y-46405000D02*
X142130000Y-46405000D01*
X139890000Y-46525000D02*
X142130000Y-46525000D01*
X141010000Y-42355000D02*
X141010000Y-43005000D01*
X141010000Y-47895000D02*
X141010000Y-47245000D01*
X139890000Y-43005000D02*
X139890000Y-47245000D01*
X142130000Y-43005000D02*
X139890000Y-43005000D01*
X142130000Y-47245000D02*
X142130000Y-43005000D01*
X139890000Y-47245000D02*
X142130000Y-47245000D01*
X82740000Y-70457500D02*
X84980000Y-70457500D01*
X82740000Y-70217500D02*
X84980000Y-70217500D01*
X82740000Y-70337500D02*
X84980000Y-70337500D01*
X83860000Y-66167500D02*
X83860000Y-66817500D01*
X83860000Y-71707500D02*
X83860000Y-71057500D01*
X82740000Y-66817500D02*
X82740000Y-71057500D01*
X84980000Y-66817500D02*
X82740000Y-66817500D01*
X84980000Y-71057500D02*
X84980000Y-66817500D01*
X82740000Y-71057500D02*
X84980000Y-71057500D01*
X101790000Y-70457500D02*
X104030000Y-70457500D01*
X101790000Y-70217500D02*
X104030000Y-70217500D01*
X101790000Y-70337500D02*
X104030000Y-70337500D01*
X102910000Y-66167500D02*
X102910000Y-66817500D01*
X102910000Y-71707500D02*
X102910000Y-71057500D01*
X101790000Y-66817500D02*
X101790000Y-71057500D01*
X104030000Y-66817500D02*
X101790000Y-66817500D01*
X104030000Y-71057500D02*
X104030000Y-66817500D01*
X101790000Y-71057500D02*
X104030000Y-71057500D01*
X120840000Y-70457500D02*
X123080000Y-70457500D01*
X120840000Y-70217500D02*
X123080000Y-70217500D01*
X120840000Y-70337500D02*
X123080000Y-70337500D01*
X121960000Y-66167500D02*
X121960000Y-66817500D01*
X121960000Y-71707500D02*
X121960000Y-71057500D01*
X120840000Y-66817500D02*
X120840000Y-71057500D01*
X123080000Y-66817500D02*
X120840000Y-66817500D01*
X123080000Y-71057500D02*
X123080000Y-66817500D01*
X120840000Y-71057500D02*
X123080000Y-71057500D01*
X139890000Y-70857500D02*
X142130000Y-70857500D01*
X139890000Y-70617500D02*
X142130000Y-70617500D01*
X139890000Y-70737500D02*
X142130000Y-70737500D01*
X141010000Y-66567500D02*
X141010000Y-67217500D01*
X141010000Y-72107500D02*
X141010000Y-71457500D01*
X139890000Y-67217500D02*
X139890000Y-71457500D01*
X142130000Y-67217500D02*
X139890000Y-67217500D01*
X142130000Y-71457500D02*
X142130000Y-67217500D01*
X139890000Y-71457500D02*
X142130000Y-71457500D01*
X82740000Y-94270000D02*
X84980000Y-94270000D01*
X82740000Y-94030000D02*
X84980000Y-94030000D01*
X82740000Y-94150000D02*
X84980000Y-94150000D01*
X83860000Y-89980000D02*
X83860000Y-90630000D01*
X83860000Y-95520000D02*
X83860000Y-94870000D01*
X82740000Y-90630000D02*
X82740000Y-94870000D01*
X84980000Y-90630000D02*
X82740000Y-90630000D01*
X84980000Y-94870000D02*
X84980000Y-90630000D01*
X82740000Y-94870000D02*
X84980000Y-94870000D01*
X101790000Y-94270000D02*
X104030000Y-94270000D01*
X101790000Y-94030000D02*
X104030000Y-94030000D01*
X101790000Y-94150000D02*
X104030000Y-94150000D01*
X102910000Y-89980000D02*
X102910000Y-90630000D01*
X102910000Y-95520000D02*
X102910000Y-94870000D01*
X101790000Y-90630000D02*
X101790000Y-94870000D01*
X104030000Y-90630000D02*
X101790000Y-90630000D01*
X104030000Y-94870000D02*
X104030000Y-90630000D01*
X101790000Y-94870000D02*
X104030000Y-94870000D01*
X120840000Y-94270000D02*
X123080000Y-94270000D01*
X120840000Y-94030000D02*
X123080000Y-94030000D01*
X120840000Y-94150000D02*
X123080000Y-94150000D01*
X121960000Y-89980000D02*
X121960000Y-90630000D01*
X121960000Y-95520000D02*
X121960000Y-94870000D01*
X120840000Y-90630000D02*
X120840000Y-94870000D01*
X123080000Y-90630000D02*
X120840000Y-90630000D01*
X123080000Y-94870000D02*
X123080000Y-90630000D01*
X120840000Y-94870000D02*
X123080000Y-94870000D01*
X139890000Y-94270000D02*
X142130000Y-94270000D01*
X139890000Y-94030000D02*
X142130000Y-94030000D01*
X139890000Y-94150000D02*
X142130000Y-94150000D01*
X141010000Y-89980000D02*
X141010000Y-90630000D01*
X141010000Y-95520000D02*
X141010000Y-94870000D01*
X139890000Y-90630000D02*
X139890000Y-94870000D01*
X142130000Y-90630000D02*
X139890000Y-90630000D01*
X142130000Y-94870000D02*
X142130000Y-90630000D01*
X139890000Y-94870000D02*
X142130000Y-94870000D01*
X157200000Y-89900000D02*
X157600000Y-89900000D01*
X154600000Y-89900000D02*
X155000000Y-89900000D01*
X166600000Y-89900000D02*
X159800000Y-89900000D01*
X166600000Y-79500000D02*
X166600000Y-79900000D01*
X166600000Y-71800000D02*
X166600000Y-72200000D01*
X166600000Y-46400000D02*
X166600000Y-46800000D01*
X166600000Y-38900000D02*
X166600000Y-39200000D01*
X166600000Y-61700000D02*
X166600000Y-62100000D01*
X166600000Y-76900000D02*
X166600000Y-77300000D01*
X166600000Y-56600000D02*
X166600000Y-57000000D01*
X166600000Y-51500000D02*
X166600000Y-51900000D01*
X166600000Y-64200000D02*
X166600000Y-64600000D01*
X166600000Y-69300000D02*
X166600000Y-69700000D01*
X166600000Y-84500000D02*
X166600000Y-84900000D01*
X166600000Y-87100000D02*
X166600000Y-87500000D01*
X166600000Y-82000000D02*
X166600000Y-82400000D01*
X166600000Y-49000000D02*
X166600000Y-49400000D01*
X166600000Y-41300000D02*
X166600000Y-41700000D01*
X166600000Y-43900000D02*
X166600000Y-44300000D01*
X166600000Y-74400000D02*
X166600000Y-74800000D01*
X166600000Y-66700000D02*
X166600000Y-67100000D01*
X166600000Y-59100000D02*
X166600000Y-59500000D01*
X166600000Y-54000000D02*
X166600000Y-54400000D01*
X145600000Y-87100000D02*
X145600000Y-87500000D01*
X145600000Y-84500000D02*
X145600000Y-84900000D01*
X145600000Y-82000000D02*
X145600000Y-82400000D01*
X145600000Y-79500000D02*
X145600000Y-79900000D01*
X145600000Y-76900000D02*
X145600000Y-77300000D01*
X145600000Y-74400000D02*
X145600000Y-74800000D01*
X145600000Y-71800000D02*
X145600000Y-72200000D01*
X145600000Y-69300000D02*
X145600000Y-69700000D01*
X145600000Y-66700000D02*
X145600000Y-67100000D01*
X145600000Y-64200000D02*
X145600000Y-64600000D01*
X145600000Y-61700000D02*
X145600000Y-62100000D01*
X145600000Y-59100000D02*
X145600000Y-59500000D01*
X145600000Y-56600000D02*
X145600000Y-57000000D01*
X145600000Y-54000000D02*
X145600000Y-54400000D01*
X145600000Y-51500000D02*
X145600000Y-51900000D01*
X145600000Y-49000000D02*
X145600000Y-49400000D01*
X145600000Y-46400000D02*
X145600000Y-46800000D01*
X145600000Y-43900000D02*
X145600000Y-44300000D01*
X145600000Y-41300000D02*
X145600000Y-41700000D01*
X145600000Y-38900000D02*
X145600000Y-39200000D01*
X148607000Y-41567000D02*
X148607000Y-38900000D01*
X145600000Y-41567000D02*
X148607000Y-41567000D01*
X152400000Y-89900000D02*
X145600000Y-89900000D01*
X145600000Y-38900000D02*
X166600000Y-38900000D01*
X146380000Y-98030000D02*
X148620000Y-98030000D01*
X146380000Y-97790000D02*
X148620000Y-97790000D01*
X146380000Y-97910000D02*
X148620000Y-97910000D01*
X147500000Y-93740000D02*
X147500000Y-94390000D01*
X147500000Y-99280000D02*
X147500000Y-98630000D01*
X146380000Y-94390000D02*
X146380000Y-98630000D01*
X148620000Y-94390000D02*
X146380000Y-94390000D01*
X148620000Y-98630000D02*
X148620000Y-94390000D01*
X146380000Y-98630000D02*
X148620000Y-98630000D01*
D12*
X160004761Y-90923809D02*
X160119047Y-90961904D01*
X160309523Y-90961904D01*
X160385714Y-90923809D01*
X160423809Y-90885714D01*
X160461904Y-90809523D01*
X160461904Y-90733333D01*
X160423809Y-90657142D01*
X160385714Y-90619047D01*
X160309523Y-90580952D01*
X160157142Y-90542857D01*
X160080952Y-90504761D01*
X160042857Y-90466666D01*
X160004761Y-90390476D01*
X160004761Y-90314285D01*
X160042857Y-90238095D01*
X160080952Y-90200000D01*
X160157142Y-90161904D01*
X160347619Y-90161904D01*
X160461904Y-90200000D01*
X160728571Y-90161904D02*
X160919047Y-90961904D01*
X161071428Y-90390476D01*
X161223809Y-90961904D01*
X161414285Y-90161904D01*
X161719047Y-90961904D02*
X161719047Y-90161904D01*
X161909523Y-90161904D01*
X162023809Y-90200000D01*
X162100000Y-90276190D01*
X162138095Y-90352380D01*
X162176190Y-90504761D01*
X162176190Y-90619047D01*
X162138095Y-90771428D01*
X162100000Y-90847619D01*
X162023809Y-90923809D01*
X161909523Y-90961904D01*
X161719047Y-90961904D01*
X162519047Y-90961904D02*
X162519047Y-90161904D01*
X163052380Y-90161904D02*
X163204761Y-90161904D01*
X163280952Y-90200000D01*
X163357142Y-90276190D01*
X163395238Y-90428571D01*
X163395238Y-90695238D01*
X163357142Y-90847619D01*
X163280952Y-90923809D01*
X163204761Y-90961904D01*
X163052380Y-90961904D01*
X162976190Y-90923809D01*
X162900000Y-90847619D01*
X162861904Y-90695238D01*
X162861904Y-90428571D01*
X162900000Y-90276190D01*
X162976190Y-90200000D01*
X163052380Y-90161904D01*
X148590476Y-90923809D02*
X148704761Y-90961904D01*
X148895238Y-90961904D01*
X148971428Y-90923809D01*
X149009523Y-90885714D01*
X149047619Y-90809523D01*
X149047619Y-90733333D01*
X149009523Y-90657142D01*
X148971428Y-90619047D01*
X148895238Y-90580952D01*
X148742857Y-90542857D01*
X148666666Y-90504761D01*
X148628571Y-90466666D01*
X148590476Y-90390476D01*
X148590476Y-90314285D01*
X148628571Y-90238095D01*
X148666666Y-90200000D01*
X148742857Y-90161904D01*
X148933333Y-90161904D01*
X149047619Y-90200000D01*
X149314285Y-90161904D02*
X149504761Y-90961904D01*
X149657142Y-90390476D01*
X149809523Y-90961904D01*
X150000000Y-90161904D01*
X150761904Y-90885714D02*
X150723809Y-90923809D01*
X150609523Y-90961904D01*
X150533333Y-90961904D01*
X150419047Y-90923809D01*
X150342857Y-90847619D01*
X150304761Y-90771428D01*
X150266666Y-90619047D01*
X150266666Y-90504761D01*
X150304761Y-90352380D01*
X150342857Y-90276190D01*
X150419047Y-90200000D01*
X150533333Y-90161904D01*
X150609523Y-90161904D01*
X150723809Y-90200000D01*
X150761904Y-90238095D01*
X151485714Y-90961904D02*
X151104761Y-90961904D01*
X151104761Y-90161904D01*
X151752380Y-90961904D02*
X151752380Y-90161904D01*
X152209523Y-90961904D02*
X151866666Y-90504761D01*
X152209523Y-90161904D02*
X151752380Y-90619047D01*
X168251597Y-59140964D02*
X168520971Y-58871590D01*
X168359346Y-59356463D02*
X167982223Y-58602216D01*
X168736470Y-58979340D01*
X168682595Y-57955719D02*
X168601783Y-57982656D01*
X168520971Y-58063468D01*
X168467096Y-58171218D01*
X168467096Y-58278967D01*
X168494033Y-58359780D01*
X168574845Y-58494467D01*
X168655658Y-58575279D01*
X168790345Y-58656091D01*
X168871157Y-58683028D01*
X168978906Y-58683028D01*
X169086656Y-58629154D01*
X169140531Y-58575279D01*
X169194406Y-58467529D01*
X169194406Y-58413654D01*
X169005844Y-58225093D01*
X168898094Y-58332842D01*
X169490717Y-58225093D02*
X168925032Y-57659407D01*
X169813966Y-57901844D01*
X169248280Y-57336158D01*
X170083340Y-57632470D02*
X169517654Y-57066784D01*
X169652341Y-56932097D01*
X169760091Y-56878223D01*
X169867841Y-56878223D01*
X169948653Y-56905160D01*
X170083340Y-56985972D01*
X170164152Y-57066784D01*
X170244964Y-57201471D01*
X170271902Y-57282284D01*
X170271902Y-57390033D01*
X170218027Y-57497783D01*
X170083340Y-57632470D01*
X168186158Y-45498155D02*
X168105346Y-45525093D01*
X168024534Y-45605905D01*
X167970659Y-45713654D01*
X167970659Y-45821404D01*
X167997597Y-45902216D01*
X168078409Y-46036903D01*
X168159221Y-46117715D01*
X168293908Y-46198528D01*
X168374720Y-46225465D01*
X168482470Y-46225465D01*
X168590219Y-46171590D01*
X168644094Y-46117715D01*
X168697969Y-46009966D01*
X168697969Y-45956091D01*
X168509407Y-45767529D01*
X168401658Y-45875279D01*
X168994280Y-45767529D02*
X168428595Y-45201844D01*
X169317529Y-45444280D01*
X168751844Y-44878595D01*
X169586903Y-45174906D02*
X169021218Y-44609221D01*
X169155905Y-44474534D01*
X169263654Y-44420659D01*
X169371404Y-44420659D01*
X169452216Y-44447597D01*
X169586903Y-44528409D01*
X169667715Y-44609221D01*
X169748528Y-44743908D01*
X169775465Y-44824720D01*
X169775465Y-44932470D01*
X169721590Y-45040219D01*
X169586903Y-45174906D01*
X168186158Y-70898155D02*
X168105346Y-70925093D01*
X168024534Y-71005905D01*
X167970659Y-71113654D01*
X167970659Y-71221404D01*
X167997597Y-71302216D01*
X168078409Y-71436903D01*
X168159221Y-71517715D01*
X168293908Y-71598528D01*
X168374720Y-71625465D01*
X168482470Y-71625465D01*
X168590219Y-71571590D01*
X168644094Y-71517715D01*
X168697969Y-71409966D01*
X168697969Y-71356091D01*
X168509407Y-71167529D01*
X168401658Y-71275279D01*
X168994280Y-71167529D02*
X168428595Y-70601844D01*
X169317529Y-70844280D01*
X168751844Y-70278595D01*
X169586903Y-70574906D02*
X169021218Y-70009221D01*
X169155905Y-69874534D01*
X169263654Y-69820659D01*
X169371404Y-69820659D01*
X169452216Y-69847597D01*
X169586903Y-69928409D01*
X169667715Y-70009221D01*
X169748528Y-70143908D01*
X169775465Y-70224720D01*
X169775465Y-70332470D01*
X169721590Y-70440219D01*
X169586903Y-70574906D01*
X168186158Y-83598155D02*
X168105346Y-83625093D01*
X168024534Y-83705905D01*
X167970659Y-83813654D01*
X167970659Y-83921404D01*
X167997597Y-84002216D01*
X168078409Y-84136903D01*
X168159221Y-84217715D01*
X168293908Y-84298528D01*
X168374720Y-84325465D01*
X168482470Y-84325465D01*
X168590219Y-84271590D01*
X168644094Y-84217715D01*
X168697969Y-84109966D01*
X168697969Y-84056091D01*
X168509407Y-83867529D01*
X168401658Y-83975279D01*
X168994280Y-83867529D02*
X168428595Y-83301844D01*
X169317529Y-83544280D01*
X168751844Y-82978595D01*
X169586903Y-83274906D02*
X169021218Y-82709221D01*
X169155905Y-82574534D01*
X169263654Y-82520659D01*
X169371404Y-82520659D01*
X169452216Y-82547597D01*
X169586903Y-82628409D01*
X169667715Y-82709221D01*
X169748528Y-82843908D01*
X169775465Y-82924720D01*
X169775465Y-83032470D01*
X169721590Y-83140219D01*
X169586903Y-83274906D01*
X142586158Y-83598155D02*
X142505346Y-83625093D01*
X142424534Y-83705905D01*
X142370659Y-83813654D01*
X142370659Y-83921404D01*
X142397597Y-84002216D01*
X142478409Y-84136903D01*
X142559221Y-84217715D01*
X142693908Y-84298528D01*
X142774720Y-84325465D01*
X142882470Y-84325465D01*
X142990219Y-84271590D01*
X143044094Y-84217715D01*
X143097969Y-84109966D01*
X143097969Y-84056091D01*
X142909407Y-83867529D01*
X142801658Y-83975279D01*
X143394280Y-83867529D02*
X142828595Y-83301844D01*
X143717529Y-83544280D01*
X143151844Y-82978595D01*
X143986903Y-83274906D02*
X143421218Y-82709221D01*
X143555905Y-82574534D01*
X143663654Y-82520659D01*
X143771404Y-82520659D01*
X143852216Y-82547597D01*
X143986903Y-82628409D01*
X144067715Y-82709221D01*
X144148528Y-82843908D01*
X144175465Y-82924720D01*
X144175465Y-83032470D01*
X144121590Y-83140219D01*
X143986903Y-83274906D01*
X142586158Y-70898155D02*
X142505346Y-70925093D01*
X142424534Y-71005905D01*
X142370659Y-71113654D01*
X142370659Y-71221404D01*
X142397597Y-71302216D01*
X142478409Y-71436903D01*
X142559221Y-71517715D01*
X142693908Y-71598528D01*
X142774720Y-71625465D01*
X142882470Y-71625465D01*
X142990219Y-71571590D01*
X143044094Y-71517715D01*
X143097969Y-71409966D01*
X143097969Y-71356091D01*
X142909407Y-71167529D01*
X142801658Y-71275279D01*
X143394280Y-71167529D02*
X142828595Y-70601844D01*
X143717529Y-70844280D01*
X143151844Y-70278595D01*
X143986903Y-70574906D02*
X143421218Y-70009221D01*
X143555905Y-69874534D01*
X143663654Y-69820659D01*
X143771404Y-69820659D01*
X143852216Y-69847597D01*
X143986903Y-69928409D01*
X144067715Y-70009221D01*
X144148528Y-70143908D01*
X144175465Y-70224720D01*
X144175465Y-70332470D01*
X144121590Y-70440219D01*
X143986903Y-70574906D01*
X142586158Y-58198155D02*
X142505346Y-58225093D01*
X142424534Y-58305905D01*
X142370659Y-58413654D01*
X142370659Y-58521404D01*
X142397597Y-58602216D01*
X142478409Y-58736903D01*
X142559221Y-58817715D01*
X142693908Y-58898528D01*
X142774720Y-58925465D01*
X142882470Y-58925465D01*
X142990219Y-58871590D01*
X143044094Y-58817715D01*
X143097969Y-58709966D01*
X143097969Y-58656091D01*
X142909407Y-58467529D01*
X142801658Y-58575279D01*
X143394280Y-58467529D02*
X142828595Y-57901844D01*
X143717529Y-58144280D01*
X143151844Y-57578595D01*
X143986903Y-57874906D02*
X143421218Y-57309221D01*
X143555905Y-57174534D01*
X143663654Y-57120659D01*
X143771404Y-57120659D01*
X143852216Y-57147597D01*
X143986903Y-57228409D01*
X144067715Y-57309221D01*
X144148528Y-57443908D01*
X144175465Y-57524720D01*
X144175465Y-57632470D01*
X144121590Y-57740219D01*
X143986903Y-57874906D01*
X142586158Y-45498155D02*
X142505346Y-45525093D01*
X142424534Y-45605905D01*
X142370659Y-45713654D01*
X142370659Y-45821404D01*
X142397597Y-45902216D01*
X142478409Y-46036903D01*
X142559221Y-46117715D01*
X142693908Y-46198528D01*
X142774720Y-46225465D01*
X142882470Y-46225465D01*
X142990219Y-46171590D01*
X143044094Y-46117715D01*
X143097969Y-46009966D01*
X143097969Y-45956091D01*
X142909407Y-45767529D01*
X142801658Y-45875279D01*
X143394280Y-45767529D02*
X142828595Y-45201844D01*
X143717529Y-45444280D01*
X143151844Y-44878595D01*
X143986903Y-45174906D02*
X143421218Y-44609221D01*
X143555905Y-44474534D01*
X143663654Y-44420659D01*
X143771404Y-44420659D01*
X143852216Y-44447597D01*
X143986903Y-44528409D01*
X144067715Y-44609221D01*
X144148528Y-44743908D01*
X144175465Y-44824720D01*
X144175465Y-44932470D01*
X144121590Y-45040219D01*
X143986903Y-45174906D01*
X161153129Y-40927309D02*
X161907377Y-41304433D01*
X161530253Y-40550186D01*
X162176751Y-40442436D02*
X162284500Y-40388561D01*
X162338375Y-40388561D01*
X162419187Y-40415499D01*
X162500000Y-40496311D01*
X162526937Y-40577123D01*
X162526937Y-40630998D01*
X162500000Y-40711810D01*
X162284500Y-40927309D01*
X161718815Y-40361624D01*
X161907377Y-40173062D01*
X161988189Y-40146125D01*
X162042064Y-40146125D01*
X162122876Y-40173062D01*
X162176751Y-40226937D01*
X162203688Y-40307749D01*
X162203688Y-40361624D01*
X162176751Y-40442436D01*
X161988189Y-40630998D01*
X162284500Y-39795938D02*
X162742436Y-40253874D01*
X162823248Y-40280812D01*
X162877123Y-40280812D01*
X162957935Y-40253874D01*
X163065685Y-40146125D01*
X163092622Y-40065312D01*
X163092622Y-40011438D01*
X163065685Y-39930625D01*
X162607749Y-39472690D01*
X163388934Y-39769001D02*
X163496683Y-39715126D01*
X163631370Y-39580439D01*
X163658308Y-39499627D01*
X163658308Y-39445752D01*
X163631370Y-39364940D01*
X163577496Y-39311065D01*
X163496683Y-39284128D01*
X163442809Y-39284128D01*
X163361996Y-39311065D01*
X163227309Y-39391877D01*
X163146497Y-39418815D01*
X163092622Y-39418815D01*
X163011810Y-39391877D01*
X162957935Y-39338003D01*
X162930998Y-39257190D01*
X162930998Y-39203316D01*
X162957935Y-39122503D01*
X163092622Y-38987816D01*
X163200372Y-38933942D01*
X161420473Y-43469966D02*
X162174720Y-43847089D01*
X161797597Y-43092842D01*
X162497969Y-43469966D02*
X162605719Y-43416091D01*
X162740406Y-43281404D01*
X162767343Y-43200592D01*
X162767343Y-43146717D01*
X162740406Y-43065905D01*
X162686531Y-43012030D01*
X162605719Y-42985093D01*
X162551844Y-42985093D01*
X162471032Y-43012030D01*
X162336345Y-43092842D01*
X162255532Y-43119780D01*
X162201658Y-43119780D01*
X162120845Y-43092842D01*
X162066971Y-43038967D01*
X162040033Y-42958155D01*
X162040033Y-42904280D01*
X162066971Y-42823468D01*
X162201658Y-42688781D01*
X162309407Y-42634906D01*
X162928967Y-42554094D02*
X163198341Y-42823468D01*
X162444094Y-42446345D02*
X162928967Y-42554094D01*
X162821218Y-42069221D01*
X163521590Y-42446345D02*
X163629340Y-42392470D01*
X163764027Y-42257783D01*
X163790964Y-42176971D01*
X163790964Y-42123096D01*
X163764027Y-42042284D01*
X163710152Y-41988409D01*
X163629340Y-41961471D01*
X163575465Y-41961471D01*
X163494653Y-41988409D01*
X163359966Y-42069221D01*
X163279154Y-42096158D01*
X163225279Y-42096158D01*
X163144467Y-42069221D01*
X163090592Y-42015346D01*
X163063654Y-41934534D01*
X163063654Y-41880659D01*
X163090592Y-41799847D01*
X163225279Y-41665160D01*
X163333028Y-41611285D01*
X168022131Y-48358308D02*
X168372317Y-48008122D01*
X168399255Y-48412183D01*
X168480067Y-48331370D01*
X168560879Y-48304433D01*
X168614754Y-48304433D01*
X168695566Y-48331370D01*
X168830253Y-48466057D01*
X168857190Y-48546870D01*
X168857190Y-48600744D01*
X168830253Y-48681557D01*
X168668629Y-48843181D01*
X168587816Y-48870118D01*
X168533942Y-48870118D01*
X168533942Y-47846497D02*
X169288189Y-48223621D01*
X168911065Y-47469374D01*
X169045752Y-47334687D02*
X169395938Y-46984500D01*
X169422876Y-47388561D01*
X169503688Y-47307749D01*
X169584500Y-47280812D01*
X169638375Y-47280812D01*
X169719187Y-47307749D01*
X169853874Y-47442436D01*
X169880812Y-47523248D01*
X169880812Y-47577123D01*
X169853874Y-47657935D01*
X169692250Y-47819560D01*
X169611438Y-47846497D01*
X169557563Y-47846497D01*
X170123248Y-47496311D02*
X170554247Y-47065312D01*
X170338748Y-46580439D02*
X170527309Y-46391877D01*
X170904433Y-46607377D02*
X170635059Y-46876751D01*
X170069374Y-46311065D01*
X170338748Y-46041691D01*
X171146870Y-46364940D02*
X170581184Y-45799255D01*
X171470118Y-46041691D01*
X170904433Y-45476006D01*
X167989847Y-50890592D02*
X168340033Y-50540406D01*
X168366971Y-50944467D01*
X168447783Y-50863654D01*
X168528595Y-50836717D01*
X168582470Y-50836717D01*
X168663282Y-50863654D01*
X168797969Y-50998341D01*
X168824906Y-51079154D01*
X168824906Y-51133028D01*
X168797969Y-51213841D01*
X168636345Y-51375465D01*
X168555532Y-51402402D01*
X168501658Y-51402402D01*
X168501658Y-50378781D02*
X169255905Y-50755905D01*
X168878781Y-50001658D01*
X169013468Y-49866971D02*
X169363654Y-49516784D01*
X169390592Y-49920845D01*
X169471404Y-49840033D01*
X169552216Y-49813096D01*
X169606091Y-49813096D01*
X169686903Y-49840033D01*
X169821590Y-49974720D01*
X169848528Y-50055532D01*
X169848528Y-50109407D01*
X169821590Y-50190219D01*
X169659966Y-50351844D01*
X169579154Y-50378781D01*
X169525279Y-50378781D01*
X168254788Y-53933773D02*
X168524162Y-53664399D01*
X168362537Y-54149272D02*
X167985414Y-53395025D01*
X168739661Y-53772149D01*
X168928223Y-53583587D02*
X168362537Y-53017902D01*
X168497224Y-52883215D01*
X168604974Y-52829340D01*
X168712723Y-52829340D01*
X168793536Y-52856277D01*
X168928223Y-52937089D01*
X169009035Y-53017902D01*
X169089847Y-53152589D01*
X169116784Y-53233401D01*
X169116784Y-53341150D01*
X169062910Y-53448900D01*
X168928223Y-53583587D01*
X169763282Y-52640778D02*
X169763282Y-52694653D01*
X169709407Y-52802402D01*
X169655532Y-52856277D01*
X169547783Y-52910152D01*
X169440033Y-52910152D01*
X169359221Y-52883215D01*
X169224534Y-52802402D01*
X169143722Y-52721590D01*
X169062910Y-52586903D01*
X169035972Y-52506091D01*
X169035972Y-52398341D01*
X169089847Y-52290592D01*
X169143722Y-52236717D01*
X169251471Y-52182842D01*
X169305346Y-52182842D01*
X169978781Y-52640778D02*
X170409780Y-52209780D01*
X169844094Y-51536345D02*
X170598341Y-51913468D01*
X170221218Y-51159221D01*
X171298714Y-51213096D02*
X170840778Y-51132284D01*
X170975465Y-51536345D02*
X170409780Y-50970659D01*
X170625279Y-50755160D01*
X170706091Y-50728223D01*
X170759966Y-50728223D01*
X170840778Y-50755160D01*
X170921590Y-50835972D01*
X170948528Y-50916784D01*
X170948528Y-50970659D01*
X170921590Y-51051471D01*
X170706091Y-51266971D01*
X171244839Y-50674348D02*
X171433401Y-50485786D01*
X171810524Y-50701285D02*
X171541150Y-50970659D01*
X170975465Y-50404974D01*
X171244839Y-50135600D01*
X171945211Y-49973975D02*
X171756650Y-50162537D01*
X172052961Y-50458849D02*
X171487276Y-49893163D01*
X171756650Y-49623789D01*
X168197722Y-55646592D02*
X168116910Y-55673529D01*
X168036097Y-55754341D01*
X167982223Y-55862091D01*
X167982223Y-55969841D01*
X168009160Y-56050653D01*
X168089972Y-56185340D01*
X168170784Y-56266152D01*
X168305471Y-56346964D01*
X168386284Y-56373902D01*
X168494033Y-56373902D01*
X168601783Y-56320027D01*
X168655658Y-56266152D01*
X168709532Y-56158402D01*
X168709532Y-56104528D01*
X168520971Y-55915966D01*
X168413221Y-56023715D01*
X169005844Y-55915966D02*
X168440158Y-55350280D01*
X168655658Y-55134781D01*
X168736470Y-55107844D01*
X168790345Y-55107844D01*
X168871157Y-55134781D01*
X168951969Y-55215593D01*
X168978906Y-55296406D01*
X168978906Y-55350280D01*
X168951969Y-55431093D01*
X168736470Y-55646592D01*
X169032781Y-54865407D02*
X169032781Y-54811532D01*
X169059719Y-54730720D01*
X169194406Y-54596033D01*
X169275218Y-54569096D01*
X169329093Y-54569096D01*
X169409905Y-54596033D01*
X169463780Y-54649908D01*
X169517654Y-54757658D01*
X169517654Y-55404155D01*
X169867841Y-55053969D01*
X169867841Y-54407471D02*
X169787028Y-54434409D01*
X169733154Y-54434409D01*
X169652341Y-54407471D01*
X169625404Y-54380534D01*
X169598467Y-54299722D01*
X169598467Y-54245847D01*
X169625404Y-54165035D01*
X169733154Y-54057285D01*
X169813966Y-54030348D01*
X169867841Y-54030348D01*
X169948653Y-54057285D01*
X169975590Y-54084223D01*
X170002528Y-54165035D01*
X170002528Y-54218910D01*
X169975590Y-54299722D01*
X169867841Y-54407471D01*
X169840903Y-54488284D01*
X169840903Y-54542158D01*
X169867841Y-54622971D01*
X169975590Y-54730720D01*
X170056402Y-54757658D01*
X170110277Y-54757658D01*
X170191089Y-54730720D01*
X170298839Y-54622971D01*
X170325776Y-54542158D01*
X170325776Y-54488284D01*
X170298839Y-54407471D01*
X170191089Y-54299722D01*
X170110277Y-54272784D01*
X170056402Y-54272784D01*
X169975590Y-54299722D01*
X168197722Y-60990592D02*
X168116910Y-61017529D01*
X168036097Y-61098341D01*
X167982223Y-61206091D01*
X167982223Y-61313841D01*
X168009160Y-61394653D01*
X168089972Y-61529340D01*
X168170784Y-61610152D01*
X168305471Y-61690964D01*
X168386284Y-61717902D01*
X168494033Y-61717902D01*
X168601783Y-61664027D01*
X168655658Y-61610152D01*
X168709532Y-61502402D01*
X168709532Y-61448528D01*
X168520971Y-61259966D01*
X168413221Y-61367715D01*
X169005844Y-61259966D02*
X168440158Y-60694280D01*
X168655658Y-60478781D01*
X168736470Y-60451844D01*
X168790345Y-60451844D01*
X168871157Y-60478781D01*
X168951969Y-60559593D01*
X168978906Y-60640406D01*
X168978906Y-60694280D01*
X168951969Y-60775093D01*
X168736470Y-60990592D01*
X169032781Y-60209407D02*
X169032781Y-60155532D01*
X169059719Y-60074720D01*
X169194406Y-59940033D01*
X169275218Y-59913096D01*
X169329093Y-59913096D01*
X169409905Y-59940033D01*
X169463780Y-59993908D01*
X169517654Y-60101658D01*
X169517654Y-60748155D01*
X169867841Y-60397969D01*
X169490717Y-59643722D02*
X169867841Y-59266598D01*
X170191089Y-60074720D01*
X168197722Y-63520592D02*
X168116910Y-63547529D01*
X168036097Y-63628341D01*
X167982223Y-63736091D01*
X167982223Y-63843841D01*
X168009160Y-63924653D01*
X168089972Y-64059340D01*
X168170784Y-64140152D01*
X168305471Y-64220964D01*
X168386284Y-64247902D01*
X168494033Y-64247902D01*
X168601783Y-64194027D01*
X168655658Y-64140152D01*
X168709532Y-64032402D01*
X168709532Y-63978528D01*
X168520971Y-63789966D01*
X168413221Y-63897715D01*
X169005844Y-63789966D02*
X168440158Y-63224280D01*
X168655658Y-63008781D01*
X168736470Y-62981844D01*
X168790345Y-62981844D01*
X168871157Y-63008781D01*
X168951969Y-63089593D01*
X168978906Y-63170406D01*
X168978906Y-63224280D01*
X168951969Y-63305093D01*
X168736470Y-63520592D01*
X169032781Y-62739407D02*
X169032781Y-62685532D01*
X169059719Y-62604720D01*
X169194406Y-62470033D01*
X169275218Y-62443096D01*
X169329093Y-62443096D01*
X169409905Y-62470033D01*
X169463780Y-62523908D01*
X169517654Y-62631658D01*
X169517654Y-63278155D01*
X169867841Y-62927969D01*
X169787028Y-61877410D02*
X169679279Y-61985160D01*
X169652341Y-62065972D01*
X169652341Y-62119847D01*
X169679279Y-62254534D01*
X169760091Y-62389221D01*
X169975590Y-62604720D01*
X170056402Y-62631658D01*
X170110277Y-62631658D01*
X170191089Y-62604720D01*
X170298839Y-62496971D01*
X170325776Y-62416158D01*
X170325776Y-62362284D01*
X170298839Y-62281471D01*
X170164152Y-62146784D01*
X170083340Y-62119847D01*
X170029465Y-62119847D01*
X169948653Y-62146784D01*
X169840903Y-62254534D01*
X169813966Y-62335346D01*
X169813966Y-62389221D01*
X169840903Y-62470033D01*
X168838375Y-66423435D02*
X168380439Y-66342622D01*
X168515126Y-66746683D02*
X167949441Y-66180998D01*
X168164940Y-65965499D01*
X168245752Y-65938561D01*
X168299627Y-65938561D01*
X168380439Y-65965499D01*
X168461251Y-66046311D01*
X168488189Y-66127123D01*
X168488189Y-66180998D01*
X168461251Y-66261810D01*
X168245752Y-66477309D01*
X168515126Y-65615312D02*
X168973062Y-66073248D01*
X169053874Y-66100186D01*
X169107749Y-66100186D01*
X169188561Y-66073248D01*
X169296311Y-65965499D01*
X169323248Y-65884687D01*
X169323248Y-65830812D01*
X169296311Y-65749999D01*
X168838375Y-65292064D01*
X169673435Y-65588375D02*
X169107749Y-65022690D01*
X169996683Y-65265126D01*
X169430998Y-64699441D01*
X168197722Y-68600592D02*
X168116910Y-68627529D01*
X168036097Y-68708341D01*
X167982223Y-68816091D01*
X167982223Y-68923841D01*
X168009160Y-69004653D01*
X168089972Y-69139340D01*
X168170784Y-69220152D01*
X168305471Y-69300964D01*
X168386284Y-69327902D01*
X168494033Y-69327902D01*
X168601783Y-69274027D01*
X168655658Y-69220152D01*
X168709532Y-69112402D01*
X168709532Y-69058528D01*
X168520971Y-68869966D01*
X168413221Y-68977715D01*
X169005844Y-68869966D02*
X168440158Y-68304280D01*
X168655658Y-68088781D01*
X168736470Y-68061844D01*
X168790345Y-68061844D01*
X168871157Y-68088781D01*
X168951969Y-68169593D01*
X168978906Y-68250406D01*
X168978906Y-68304280D01*
X168951969Y-68385093D01*
X168736470Y-68600592D01*
X169032781Y-67819407D02*
X169032781Y-67765532D01*
X169059719Y-67684720D01*
X169194406Y-67550033D01*
X169275218Y-67523096D01*
X169329093Y-67523096D01*
X169409905Y-67550033D01*
X169463780Y-67603908D01*
X169517654Y-67711658D01*
X169517654Y-68358155D01*
X169867841Y-68007969D01*
X169571529Y-67280659D02*
X169571529Y-67226784D01*
X169598467Y-67145972D01*
X169733154Y-67011285D01*
X169813966Y-66984348D01*
X169867841Y-66984348D01*
X169948653Y-67011285D01*
X170002528Y-67065160D01*
X170056402Y-67172910D01*
X170056402Y-67819407D01*
X170406589Y-67469221D01*
X168293722Y-73640592D02*
X168212910Y-73667529D01*
X168132097Y-73748341D01*
X168078223Y-73856091D01*
X168078223Y-73963841D01*
X168105160Y-74044653D01*
X168185972Y-74179340D01*
X168266784Y-74260152D01*
X168401471Y-74340964D01*
X168482284Y-74367902D01*
X168590033Y-74367902D01*
X168697783Y-74314027D01*
X168751658Y-74260152D01*
X168805532Y-74152402D01*
X168805532Y-74098528D01*
X168616971Y-73909966D01*
X168509221Y-74017715D01*
X169101844Y-73909966D02*
X168536158Y-73344280D01*
X168751658Y-73128781D01*
X168832470Y-73101844D01*
X168886345Y-73101844D01*
X168967157Y-73128781D01*
X169047969Y-73209593D01*
X169074906Y-73290406D01*
X169074906Y-73344280D01*
X169047969Y-73425093D01*
X168832470Y-73640592D01*
X169128781Y-72859407D02*
X169128781Y-72805532D01*
X169155719Y-72724720D01*
X169290406Y-72590033D01*
X169371218Y-72563096D01*
X169425093Y-72563096D01*
X169505905Y-72590033D01*
X169559780Y-72643908D01*
X169613654Y-72751658D01*
X169613654Y-73398155D01*
X169963841Y-73047969D01*
X170502589Y-72509221D02*
X170179340Y-72832470D01*
X170340964Y-72670845D02*
X169775279Y-72105160D01*
X169802216Y-72239847D01*
X169802216Y-72347597D01*
X169775279Y-72428409D01*
X168197722Y-76220592D02*
X168116910Y-76247529D01*
X168036097Y-76328341D01*
X167982223Y-76436091D01*
X167982223Y-76543841D01*
X168009160Y-76624653D01*
X168089972Y-76759340D01*
X168170784Y-76840152D01*
X168305471Y-76920964D01*
X168386284Y-76947902D01*
X168494033Y-76947902D01*
X168601783Y-76894027D01*
X168655658Y-76840152D01*
X168709532Y-76732402D01*
X168709532Y-76678528D01*
X168520971Y-76489966D01*
X168413221Y-76597715D01*
X169005844Y-76489966D02*
X168440158Y-75924280D01*
X168655658Y-75708781D01*
X168736470Y-75681844D01*
X168790345Y-75681844D01*
X168871157Y-75708781D01*
X168951969Y-75789593D01*
X168978906Y-75870406D01*
X168978906Y-75924280D01*
X168951969Y-76005093D01*
X168736470Y-76220592D01*
X169032781Y-75439407D02*
X169032781Y-75385532D01*
X169059719Y-75304720D01*
X169194406Y-75170033D01*
X169275218Y-75143096D01*
X169329093Y-75143096D01*
X169409905Y-75170033D01*
X169463780Y-75223908D01*
X169517654Y-75331658D01*
X169517654Y-75978155D01*
X169867841Y-75627969D01*
X169652341Y-74712097D02*
X169706216Y-74658223D01*
X169787028Y-74631285D01*
X169840903Y-74631285D01*
X169921715Y-74658223D01*
X170056402Y-74739035D01*
X170191089Y-74873722D01*
X170271902Y-75008409D01*
X170298839Y-75089221D01*
X170298839Y-75143096D01*
X170271902Y-75223908D01*
X170218027Y-75277783D01*
X170137215Y-75304720D01*
X170083340Y-75304720D01*
X170002528Y-75277783D01*
X169867841Y-75196971D01*
X169733154Y-75062284D01*
X169652341Y-74927597D01*
X169625404Y-74846784D01*
X169625404Y-74792910D01*
X169652341Y-74712097D01*
X168197722Y-78760592D02*
X168116910Y-78787529D01*
X168036097Y-78868341D01*
X167982223Y-78976091D01*
X167982223Y-79083841D01*
X168009160Y-79164653D01*
X168089972Y-79299340D01*
X168170784Y-79380152D01*
X168305471Y-79460964D01*
X168386284Y-79487902D01*
X168494033Y-79487902D01*
X168601783Y-79434027D01*
X168655658Y-79380152D01*
X168709532Y-79272402D01*
X168709532Y-79218528D01*
X168520971Y-79029966D01*
X168413221Y-79137715D01*
X169005844Y-79029966D02*
X168440158Y-78464280D01*
X168655658Y-78248781D01*
X168736470Y-78221844D01*
X168790345Y-78221844D01*
X168871157Y-78248781D01*
X168951969Y-78329593D01*
X168978906Y-78410406D01*
X168978906Y-78464280D01*
X168951969Y-78545093D01*
X168736470Y-78760592D01*
X169867841Y-78167969D02*
X169544592Y-78491218D01*
X169706216Y-78329593D02*
X169140531Y-77763908D01*
X169167468Y-77898595D01*
X169167468Y-78006345D01*
X169140531Y-78087157D01*
X170137215Y-77898595D02*
X170244964Y-77790845D01*
X170271902Y-77710033D01*
X170271902Y-77656158D01*
X170244964Y-77521471D01*
X170164152Y-77386784D01*
X169948653Y-77171285D01*
X169867841Y-77144348D01*
X169813966Y-77144348D01*
X169733154Y-77171285D01*
X169625404Y-77279035D01*
X169598467Y-77359847D01*
X169598467Y-77413722D01*
X169625404Y-77494534D01*
X169760091Y-77629221D01*
X169840903Y-77656158D01*
X169894778Y-77656158D01*
X169975590Y-77629221D01*
X170083340Y-77521471D01*
X170110277Y-77440659D01*
X170110277Y-77386784D01*
X170083340Y-77305972D01*
X168197722Y-81300592D02*
X168116910Y-81327529D01*
X168036097Y-81408341D01*
X167982223Y-81516091D01*
X167982223Y-81623841D01*
X168009160Y-81704653D01*
X168089972Y-81839340D01*
X168170784Y-81920152D01*
X168305471Y-82000964D01*
X168386284Y-82027902D01*
X168494033Y-82027902D01*
X168601783Y-81974027D01*
X168655658Y-81920152D01*
X168709532Y-81812402D01*
X168709532Y-81758528D01*
X168520971Y-81569966D01*
X168413221Y-81677715D01*
X169005844Y-81569966D02*
X168440158Y-81004280D01*
X168655658Y-80788781D01*
X168736470Y-80761844D01*
X168790345Y-80761844D01*
X168871157Y-80788781D01*
X168951969Y-80869593D01*
X168978906Y-80950406D01*
X168978906Y-81004280D01*
X168951969Y-81085093D01*
X168736470Y-81300592D01*
X169867841Y-80707969D02*
X169544592Y-81031218D01*
X169706216Y-80869593D02*
X169140531Y-80303908D01*
X169167468Y-80438595D01*
X169167468Y-80546345D01*
X169140531Y-80627157D01*
X169867841Y-80061471D02*
X169787028Y-80088409D01*
X169733154Y-80088409D01*
X169652341Y-80061471D01*
X169625404Y-80034534D01*
X169598467Y-79953722D01*
X169598467Y-79899847D01*
X169625404Y-79819035D01*
X169733154Y-79711285D01*
X169813966Y-79684348D01*
X169867841Y-79684348D01*
X169948653Y-79711285D01*
X169975590Y-79738223D01*
X170002528Y-79819035D01*
X170002528Y-79872910D01*
X169975590Y-79953722D01*
X169867841Y-80061471D01*
X169840903Y-80142284D01*
X169840903Y-80196158D01*
X169867841Y-80276971D01*
X169975590Y-80384720D01*
X170056402Y-80411658D01*
X170110277Y-80411658D01*
X170191089Y-80384720D01*
X170298839Y-80276971D01*
X170325776Y-80196158D01*
X170325776Y-80142284D01*
X170298839Y-80061471D01*
X170191089Y-79953722D01*
X170110277Y-79926784D01*
X170056402Y-79926784D01*
X169975590Y-79953722D01*
X168197722Y-86380592D02*
X168116910Y-86407529D01*
X168036097Y-86488341D01*
X167982223Y-86596091D01*
X167982223Y-86703841D01*
X168009160Y-86784653D01*
X168089972Y-86919340D01*
X168170784Y-87000152D01*
X168305471Y-87080964D01*
X168386284Y-87107902D01*
X168494033Y-87107902D01*
X168601783Y-87054027D01*
X168655658Y-87000152D01*
X168709532Y-86892402D01*
X168709532Y-86838528D01*
X168520971Y-86649966D01*
X168413221Y-86757715D01*
X169005844Y-86649966D02*
X168440158Y-86084280D01*
X168655658Y-85868781D01*
X168736470Y-85841844D01*
X168790345Y-85841844D01*
X168871157Y-85868781D01*
X168951969Y-85949593D01*
X168978906Y-86030406D01*
X168978906Y-86084280D01*
X168951969Y-86165093D01*
X168736470Y-86380592D01*
X169867841Y-85787969D02*
X169544592Y-86111218D01*
X169706216Y-85949593D02*
X169140531Y-85383908D01*
X169167468Y-85518595D01*
X169167468Y-85626345D01*
X169140531Y-85707157D01*
X169490717Y-85033722D02*
X169867841Y-84656598D01*
X170191089Y-85464720D01*
X168197722Y-88920592D02*
X168116910Y-88947529D01*
X168036097Y-89028341D01*
X167982223Y-89136091D01*
X167982223Y-89243841D01*
X168009160Y-89324653D01*
X168089972Y-89459340D01*
X168170784Y-89540152D01*
X168305471Y-89620964D01*
X168386284Y-89647902D01*
X168494033Y-89647902D01*
X168601783Y-89594027D01*
X168655658Y-89540152D01*
X168709532Y-89432402D01*
X168709532Y-89378528D01*
X168520971Y-89189966D01*
X168413221Y-89297715D01*
X169005844Y-89189966D02*
X168440158Y-88624280D01*
X168655658Y-88408781D01*
X168736470Y-88381844D01*
X168790345Y-88381844D01*
X168871157Y-88408781D01*
X168951969Y-88489593D01*
X168978906Y-88570406D01*
X168978906Y-88624280D01*
X168951969Y-88705093D01*
X168736470Y-88920592D01*
X169867841Y-88327969D02*
X169544592Y-88651218D01*
X169706216Y-88489593D02*
X169140531Y-87923908D01*
X169167468Y-88058595D01*
X169167468Y-88166345D01*
X169140531Y-88247157D01*
X169787028Y-87277410D02*
X169679279Y-87385160D01*
X169652341Y-87465972D01*
X169652341Y-87519847D01*
X169679279Y-87654534D01*
X169760091Y-87789221D01*
X169975590Y-88004720D01*
X170056402Y-88031658D01*
X170110277Y-88031658D01*
X170191089Y-88004720D01*
X170298839Y-87896971D01*
X170325776Y-87816158D01*
X170325776Y-87762284D01*
X170298839Y-87681471D01*
X170164152Y-87546784D01*
X170083340Y-87519847D01*
X170029465Y-87519847D01*
X169948653Y-87546784D01*
X169840903Y-87654534D01*
X169813966Y-87735346D01*
X169813966Y-87789221D01*
X169840903Y-87870033D01*
X142089722Y-88920592D02*
X142008910Y-88947529D01*
X141928097Y-89028341D01*
X141874223Y-89136091D01*
X141874223Y-89243841D01*
X141901160Y-89324653D01*
X141981972Y-89459340D01*
X142062784Y-89540152D01*
X142197471Y-89620964D01*
X142278284Y-89647902D01*
X142386033Y-89647902D01*
X142493783Y-89594027D01*
X142547658Y-89540152D01*
X142601532Y-89432402D01*
X142601532Y-89378528D01*
X142412971Y-89189966D01*
X142305221Y-89297715D01*
X142897844Y-89189966D02*
X142332158Y-88624280D01*
X142547658Y-88408781D01*
X142628470Y-88381844D01*
X142682345Y-88381844D01*
X142763157Y-88408781D01*
X142843969Y-88489593D01*
X142870906Y-88570406D01*
X142870906Y-88624280D01*
X142843969Y-88705093D01*
X142628470Y-88920592D01*
X143759841Y-88327969D02*
X143436592Y-88651218D01*
X143598216Y-88489593D02*
X143032531Y-87923908D01*
X143059468Y-88058595D01*
X143059468Y-88166345D01*
X143032531Y-88247157D01*
X143705966Y-87250473D02*
X143436592Y-87519847D01*
X143679028Y-87816158D01*
X143679028Y-87762284D01*
X143705966Y-87681471D01*
X143840653Y-87546784D01*
X143921465Y-87519847D01*
X143975340Y-87519847D01*
X144056152Y-87546784D01*
X144190839Y-87681471D01*
X144217776Y-87762284D01*
X144217776Y-87816158D01*
X144190839Y-87896971D01*
X144056152Y-88031658D01*
X143975340Y-88058595D01*
X143921465Y-88058595D01*
X142043722Y-86380592D02*
X141962910Y-86407529D01*
X141882097Y-86488341D01*
X141828223Y-86596091D01*
X141828223Y-86703841D01*
X141855160Y-86784653D01*
X141935972Y-86919340D01*
X142016784Y-87000152D01*
X142151471Y-87080964D01*
X142232284Y-87107902D01*
X142340033Y-87107902D01*
X142447783Y-87054027D01*
X142501658Y-87000152D01*
X142555532Y-86892402D01*
X142555532Y-86838528D01*
X142366971Y-86649966D01*
X142259221Y-86757715D01*
X142851844Y-86649966D02*
X142286158Y-86084280D01*
X142501658Y-85868781D01*
X142582470Y-85841844D01*
X142636345Y-85841844D01*
X142717157Y-85868781D01*
X142797969Y-85949593D01*
X142824906Y-86030406D01*
X142824906Y-86084280D01*
X142797969Y-86165093D01*
X142582470Y-86380592D01*
X143713841Y-85787969D02*
X143390592Y-86111218D01*
X143552216Y-85949593D02*
X142986531Y-85383908D01*
X143013468Y-85518595D01*
X143013468Y-85626345D01*
X142986531Y-85707157D01*
X143821590Y-84925972D02*
X144198714Y-85303096D01*
X143471404Y-84845160D02*
X143740778Y-85383908D01*
X144090964Y-85033722D01*
X142089722Y-81300592D02*
X142008910Y-81327529D01*
X141928097Y-81408341D01*
X141874223Y-81516091D01*
X141874223Y-81623841D01*
X141901160Y-81704653D01*
X141981972Y-81839340D01*
X142062784Y-81920152D01*
X142197471Y-82000964D01*
X142278284Y-82027902D01*
X142386033Y-82027902D01*
X142493783Y-81974027D01*
X142547658Y-81920152D01*
X142601532Y-81812402D01*
X142601532Y-81758528D01*
X142412971Y-81569966D01*
X142305221Y-81677715D01*
X142897844Y-81569966D02*
X142332158Y-81004280D01*
X142547658Y-80788781D01*
X142628470Y-80761844D01*
X142682345Y-80761844D01*
X142763157Y-80788781D01*
X142843969Y-80869593D01*
X142870906Y-80950406D01*
X142870906Y-81004280D01*
X142843969Y-81085093D01*
X142628470Y-81300592D01*
X143759841Y-80707969D02*
X143436592Y-81031218D01*
X143598216Y-80869593D02*
X143032531Y-80303908D01*
X143059468Y-80438595D01*
X143059468Y-80546345D01*
X143032531Y-80627157D01*
X143382717Y-79953722D02*
X143732903Y-79603536D01*
X143759841Y-80007597D01*
X143840653Y-79926784D01*
X143921465Y-79899847D01*
X143975340Y-79899847D01*
X144056152Y-79926784D01*
X144190839Y-80061471D01*
X144217776Y-80142284D01*
X144217776Y-80196158D01*
X144190839Y-80276971D01*
X144029215Y-80438595D01*
X143948402Y-80465532D01*
X143894528Y-80465532D01*
X141943722Y-78760592D02*
X141862910Y-78787529D01*
X141782097Y-78868341D01*
X141728223Y-78976091D01*
X141728223Y-79083841D01*
X141755160Y-79164653D01*
X141835972Y-79299340D01*
X141916784Y-79380152D01*
X142051471Y-79460964D01*
X142132284Y-79487902D01*
X142240033Y-79487902D01*
X142347783Y-79434027D01*
X142401658Y-79380152D01*
X142455532Y-79272402D01*
X142455532Y-79218528D01*
X142266971Y-79029966D01*
X142159221Y-79137715D01*
X142751844Y-79029966D02*
X142186158Y-78464280D01*
X142401658Y-78248781D01*
X142482470Y-78221844D01*
X142536345Y-78221844D01*
X142617157Y-78248781D01*
X142697969Y-78329593D01*
X142724906Y-78410406D01*
X142724906Y-78464280D01*
X142697969Y-78545093D01*
X142482470Y-78760592D01*
X143613841Y-78167969D02*
X143290592Y-78491218D01*
X143452216Y-78329593D02*
X142886531Y-77763908D01*
X142913468Y-77898595D01*
X142913468Y-78006345D01*
X142886531Y-78087157D01*
X143317529Y-77440659D02*
X143317529Y-77386784D01*
X143344467Y-77305972D01*
X143479154Y-77171285D01*
X143559966Y-77144348D01*
X143613841Y-77144348D01*
X143694653Y-77171285D01*
X143748528Y-77225160D01*
X143802402Y-77332910D01*
X143802402Y-77979407D01*
X144152589Y-77629221D01*
X141943722Y-76220592D02*
X141862910Y-76247529D01*
X141782097Y-76328341D01*
X141728223Y-76436091D01*
X141728223Y-76543841D01*
X141755160Y-76624653D01*
X141835972Y-76759340D01*
X141916784Y-76840152D01*
X142051471Y-76920964D01*
X142132284Y-76947902D01*
X142240033Y-76947902D01*
X142347783Y-76894027D01*
X142401658Y-76840152D01*
X142455532Y-76732402D01*
X142455532Y-76678528D01*
X142266971Y-76489966D01*
X142159221Y-76597715D01*
X142751844Y-76489966D02*
X142186158Y-75924280D01*
X142401658Y-75708781D01*
X142482470Y-75681844D01*
X142536345Y-75681844D01*
X142617157Y-75708781D01*
X142697969Y-75789593D01*
X142724906Y-75870406D01*
X142724906Y-75924280D01*
X142697969Y-76005093D01*
X142482470Y-76220592D01*
X143613841Y-75627969D02*
X143290592Y-75951218D01*
X143452216Y-75789593D02*
X142886531Y-75223908D01*
X142913468Y-75358595D01*
X142913468Y-75466345D01*
X142886531Y-75547157D01*
X144152589Y-75089221D02*
X143829340Y-75412470D01*
X143990964Y-75250845D02*
X143425279Y-74685160D01*
X143452216Y-74819847D01*
X143452216Y-74927597D01*
X143425279Y-75008409D01*
X142089722Y-73680592D02*
X142008910Y-73707529D01*
X141928097Y-73788341D01*
X141874223Y-73896091D01*
X141874223Y-74003841D01*
X141901160Y-74084653D01*
X141981972Y-74219340D01*
X142062784Y-74300152D01*
X142197471Y-74380964D01*
X142278284Y-74407902D01*
X142386033Y-74407902D01*
X142493783Y-74354027D01*
X142547658Y-74300152D01*
X142601532Y-74192402D01*
X142601532Y-74138528D01*
X142412971Y-73949966D01*
X142305221Y-74057715D01*
X142897844Y-73949966D02*
X142332158Y-73384280D01*
X142547658Y-73168781D01*
X142628470Y-73141844D01*
X142682345Y-73141844D01*
X142763157Y-73168781D01*
X142843969Y-73249593D01*
X142870906Y-73330406D01*
X142870906Y-73384280D01*
X142843969Y-73465093D01*
X142628470Y-73680592D01*
X143759841Y-73087969D02*
X143436592Y-73411218D01*
X143598216Y-73249593D02*
X143032531Y-72683908D01*
X143059468Y-72818595D01*
X143059468Y-72926345D01*
X143032531Y-73007157D01*
X143544341Y-72172097D02*
X143598216Y-72118223D01*
X143679028Y-72091285D01*
X143732903Y-72091285D01*
X143813715Y-72118223D01*
X143948402Y-72199035D01*
X144083089Y-72333722D01*
X144163902Y-72468409D01*
X144190839Y-72549221D01*
X144190839Y-72603096D01*
X144163902Y-72683908D01*
X144110027Y-72737783D01*
X144029215Y-72764720D01*
X143975340Y-72764720D01*
X143894528Y-72737783D01*
X143759841Y-72656971D01*
X143625154Y-72522284D01*
X143544341Y-72387597D01*
X143517404Y-72306784D01*
X143517404Y-72252910D01*
X143544341Y-72172097D01*
X142613096Y-68331218D02*
X142532284Y-68358155D01*
X142451471Y-68438967D01*
X142397597Y-68546717D01*
X142397597Y-68654467D01*
X142424534Y-68735279D01*
X142505346Y-68869966D01*
X142586158Y-68950778D01*
X142720845Y-69031590D01*
X142801658Y-69058528D01*
X142909407Y-69058528D01*
X143017157Y-69004653D01*
X143071032Y-68950778D01*
X143124906Y-68843028D01*
X143124906Y-68789154D01*
X142936345Y-68600592D01*
X142828595Y-68708341D01*
X143421218Y-68600592D02*
X142855532Y-68034906D01*
X143071032Y-67819407D01*
X143151844Y-67792470D01*
X143205719Y-67792470D01*
X143286531Y-67819407D01*
X143367343Y-67900219D01*
X143394280Y-67981032D01*
X143394280Y-68034906D01*
X143367343Y-68115719D01*
X143151844Y-68331218D01*
X144013841Y-68007969D02*
X144121590Y-67900219D01*
X144148528Y-67819407D01*
X144148528Y-67765532D01*
X144121590Y-67630845D01*
X144040778Y-67496158D01*
X143825279Y-67280659D01*
X143744467Y-67253722D01*
X143690592Y-67253722D01*
X143609780Y-67280659D01*
X143502030Y-67388409D01*
X143475093Y-67469221D01*
X143475093Y-67523096D01*
X143502030Y-67603908D01*
X143636717Y-67738595D01*
X143717529Y-67765532D01*
X143771404Y-67765532D01*
X143852216Y-67738595D01*
X143959966Y-67630845D01*
X143986903Y-67550033D01*
X143986903Y-67496158D01*
X143959966Y-67415346D01*
X142613096Y-65791218D02*
X142532284Y-65818155D01*
X142451471Y-65898967D01*
X142397597Y-66006717D01*
X142397597Y-66114467D01*
X142424534Y-66195279D01*
X142505346Y-66329966D01*
X142586158Y-66410778D01*
X142720845Y-66491590D01*
X142801658Y-66518528D01*
X142909407Y-66518528D01*
X143017157Y-66464653D01*
X143071032Y-66410778D01*
X143124906Y-66303028D01*
X143124906Y-66249154D01*
X142936345Y-66060592D01*
X142828595Y-66168341D01*
X143421218Y-66060592D02*
X142855532Y-65494906D01*
X143071032Y-65279407D01*
X143151844Y-65252470D01*
X143205719Y-65252470D01*
X143286531Y-65279407D01*
X143367343Y-65360219D01*
X143394280Y-65441032D01*
X143394280Y-65494906D01*
X143367343Y-65575719D01*
X143151844Y-65791218D01*
X143744467Y-65090845D02*
X143663654Y-65117783D01*
X143609780Y-65117783D01*
X143528967Y-65090845D01*
X143502030Y-65063908D01*
X143475093Y-64983096D01*
X143475093Y-64929221D01*
X143502030Y-64848409D01*
X143609780Y-64740659D01*
X143690592Y-64713722D01*
X143744467Y-64713722D01*
X143825279Y-64740659D01*
X143852216Y-64767597D01*
X143879154Y-64848409D01*
X143879154Y-64902284D01*
X143852216Y-64983096D01*
X143744467Y-65090845D01*
X143717529Y-65171658D01*
X143717529Y-65225532D01*
X143744467Y-65306345D01*
X143852216Y-65414094D01*
X143933028Y-65441032D01*
X143986903Y-65441032D01*
X144067715Y-65414094D01*
X144175465Y-65306345D01*
X144202402Y-65225532D01*
X144202402Y-65171658D01*
X144175465Y-65090845D01*
X144067715Y-64983096D01*
X143986903Y-64956158D01*
X143933028Y-64956158D01*
X143852216Y-64983096D01*
X142713096Y-63221218D02*
X142632284Y-63248155D01*
X142551471Y-63328967D01*
X142497597Y-63436717D01*
X142497597Y-63544467D01*
X142524534Y-63625279D01*
X142605346Y-63759966D01*
X142686158Y-63840778D01*
X142820845Y-63921590D01*
X142901658Y-63948528D01*
X143009407Y-63948528D01*
X143117157Y-63894653D01*
X143171032Y-63840778D01*
X143224906Y-63733028D01*
X143224906Y-63679154D01*
X143036345Y-63490592D01*
X142928595Y-63598341D01*
X143521218Y-63490592D02*
X142955532Y-62924906D01*
X143171032Y-62709407D01*
X143251844Y-62682470D01*
X143305719Y-62682470D01*
X143386531Y-62709407D01*
X143467343Y-62790219D01*
X143494280Y-62871032D01*
X143494280Y-62924906D01*
X143467343Y-63005719D01*
X143251844Y-63221218D01*
X143467343Y-62413096D02*
X143844467Y-62035972D01*
X144167715Y-62844094D01*
X142613096Y-60711218D02*
X142532284Y-60738155D01*
X142451471Y-60818967D01*
X142397597Y-60926717D01*
X142397597Y-61034467D01*
X142424534Y-61115279D01*
X142505346Y-61249966D01*
X142586158Y-61330778D01*
X142720845Y-61411590D01*
X142801658Y-61438528D01*
X142909407Y-61438528D01*
X143017157Y-61384653D01*
X143071032Y-61330778D01*
X143124906Y-61223028D01*
X143124906Y-61169154D01*
X142936345Y-60980592D01*
X142828595Y-61088341D01*
X143421218Y-60980592D02*
X142855532Y-60414906D01*
X143071032Y-60199407D01*
X143151844Y-60172470D01*
X143205719Y-60172470D01*
X143286531Y-60199407D01*
X143367343Y-60280219D01*
X143394280Y-60361032D01*
X143394280Y-60414906D01*
X143367343Y-60495719D01*
X143151844Y-60711218D01*
X143663654Y-59606784D02*
X143555905Y-59714534D01*
X143528967Y-59795346D01*
X143528967Y-59849221D01*
X143555905Y-59983908D01*
X143636717Y-60118595D01*
X143852216Y-60334094D01*
X143933028Y-60361032D01*
X143986903Y-60361032D01*
X144067715Y-60334094D01*
X144175465Y-60226345D01*
X144202402Y-60145532D01*
X144202402Y-60091658D01*
X144175465Y-60010845D01*
X144040778Y-59876158D01*
X143959966Y-59849221D01*
X143906091Y-59849221D01*
X143825279Y-59876158D01*
X143717529Y-59983908D01*
X143690592Y-60064720D01*
X143690592Y-60118595D01*
X143717529Y-60199407D01*
X142613096Y-55631218D02*
X142532284Y-55658155D01*
X142451471Y-55738967D01*
X142397597Y-55846717D01*
X142397597Y-55954467D01*
X142424534Y-56035279D01*
X142505346Y-56169966D01*
X142586158Y-56250778D01*
X142720845Y-56331590D01*
X142801658Y-56358528D01*
X142909407Y-56358528D01*
X143017157Y-56304653D01*
X143071032Y-56250778D01*
X143124906Y-56143028D01*
X143124906Y-56089154D01*
X142936345Y-55900592D01*
X142828595Y-56008341D01*
X143421218Y-55900592D02*
X142855532Y-55334906D01*
X143071032Y-55119407D01*
X143151844Y-55092470D01*
X143205719Y-55092470D01*
X143286531Y-55119407D01*
X143367343Y-55200219D01*
X143394280Y-55281032D01*
X143394280Y-55334906D01*
X143367343Y-55415719D01*
X143151844Y-55631218D01*
X143690592Y-54499847D02*
X143421218Y-54769221D01*
X143663654Y-55065532D01*
X143663654Y-55011658D01*
X143690592Y-54930845D01*
X143825279Y-54796158D01*
X143906091Y-54769221D01*
X143959966Y-54769221D01*
X144040778Y-54796158D01*
X144175465Y-54930845D01*
X144202402Y-55011658D01*
X144202402Y-55065532D01*
X144175465Y-55146345D01*
X144040778Y-55281032D01*
X143959966Y-55307969D01*
X143906091Y-55307969D01*
X142613096Y-53091218D02*
X142532284Y-53118155D01*
X142451471Y-53198967D01*
X142397597Y-53306717D01*
X142397597Y-53414467D01*
X142424534Y-53495279D01*
X142505346Y-53629966D01*
X142586158Y-53710778D01*
X142720845Y-53791590D01*
X142801658Y-53818528D01*
X142909407Y-53818528D01*
X143017157Y-53764653D01*
X143071032Y-53710778D01*
X143124906Y-53603028D01*
X143124906Y-53549154D01*
X142936345Y-53360592D01*
X142828595Y-53468341D01*
X143421218Y-53360592D02*
X142855532Y-52794906D01*
X143071032Y-52579407D01*
X143151844Y-52552470D01*
X143205719Y-52552470D01*
X143286531Y-52579407D01*
X143367343Y-52660219D01*
X143394280Y-52741032D01*
X143394280Y-52794906D01*
X143367343Y-52875719D01*
X143151844Y-53091218D01*
X143852216Y-52175346D02*
X144229340Y-52552470D01*
X143502030Y-52094534D02*
X143771404Y-52633282D01*
X144121590Y-52283096D01*
X142613096Y-50551218D02*
X142532284Y-50578155D01*
X142451471Y-50658967D01*
X142397597Y-50766717D01*
X142397597Y-50874467D01*
X142424534Y-50955279D01*
X142505346Y-51089966D01*
X142586158Y-51170778D01*
X142720845Y-51251590D01*
X142801658Y-51278528D01*
X142909407Y-51278528D01*
X143017157Y-51224653D01*
X143071032Y-51170778D01*
X143124906Y-51063028D01*
X143124906Y-51009154D01*
X142936345Y-50820592D01*
X142828595Y-50928341D01*
X143421218Y-50820592D02*
X142855532Y-50254906D01*
X143071032Y-50039407D01*
X143151844Y-50012470D01*
X143205719Y-50012470D01*
X143286531Y-50039407D01*
X143367343Y-50120219D01*
X143394280Y-50201032D01*
X143394280Y-50254906D01*
X143367343Y-50335719D01*
X143151844Y-50551218D01*
X143367343Y-49743096D02*
X143717529Y-49392910D01*
X143744467Y-49796971D01*
X143825279Y-49716158D01*
X143906091Y-49689221D01*
X143959966Y-49689221D01*
X144040778Y-49716158D01*
X144175465Y-49850845D01*
X144202402Y-49931658D01*
X144202402Y-49985532D01*
X144175465Y-50066345D01*
X144013841Y-50227969D01*
X143933028Y-50254906D01*
X143879154Y-50254906D01*
X142613096Y-40391218D02*
X142532284Y-40418155D01*
X142451471Y-40498967D01*
X142397597Y-40606717D01*
X142397597Y-40714467D01*
X142424534Y-40795279D01*
X142505346Y-40929966D01*
X142586158Y-41010778D01*
X142720845Y-41091590D01*
X142801658Y-41118528D01*
X142909407Y-41118528D01*
X143017157Y-41064653D01*
X143071032Y-41010778D01*
X143124906Y-40903028D01*
X143124906Y-40849154D01*
X142936345Y-40660592D01*
X142828595Y-40768341D01*
X143421218Y-40660592D02*
X142855532Y-40094906D01*
X143071032Y-39879407D01*
X143151844Y-39852470D01*
X143205719Y-39852470D01*
X143286531Y-39879407D01*
X143367343Y-39960219D01*
X143394280Y-40041032D01*
X143394280Y-40094906D01*
X143367343Y-40175719D01*
X143151844Y-40391218D01*
X143528967Y-39421471D02*
X143582842Y-39367597D01*
X143663654Y-39340659D01*
X143717529Y-39340659D01*
X143798341Y-39367597D01*
X143933028Y-39448409D01*
X144067715Y-39583096D01*
X144148528Y-39717783D01*
X144175465Y-39798595D01*
X144175465Y-39852470D01*
X144148528Y-39933282D01*
X144094653Y-39987157D01*
X144013841Y-40014094D01*
X143959966Y-40014094D01*
X143879154Y-39987157D01*
X143744467Y-39906345D01*
X143609780Y-39771658D01*
X143528967Y-39636971D01*
X143502030Y-39556158D01*
X143502030Y-39502284D01*
X143528967Y-39421471D01*
X142513096Y-48011218D02*
X142432284Y-48038155D01*
X142351471Y-48118967D01*
X142297597Y-48226717D01*
X142297597Y-48334467D01*
X142324534Y-48415279D01*
X142405346Y-48549966D01*
X142486158Y-48630778D01*
X142620845Y-48711590D01*
X142701658Y-48738528D01*
X142809407Y-48738528D01*
X142917157Y-48684653D01*
X142971032Y-48630778D01*
X143024906Y-48523028D01*
X143024906Y-48469154D01*
X142836345Y-48280592D01*
X142728595Y-48388341D01*
X143321218Y-48280592D02*
X142755532Y-47714906D01*
X142971032Y-47499407D01*
X143051844Y-47472470D01*
X143105719Y-47472470D01*
X143186531Y-47499407D01*
X143267343Y-47580219D01*
X143294280Y-47661032D01*
X143294280Y-47714906D01*
X143267343Y-47795719D01*
X143051844Y-48011218D01*
X143348155Y-47230033D02*
X143348155Y-47176158D01*
X143375093Y-47095346D01*
X143509780Y-46960659D01*
X143590592Y-46933722D01*
X143644467Y-46933722D01*
X143725279Y-46960659D01*
X143779154Y-47014534D01*
X143833028Y-47122284D01*
X143833028Y-47768781D01*
X144183215Y-47418595D01*
X142513096Y-42921218D02*
X142432284Y-42948155D01*
X142351471Y-43028967D01*
X142297597Y-43136717D01*
X142297597Y-43244467D01*
X142324534Y-43325279D01*
X142405346Y-43459966D01*
X142486158Y-43540778D01*
X142620845Y-43621590D01*
X142701658Y-43648528D01*
X142809407Y-43648528D01*
X142917157Y-43594653D01*
X142971032Y-43540778D01*
X143024906Y-43433028D01*
X143024906Y-43379154D01*
X142836345Y-43190592D01*
X142728595Y-43298341D01*
X143321218Y-43190592D02*
X142755532Y-42624906D01*
X142971032Y-42409407D01*
X143051844Y-42382470D01*
X143105719Y-42382470D01*
X143186531Y-42409407D01*
X143267343Y-42490219D01*
X143294280Y-42571032D01*
X143294280Y-42624906D01*
X143267343Y-42705719D01*
X143051844Y-42921218D01*
X144183215Y-42328595D02*
X143859966Y-42651844D01*
X144021590Y-42490219D02*
X143455905Y-41924534D01*
X143482842Y-42059221D01*
X143482842Y-42166971D01*
X143455905Y-42247783D01*
%LPC*%
D13*
X69000142Y-106679351D02*
X69000142Y-105179351D01*
X69643000Y-106679351D02*
X69643000Y-105893637D01*
X69571571Y-105750780D01*
X69428714Y-105679351D01*
X69214428Y-105679351D01*
X69071571Y-105750780D01*
X69000142Y-105822208D01*
X70143000Y-105679351D02*
X70714428Y-105679351D01*
X70357285Y-105179351D02*
X70357285Y-106465065D01*
X70428714Y-106607922D01*
X70571571Y-106679351D01*
X70714428Y-106679351D01*
X71000142Y-105679351D02*
X71571571Y-105679351D01*
X71214428Y-105179351D02*
X71214428Y-106465065D01*
X71285857Y-106607922D01*
X71428714Y-106679351D01*
X71571571Y-106679351D01*
X72071571Y-105679351D02*
X72071571Y-107179351D01*
X72071571Y-105750780D02*
X72214428Y-105679351D01*
X72500142Y-105679351D01*
X72643000Y-105750780D01*
X72714428Y-105822208D01*
X72785857Y-105965065D01*
X72785857Y-106393637D01*
X72714428Y-106536494D01*
X72643000Y-106607922D01*
X72500142Y-106679351D01*
X72214428Y-106679351D01*
X72071571Y-106607922D01*
X73357285Y-106607922D02*
X73500142Y-106679351D01*
X73785857Y-106679351D01*
X73928714Y-106607922D01*
X74000142Y-106465065D01*
X74000142Y-106393637D01*
X73928714Y-106250780D01*
X73785857Y-106179351D01*
X73571571Y-106179351D01*
X73428714Y-106107922D01*
X73357285Y-105965065D01*
X73357285Y-105893637D01*
X73428714Y-105750780D01*
X73571571Y-105679351D01*
X73785857Y-105679351D01*
X73928714Y-105750780D01*
X74643000Y-106536494D02*
X74714428Y-106607922D01*
X74643000Y-106679351D01*
X74571571Y-106607922D01*
X74643000Y-106536494D01*
X74643000Y-106679351D01*
X74643000Y-105750780D02*
X74714428Y-105822208D01*
X74643000Y-105893637D01*
X74571571Y-105822208D01*
X74643000Y-105750780D01*
X74643000Y-105893637D01*
X76428714Y-105107922D02*
X75143000Y-107036494D01*
X78000142Y-105107922D02*
X76714428Y-107036494D01*
X79143000Y-105679351D02*
X79143000Y-106893637D01*
X79071571Y-107036494D01*
X79000142Y-107107922D01*
X78857285Y-107179351D01*
X78643000Y-107179351D01*
X78500142Y-107107922D01*
X79143000Y-106607922D02*
X79000142Y-106679351D01*
X78714428Y-106679351D01*
X78571571Y-106607922D01*
X78500142Y-106536494D01*
X78428714Y-106393637D01*
X78428714Y-105965065D01*
X78500142Y-105822208D01*
X78571571Y-105750780D01*
X78714428Y-105679351D01*
X79000142Y-105679351D01*
X79143000Y-105750780D01*
X79857285Y-106679351D02*
X79857285Y-105679351D01*
X79857285Y-105179351D02*
X79785857Y-105250780D01*
X79857285Y-105322208D01*
X79928714Y-105250780D01*
X79857285Y-105179351D01*
X79857285Y-105322208D01*
X80357285Y-105679351D02*
X80928714Y-105679351D01*
X80571571Y-105179351D02*
X80571571Y-106465065D01*
X80643000Y-106607922D01*
X80785857Y-106679351D01*
X80928714Y-106679351D01*
X81428714Y-106679351D02*
X81428714Y-105179351D01*
X82071571Y-106679351D02*
X82071571Y-105893637D01*
X82000142Y-105750780D01*
X81857285Y-105679351D01*
X81643000Y-105679351D01*
X81500142Y-105750780D01*
X81428714Y-105822208D01*
X83428714Y-105679351D02*
X83428714Y-106679351D01*
X82785857Y-105679351D02*
X82785857Y-106465065D01*
X82857285Y-106607922D01*
X83000142Y-106679351D01*
X83214428Y-106679351D01*
X83357285Y-106607922D01*
X83428714Y-106536494D01*
X84143000Y-106679351D02*
X84143000Y-105179351D01*
X84143000Y-105750780D02*
X84285857Y-105679351D01*
X84571571Y-105679351D01*
X84714428Y-105750780D01*
X84785857Y-105822208D01*
X84857285Y-105965065D01*
X84857285Y-106393637D01*
X84785857Y-106536494D01*
X84714428Y-106607922D01*
X84571571Y-106679351D01*
X84285857Y-106679351D01*
X84143000Y-106607922D01*
X85500142Y-106536494D02*
X85571571Y-106607922D01*
X85500142Y-106679351D01*
X85428714Y-106607922D01*
X85500142Y-106536494D01*
X85500142Y-106679351D01*
X86857285Y-106607922D02*
X86714428Y-106679351D01*
X86428714Y-106679351D01*
X86285857Y-106607922D01*
X86214428Y-106536494D01*
X86143000Y-106393637D01*
X86143000Y-105965065D01*
X86214428Y-105822208D01*
X86285857Y-105750780D01*
X86428714Y-105679351D01*
X86714428Y-105679351D01*
X86857285Y-105750780D01*
X87714428Y-106679351D02*
X87571571Y-106607922D01*
X87500142Y-106536494D01*
X87428714Y-106393637D01*
X87428714Y-105965065D01*
X87500142Y-105822208D01*
X87571571Y-105750780D01*
X87714428Y-105679351D01*
X87928714Y-105679351D01*
X88071571Y-105750780D01*
X88143000Y-105822208D01*
X88214428Y-105965065D01*
X88214428Y-106393637D01*
X88143000Y-106536494D01*
X88071571Y-106607922D01*
X87928714Y-106679351D01*
X87714428Y-106679351D01*
X88857285Y-106679351D02*
X88857285Y-105679351D01*
X88857285Y-105822208D02*
X88928714Y-105750780D01*
X89071571Y-105679351D01*
X89285857Y-105679351D01*
X89428714Y-105750780D01*
X89500142Y-105893637D01*
X89500142Y-106679351D01*
X89500142Y-105893637D02*
X89571571Y-105750780D01*
X89714428Y-105679351D01*
X89928714Y-105679351D01*
X90071571Y-105750780D01*
X90143000Y-105893637D01*
X90143000Y-106679351D01*
X91928714Y-105107922D02*
X90643000Y-107036494D01*
X92428714Y-105893637D02*
X92928714Y-105893637D01*
X93143000Y-106679351D02*
X92428714Y-106679351D01*
X92428714Y-105179351D01*
X93143000Y-105179351D01*
X93785857Y-105679351D02*
X93785857Y-106679351D01*
X93785857Y-105822208D02*
X93857285Y-105750780D01*
X94000142Y-105679351D01*
X94214428Y-105679351D01*
X94357285Y-105750780D01*
X94428714Y-105893637D01*
X94428714Y-106679351D01*
X95000142Y-105679351D02*
X95357285Y-106679351D01*
X95714428Y-105679351D01*
X96285857Y-106679351D02*
X96285857Y-105679351D01*
X96285857Y-105179351D02*
X96214428Y-105250780D01*
X96285857Y-105322208D01*
X96357285Y-105250780D01*
X96285857Y-105179351D01*
X96285857Y-105322208D01*
X97214428Y-106679351D02*
X97071571Y-106607922D01*
X97000142Y-106536494D01*
X96928714Y-106393637D01*
X96928714Y-105965065D01*
X97000142Y-105822208D01*
X97071571Y-105750780D01*
X97214428Y-105679351D01*
X97428714Y-105679351D01*
X97571571Y-105750780D01*
X97643000Y-105822208D01*
X97714428Y-105965065D01*
X97714428Y-106393637D01*
X97643000Y-106536494D01*
X97571571Y-106607922D01*
X97428714Y-106679351D01*
X97214428Y-106679351D01*
X99000142Y-105679351D02*
X99000142Y-106679351D01*
X98357285Y-105679351D02*
X98357285Y-106465065D01*
X98428714Y-106607922D01*
X98571571Y-106679351D01*
X98785857Y-106679351D01*
X98928714Y-106607922D01*
X99000142Y-106536494D01*
X99643000Y-106607922D02*
X99785857Y-106679351D01*
X100071571Y-106679351D01*
X100214428Y-106607922D01*
X100285857Y-106465065D01*
X100285857Y-106393637D01*
X100214428Y-106250780D01*
X100071571Y-106179351D01*
X99857285Y-106179351D01*
X99714428Y-106107922D01*
X99643000Y-105965065D01*
X99643000Y-105893637D01*
X99714428Y-105750780D01*
X99857285Y-105679351D01*
X100071571Y-105679351D01*
X100214428Y-105750780D01*
X100928714Y-106107922D02*
X102071571Y-106107922D01*
X102785857Y-106679351D02*
X102785857Y-105179351D01*
X103143000Y-105179351D01*
X103357285Y-105250780D01*
X103500142Y-105393637D01*
X103571571Y-105536494D01*
X103643000Y-105822208D01*
X103643000Y-106036494D01*
X103571571Y-106322208D01*
X103500142Y-106465065D01*
X103357285Y-106607922D01*
X103143000Y-106679351D01*
X102785857Y-106679351D01*
X104928714Y-106679351D02*
X104928714Y-105893637D01*
X104857285Y-105750780D01*
X104714428Y-105679351D01*
X104428714Y-105679351D01*
X104285857Y-105750780D01*
X104928714Y-106607922D02*
X104785857Y-106679351D01*
X104428714Y-106679351D01*
X104285857Y-106607922D01*
X104214428Y-106465065D01*
X104214428Y-106322208D01*
X104285857Y-106179351D01*
X104428714Y-106107922D01*
X104785857Y-106107922D01*
X104928714Y-106036494D01*
X105428714Y-105679351D02*
X106000142Y-105679351D01*
X105643000Y-105179351D02*
X105643000Y-106465065D01*
X105714428Y-106607922D01*
X105857285Y-106679351D01*
X106000142Y-106679351D01*
X107143000Y-106679351D02*
X107143000Y-105893637D01*
X107071571Y-105750780D01*
X106928714Y-105679351D01*
X106643000Y-105679351D01*
X106500142Y-105750780D01*
X107143000Y-106607922D02*
X107000142Y-106679351D01*
X106643000Y-106679351D01*
X106500142Y-106607922D01*
X106428714Y-106465065D01*
X106428714Y-106322208D01*
X106500142Y-106179351D01*
X106643000Y-106107922D01*
X107000142Y-106107922D01*
X107143000Y-106036494D01*
X108928714Y-105107922D02*
X107643000Y-107036494D01*
X109428714Y-105893637D02*
X109928714Y-105893637D01*
X110143000Y-106679351D02*
X109428714Y-106679351D01*
X109428714Y-105179351D01*
X110143000Y-105179351D01*
X110785857Y-105679351D02*
X110785857Y-106679351D01*
X110785857Y-105822208D02*
X110857285Y-105750780D01*
X111000142Y-105679351D01*
X111214428Y-105679351D01*
X111357285Y-105750780D01*
X111428714Y-105893637D01*
X111428714Y-106679351D01*
X112000142Y-105679351D02*
X112357285Y-106679351D01*
X112714428Y-105679351D01*
X113285857Y-106107922D02*
X114428714Y-106107922D01*
X115143000Y-106679351D02*
X115143000Y-105179351D01*
X115643000Y-106250780D01*
X116143000Y-105179351D01*
X116143000Y-106679351D01*
X117714428Y-106536494D02*
X117643000Y-106607922D01*
X117428714Y-106679351D01*
X117285857Y-106679351D01*
X117071571Y-106607922D01*
X116928714Y-106465065D01*
X116857285Y-106322208D01*
X116785857Y-106036494D01*
X116785857Y-105822208D01*
X116857285Y-105536494D01*
X116928714Y-105393637D01*
X117071571Y-105250780D01*
X117285857Y-105179351D01*
X117428714Y-105179351D01*
X117643000Y-105250780D01*
X117714428Y-105322208D01*
X119214428Y-106679351D02*
X118714428Y-105965065D01*
X118357285Y-106679351D02*
X118357285Y-105179351D01*
X118928714Y-105179351D01*
X119071571Y-105250780D01*
X119143000Y-105322208D01*
X119214428Y-105465065D01*
X119214428Y-105679351D01*
X119143000Y-105822208D01*
X119071571Y-105893637D01*
X118928714Y-105965065D01*
X118357285Y-105965065D01*
X120143000Y-105179351D02*
X120428714Y-105179351D01*
X120571571Y-105250780D01*
X120714428Y-105393637D01*
X120785857Y-105679351D01*
X120785857Y-106179351D01*
X120714428Y-106465065D01*
X120571571Y-106607922D01*
X120428714Y-106679351D01*
X120143000Y-106679351D01*
X120000142Y-106607922D01*
X119857285Y-106465065D01*
X119785857Y-106179351D01*
X119785857Y-105679351D01*
X119857285Y-105393637D01*
X120000142Y-105250780D01*
X120143000Y-105179351D01*
D14*
X151400000Y-96800000D03*
D15*
X151400000Y-99300000D03*
X151400000Y-101800000D03*
D16*
X158900000Y-93700000D03*
X158900000Y-104900000D03*
D15*
X165900000Y-96800000D03*
X165900000Y-101800000D03*
D17*
X94385000Y-48435000D03*
D18*
X89305000Y-48435000D03*
X99465000Y-48435000D03*
D17*
X132485000Y-48435000D03*
D18*
X127405000Y-48435000D03*
X137565000Y-48435000D03*
D17*
X75335000Y-72247500D03*
D18*
X70255000Y-72247500D03*
X80415000Y-72247500D03*
D17*
X94385000Y-72247500D03*
D18*
X89305000Y-72247500D03*
X99465000Y-72247500D03*
D17*
X113435000Y-72247500D03*
D18*
X108355000Y-72247500D03*
X118515000Y-72247500D03*
D17*
X132485000Y-72247500D03*
D18*
X127405000Y-72247500D03*
X137565000Y-72247500D03*
D17*
X75335000Y-96060000D03*
D18*
X70255000Y-96060000D03*
X80415000Y-96060000D03*
D17*
X94385000Y-96060000D03*
D18*
X89305000Y-96060000D03*
X99465000Y-96060000D03*
D17*
X113435000Y-96060000D03*
D18*
X108355000Y-96060000D03*
X118515000Y-96060000D03*
D19*
X83860000Y-41315000D03*
D20*
X83860000Y-48935000D03*
D19*
X102910000Y-41315000D03*
D20*
X102910000Y-48935000D03*
D19*
X121960000Y-41315000D03*
D20*
X121960000Y-48935000D03*
D19*
X141010000Y-41315000D03*
D20*
X141010000Y-48935000D03*
D19*
X83860000Y-65127500D03*
D20*
X83860000Y-72747500D03*
D19*
X102910000Y-65127500D03*
D20*
X102910000Y-72747500D03*
D19*
X121960000Y-65127500D03*
D20*
X121960000Y-72747500D03*
D19*
X141010000Y-65527500D03*
D20*
X141010000Y-73147500D03*
D19*
X83860000Y-88940000D03*
D20*
X83860000Y-96560000D03*
D19*
X102910000Y-88940000D03*
D20*
X102910000Y-96560000D03*
D19*
X121960000Y-88940000D03*
D20*
X121960000Y-96560000D03*
D19*
X141010000Y-88940000D03*
D20*
X141010000Y-96560000D03*
D17*
X75335000Y-48435000D03*
D18*
X70255000Y-48435000D03*
X80415000Y-48435000D03*
D17*
X113435000Y-48435000D03*
D18*
X108355000Y-48435000D03*
X118515000Y-48435000D03*
D21*
X158640000Y-88300000D03*
D22*
X158640000Y-89200000D03*
D23*
X156100000Y-88300000D03*
D22*
X156100000Y-89200000D03*
D21*
X153560000Y-88300000D03*
D22*
X153560000Y-89200000D03*
D24*
X158525000Y-43430000D03*
X153675000Y-43430000D03*
D25*
X158825000Y-40400000D03*
X153375000Y-40400000D03*
D26*
X165890000Y-88530000D03*
X165890000Y-85990000D03*
X165890000Y-83450000D03*
X165890000Y-80910000D03*
X165890000Y-78370000D03*
X165890000Y-75830000D03*
X165890000Y-73290000D03*
X165890000Y-70750000D03*
X165890000Y-68210000D03*
X165890000Y-65670000D03*
X165890000Y-63130000D03*
X165890000Y-60590000D03*
X165890000Y-58050000D03*
X165890000Y-55510000D03*
X165890000Y-52970000D03*
X165890000Y-50430000D03*
X165890000Y-47890000D03*
X165890000Y-45350000D03*
X165890000Y-42810000D03*
X165890000Y-40270000D03*
X146310000Y-88530000D03*
X146310000Y-85990000D03*
X146310000Y-83450000D03*
X146310000Y-80910000D03*
X146310000Y-78370000D03*
X146310000Y-75830000D03*
X146310000Y-73290000D03*
X146310000Y-70750000D03*
X146310000Y-68210000D03*
X146310000Y-65670000D03*
X146310000Y-63130000D03*
X146310000Y-60590000D03*
X146310000Y-58050000D03*
X146310000Y-55510000D03*
X146310000Y-52970000D03*
X146310000Y-50430000D03*
X146310000Y-47890000D03*
X146310000Y-45350000D03*
X146310000Y-42810000D03*
X146310000Y-40270000D03*
D21*
X164990000Y-40270000D03*
X164990000Y-42810000D03*
D23*
X164990000Y-45350000D03*
D21*
X164990000Y-47890000D03*
X164990000Y-50430000D03*
X164990000Y-52970000D03*
X164990000Y-55510000D03*
D23*
X164990000Y-58050000D03*
D21*
X164990000Y-60590000D03*
X164990000Y-63130000D03*
X164990000Y-65670000D03*
X164990000Y-68210000D03*
D23*
X164990000Y-70750000D03*
D21*
X164990000Y-73290000D03*
X164990000Y-75830000D03*
X164990000Y-78370000D03*
X164990000Y-80910000D03*
D23*
X164990000Y-83450000D03*
D21*
X164990000Y-85990000D03*
X164990000Y-88530000D03*
X147210000Y-88530000D03*
X147210000Y-85990000D03*
D23*
X147210000Y-83450000D03*
D21*
X147210000Y-80910000D03*
X147210000Y-78370000D03*
X147210000Y-75830000D03*
X147210000Y-73290000D03*
D23*
X147210000Y-70750000D03*
D21*
X147210000Y-68210000D03*
X147210000Y-65670000D03*
X147210000Y-63130000D03*
X147210000Y-60590000D03*
D23*
X147210000Y-58050000D03*
D21*
X147210000Y-55510000D03*
X147210000Y-52970000D03*
X147210000Y-50430000D03*
X147210000Y-47890000D03*
D23*
X147210000Y-45350000D03*
D21*
X147210000Y-42810000D03*
X147210000Y-40270000D03*
D17*
X132485000Y-96060000D03*
D18*
X127405000Y-96060000D03*
X137565000Y-96060000D03*
D19*
X147500000Y-92700000D03*
D20*
X147500000Y-100320000D03*
D27*
X170500000Y-41300000D03*
X65900000Y-106000000D03*
X65900000Y-41300000D03*
X170500000Y-106000000D03*
M02*
