  0
SECTION
  2
HEADER
  9
$ANGBASE
  50
0.0
  9
$ANGDIR
  70
1
  9
$MEASUREMENT
  70
1
  0
ENDSEC
  0
SECTION
  2
TABLES
  0
TABLE
  2
LTYPE
  70
4
  0
LTYPE
  5
40F
  2
CONTINUOUS
  70
0
  3
Solid line
  72
65
  73
0
  40
0.0
  0
LTYPE
  5
410
  2
DASHDOT
 70
0
  3
Dash Dot ____ _ ____ _
 72
65
 73
4
 40
2.0
 49
1.25
 49
-0.25
 49
0.25
 49
-0.25
  0
LTYPE
  5
411
  2
DASHED
 70
0
  3
Dashed __ __ __ __ __
 72
65
 73
2
 40
0.75
 49
0.5
 49
-0.25
  0
LTYPE
  5
43B
  2
DOTTED
 70
0
  3
Dotted .  .  .  .
 72
65
 73
2
 40
0.2
 49
0.0
 49
-0.2
  0
ENDTAB
  0
TABLE
  2
STYLE
  70
4
  0
STYLE
  2
KICAD
  70
0
  40
0
  41
1
  42
1
  50
0
  71
0
  3
isocp.shx
  0
STYLE
  2
KICADB
  70
0
  40
0
  41
1
  42
1
  50
0
  71
0
  3
isocp.shx
  0
STYLE
  2
KICADI
  70
0
  40
0
  41
1
  42
1
  50
15
  71
0
  3
isocp.shx
  0
STYLE
  2
KICADBI
  70
0
  40
0
  41
1
  42
1
  50
15
  71
0
  3
isocp.shx
  0
ENDTAB
  0
TABLE
  2
LAYER
  70
1
  0
LAYER
  2
BLACK
  70
0
  62
7
  6
CONTINUOUS
  0
ENDTAB
  0
ENDSEC
  0
SECTION
  2
ENTITIES
0
ARC
8
BLACK
10
171
20
-40.8
40
2
50
-0
51
90
0
ARC
8
BLACK
10
171
20
-106.5
40
2
50
-90
51
-0
0
ARC
8
BLACK
10
65.4
20
-106.5
40
2
50
180
51
270
0
LINE
8
BLACK
6
CONTINUOUS
10
63.4
20
-40.8
11
63.4
21
-106.5
0
LINE
8
BLACK
6
CONTINUOUS
10
171
20
-38.8
11
65.4
21
-38.8
0
ARC
8
BLACK
10
65.4
20
-40.8
40
2
50
90
51
180
0
LINE
8
BLACK
6
CONTINUOUS
10
173
20
-106.5
11
173
21
-40.8
0
LINE
8
BLACK
6
CONTINUOUS
10
65.4
20
-108.5
11
171
21
-108.5
0
LINE
8
BLACK
6
CONTINUOUS
10
77.035
20
-52.8272
11
77.035
21
-54.2328
0
LINE
8
BLACK
6
CONTINUOUS
10
76.1295
20
-55.03
11
74.5405
21
-55.03
0
LINE
8
BLACK
6
CONTINUOUS
10
73.635
20
-54.2328
11
73.635
21
-52.8272
0
LINE
8
BLACK
6
CONTINUOUS
10
74.5405
20
-52.03
11
76.1295
21
-52.03
0
ARC
8
BLACK
10
76.1295
20
-51.53
40
0.5
50
-90
51
-59.7007
0
ARC
8
BLACK
10
74.5405
20
-51.53
40
0.5
50
-120.299
51
-90
0
ARC
8
BLACK
10
74.036
20
-52.3934
40
0.5
50
59.7008
51
205.706
0
ARC
8
BLACK
10
73.135
20
-52.8272
40
0.5
50
-0
51
25.7062
0
ARC
8
BLACK
10
73.135
20
-54.2328
40
0.5
50
-25.7062
51
-9.05134e-05
0
ARC
8
BLACK
10
74.036
20
-54.6666
40
0.499999
50
154.294
51
300.299
0
ARC
8
BLACK
10
74.5405
20
-55.53
40
0.5
50
90
51
120.299
0
ARC
8
BLACK
10
76.1295
20
-55.53
40
0.499999
50
59.7006
51
89.9999
0
ARC
8
BLACK
10
76.634
20
-54.6666
40
0.5
50
-120.299
51
25.7062
0
ARC
8
BLACK
10
77.535
20
-54.2328
40
0.5
50
180
51
205.706
0
ARC
8
BLACK
10
77.535
20
-52.8272
40
0.5
50
154.294
51
180
0
ARC
8
BLACK
10
76.634
20
-52.3934
40
0.499999
50
-25.7061
51
120.299
0
LINE
8
BLACK
6
CONTINUOUS
10
96.1
20
-52.8272
11
96.1
21
-54.2328
0
LINE
8
BLACK
6
CONTINUOUS
10
95.1945
20
-55.03
11
93.6055
21
-55.03
0
LINE
8
BLACK
6
CONTINUOUS
10
92.7
20
-54.2328
11
92.7
21
-52.8272
0
LINE
8
BLACK
6
CONTINUOUS
10
93.6055
20
-52.03
11
95.1945
21
-52.03
0
ARC
8
BLACK
10
95.1945
20
-51.53
40
0.5
50
-90
51
-59.7007
0
ARC
8
BLACK
10
93.6055
20
-51.53
40
0.5
50
-120.299
51
-90
0
ARC
8
BLACK
10
93.101
20
-52.3934
40
0.5
50
59.7008
51
205.706
0
ARC
8
BLACK
10
92.2
20
-52.8272
40
0.5
50
-0
51
25.7062
0
ARC
8
BLACK
10
92.2
20
-54.2328
40
0.5
50
-25.7062
51
-9.05134e-05
0
ARC
8
BLACK
10
93.101
20
-54.6666
40
0.499999
50
154.294
51
300.299
0
ARC
8
BLACK
10
93.6055
20
-55.53
40
0.5
50
90
51
120.299
0
ARC
8
BLACK
10
95.1945
20
-55.53
40
0.499999
50
59.7006
51
89.9999
0
ARC
8
BLACK
10
95.699
20
-54.6666
40
0.5
50
-120.299
51
25.7062
0
ARC
8
BLACK
10
96.6
20
-54.2328
40
0.5
50
180
51
205.706
0
ARC
8
BLACK
10
96.6
20
-52.8272
40
0.5
50
154.294
51
180
0
ARC
8
BLACK
10
95.699
20
-52.3934
40
0.499999
50
-25.7061
51
120.299
0
LINE
8
BLACK
6
CONTINUOUS
10
115.15
20
-52.8272
11
115.15
21
-54.2328
0
LINE
8
BLACK
6
CONTINUOUS
10
114.244
20
-55.03
11
112.656
21
-55.03
0
LINE
8
BLACK
6
CONTINUOUS
10
111.75
20
-54.2328
11
111.75
21
-52.8272
0
LINE
8
BLACK
6
CONTINUOUS
10
112.656
20
-52.03
11
114.244
21
-52.03
0
ARC
8
BLACK
10
114.244
20
-51.53
40
0.5
50
-90
51
-59.7007
0
ARC
8
BLACK
10
112.656
20
-51.53
40
0.5
50
-120.299
51
-90
0
ARC
8
BLACK
10
112.151
20
-52.3934
40
0.5
50
59.7008
51
205.706
0
ARC
8
BLACK
10
111.25
20
-52.8272
40
0.5
50
-0
51
25.7062
0
ARC
8
BLACK
10
111.25
20
-54.2328
40
0.5
50
-25.7062
51
-9.05134e-05
0
ARC
8
BLACK
10
112.151
20
-54.6666
40
0.499999
50
154.294
51
300.299
0
ARC
8
BLACK
10
112.656
20
-55.53
40
0.5
50
90
51
120.299
0
ARC
8
BLACK
10
114.244
20
-55.53
40
0.499999
50
59.7006
51
89.9999
0
ARC
8
BLACK
10
114.749
20
-54.6666
40
0.5
50
-120.299
51
25.7062
0
ARC
8
BLACK
10
115.65
20
-54.2328
40
0.5
50
180
51
205.706
0
ARC
8
BLACK
10
115.65
20
-52.8272
40
0.5
50
154.294
51
180
0
ARC
8
BLACK
10
114.749
20
-52.3934
40
0.499999
50
-25.7061
51
120.299
0
LINE
8
BLACK
6
CONTINUOUS
10
134.185
20
-52.8122
11
134.185
21
-54.2178
0
LINE
8
BLACK
6
CONTINUOUS
10
133.279
20
-55.015
11
131.691
21
-55.015
0
LINE
8
BLACK
6
CONTINUOUS
10
130.785
20
-54.2178
11
130.785
21
-52.8122
0
LINE
8
BLACK
6
CONTINUOUS
10
131.691
20
-52.015
11
133.279
21
-52.015
0
ARC
8
BLACK
10
133.279
20
-51.515
40
0.5
50
-90
51
-59.7007
0
ARC
8
BLACK
10
131.691
20
-51.515
40
0.5
50
-120.299
51
-90
0
ARC
8
BLACK
10
131.186
20
-52.3784
40
0.5
50
59.7008
51
205.706
0
ARC
8
BLACK
10
130.285
20
-52.8122
40
0.5
50
-0
51
25.7062
0
ARC
8
BLACK
10
130.285
20
-54.2178
40
0.5
50
-25.7062
51
-9.05134e-05
0
ARC
8
BLACK
10
131.186
20
-54.6516
40
0.499999
50
154.294
51
300.299
0
ARC
8
BLACK
10
131.691
20
-55.515
40
0.5
50
90
51
120.299
0
ARC
8
BLACK
10
133.279
20
-55.515
40
0.499999
50
59.7006
51
89.9999
0
ARC
8
BLACK
10
133.784
20
-54.6516
40
0.5
50
-120.299
51
25.7062
0
ARC
8
BLACK
10
134.685
20
-54.2178
40
0.5
50
180
51
205.706
0
ARC
8
BLACK
10
134.685
20
-52.8122
40
0.5
50
154.294
51
180
0
ARC
8
BLACK
10
133.784
20
-52.3784
40
0.499999
50
-25.7061
51
120.299
0
LINE
8
BLACK
6
CONTINUOUS
10
77.035
20
-76.6247
11
77.035
21
-78.0303
0
LINE
8
BLACK
6
CONTINUOUS
10
76.1295
20
-78.8275
11
74.5405
21
-78.8275
0
LINE
8
BLACK
6
CONTINUOUS
10
73.635
20
-78.0303
11
73.635
21
-76.6247
0
LINE
8
BLACK
6
CONTINUOUS
10
74.5405
20
-75.8275
11
76.1295
21
-75.8275
0
ARC
8
BLACK
10
76.1295
20
-75.3275
40
0.5
50
-90
51
-59.7007
0
ARC
8
BLACK
10
74.5405
20
-75.3275
40
0.5
50
-120.299
51
-90
0
ARC
8
BLACK
10
74.036
20
-76.1909
40
0.5
50
59.7008
51
205.706
0
ARC
8
BLACK
10
73.135
20
-76.6247
40
0.5
50
-0
51
25.7062
0
ARC
8
BLACK
10
73.135
20
-78.0303
40
0.5
50
-25.7062
51
-9.05134e-05
0
ARC
8
BLACK
10
74.036
20
-78.4641
40
0.499999
50
154.294
51
300.299
0
ARC
8
BLACK
10
74.5405
20
-79.3275
40
0.5
50
90
51
120.299
0
ARC
8
BLACK
10
76.1295
20
-79.3275
40
0.499999
50
59.7006
51
89.9999
0
ARC
8
BLACK
10
76.634
20
-78.4641
40
0.5
50
-120.299
51
25.7062
0
ARC
8
BLACK
10
77.535
20
-78.0303
40
0.5
50
180
51
205.706
0
ARC
8
BLACK
10
77.535
20
-76.6247
40
0.5
50
154.294
51
180
0
ARC
8
BLACK
10
76.634
20
-76.1909
40
0.499999
50
-25.7061
51
120.299
0
LINE
8
BLACK
6
CONTINUOUS
10
96.085
20
-76.6247
11
96.085
21
-78.0303
0
LINE
8
BLACK
6
CONTINUOUS
10
95.1795
20
-78.8275
11
93.5905
21
-78.8275
0
LINE
8
BLACK
6
CONTINUOUS
10
92.685
20
-78.0303
11
92.685
21
-76.6247
0
LINE
8
BLACK
6
CONTINUOUS
10
93.5905
20
-75.8275
11
95.1795
21
-75.8275
0
ARC
8
BLACK
10
95.1795
20
-75.3275
40
0.5
50
-90
51
-59.7007
0
ARC
8
BLACK
10
93.5905
20
-75.3275
40
0.5
50
-120.299
51
-90
0
ARC
8
BLACK
10
93.086
20
-76.1909
40
0.5
50
59.7008
51
205.706
0
ARC
8
BLACK
10
92.185
20
-76.6247
40
0.5
50
-0
51
25.7062
0
ARC
8
BLACK
10
92.185
20
-78.0303
40
0.5
50
-25.7062
51
-9.05134e-05
0
ARC
8
BLACK
10
93.086
20
-78.4641
40
0.499999
50
154.294
51
300.299
0
ARC
8
BLACK
10
93.5905
20
-79.3275
40
0.5
50
90
51
120.299
0
ARC
8
BLACK
10
95.1795
20
-79.3275
40
0.499999
50
59.7006
51
89.9999
0
ARC
8
BLACK
10
95.684
20
-78.4641
40
0.5
50
-120.299
51
25.7062
0
ARC
8
BLACK
10
96.585
20
-78.0303
40
0.5
50
180
51
205.706
0
ARC
8
BLACK
10
96.585
20
-76.6247
40
0.5
50
154.294
51
180
0
ARC
8
BLACK
10
95.684
20
-76.1909
40
0.499999
50
-25.7061
51
120.299
0
LINE
8
BLACK
6
CONTINUOUS
10
115.135
20
-76.6247
11
115.135
21
-78.0303
0
LINE
8
BLACK
6
CONTINUOUS
10
114.229
20
-78.8275
11
112.641
21
-78.8275
0
LINE
8
BLACK
6
CONTINUOUS
10
111.735
20
-78.0303
11
111.735
21
-76.6247
0
LINE
8
BLACK
6
CONTINUOUS
10
112.641
20
-75.8275
11
114.229
21
-75.8275
0
ARC
8
BLACK
10
114.229
20
-75.3275
40
0.5
50
-90
51
-59.7007
0
ARC
8
BLACK
10
112.641
20
-75.3275
40
0.5
50
-120.299
51
-90
0
ARC
8
BLACK
10
112.136
20
-76.1909
40
0.5
50
59.7008
51
205.706
0
ARC
8
BLACK
10
111.235
20
-76.6247
40
0.5
50
-0
51
25.7062
0
ARC
8
BLACK
10
111.235
20
-78.0303
40
0.5
50
-25.7062
51
-9.05134e-05
0
ARC
8
BLACK
10
112.136
20
-78.4641
40
0.499999
50
154.294
51
300.299
0
ARC
8
BLACK
10
112.641
20
-79.3275
40
0.5
50
90
51
120.299
0
ARC
8
BLACK
10
114.229
20
-79.3275
40
0.499999
50
59.7006
51
89.9999
0
ARC
8
BLACK
10
114.734
20
-78.4641
40
0.5
50
-120.299
51
25.7062
0
ARC
8
BLACK
10
115.635
20
-78.0303
40
0.5
50
180
51
205.706
0
ARC
8
BLACK
10
115.635
20
-76.6247
40
0.5
50
154.294
51
180
0
ARC
8
BLACK
10
114.734
20
-76.1909
40
0.499999
50
-25.7061
51
120.299
0
LINE
8
BLACK
6
CONTINUOUS
10
134.2
20
-76.6272
11
134.2
21
-78.0328
0
LINE
8
BLACK
6
CONTINUOUS
10
133.294
20
-78.83
11
131.706
21
-78.83
0
LINE
8
BLACK
6
CONTINUOUS
10
130.8
20
-78.0328
11
130.8
21
-76.6272
0
LINE
8
BLACK
6
CONTINUOUS
10
131.706
20
-75.83
11
133.294
21
-75.83
0
ARC
8
BLACK
10
133.294
20
-75.33
40
0.5
50
-90
51
-59.7007
0
ARC
8
BLACK
10
131.706
20
-75.33
40
0.5
50
-120.299
51
-90
0
ARC
8
BLACK
10
131.201
20
-76.1934
40
0.5
50
59.7008
51
205.706
0
ARC
8
BLACK
10
130.3
20
-76.6272
40
0.5
50
-0
51
25.7062
0
ARC
8
BLACK
10
130.3
20
-78.0328
40
0.5
50
-25.7062
51
-9.05134e-05
0
ARC
8
BLACK
10
131.201
20
-78.4666
40
0.499999
50
154.294
51
300.299
0
ARC
8
BLACK
10
131.706
20
-79.33
40
0.5
50
90
51
120.299
0
ARC
8
BLACK
10
133.294
20
-79.33
40
0.499999
50
59.7006
51
89.9999
0
ARC
8
BLACK
10
133.799
20
-78.4666
40
0.5
50
-120.299
51
25.7062
0
ARC
8
BLACK
10
134.7
20
-78.0328
40
0.5
50
180
51
205.706
0
ARC
8
BLACK
10
134.7
20
-76.6272
40
0.5
50
154.294
51
180
0
ARC
8
BLACK
10
133.799
20
-76.1934
40
0.499999
50
-25.7061
51
120.299
0
LINE
8
BLACK
6
CONTINUOUS
10
77.035
20
-100.437
11
77.035
21
-101.843
0
LINE
8
BLACK
6
CONTINUOUS
10
76.1295
20
-102.64
11
74.5405
21
-102.64
0
LINE
8
BLACK
6
CONTINUOUS
10
73.635
20
-101.843
11
73.635
21
-100.437
0
LINE
8
BLACK
6
CONTINUOUS
10
74.5405
20
-99.64
11
76.1295
21
-99.64
0
ARC
8
BLACK
10
76.1295
20
-99.14
40
0.5
50
-90
51
-59.7007
0
ARC
8
BLACK
10
74.5405
20
-99.14
40
0.5
50
-120.299
51
-90
0
ARC
8
BLACK
10
74.036
20
-100.003
40
0.5
50
59.7008
51
205.706
0
ARC
8
BLACK
10
73.135
20
-100.437
40
0.5
50
-0
51
25.7062
0
ARC
8
BLACK
10
73.135
20
-101.843
40
0.5
50
-25.7062
51
-9.05134e-05
0
ARC
8
BLACK
10
74.036
20
-102.277
40
0.499999
50
154.294
51
300.299
0
ARC
8
BLACK
10
74.5405
20
-103.14
40
0.5
50
90
51
120.299
0
ARC
8
BLACK
10
76.1295
20
-103.14
40
0.499999
50
59.7006
51
89.9999
0
ARC
8
BLACK
10
76.634
20
-102.277
40
0.5
50
-120.299
51
25.7062
0
ARC
8
BLACK
10
77.535
20
-101.843
40
0.5
50
180
51
205.706
0
ARC
8
BLACK
10
77.535
20
-100.437
40
0.5
50
154.294
51
180
0
ARC
8
BLACK
10
76.634
20
-100.003
40
0.499999
50
-25.7061
51
120.299
0
LINE
8
BLACK
6
CONTINUOUS
10
115.15
20
-100.427
11
115.15
21
-101.833
0
LINE
8
BLACK
6
CONTINUOUS
10
114.244
20
-102.63
11
112.656
21
-102.63
0
LINE
8
BLACK
6
CONTINUOUS
10
111.75
20
-101.833
11
111.75
21
-100.427
0
LINE
8
BLACK
6
CONTINUOUS
10
112.656
20
-99.63
11
114.244
21
-99.63
0
ARC
8
BLACK
10
114.244
20
-99.13
40
0.5
50
-90
51
-59.7007
0
ARC
8
BLACK
10
112.656
20
-99.13
40
0.5
50
-120.299
51
-90
0
ARC
8
BLACK
10
112.151
20
-99.9934
40
0.5
50
59.7008
51
205.706
0
ARC
8
BLACK
10
111.25
20
-100.427
40
0.5
50
-0
51
25.7062
0
ARC
8
BLACK
10
111.25
20
-101.833
40
0.5
50
-25.7062
51
-9.05134e-05
0
ARC
8
BLACK
10
112.151
20
-102.267
40
0.499999
50
154.294
51
300.299
0
ARC
8
BLACK
10
112.656
20
-103.13
40
0.5
50
90
51
120.299
0
ARC
8
BLACK
10
114.244
20
-103.13
40
0.499999
50
59.7006
51
89.9999
0
ARC
8
BLACK
10
114.749
20
-102.267
40
0.5
50
-120.299
51
25.7062
0
ARC
8
BLACK
10
115.65
20
-101.833
40
0.5
50
180
51
205.706
0
ARC
8
BLACK
10
115.65
20
-100.427
40
0.5
50
154.294
51
180
0
ARC
8
BLACK
10
114.749
20
-99.9934
40
0.499999
50
-25.7061
51
120.299
0
LINE
8
BLACK
6
CONTINUOUS
10
134.2
20
-100.427
11
134.2
21
-101.833
0
LINE
8
BLACK
6
CONTINUOUS
10
133.294
20
-102.63
11
131.706
21
-102.63
0
LINE
8
BLACK
6
CONTINUOUS
10
130.8
20
-101.833
11
130.8
21
-100.427
0
LINE
8
BLACK
6
CONTINUOUS
10
131.706
20
-99.63
11
133.294
21
-99.63
0
ARC
8
BLACK
10
133.294
20
-99.13
40
0.5
50
-90
51
-59.7007
0
ARC
8
BLACK
10
131.706
20
-99.13
40
0.5
50
-120.299
51
-90
0
ARC
8
BLACK
10
131.201
20
-99.9934
40
0.5
50
59.7008
51
205.706
0
ARC
8
BLACK
10
130.3
20
-100.427
40
0.5
50
-0
51
25.7062
0
ARC
8
BLACK
10
130.3
20
-101.833
40
0.5
50
-25.7062
51
-9.05134e-05
0
ARC
8
BLACK
10
131.201
20
-102.267
40
0.499999
50
154.294
51
300.299
0
ARC
8
BLACK
10
131.706
20
-103.13
40
0.5
50
90
51
120.299
0
ARC
8
BLACK
10
133.294
20
-103.13
40
0.499999
50
59.7006
51
89.9999
0
ARC
8
BLACK
10
133.799
20
-102.267
40
0.5
50
-120.299
51
25.7062
0
ARC
8
BLACK
10
134.7
20
-101.833
40
0.5
50
180
51
205.706
0
ARC
8
BLACK
10
134.7
20
-100.427
40
0.5
50
154.294
51
180
0
ARC
8
BLACK
10
133.799
20
-99.9934
40
0.499999
50
-25.7061
51
120.299
0
LINE
8
BLACK
6
CONTINUOUS
10
96.1
20
-100.427
11
96.1
21
-101.833
0
LINE
8
BLACK
6
CONTINUOUS
10
95.1945
20
-102.63
11
93.6055
21
-102.63
0
LINE
8
BLACK
6
CONTINUOUS
10
92.7
20
-101.833
11
92.7
21
-100.427
0
LINE
8
BLACK
6
CONTINUOUS
10
93.6055
20
-99.63
11
95.1945
21
-99.63
0
ARC
8
BLACK
10
95.1945
20
-99.13
40
0.5
50
-90
51
-59.7007
0
ARC
8
BLACK
10
93.6055
20
-99.13
40
0.5
50
-120.299
51
-90
0
ARC
8
BLACK
10
93.101
20
-99.9934
40
0.5
50
59.7008
51
205.706
0
ARC
8
BLACK
10
92.2
20
-100.427
40
0.5
50
-0
51
25.7062
0
ARC
8
BLACK
10
92.2
20
-101.833
40
0.5
50
-25.7062
51
-9.05134e-05
0
ARC
8
BLACK
10
93.101
20
-102.267
40
0.499999
50
154.294
51
300.299
0
ARC
8
BLACK
10
93.6055
20
-103.13
40
0.5
50
90
51
120.299
0
ARC
8
BLACK
10
95.1945
20
-103.13
40
0.499999
50
59.7006
51
89.9999
0
ARC
8
BLACK
10
95.699
20
-102.267
40
0.5
50
-120.299
51
25.7062
0
ARC
8
BLACK
10
96.6
20
-101.833
40
0.5
50
180
51
205.706
0
ARC
8
BLACK
10
96.6
20
-100.427
40
0.5
50
154.294
51
180
0
ARC
8
BLACK
10
95.699
20
-99.9934
40
0.499999
50
-25.7061
51
120.299
  0
ENDSEC
  0
EOF
