G04 #@! TF.GenerationSoftware,KiCad,Pcbnew,(5.1.10)-1*
G04 #@! TF.CreationDate,2021-11-22T08:37:42+00:00*
G04 #@! TF.ProjectId,EnvMCRO,456e764d-4352-44f2-9e6b-696361645f70,rev?*
G04 #@! TF.SameCoordinates,Original*
G04 #@! TF.FileFunction,Soldermask,Top*
G04 #@! TF.FilePolarity,Negative*
%FSLAX46Y46*%
G04 Gerber Fmt 4.6, Leading zero omitted, Abs format (unit mm)*
G04 Created by KiCad (PCBNEW (5.1.10)-1) date 2021-11-22 08:37:42*
%MOMM*%
%LPD*%
G01*
G04 APERTURE LIST*
%ADD10C,0.300000*%
%ADD11R,2.000000X2.000000*%
%ADD12C,2.000000*%
%ADD13R,3.000000X2.500000*%
%ADD14C,3.987800*%
%ADD15C,1.750000*%
%ADD16O,1.600000X1.600000*%
%ADD17R,1.600000X1.600000*%
%ADD18O,1.700000X1.700000*%
%ADD19R,1.700000X3.500000*%
%ADD20R,1.700000X1.700000*%
%ADD21O,1.500000X1.500000*%
%ADD22O,1.800000X1.800000*%
%ADD23R,3.500000X1.700000*%
%ADD24C,4.400000*%
G04 APERTURE END LIST*
D10*
X69000142Y-106679351D02*
X69000142Y-105179351D01*
X69643000Y-106679351D02*
X69643000Y-105893637D01*
X69571571Y-105750780D01*
X69428714Y-105679351D01*
X69214428Y-105679351D01*
X69071571Y-105750780D01*
X69000142Y-105822208D01*
X70143000Y-105679351D02*
X70714428Y-105679351D01*
X70357285Y-105179351D02*
X70357285Y-106465065D01*
X70428714Y-106607922D01*
X70571571Y-106679351D01*
X70714428Y-106679351D01*
X71000142Y-105679351D02*
X71571571Y-105679351D01*
X71214428Y-105179351D02*
X71214428Y-106465065D01*
X71285857Y-106607922D01*
X71428714Y-106679351D01*
X71571571Y-106679351D01*
X72071571Y-105679351D02*
X72071571Y-107179351D01*
X72071571Y-105750780D02*
X72214428Y-105679351D01*
X72500142Y-105679351D01*
X72643000Y-105750780D01*
X72714428Y-105822208D01*
X72785857Y-105965065D01*
X72785857Y-106393637D01*
X72714428Y-106536494D01*
X72643000Y-106607922D01*
X72500142Y-106679351D01*
X72214428Y-106679351D01*
X72071571Y-106607922D01*
X73357285Y-106607922D02*
X73500142Y-106679351D01*
X73785857Y-106679351D01*
X73928714Y-106607922D01*
X74000142Y-106465065D01*
X74000142Y-106393637D01*
X73928714Y-106250780D01*
X73785857Y-106179351D01*
X73571571Y-106179351D01*
X73428714Y-106107922D01*
X73357285Y-105965065D01*
X73357285Y-105893637D01*
X73428714Y-105750780D01*
X73571571Y-105679351D01*
X73785857Y-105679351D01*
X73928714Y-105750780D01*
X74643000Y-106536494D02*
X74714428Y-106607922D01*
X74643000Y-106679351D01*
X74571571Y-106607922D01*
X74643000Y-106536494D01*
X74643000Y-106679351D01*
X74643000Y-105750780D02*
X74714428Y-105822208D01*
X74643000Y-105893637D01*
X74571571Y-105822208D01*
X74643000Y-105750780D01*
X74643000Y-105893637D01*
X76428714Y-105107922D02*
X75143000Y-107036494D01*
X78000142Y-105107922D02*
X76714428Y-107036494D01*
X79143000Y-105679351D02*
X79143000Y-106893637D01*
X79071571Y-107036494D01*
X79000142Y-107107922D01*
X78857285Y-107179351D01*
X78643000Y-107179351D01*
X78500142Y-107107922D01*
X79143000Y-106607922D02*
X79000142Y-106679351D01*
X78714428Y-106679351D01*
X78571571Y-106607922D01*
X78500142Y-106536494D01*
X78428714Y-106393637D01*
X78428714Y-105965065D01*
X78500142Y-105822208D01*
X78571571Y-105750780D01*
X78714428Y-105679351D01*
X79000142Y-105679351D01*
X79143000Y-105750780D01*
X79857285Y-106679351D02*
X79857285Y-105679351D01*
X79857285Y-105179351D02*
X79785857Y-105250780D01*
X79857285Y-105322208D01*
X79928714Y-105250780D01*
X79857285Y-105179351D01*
X79857285Y-105322208D01*
X80357285Y-105679351D02*
X80928714Y-105679351D01*
X80571571Y-105179351D02*
X80571571Y-106465065D01*
X80643000Y-106607922D01*
X80785857Y-106679351D01*
X80928714Y-106679351D01*
X81428714Y-106679351D02*
X81428714Y-105179351D01*
X82071571Y-106679351D02*
X82071571Y-105893637D01*
X82000142Y-105750780D01*
X81857285Y-105679351D01*
X81643000Y-105679351D01*
X81500142Y-105750780D01*
X81428714Y-105822208D01*
X83428714Y-105679351D02*
X83428714Y-106679351D01*
X82785857Y-105679351D02*
X82785857Y-106465065D01*
X82857285Y-106607922D01*
X83000142Y-106679351D01*
X83214428Y-106679351D01*
X83357285Y-106607922D01*
X83428714Y-106536494D01*
X84143000Y-106679351D02*
X84143000Y-105179351D01*
X84143000Y-105750780D02*
X84285857Y-105679351D01*
X84571571Y-105679351D01*
X84714428Y-105750780D01*
X84785857Y-105822208D01*
X84857285Y-105965065D01*
X84857285Y-106393637D01*
X84785857Y-106536494D01*
X84714428Y-106607922D01*
X84571571Y-106679351D01*
X84285857Y-106679351D01*
X84143000Y-106607922D01*
X85500142Y-106536494D02*
X85571571Y-106607922D01*
X85500142Y-106679351D01*
X85428714Y-106607922D01*
X85500142Y-106536494D01*
X85500142Y-106679351D01*
X86857285Y-106607922D02*
X86714428Y-106679351D01*
X86428714Y-106679351D01*
X86285857Y-106607922D01*
X86214428Y-106536494D01*
X86143000Y-106393637D01*
X86143000Y-105965065D01*
X86214428Y-105822208D01*
X86285857Y-105750780D01*
X86428714Y-105679351D01*
X86714428Y-105679351D01*
X86857285Y-105750780D01*
X87714428Y-106679351D02*
X87571571Y-106607922D01*
X87500142Y-106536494D01*
X87428714Y-106393637D01*
X87428714Y-105965065D01*
X87500142Y-105822208D01*
X87571571Y-105750780D01*
X87714428Y-105679351D01*
X87928714Y-105679351D01*
X88071571Y-105750780D01*
X88143000Y-105822208D01*
X88214428Y-105965065D01*
X88214428Y-106393637D01*
X88143000Y-106536494D01*
X88071571Y-106607922D01*
X87928714Y-106679351D01*
X87714428Y-106679351D01*
X88857285Y-106679351D02*
X88857285Y-105679351D01*
X88857285Y-105822208D02*
X88928714Y-105750780D01*
X89071571Y-105679351D01*
X89285857Y-105679351D01*
X89428714Y-105750780D01*
X89500142Y-105893637D01*
X89500142Y-106679351D01*
X89500142Y-105893637D02*
X89571571Y-105750780D01*
X89714428Y-105679351D01*
X89928714Y-105679351D01*
X90071571Y-105750780D01*
X90143000Y-105893637D01*
X90143000Y-106679351D01*
X91928714Y-105107922D02*
X90643000Y-107036494D01*
X92428714Y-105893637D02*
X92928714Y-105893637D01*
X93143000Y-106679351D02*
X92428714Y-106679351D01*
X92428714Y-105179351D01*
X93143000Y-105179351D01*
X93785857Y-105679351D02*
X93785857Y-106679351D01*
X93785857Y-105822208D02*
X93857285Y-105750780D01*
X94000142Y-105679351D01*
X94214428Y-105679351D01*
X94357285Y-105750780D01*
X94428714Y-105893637D01*
X94428714Y-106679351D01*
X95000142Y-105679351D02*
X95357285Y-106679351D01*
X95714428Y-105679351D01*
X96285857Y-106679351D02*
X96285857Y-105679351D01*
X96285857Y-105179351D02*
X96214428Y-105250780D01*
X96285857Y-105322208D01*
X96357285Y-105250780D01*
X96285857Y-105179351D01*
X96285857Y-105322208D01*
X97214428Y-106679351D02*
X97071571Y-106607922D01*
X97000142Y-106536494D01*
X96928714Y-106393637D01*
X96928714Y-105965065D01*
X97000142Y-105822208D01*
X97071571Y-105750780D01*
X97214428Y-105679351D01*
X97428714Y-105679351D01*
X97571571Y-105750780D01*
X97643000Y-105822208D01*
X97714428Y-105965065D01*
X97714428Y-106393637D01*
X97643000Y-106536494D01*
X97571571Y-106607922D01*
X97428714Y-106679351D01*
X97214428Y-106679351D01*
X99000142Y-105679351D02*
X99000142Y-106679351D01*
X98357285Y-105679351D02*
X98357285Y-106465065D01*
X98428714Y-106607922D01*
X98571571Y-106679351D01*
X98785857Y-106679351D01*
X98928714Y-106607922D01*
X99000142Y-106536494D01*
X99643000Y-106607922D02*
X99785857Y-106679351D01*
X100071571Y-106679351D01*
X100214428Y-106607922D01*
X100285857Y-106465065D01*
X100285857Y-106393637D01*
X100214428Y-106250780D01*
X100071571Y-106179351D01*
X99857285Y-106179351D01*
X99714428Y-106107922D01*
X99643000Y-105965065D01*
X99643000Y-105893637D01*
X99714428Y-105750780D01*
X99857285Y-105679351D01*
X100071571Y-105679351D01*
X100214428Y-105750780D01*
X100928714Y-106107922D02*
X102071571Y-106107922D01*
X102785857Y-106679351D02*
X102785857Y-105179351D01*
X103143000Y-105179351D01*
X103357285Y-105250780D01*
X103500142Y-105393637D01*
X103571571Y-105536494D01*
X103643000Y-105822208D01*
X103643000Y-106036494D01*
X103571571Y-106322208D01*
X103500142Y-106465065D01*
X103357285Y-106607922D01*
X103143000Y-106679351D01*
X102785857Y-106679351D01*
X104928714Y-106679351D02*
X104928714Y-105893637D01*
X104857285Y-105750780D01*
X104714428Y-105679351D01*
X104428714Y-105679351D01*
X104285857Y-105750780D01*
X104928714Y-106607922D02*
X104785857Y-106679351D01*
X104428714Y-106679351D01*
X104285857Y-106607922D01*
X104214428Y-106465065D01*
X104214428Y-106322208D01*
X104285857Y-106179351D01*
X104428714Y-106107922D01*
X104785857Y-106107922D01*
X104928714Y-106036494D01*
X105428714Y-105679351D02*
X106000142Y-105679351D01*
X105643000Y-105179351D02*
X105643000Y-106465065D01*
X105714428Y-106607922D01*
X105857285Y-106679351D01*
X106000142Y-106679351D01*
X107143000Y-106679351D02*
X107143000Y-105893637D01*
X107071571Y-105750780D01*
X106928714Y-105679351D01*
X106643000Y-105679351D01*
X106500142Y-105750780D01*
X107143000Y-106607922D02*
X107000142Y-106679351D01*
X106643000Y-106679351D01*
X106500142Y-106607922D01*
X106428714Y-106465065D01*
X106428714Y-106322208D01*
X106500142Y-106179351D01*
X106643000Y-106107922D01*
X107000142Y-106107922D01*
X107143000Y-106036494D01*
X108928714Y-105107922D02*
X107643000Y-107036494D01*
X109428714Y-105893637D02*
X109928714Y-105893637D01*
X110143000Y-106679351D02*
X109428714Y-106679351D01*
X109428714Y-105179351D01*
X110143000Y-105179351D01*
X110785857Y-105679351D02*
X110785857Y-106679351D01*
X110785857Y-105822208D02*
X110857285Y-105750780D01*
X111000142Y-105679351D01*
X111214428Y-105679351D01*
X111357285Y-105750780D01*
X111428714Y-105893637D01*
X111428714Y-106679351D01*
X112000142Y-105679351D02*
X112357285Y-106679351D01*
X112714428Y-105679351D01*
X113285857Y-106107922D02*
X114428714Y-106107922D01*
X115143000Y-106679351D02*
X115143000Y-105179351D01*
X115643000Y-106250780D01*
X116143000Y-105179351D01*
X116143000Y-106679351D01*
X117714428Y-106536494D02*
X117643000Y-106607922D01*
X117428714Y-106679351D01*
X117285857Y-106679351D01*
X117071571Y-106607922D01*
X116928714Y-106465065D01*
X116857285Y-106322208D01*
X116785857Y-106036494D01*
X116785857Y-105822208D01*
X116857285Y-105536494D01*
X116928714Y-105393637D01*
X117071571Y-105250780D01*
X117285857Y-105179351D01*
X117428714Y-105179351D01*
X117643000Y-105250780D01*
X117714428Y-105322208D01*
X119214428Y-106679351D02*
X118714428Y-105965065D01*
X118357285Y-106679351D02*
X118357285Y-105179351D01*
X118928714Y-105179351D01*
X119071571Y-105250780D01*
X119143000Y-105322208D01*
X119214428Y-105465065D01*
X119214428Y-105679351D01*
X119143000Y-105822208D01*
X119071571Y-105893637D01*
X118928714Y-105965065D01*
X118357285Y-105965065D01*
X120143000Y-105179351D02*
X120428714Y-105179351D01*
X120571571Y-105250780D01*
X120714428Y-105393637D01*
X120785857Y-105679351D01*
X120785857Y-106179351D01*
X120714428Y-106465065D01*
X120571571Y-106607922D01*
X120428714Y-106679351D01*
X120143000Y-106679351D01*
X120000142Y-106607922D01*
X119857285Y-106465065D01*
X119785857Y-106179351D01*
X119785857Y-105679351D01*
X119857285Y-105393637D01*
X120000142Y-105250780D01*
X120143000Y-105179351D01*
D11*
X151400000Y-96800000D03*
D12*
X151400000Y-99300000D03*
X151400000Y-101800000D03*
D13*
X158900000Y-93700000D03*
X158900000Y-104900000D03*
D12*
X165900000Y-96800000D03*
X165900000Y-101800000D03*
D14*
X94385000Y-48435000D03*
D15*
X89305000Y-48435000D03*
X99465000Y-48435000D03*
D14*
X132485000Y-48435000D03*
D15*
X127405000Y-48435000D03*
X137565000Y-48435000D03*
D14*
X75335000Y-72247500D03*
D15*
X70255000Y-72247500D03*
X80415000Y-72247500D03*
D14*
X94385000Y-72247500D03*
D15*
X89305000Y-72247500D03*
X99465000Y-72247500D03*
D14*
X113435000Y-72247500D03*
D15*
X108355000Y-72247500D03*
X118515000Y-72247500D03*
D14*
X132485000Y-72247500D03*
D15*
X127405000Y-72247500D03*
X137565000Y-72247500D03*
D14*
X75335000Y-96060000D03*
D15*
X70255000Y-96060000D03*
X80415000Y-96060000D03*
D14*
X94385000Y-96060000D03*
D15*
X89305000Y-96060000D03*
X99465000Y-96060000D03*
D14*
X113435000Y-96060000D03*
D15*
X108355000Y-96060000D03*
X118515000Y-96060000D03*
D16*
X83860000Y-41315000D03*
D17*
X83860000Y-48935000D03*
D16*
X102910000Y-41315000D03*
D17*
X102910000Y-48935000D03*
D16*
X121960000Y-41315000D03*
D17*
X121960000Y-48935000D03*
D16*
X141010000Y-41315000D03*
D17*
X141010000Y-48935000D03*
D16*
X83860000Y-65127500D03*
D17*
X83860000Y-72747500D03*
D16*
X102910000Y-65127500D03*
D17*
X102910000Y-72747500D03*
D16*
X121960000Y-65127500D03*
D17*
X121960000Y-72747500D03*
D16*
X141010000Y-65527500D03*
D17*
X141010000Y-73147500D03*
D16*
X83860000Y-88940000D03*
D17*
X83860000Y-96560000D03*
D16*
X102910000Y-88940000D03*
D17*
X102910000Y-96560000D03*
D16*
X121960000Y-88940000D03*
D17*
X121960000Y-96560000D03*
D16*
X141010000Y-88940000D03*
D17*
X141010000Y-96560000D03*
D14*
X75335000Y-48435000D03*
D15*
X70255000Y-48435000D03*
X80415000Y-48435000D03*
D14*
X113435000Y-48435000D03*
D15*
X108355000Y-48435000D03*
X118515000Y-48435000D03*
D18*
X158640000Y-88300000D03*
D19*
X158640000Y-89200000D03*
D20*
X156100000Y-88300000D03*
D19*
X156100000Y-89200000D03*
D18*
X153560000Y-88300000D03*
D19*
X153560000Y-89200000D03*
D21*
X158525000Y-43430000D03*
X153675000Y-43430000D03*
D22*
X158825000Y-40400000D03*
X153375000Y-40400000D03*
D23*
X165890000Y-88530000D03*
X165890000Y-85990000D03*
X165890000Y-83450000D03*
X165890000Y-80910000D03*
X165890000Y-78370000D03*
X165890000Y-75830000D03*
X165890000Y-73290000D03*
X165890000Y-70750000D03*
X165890000Y-68210000D03*
X165890000Y-65670000D03*
X165890000Y-63130000D03*
X165890000Y-60590000D03*
X165890000Y-58050000D03*
X165890000Y-55510000D03*
X165890000Y-52970000D03*
X165890000Y-50430000D03*
X165890000Y-47890000D03*
X165890000Y-45350000D03*
X165890000Y-42810000D03*
X165890000Y-40270000D03*
X146310000Y-88530000D03*
X146310000Y-85990000D03*
X146310000Y-83450000D03*
X146310000Y-80910000D03*
X146310000Y-78370000D03*
X146310000Y-75830000D03*
X146310000Y-73290000D03*
X146310000Y-70750000D03*
X146310000Y-68210000D03*
X146310000Y-65670000D03*
X146310000Y-63130000D03*
X146310000Y-60590000D03*
X146310000Y-58050000D03*
X146310000Y-55510000D03*
X146310000Y-52970000D03*
X146310000Y-50430000D03*
X146310000Y-47890000D03*
X146310000Y-45350000D03*
X146310000Y-42810000D03*
X146310000Y-40270000D03*
D18*
X164990000Y-40270000D03*
X164990000Y-42810000D03*
D20*
X164990000Y-45350000D03*
D18*
X164990000Y-47890000D03*
X164990000Y-50430000D03*
X164990000Y-52970000D03*
X164990000Y-55510000D03*
D20*
X164990000Y-58050000D03*
D18*
X164990000Y-60590000D03*
X164990000Y-63130000D03*
X164990000Y-65670000D03*
X164990000Y-68210000D03*
D20*
X164990000Y-70750000D03*
D18*
X164990000Y-73290000D03*
X164990000Y-75830000D03*
X164990000Y-78370000D03*
X164990000Y-80910000D03*
D20*
X164990000Y-83450000D03*
D18*
X164990000Y-85990000D03*
X164990000Y-88530000D03*
X147210000Y-88530000D03*
X147210000Y-85990000D03*
D20*
X147210000Y-83450000D03*
D18*
X147210000Y-80910000D03*
X147210000Y-78370000D03*
X147210000Y-75830000D03*
X147210000Y-73290000D03*
D20*
X147210000Y-70750000D03*
D18*
X147210000Y-68210000D03*
X147210000Y-65670000D03*
X147210000Y-63130000D03*
X147210000Y-60590000D03*
D20*
X147210000Y-58050000D03*
D18*
X147210000Y-55510000D03*
X147210000Y-52970000D03*
X147210000Y-50430000D03*
X147210000Y-47890000D03*
D20*
X147210000Y-45350000D03*
D18*
X147210000Y-42810000D03*
X147210000Y-40270000D03*
D14*
X132485000Y-96060000D03*
D15*
X127405000Y-96060000D03*
X137565000Y-96060000D03*
D16*
X147500000Y-92700000D03*
D17*
X147500000Y-100320000D03*
D24*
X170500000Y-41300000D03*
X65900000Y-106000000D03*
X65900000Y-41300000D03*
X170500000Y-106000000D03*
M02*
