M48
; DRILL file {KiCad (5.1.9)-1} date 04/11/21 14:52:42
; FORMAT={-:-/ absolute / inch / decimal}
; #@! TF.CreationDate,2021-04-11T14:52:42+01:00
; #@! TF.GenerationSoftware,Kicad,Pcbnew,(5.1.9)-1
FMAT,2
INCH
T1C0.0315
T2C0.0402
T3C0.0579
T4C0.0689
T5C0.0866
T6C0.1570
%
G90
G05
T1
X3.3016Y-1.6266
X3.3016Y-1.9266
X3.3016Y-2.5641
X3.3016Y-2.8641
X3.3016Y-3.5016
X3.3016Y-3.8016
X4.0516Y-1.6266
X4.0516Y-1.9266
X4.0516Y-2.5641
X4.0516Y-2.8641
X4.0516Y-3.5016
X4.0516Y-3.8016
X4.8016Y-1.6266
X4.8016Y-1.9266
X4.8016Y-2.5641
X4.8016Y-2.8641
X4.8016Y-3.5016
X4.8016Y-3.8016
X5.5516Y-1.6266
X5.5516Y-1.9266
X5.5516Y-2.5798
X5.5516Y-2.8798
X5.5516Y-3.5016
X5.5516Y-3.8016
T2
X5.7957Y-1.5854
X5.7957Y-1.6854
X5.7957Y-1.7854
X5.7957Y-1.8854
X5.7957Y-1.9854
X5.7957Y-2.0854
X5.7957Y-2.1854
X5.7957Y-2.2854
X5.7957Y-2.3854
X5.7957Y-2.4854
X5.7957Y-2.5854
X5.7957Y-2.6854
X5.7957Y-2.7854
X5.7957Y-2.8854
X5.7957Y-2.9854
X5.7957Y-3.0854
X5.7957Y-3.1854
X5.7957Y-3.2854
X5.7957Y-3.3854
X5.7957Y-3.4854
X6.0457Y-3.4764
X6.1457Y-3.4764
X6.2457Y-3.4764
X6.4957Y-1.5854
X6.4957Y-1.6854
X6.4957Y-1.7854
X6.4957Y-1.8854
X6.4957Y-1.9854
X6.4957Y-2.0854
X6.4957Y-2.1854
X6.4957Y-2.2854
X6.4957Y-2.3854
X6.4957Y-2.4854
X6.4957Y-2.5854
X6.4957Y-2.6854
X6.4957Y-2.7854
X6.4957Y-2.8854
X6.4957Y-2.9854
X6.4957Y-3.0854
X6.4957Y-3.1854
X6.4957Y-3.2854
X6.4957Y-3.3854
X6.4957Y-3.4854
T3
X2.8159Y-1.8069
X2.8159Y-2.7444
X2.8159Y-3.6819
X3.0659Y-1.7069
X3.0659Y-2.6444
X3.0659Y-3.5819
X3.5659Y-1.8069
X3.5659Y-2.7444
X3.5659Y-3.6819
X3.8159Y-1.7069
X3.8159Y-2.6444
X3.8159Y-3.5819
X4.3159Y-1.8069
X4.3159Y-2.7444
X4.3159Y-3.6819
X4.5659Y-1.7069
X4.5659Y-2.6444
X4.5659Y-3.5819
X5.0659Y-1.8069
X5.0659Y-2.7444
X5.0659Y-3.6819
X5.3159Y-1.7069
X5.3159Y-2.6444
X5.3159Y-3.5819
T4
X2.7659Y-1.9069
X2.7659Y-2.8444
X2.7659Y-3.7819
X3.1659Y-1.9069
X3.1659Y-2.8444
X3.1659Y-3.7819
X3.5159Y-1.9069
X3.5159Y-2.8444
X3.5159Y-3.7819
X3.9159Y-1.9069
X3.9159Y-2.8444
X3.9159Y-3.7819
X4.2659Y-1.9069
X4.2659Y-2.8444
X4.2659Y-3.7819
X4.6659Y-1.9069
X4.6659Y-2.8444
X4.6659Y-3.7819
X5.0159Y-1.9069
X5.0159Y-2.8444
X5.0159Y-3.7819
X5.4159Y-1.9069
X5.4159Y-2.8444
X5.4159Y-3.7819
T5
X2.5945Y-1.626
X2.5945Y-4.1732
X6.7126Y-1.626
X6.7126Y-4.1732
T6
X2.9659Y-1.9069
X2.9659Y-2.8444
X2.9659Y-3.7819
X3.7159Y-1.9069
X3.7159Y-2.8444
X3.7159Y-3.7819
X4.4659Y-1.9069
X4.4659Y-2.8444
X4.4659Y-3.7819
X5.2159Y-1.9069
X5.2159Y-2.8444
X5.2159Y-3.7819
T0
M30
