%FSLAX45Y45*%
G04 Gerber Fmt 4.5, Leading zero omitted, Abs format (unit mm)*
G04 Created by KiCad (PCBNEW (5.1.9)-1) date 2021-05-08 10:41:34*
%MOMM*%
%LPD*%
G01*
G04 APERTURE LIST*
%TA.AperFunction,Profile*%
%ADD10C,0.100000*%
%TD*%
%ADD11C,0.200000*%
%ADD12C,0.300000*%
G04 APERTURE END LIST*
D10*
X6700520Y-4130040D02*
G75*
G03*
X6700520Y-4130040I-110450J0D01*
G01*
X6700520Y-10599420D02*
G75*
G03*
X6700520Y-10599420I-110450J0D01*
G01*
X17160240Y-10599420D02*
G75*
G03*
X17160240Y-10599420I-110450J0D01*
G01*
X17160240Y-4130040D02*
G75*
G03*
X17160240Y-4130040I-110450J0D01*
G01*
X17100000Y-3880000D02*
G75*
G02*
X17300000Y-4080000I0J-200000D01*
G01*
X17300000Y-10650000D02*
G75*
G02*
X17100000Y-10850000I-200000J0D01*
G01*
X6540000Y-10850000D02*
G75*
G02*
X6340000Y-10650000I0J200000D01*
G01*
X6340000Y-4080000D02*
X6340000Y-10650000D01*
X17100000Y-3880000D02*
X6540000Y-3880000D01*
X6340000Y-4080000D02*
G75*
G02*
X6540000Y-3880000I200000J0D01*
G01*
X17300000Y-10650000D02*
X17300000Y-4080000D01*
X6540000Y-10850000D02*
X17100000Y-10850000D01*
D11*
X6938000Y-4756000D02*
X7113000Y-4931000D01*
X7113000Y-4756000D02*
X6938000Y-4931000D01*
X6938000Y-7137250D02*
X7113000Y-7312250D01*
X7113000Y-7137250D02*
X6938000Y-7312250D01*
X6938000Y-9518500D02*
X7113000Y-9693500D01*
X7113000Y-9518500D02*
X6938000Y-9693500D01*
X7954000Y-4756000D02*
X8129000Y-4931000D01*
X8129000Y-4756000D02*
X7954000Y-4931000D01*
X7954000Y-7137250D02*
X8129000Y-7312250D01*
X8129000Y-7137250D02*
X7954000Y-7312250D01*
X7954000Y-9518500D02*
X8129000Y-9693500D01*
X8129000Y-9518500D02*
X7954000Y-9693500D01*
X8843000Y-4756000D02*
X9018000Y-4931000D01*
X9018000Y-4756000D02*
X8843000Y-4931000D01*
X8843000Y-7137250D02*
X9018000Y-7312250D01*
X9018000Y-7137250D02*
X8843000Y-7312250D01*
X8843000Y-9518500D02*
X9018000Y-9693500D01*
X9018000Y-9518500D02*
X8843000Y-9693500D01*
X9859000Y-4756000D02*
X10034000Y-4931000D01*
X10034000Y-4756000D02*
X9859000Y-4931000D01*
X9859000Y-7137250D02*
X10034000Y-7312250D01*
X10034000Y-7137250D02*
X9859000Y-7312250D01*
X9859000Y-9518500D02*
X10034000Y-9693500D01*
X10034000Y-9518500D02*
X9859000Y-9693500D01*
X10748000Y-4756000D02*
X10923000Y-4931000D01*
X10923000Y-4756000D02*
X10748000Y-4931000D01*
X10748000Y-7137250D02*
X10923000Y-7312250D01*
X10923000Y-7137250D02*
X10748000Y-7312250D01*
X10748000Y-9518500D02*
X10923000Y-9693500D01*
X10923000Y-9518500D02*
X10748000Y-9693500D01*
X11764000Y-4756000D02*
X11939000Y-4931000D01*
X11939000Y-4756000D02*
X11764000Y-4931000D01*
X11764000Y-7137250D02*
X11939000Y-7312250D01*
X11939000Y-7137250D02*
X11764000Y-7312250D01*
X11764000Y-9518500D02*
X11939000Y-9693500D01*
X11939000Y-9518500D02*
X11764000Y-9693500D01*
X12653000Y-4756000D02*
X12828000Y-4931000D01*
X12828000Y-4756000D02*
X12653000Y-4931000D01*
X12653000Y-7137250D02*
X12828000Y-7312250D01*
X12828000Y-7137250D02*
X12653000Y-7312250D01*
X12653000Y-9518500D02*
X12828000Y-9693500D01*
X12828000Y-9518500D02*
X12653000Y-9693500D01*
X13669000Y-4756000D02*
X13844000Y-4931000D01*
X13844000Y-4756000D02*
X13669000Y-4931000D01*
X13669000Y-7137250D02*
X13844000Y-7312250D01*
X13844000Y-7137250D02*
X13669000Y-7312250D01*
X13669000Y-9518500D02*
X13844000Y-9693500D01*
X13844000Y-9518500D02*
X13669000Y-9693500D01*
X6700000Y-4130000D02*
G75*
G03*
X6700000Y-4130000I-110000J0D01*
G01*
X6700000Y-10600000D02*
G75*
G03*
X6700000Y-10600000I-110000J0D01*
G01*
X17160000Y-4130000D02*
G75*
G03*
X17160000Y-4130000I-110000J0D01*
G01*
X17160000Y-10600000D02*
G75*
G03*
X17160000Y-10600000I-110000J0D01*
G01*
X7533500Y-4644110D02*
X7533500Y-5042890D01*
X7334110Y-4843500D02*
X7732890Y-4843500D01*
X7533500Y-7025360D02*
X7533500Y-7424140D01*
X7334110Y-7224750D02*
X7732890Y-7224750D01*
X7533500Y-9406610D02*
X7533500Y-9805390D01*
X7334110Y-9606000D02*
X7732890Y-9606000D01*
X9438500Y-4644110D02*
X9438500Y-5042890D01*
X9239110Y-4843500D02*
X9637890Y-4843500D01*
X9438500Y-7025360D02*
X9438500Y-7424140D01*
X9239110Y-7224750D02*
X9637890Y-7224750D01*
X9438500Y-9406610D02*
X9438500Y-9805390D01*
X9239110Y-9606000D02*
X9637890Y-9606000D01*
X11343500Y-4644110D02*
X11343500Y-5042890D01*
X11144110Y-4843500D02*
X11542890Y-4843500D01*
X11343500Y-7025360D02*
X11343500Y-7424140D01*
X11144110Y-7224750D02*
X11542890Y-7224750D01*
X11343500Y-9406610D02*
X11343500Y-9805390D01*
X11144110Y-9606000D02*
X11542890Y-9606000D01*
X13248500Y-4644110D02*
X13248500Y-5042890D01*
X13049110Y-4843500D02*
X13447890Y-4843500D01*
X13248500Y-7025360D02*
X13248500Y-7424140D01*
X13049110Y-7224750D02*
X13447890Y-7224750D01*
X13248500Y-9406610D02*
X13248500Y-9805390D01*
X13049110Y-9606000D02*
X13447890Y-9606000D01*
D12*
X6621428Y-11320714D02*
X6621428Y-11020714D01*
X6692857Y-11020714D01*
X6735714Y-11035000D01*
X6764286Y-11063572D01*
X6778571Y-11092143D01*
X6792857Y-11149286D01*
X6792857Y-11192143D01*
X6778571Y-11249286D01*
X6764286Y-11277857D01*
X6735714Y-11306429D01*
X6692857Y-11320714D01*
X6621428Y-11320714D01*
X6921428Y-11320714D02*
X6921428Y-11120714D01*
X6921428Y-11177857D02*
X6935714Y-11149286D01*
X6950000Y-11135000D01*
X6978571Y-11120714D01*
X7007143Y-11120714D01*
X7107143Y-11320714D02*
X7107143Y-11120714D01*
X7107143Y-11020714D02*
X7092857Y-11035000D01*
X7107143Y-11049286D01*
X7121428Y-11035000D01*
X7107143Y-11020714D01*
X7107143Y-11049286D01*
X7292857Y-11320714D02*
X7264286Y-11306429D01*
X7250000Y-11277857D01*
X7250000Y-11020714D01*
X7450000Y-11320714D02*
X7421428Y-11306429D01*
X7407143Y-11277857D01*
X7407143Y-11020714D01*
X7792857Y-11320714D02*
X7792857Y-11020714D01*
X7892857Y-11235000D01*
X7992857Y-11020714D01*
X7992857Y-11320714D01*
X8264286Y-11320714D02*
X8264286Y-11163572D01*
X8250000Y-11135000D01*
X8221428Y-11120714D01*
X8164286Y-11120714D01*
X8135714Y-11135000D01*
X8264286Y-11306429D02*
X8235714Y-11320714D01*
X8164286Y-11320714D01*
X8135714Y-11306429D01*
X8121428Y-11277857D01*
X8121428Y-11249286D01*
X8135714Y-11220714D01*
X8164286Y-11206429D01*
X8235714Y-11206429D01*
X8264286Y-11192143D01*
X8407143Y-11120714D02*
X8407143Y-11420714D01*
X8407143Y-11135000D02*
X8435714Y-11120714D01*
X8492857Y-11120714D01*
X8521428Y-11135000D01*
X8535714Y-11149286D01*
X8550000Y-11177857D01*
X8550000Y-11263571D01*
X8535714Y-11292143D01*
X8521428Y-11306429D01*
X8492857Y-11320714D01*
X8435714Y-11320714D01*
X8407143Y-11306429D01*
X8678571Y-11292143D02*
X8692857Y-11306429D01*
X8678571Y-11320714D01*
X8664286Y-11306429D01*
X8678571Y-11292143D01*
X8678571Y-11320714D01*
X8678571Y-11135000D02*
X8692857Y-11149286D01*
X8678571Y-11163572D01*
X8664286Y-11149286D01*
X8678571Y-11135000D01*
X8678571Y-11163572D01*
X6160000Y-11727500D02*
X6335000Y-11902500D01*
X6335000Y-11727500D02*
X6160000Y-11902500D01*
X6778571Y-11950714D02*
X6607143Y-11950714D01*
X6692857Y-11950714D02*
X6692857Y-11650714D01*
X6664286Y-11693571D01*
X6635714Y-11722143D01*
X6607143Y-11736429D01*
X6907143Y-11922143D02*
X6921428Y-11936429D01*
X6907143Y-11950714D01*
X6892857Y-11936429D01*
X6907143Y-11922143D01*
X6907143Y-11950714D01*
X7021428Y-11650714D02*
X7221428Y-11650714D01*
X7092857Y-11950714D01*
X7478571Y-11650714D02*
X7335714Y-11650714D01*
X7321428Y-11793571D01*
X7335714Y-11779286D01*
X7364286Y-11765000D01*
X7435714Y-11765000D01*
X7464286Y-11779286D01*
X7478571Y-11793571D01*
X7492857Y-11822143D01*
X7492857Y-11893571D01*
X7478571Y-11922143D01*
X7464286Y-11936429D01*
X7435714Y-11950714D01*
X7364286Y-11950714D01*
X7335714Y-11936429D01*
X7321428Y-11922143D01*
X7621428Y-11950714D02*
X7621428Y-11750714D01*
X7621428Y-11779286D02*
X7635714Y-11765000D01*
X7664286Y-11750714D01*
X7707143Y-11750714D01*
X7735714Y-11765000D01*
X7750000Y-11793571D01*
X7750000Y-11950714D01*
X7750000Y-11793571D02*
X7764286Y-11765000D01*
X7792857Y-11750714D01*
X7835714Y-11750714D01*
X7864286Y-11765000D01*
X7878571Y-11793571D01*
X7878571Y-11950714D01*
X8021428Y-11950714D02*
X8021428Y-11750714D01*
X8021428Y-11779286D02*
X8035714Y-11765000D01*
X8064286Y-11750714D01*
X8107143Y-11750714D01*
X8135714Y-11765000D01*
X8150000Y-11793571D01*
X8150000Y-11950714D01*
X8150000Y-11793571D02*
X8164286Y-11765000D01*
X8192857Y-11750714D01*
X8235714Y-11750714D01*
X8264286Y-11765000D01*
X8278571Y-11793571D01*
X8278571Y-11950714D01*
X8864286Y-11636429D02*
X8607143Y-12022143D01*
X9250000Y-11650714D02*
X9278571Y-11650714D01*
X9307143Y-11665000D01*
X9321428Y-11679286D01*
X9335714Y-11707857D01*
X9350000Y-11765000D01*
X9350000Y-11836429D01*
X9335714Y-11893571D01*
X9321428Y-11922143D01*
X9307143Y-11936429D01*
X9278571Y-11950714D01*
X9250000Y-11950714D01*
X9221428Y-11936429D01*
X9207143Y-11922143D01*
X9192857Y-11893571D01*
X9178571Y-11836429D01*
X9178571Y-11765000D01*
X9192857Y-11707857D01*
X9207143Y-11679286D01*
X9221428Y-11665000D01*
X9250000Y-11650714D01*
X9478571Y-11922143D02*
X9492857Y-11936429D01*
X9478571Y-11950714D01*
X9464286Y-11936429D01*
X9478571Y-11922143D01*
X9478571Y-11950714D01*
X9678571Y-11650714D02*
X9707143Y-11650714D01*
X9735714Y-11665000D01*
X9750000Y-11679286D01*
X9764286Y-11707857D01*
X9778571Y-11765000D01*
X9778571Y-11836429D01*
X9764286Y-11893571D01*
X9750000Y-11922143D01*
X9735714Y-11936429D01*
X9707143Y-11950714D01*
X9678571Y-11950714D01*
X9650000Y-11936429D01*
X9635714Y-11922143D01*
X9621428Y-11893571D01*
X9607143Y-11836429D01*
X9607143Y-11765000D01*
X9621428Y-11707857D01*
X9635714Y-11679286D01*
X9650000Y-11665000D01*
X9678571Y-11650714D01*
X10035714Y-11650714D02*
X9978571Y-11650714D01*
X9950000Y-11665000D01*
X9935714Y-11679286D01*
X9907143Y-11722143D01*
X9892857Y-11779286D01*
X9892857Y-11893571D01*
X9907143Y-11922143D01*
X9921428Y-11936429D01*
X9950000Y-11950714D01*
X10007143Y-11950714D01*
X10035714Y-11936429D01*
X10050000Y-11922143D01*
X10064286Y-11893571D01*
X10064286Y-11822143D01*
X10050000Y-11793571D01*
X10035714Y-11779286D01*
X10007143Y-11765000D01*
X9950000Y-11765000D01*
X9921428Y-11779286D01*
X9907143Y-11793571D01*
X9892857Y-11822143D01*
X10207143Y-11950714D02*
X10264286Y-11950714D01*
X10292857Y-11936429D01*
X10307143Y-11922143D01*
X10335714Y-11879286D01*
X10350000Y-11822143D01*
X10350000Y-11707857D01*
X10335714Y-11679286D01*
X10321428Y-11665000D01*
X10292857Y-11650714D01*
X10235714Y-11650714D01*
X10207143Y-11665000D01*
X10192857Y-11679286D01*
X10178571Y-11707857D01*
X10178571Y-11779286D01*
X10192857Y-11807857D01*
X10207143Y-11822143D01*
X10235714Y-11836429D01*
X10292857Y-11836429D01*
X10321428Y-11822143D01*
X10335714Y-11807857D01*
X10350000Y-11779286D01*
X10464286Y-11650714D02*
X10464286Y-11707857D01*
X10578571Y-11650714D02*
X10578571Y-11707857D01*
X11021428Y-12065000D02*
X11007143Y-12050714D01*
X10978571Y-12007857D01*
X10964286Y-11979286D01*
X10950000Y-11936429D01*
X10935714Y-11865000D01*
X10935714Y-11807857D01*
X10950000Y-11736429D01*
X10964286Y-11693571D01*
X10978571Y-11665000D01*
X11007143Y-11622143D01*
X11021428Y-11607857D01*
X11121428Y-11679286D02*
X11135714Y-11665000D01*
X11164286Y-11650714D01*
X11235714Y-11650714D01*
X11264286Y-11665000D01*
X11278571Y-11679286D01*
X11292857Y-11707857D01*
X11292857Y-11736429D01*
X11278571Y-11779286D01*
X11107143Y-11950714D01*
X11292857Y-11950714D01*
X11550000Y-11750714D02*
X11550000Y-11950714D01*
X11478571Y-11636429D02*
X11407143Y-11850714D01*
X11592857Y-11850714D01*
X11935714Y-11950714D02*
X11935714Y-11650714D01*
X12064286Y-11950714D02*
X12064286Y-11793571D01*
X12050000Y-11765000D01*
X12021428Y-11750714D01*
X11978571Y-11750714D01*
X11950000Y-11765000D01*
X11935714Y-11779286D01*
X12250000Y-11950714D02*
X12221428Y-11936429D01*
X12207143Y-11922143D01*
X12192857Y-11893571D01*
X12192857Y-11807857D01*
X12207143Y-11779286D01*
X12221428Y-11765000D01*
X12250000Y-11750714D01*
X12292857Y-11750714D01*
X12321428Y-11765000D01*
X12335714Y-11779286D01*
X12350000Y-11807857D01*
X12350000Y-11893571D01*
X12335714Y-11922143D01*
X12321428Y-11936429D01*
X12292857Y-11950714D01*
X12250000Y-11950714D01*
X12521428Y-11950714D02*
X12492857Y-11936429D01*
X12478571Y-11907857D01*
X12478571Y-11650714D01*
X12750000Y-11936429D02*
X12721428Y-11950714D01*
X12664286Y-11950714D01*
X12635714Y-11936429D01*
X12621428Y-11907857D01*
X12621428Y-11793571D01*
X12635714Y-11765000D01*
X12664286Y-11750714D01*
X12721428Y-11750714D01*
X12750000Y-11765000D01*
X12764286Y-11793571D01*
X12764286Y-11822143D01*
X12621428Y-11850714D01*
X12878571Y-11936429D02*
X12907143Y-11950714D01*
X12964286Y-11950714D01*
X12992857Y-11936429D01*
X13007143Y-11907857D01*
X13007143Y-11893571D01*
X12992857Y-11865000D01*
X12964286Y-11850714D01*
X12921428Y-11850714D01*
X12892857Y-11836429D01*
X12878571Y-11807857D01*
X12878571Y-11793571D01*
X12892857Y-11765000D01*
X12921428Y-11750714D01*
X12964286Y-11750714D01*
X12992857Y-11765000D01*
X13107143Y-12065000D02*
X13121428Y-12050714D01*
X13150000Y-12007857D01*
X13164286Y-11979286D01*
X13178571Y-11936429D01*
X13192857Y-11865000D01*
X13192857Y-11807857D01*
X13178571Y-11736429D01*
X13164286Y-11693571D01*
X13150000Y-11665000D01*
X13121428Y-11622143D01*
X13107143Y-11607857D01*
X13650000Y-12065000D02*
X13635714Y-12050714D01*
X13607143Y-12007857D01*
X13592857Y-11979286D01*
X13578571Y-11936429D01*
X13564286Y-11865000D01*
X13564286Y-11807857D01*
X13578571Y-11736429D01*
X13592857Y-11693571D01*
X13607143Y-11665000D01*
X13635714Y-11622143D01*
X13650000Y-11607857D01*
X13764286Y-11750714D02*
X13764286Y-11950714D01*
X13764286Y-11779286D02*
X13778571Y-11765000D01*
X13807143Y-11750714D01*
X13850000Y-11750714D01*
X13878571Y-11765000D01*
X13892857Y-11793571D01*
X13892857Y-11950714D01*
X14078571Y-11950714D02*
X14050000Y-11936429D01*
X14035714Y-11922143D01*
X14021428Y-11893571D01*
X14021428Y-11807857D01*
X14035714Y-11779286D01*
X14050000Y-11765000D01*
X14078571Y-11750714D01*
X14121428Y-11750714D01*
X14150000Y-11765000D01*
X14164286Y-11779286D01*
X14178571Y-11807857D01*
X14178571Y-11893571D01*
X14164286Y-11922143D01*
X14150000Y-11936429D01*
X14121428Y-11950714D01*
X14078571Y-11950714D01*
X14264286Y-11750714D02*
X14378571Y-11750714D01*
X14307143Y-11650714D02*
X14307143Y-11907857D01*
X14321428Y-11936429D01*
X14350000Y-11950714D01*
X14378571Y-11950714D01*
X14707143Y-11750714D02*
X14707143Y-12050714D01*
X14707143Y-11765000D02*
X14735714Y-11750714D01*
X14792857Y-11750714D01*
X14821428Y-11765000D01*
X14835714Y-11779286D01*
X14850000Y-11807857D01*
X14850000Y-11893571D01*
X14835714Y-11922143D01*
X14821428Y-11936429D01*
X14792857Y-11950714D01*
X14735714Y-11950714D01*
X14707143Y-11936429D01*
X15021428Y-11950714D02*
X14992857Y-11936429D01*
X14978571Y-11907857D01*
X14978571Y-11650714D01*
X15264286Y-11950714D02*
X15264286Y-11793571D01*
X15250000Y-11765000D01*
X15221428Y-11750714D01*
X15164286Y-11750714D01*
X15135714Y-11765000D01*
X15264286Y-11936429D02*
X15235714Y-11950714D01*
X15164286Y-11950714D01*
X15135714Y-11936429D01*
X15121428Y-11907857D01*
X15121428Y-11879286D01*
X15135714Y-11850714D01*
X15164286Y-11836429D01*
X15235714Y-11836429D01*
X15264286Y-11822143D01*
X15364286Y-11750714D02*
X15478571Y-11750714D01*
X15407143Y-11650714D02*
X15407143Y-11907857D01*
X15421428Y-11936429D01*
X15450000Y-11950714D01*
X15478571Y-11950714D01*
X15692857Y-11936429D02*
X15664286Y-11950714D01*
X15607143Y-11950714D01*
X15578571Y-11936429D01*
X15564286Y-11907857D01*
X15564286Y-11793571D01*
X15578571Y-11765000D01*
X15607143Y-11750714D01*
X15664286Y-11750714D01*
X15692857Y-11765000D01*
X15707143Y-11793571D01*
X15707143Y-11822143D01*
X15564286Y-11850714D01*
X15964286Y-11950714D02*
X15964286Y-11650714D01*
X15964286Y-11936429D02*
X15935714Y-11950714D01*
X15878571Y-11950714D01*
X15850000Y-11936429D01*
X15835714Y-11922143D01*
X15821428Y-11893571D01*
X15821428Y-11807857D01*
X15835714Y-11779286D01*
X15850000Y-11765000D01*
X15878571Y-11750714D01*
X15935714Y-11750714D01*
X15964286Y-11765000D01*
X16078571Y-12065000D02*
X16092857Y-12050714D01*
X16121428Y-12007857D01*
X16135714Y-11979286D01*
X16150000Y-11936429D01*
X16164286Y-11865000D01*
X16164286Y-11807857D01*
X16150000Y-11736429D01*
X16135714Y-11693571D01*
X16121428Y-11665000D01*
X16092857Y-11622143D01*
X16078571Y-11607857D01*
X6335000Y-12211000D02*
G75*
G03*
X6335000Y-12211000I-110000J0D01*
G01*
X6607143Y-12075286D02*
X6621428Y-12061000D01*
X6650000Y-12046714D01*
X6721428Y-12046714D01*
X6750000Y-12061000D01*
X6764286Y-12075286D01*
X6778571Y-12103857D01*
X6778571Y-12132429D01*
X6764286Y-12175286D01*
X6592857Y-12346714D01*
X6778571Y-12346714D01*
X6907143Y-12318143D02*
X6921428Y-12332429D01*
X6907143Y-12346714D01*
X6892857Y-12332429D01*
X6907143Y-12318143D01*
X6907143Y-12346714D01*
X7035714Y-12075286D02*
X7050000Y-12061000D01*
X7078571Y-12046714D01*
X7150000Y-12046714D01*
X7178571Y-12061000D01*
X7192857Y-12075286D01*
X7207143Y-12103857D01*
X7207143Y-12132429D01*
X7192857Y-12175286D01*
X7021428Y-12346714D01*
X7207143Y-12346714D01*
X7392857Y-12046714D02*
X7421428Y-12046714D01*
X7450000Y-12061000D01*
X7464286Y-12075286D01*
X7478571Y-12103857D01*
X7492857Y-12161000D01*
X7492857Y-12232429D01*
X7478571Y-12289571D01*
X7464286Y-12318143D01*
X7450000Y-12332429D01*
X7421428Y-12346714D01*
X7392857Y-12346714D01*
X7364286Y-12332429D01*
X7350000Y-12318143D01*
X7335714Y-12289571D01*
X7321428Y-12232429D01*
X7321428Y-12161000D01*
X7335714Y-12103857D01*
X7350000Y-12075286D01*
X7364286Y-12061000D01*
X7392857Y-12046714D01*
X7621428Y-12346714D02*
X7621428Y-12146714D01*
X7621428Y-12175286D02*
X7635714Y-12161000D01*
X7664286Y-12146714D01*
X7707143Y-12146714D01*
X7735714Y-12161000D01*
X7750000Y-12189571D01*
X7750000Y-12346714D01*
X7750000Y-12189571D02*
X7764286Y-12161000D01*
X7792857Y-12146714D01*
X7835714Y-12146714D01*
X7864286Y-12161000D01*
X7878571Y-12189571D01*
X7878571Y-12346714D01*
X8021428Y-12346714D02*
X8021428Y-12146714D01*
X8021428Y-12175286D02*
X8035714Y-12161000D01*
X8064286Y-12146714D01*
X8107143Y-12146714D01*
X8135714Y-12161000D01*
X8150000Y-12189571D01*
X8150000Y-12346714D01*
X8150000Y-12189571D02*
X8164286Y-12161000D01*
X8192857Y-12146714D01*
X8235714Y-12146714D01*
X8264286Y-12161000D01*
X8278571Y-12189571D01*
X8278571Y-12346714D01*
X8864286Y-12032429D02*
X8607143Y-12418143D01*
X9250000Y-12046714D02*
X9278571Y-12046714D01*
X9307143Y-12061000D01*
X9321428Y-12075286D01*
X9335714Y-12103857D01*
X9350000Y-12161000D01*
X9350000Y-12232429D01*
X9335714Y-12289571D01*
X9321428Y-12318143D01*
X9307143Y-12332429D01*
X9278571Y-12346714D01*
X9250000Y-12346714D01*
X9221428Y-12332429D01*
X9207143Y-12318143D01*
X9192857Y-12289571D01*
X9178571Y-12232429D01*
X9178571Y-12161000D01*
X9192857Y-12103857D01*
X9207143Y-12075286D01*
X9221428Y-12061000D01*
X9250000Y-12046714D01*
X9478571Y-12318143D02*
X9492857Y-12332429D01*
X9478571Y-12346714D01*
X9464286Y-12332429D01*
X9478571Y-12318143D01*
X9478571Y-12346714D01*
X9678571Y-12046714D02*
X9707143Y-12046714D01*
X9735714Y-12061000D01*
X9750000Y-12075286D01*
X9764286Y-12103857D01*
X9778571Y-12161000D01*
X9778571Y-12232429D01*
X9764286Y-12289571D01*
X9750000Y-12318143D01*
X9735714Y-12332429D01*
X9707143Y-12346714D01*
X9678571Y-12346714D01*
X9650000Y-12332429D01*
X9635714Y-12318143D01*
X9621428Y-12289571D01*
X9607143Y-12232429D01*
X9607143Y-12161000D01*
X9621428Y-12103857D01*
X9635714Y-12075286D01*
X9650000Y-12061000D01*
X9678571Y-12046714D01*
X9950000Y-12175286D02*
X9921428Y-12161000D01*
X9907143Y-12146714D01*
X9892857Y-12118143D01*
X9892857Y-12103857D01*
X9907143Y-12075286D01*
X9921428Y-12061000D01*
X9950000Y-12046714D01*
X10007143Y-12046714D01*
X10035714Y-12061000D01*
X10050000Y-12075286D01*
X10064286Y-12103857D01*
X10064286Y-12118143D01*
X10050000Y-12146714D01*
X10035714Y-12161000D01*
X10007143Y-12175286D01*
X9950000Y-12175286D01*
X9921428Y-12189571D01*
X9907143Y-12203857D01*
X9892857Y-12232429D01*
X9892857Y-12289571D01*
X9907143Y-12318143D01*
X9921428Y-12332429D01*
X9950000Y-12346714D01*
X10007143Y-12346714D01*
X10035714Y-12332429D01*
X10050000Y-12318143D01*
X10064286Y-12289571D01*
X10064286Y-12232429D01*
X10050000Y-12203857D01*
X10035714Y-12189571D01*
X10007143Y-12175286D01*
X10164286Y-12046714D02*
X10364286Y-12046714D01*
X10235714Y-12346714D01*
X10464286Y-12046714D02*
X10464286Y-12103857D01*
X10578571Y-12046714D02*
X10578571Y-12103857D01*
X11021428Y-12461000D02*
X11007143Y-12446714D01*
X10978571Y-12403857D01*
X10964286Y-12375286D01*
X10950000Y-12332429D01*
X10935714Y-12261000D01*
X10935714Y-12203857D01*
X10950000Y-12132429D01*
X10964286Y-12089571D01*
X10978571Y-12061000D01*
X11007143Y-12018143D01*
X11021428Y-12003857D01*
X11264286Y-12146714D02*
X11264286Y-12346714D01*
X11192857Y-12032429D02*
X11121428Y-12246714D01*
X11307143Y-12246714D01*
X11650000Y-12346714D02*
X11650000Y-12046714D01*
X11778571Y-12346714D02*
X11778571Y-12189571D01*
X11764286Y-12161000D01*
X11735714Y-12146714D01*
X11692857Y-12146714D01*
X11664286Y-12161000D01*
X11650000Y-12175286D01*
X11964286Y-12346714D02*
X11935714Y-12332429D01*
X11921428Y-12318143D01*
X11907143Y-12289571D01*
X11907143Y-12203857D01*
X11921428Y-12175286D01*
X11935714Y-12161000D01*
X11964286Y-12146714D01*
X12007143Y-12146714D01*
X12035714Y-12161000D01*
X12050000Y-12175286D01*
X12064286Y-12203857D01*
X12064286Y-12289571D01*
X12050000Y-12318143D01*
X12035714Y-12332429D01*
X12007143Y-12346714D01*
X11964286Y-12346714D01*
X12235714Y-12346714D02*
X12207143Y-12332429D01*
X12192857Y-12303857D01*
X12192857Y-12046714D01*
X12464286Y-12332429D02*
X12435714Y-12346714D01*
X12378571Y-12346714D01*
X12350000Y-12332429D01*
X12335714Y-12303857D01*
X12335714Y-12189571D01*
X12350000Y-12161000D01*
X12378571Y-12146714D01*
X12435714Y-12146714D01*
X12464286Y-12161000D01*
X12478571Y-12189571D01*
X12478571Y-12218143D01*
X12335714Y-12246714D01*
X12592857Y-12332429D02*
X12621428Y-12346714D01*
X12678571Y-12346714D01*
X12707143Y-12332429D01*
X12721428Y-12303857D01*
X12721428Y-12289571D01*
X12707143Y-12261000D01*
X12678571Y-12246714D01*
X12635714Y-12246714D01*
X12607143Y-12232429D01*
X12592857Y-12203857D01*
X12592857Y-12189571D01*
X12607143Y-12161000D01*
X12635714Y-12146714D01*
X12678571Y-12146714D01*
X12707143Y-12161000D01*
X12821428Y-12461000D02*
X12835714Y-12446714D01*
X12864286Y-12403857D01*
X12878571Y-12375286D01*
X12892857Y-12332429D01*
X12907143Y-12261000D01*
X12907143Y-12203857D01*
X12892857Y-12132429D01*
X12878571Y-12089571D01*
X12864286Y-12061000D01*
X12835714Y-12018143D01*
X12821428Y-12003857D01*
X13364286Y-12461000D02*
X13350000Y-12446714D01*
X13321428Y-12403857D01*
X13307143Y-12375286D01*
X13292857Y-12332429D01*
X13278571Y-12261000D01*
X13278571Y-12203857D01*
X13292857Y-12132429D01*
X13307143Y-12089571D01*
X13321428Y-12061000D01*
X13350000Y-12018143D01*
X13364286Y-12003857D01*
X13478571Y-12146714D02*
X13478571Y-12346714D01*
X13478571Y-12175286D02*
X13492857Y-12161000D01*
X13521428Y-12146714D01*
X13564286Y-12146714D01*
X13592857Y-12161000D01*
X13607143Y-12189571D01*
X13607143Y-12346714D01*
X13792857Y-12346714D02*
X13764286Y-12332429D01*
X13750000Y-12318143D01*
X13735714Y-12289571D01*
X13735714Y-12203857D01*
X13750000Y-12175286D01*
X13764286Y-12161000D01*
X13792857Y-12146714D01*
X13835714Y-12146714D01*
X13864286Y-12161000D01*
X13878571Y-12175286D01*
X13892857Y-12203857D01*
X13892857Y-12289571D01*
X13878571Y-12318143D01*
X13864286Y-12332429D01*
X13835714Y-12346714D01*
X13792857Y-12346714D01*
X13978571Y-12146714D02*
X14092857Y-12146714D01*
X14021428Y-12046714D02*
X14021428Y-12303857D01*
X14035714Y-12332429D01*
X14064286Y-12346714D01*
X14092857Y-12346714D01*
X14421428Y-12146714D02*
X14421428Y-12446714D01*
X14421428Y-12161000D02*
X14450000Y-12146714D01*
X14507143Y-12146714D01*
X14535714Y-12161000D01*
X14550000Y-12175286D01*
X14564286Y-12203857D01*
X14564286Y-12289571D01*
X14550000Y-12318143D01*
X14535714Y-12332429D01*
X14507143Y-12346714D01*
X14450000Y-12346714D01*
X14421428Y-12332429D01*
X14735714Y-12346714D02*
X14707143Y-12332429D01*
X14692857Y-12303857D01*
X14692857Y-12046714D01*
X14978571Y-12346714D02*
X14978571Y-12189571D01*
X14964286Y-12161000D01*
X14935714Y-12146714D01*
X14878571Y-12146714D01*
X14850000Y-12161000D01*
X14978571Y-12332429D02*
X14950000Y-12346714D01*
X14878571Y-12346714D01*
X14850000Y-12332429D01*
X14835714Y-12303857D01*
X14835714Y-12275286D01*
X14850000Y-12246714D01*
X14878571Y-12232429D01*
X14950000Y-12232429D01*
X14978571Y-12218143D01*
X15078571Y-12146714D02*
X15192857Y-12146714D01*
X15121428Y-12046714D02*
X15121428Y-12303857D01*
X15135714Y-12332429D01*
X15164286Y-12346714D01*
X15192857Y-12346714D01*
X15407143Y-12332429D02*
X15378571Y-12346714D01*
X15321428Y-12346714D01*
X15292857Y-12332429D01*
X15278571Y-12303857D01*
X15278571Y-12189571D01*
X15292857Y-12161000D01*
X15321428Y-12146714D01*
X15378571Y-12146714D01*
X15407143Y-12161000D01*
X15421428Y-12189571D01*
X15421428Y-12218143D01*
X15278571Y-12246714D01*
X15678571Y-12346714D02*
X15678571Y-12046714D01*
X15678571Y-12332429D02*
X15650000Y-12346714D01*
X15592857Y-12346714D01*
X15564286Y-12332429D01*
X15550000Y-12318143D01*
X15535714Y-12289571D01*
X15535714Y-12203857D01*
X15550000Y-12175286D01*
X15564286Y-12161000D01*
X15592857Y-12146714D01*
X15650000Y-12146714D01*
X15678571Y-12161000D01*
X15792857Y-12461000D02*
X15807143Y-12446714D01*
X15835714Y-12403857D01*
X15850000Y-12375286D01*
X15864286Y-12332429D01*
X15878571Y-12261000D01*
X15878571Y-12203857D01*
X15864286Y-12132429D01*
X15850000Y-12089571D01*
X15835714Y-12061000D01*
X15807143Y-12018143D01*
X15792857Y-12003857D01*
X6135610Y-12407610D02*
X6135610Y-12806390D01*
X5936220Y-12607000D02*
X6335000Y-12607000D01*
X6592857Y-12442714D02*
X6778571Y-12442714D01*
X6678571Y-12557000D01*
X6721428Y-12557000D01*
X6750000Y-12571286D01*
X6764286Y-12585571D01*
X6778571Y-12614143D01*
X6778571Y-12685571D01*
X6764286Y-12714143D01*
X6750000Y-12728429D01*
X6721428Y-12742714D01*
X6635714Y-12742714D01*
X6607143Y-12728429D01*
X6592857Y-12714143D01*
X6907143Y-12714143D02*
X6921428Y-12728429D01*
X6907143Y-12742714D01*
X6892857Y-12728429D01*
X6907143Y-12714143D01*
X6907143Y-12742714D01*
X7064286Y-12742714D02*
X7121428Y-12742714D01*
X7150000Y-12728429D01*
X7164286Y-12714143D01*
X7192857Y-12671286D01*
X7207143Y-12614143D01*
X7207143Y-12499857D01*
X7192857Y-12471286D01*
X7178571Y-12457000D01*
X7150000Y-12442714D01*
X7092857Y-12442714D01*
X7064286Y-12457000D01*
X7050000Y-12471286D01*
X7035714Y-12499857D01*
X7035714Y-12571286D01*
X7050000Y-12599857D01*
X7064286Y-12614143D01*
X7092857Y-12628429D01*
X7150000Y-12628429D01*
X7178571Y-12614143D01*
X7192857Y-12599857D01*
X7207143Y-12571286D01*
X7350000Y-12742714D02*
X7407143Y-12742714D01*
X7435714Y-12728429D01*
X7450000Y-12714143D01*
X7478571Y-12671286D01*
X7492857Y-12614143D01*
X7492857Y-12499857D01*
X7478571Y-12471286D01*
X7464286Y-12457000D01*
X7435714Y-12442714D01*
X7378571Y-12442714D01*
X7350000Y-12457000D01*
X7335714Y-12471286D01*
X7321428Y-12499857D01*
X7321428Y-12571286D01*
X7335714Y-12599857D01*
X7350000Y-12614143D01*
X7378571Y-12628429D01*
X7435714Y-12628429D01*
X7464286Y-12614143D01*
X7478571Y-12599857D01*
X7492857Y-12571286D01*
X7621428Y-12742714D02*
X7621428Y-12542714D01*
X7621428Y-12571286D02*
X7635714Y-12557000D01*
X7664286Y-12542714D01*
X7707143Y-12542714D01*
X7735714Y-12557000D01*
X7750000Y-12585571D01*
X7750000Y-12742714D01*
X7750000Y-12585571D02*
X7764286Y-12557000D01*
X7792857Y-12542714D01*
X7835714Y-12542714D01*
X7864286Y-12557000D01*
X7878571Y-12585571D01*
X7878571Y-12742714D01*
X8021428Y-12742714D02*
X8021428Y-12542714D01*
X8021428Y-12571286D02*
X8035714Y-12557000D01*
X8064286Y-12542714D01*
X8107143Y-12542714D01*
X8135714Y-12557000D01*
X8150000Y-12585571D01*
X8150000Y-12742714D01*
X8150000Y-12585571D02*
X8164286Y-12557000D01*
X8192857Y-12542714D01*
X8235714Y-12542714D01*
X8264286Y-12557000D01*
X8278571Y-12585571D01*
X8278571Y-12742714D01*
X8864286Y-12428429D02*
X8607143Y-12814143D01*
X9250000Y-12442714D02*
X9278571Y-12442714D01*
X9307143Y-12457000D01*
X9321428Y-12471286D01*
X9335714Y-12499857D01*
X9350000Y-12557000D01*
X9350000Y-12628429D01*
X9335714Y-12685571D01*
X9321428Y-12714143D01*
X9307143Y-12728429D01*
X9278571Y-12742714D01*
X9250000Y-12742714D01*
X9221428Y-12728429D01*
X9207143Y-12714143D01*
X9192857Y-12685571D01*
X9178571Y-12628429D01*
X9178571Y-12557000D01*
X9192857Y-12499857D01*
X9207143Y-12471286D01*
X9221428Y-12457000D01*
X9250000Y-12442714D01*
X9478571Y-12714143D02*
X9492857Y-12728429D01*
X9478571Y-12742714D01*
X9464286Y-12728429D01*
X9478571Y-12714143D01*
X9478571Y-12742714D01*
X9778571Y-12742714D02*
X9607143Y-12742714D01*
X9692857Y-12742714D02*
X9692857Y-12442714D01*
X9664286Y-12485571D01*
X9635714Y-12514143D01*
X9607143Y-12528429D01*
X10050000Y-12442714D02*
X9907143Y-12442714D01*
X9892857Y-12585571D01*
X9907143Y-12571286D01*
X9935714Y-12557000D01*
X10007143Y-12557000D01*
X10035714Y-12571286D01*
X10050000Y-12585571D01*
X10064286Y-12614143D01*
X10064286Y-12685571D01*
X10050000Y-12714143D01*
X10035714Y-12728429D01*
X10007143Y-12742714D01*
X9935714Y-12742714D01*
X9907143Y-12728429D01*
X9892857Y-12714143D01*
X10164286Y-12442714D02*
X10364286Y-12442714D01*
X10235714Y-12742714D01*
X10464286Y-12442714D02*
X10464286Y-12499857D01*
X10578571Y-12442714D02*
X10578571Y-12499857D01*
X11021428Y-12857000D02*
X11007143Y-12842714D01*
X10978571Y-12799857D01*
X10964286Y-12771286D01*
X10950000Y-12728429D01*
X10935714Y-12657000D01*
X10935714Y-12599857D01*
X10950000Y-12528429D01*
X10964286Y-12485571D01*
X10978571Y-12457000D01*
X11007143Y-12414143D01*
X11021428Y-12399857D01*
X11292857Y-12742714D02*
X11121428Y-12742714D01*
X11207143Y-12742714D02*
X11207143Y-12442714D01*
X11178571Y-12485571D01*
X11150000Y-12514143D01*
X11121428Y-12528429D01*
X11407143Y-12471286D02*
X11421428Y-12457000D01*
X11450000Y-12442714D01*
X11521428Y-12442714D01*
X11550000Y-12457000D01*
X11564286Y-12471286D01*
X11578571Y-12499857D01*
X11578571Y-12528429D01*
X11564286Y-12571286D01*
X11392857Y-12742714D01*
X11578571Y-12742714D01*
X11935714Y-12742714D02*
X11935714Y-12442714D01*
X12064286Y-12742714D02*
X12064286Y-12585571D01*
X12050000Y-12557000D01*
X12021428Y-12542714D01*
X11978571Y-12542714D01*
X11950000Y-12557000D01*
X11935714Y-12571286D01*
X12250000Y-12742714D02*
X12221428Y-12728429D01*
X12207143Y-12714143D01*
X12192857Y-12685571D01*
X12192857Y-12599857D01*
X12207143Y-12571286D01*
X12221428Y-12557000D01*
X12250000Y-12542714D01*
X12292857Y-12542714D01*
X12321428Y-12557000D01*
X12335714Y-12571286D01*
X12350000Y-12599857D01*
X12350000Y-12685571D01*
X12335714Y-12714143D01*
X12321428Y-12728429D01*
X12292857Y-12742714D01*
X12250000Y-12742714D01*
X12521428Y-12742714D02*
X12492857Y-12728429D01*
X12478571Y-12699857D01*
X12478571Y-12442714D01*
X12750000Y-12728429D02*
X12721428Y-12742714D01*
X12664286Y-12742714D01*
X12635714Y-12728429D01*
X12621428Y-12699857D01*
X12621428Y-12585571D01*
X12635714Y-12557000D01*
X12664286Y-12542714D01*
X12721428Y-12542714D01*
X12750000Y-12557000D01*
X12764286Y-12585571D01*
X12764286Y-12614143D01*
X12621428Y-12642714D01*
X12878571Y-12728429D02*
X12907143Y-12742714D01*
X12964286Y-12742714D01*
X12992857Y-12728429D01*
X13007143Y-12699857D01*
X13007143Y-12685571D01*
X12992857Y-12657000D01*
X12964286Y-12642714D01*
X12921428Y-12642714D01*
X12892857Y-12628429D01*
X12878571Y-12599857D01*
X12878571Y-12585571D01*
X12892857Y-12557000D01*
X12921428Y-12542714D01*
X12964286Y-12542714D01*
X12992857Y-12557000D01*
X13107143Y-12857000D02*
X13121428Y-12842714D01*
X13150000Y-12799857D01*
X13164286Y-12771286D01*
X13178571Y-12728429D01*
X13192857Y-12657000D01*
X13192857Y-12599857D01*
X13178571Y-12528429D01*
X13164286Y-12485571D01*
X13150000Y-12457000D01*
X13121428Y-12414143D01*
X13107143Y-12399857D01*
X13650000Y-12857000D02*
X13635714Y-12842714D01*
X13607143Y-12799857D01*
X13592857Y-12771286D01*
X13578571Y-12728429D01*
X13564286Y-12657000D01*
X13564286Y-12599857D01*
X13578571Y-12528429D01*
X13592857Y-12485571D01*
X13607143Y-12457000D01*
X13635714Y-12414143D01*
X13650000Y-12399857D01*
X13764286Y-12542714D02*
X13764286Y-12742714D01*
X13764286Y-12571286D02*
X13778571Y-12557000D01*
X13807143Y-12542714D01*
X13850000Y-12542714D01*
X13878571Y-12557000D01*
X13892857Y-12585571D01*
X13892857Y-12742714D01*
X14078571Y-12742714D02*
X14050000Y-12728429D01*
X14035714Y-12714143D01*
X14021428Y-12685571D01*
X14021428Y-12599857D01*
X14035714Y-12571286D01*
X14050000Y-12557000D01*
X14078571Y-12542714D01*
X14121428Y-12542714D01*
X14150000Y-12557000D01*
X14164286Y-12571286D01*
X14178571Y-12599857D01*
X14178571Y-12685571D01*
X14164286Y-12714143D01*
X14150000Y-12728429D01*
X14121428Y-12742714D01*
X14078571Y-12742714D01*
X14264286Y-12542714D02*
X14378571Y-12542714D01*
X14307143Y-12442714D02*
X14307143Y-12699857D01*
X14321428Y-12728429D01*
X14350000Y-12742714D01*
X14378571Y-12742714D01*
X14707143Y-12542714D02*
X14707143Y-12842714D01*
X14707143Y-12557000D02*
X14735714Y-12542714D01*
X14792857Y-12542714D01*
X14821428Y-12557000D01*
X14835714Y-12571286D01*
X14850000Y-12599857D01*
X14850000Y-12685571D01*
X14835714Y-12714143D01*
X14821428Y-12728429D01*
X14792857Y-12742714D01*
X14735714Y-12742714D01*
X14707143Y-12728429D01*
X15021428Y-12742714D02*
X14992857Y-12728429D01*
X14978571Y-12699857D01*
X14978571Y-12442714D01*
X15264286Y-12742714D02*
X15264286Y-12585571D01*
X15250000Y-12557000D01*
X15221428Y-12542714D01*
X15164286Y-12542714D01*
X15135714Y-12557000D01*
X15264286Y-12728429D02*
X15235714Y-12742714D01*
X15164286Y-12742714D01*
X15135714Y-12728429D01*
X15121428Y-12699857D01*
X15121428Y-12671286D01*
X15135714Y-12642714D01*
X15164286Y-12628429D01*
X15235714Y-12628429D01*
X15264286Y-12614143D01*
X15364286Y-12542714D02*
X15478571Y-12542714D01*
X15407143Y-12442714D02*
X15407143Y-12699857D01*
X15421428Y-12728429D01*
X15450000Y-12742714D01*
X15478571Y-12742714D01*
X15692857Y-12728429D02*
X15664286Y-12742714D01*
X15607143Y-12742714D01*
X15578571Y-12728429D01*
X15564286Y-12699857D01*
X15564286Y-12585571D01*
X15578571Y-12557000D01*
X15607143Y-12542714D01*
X15664286Y-12542714D01*
X15692857Y-12557000D01*
X15707143Y-12585571D01*
X15707143Y-12614143D01*
X15564286Y-12642714D01*
X15964286Y-12742714D02*
X15964286Y-12442714D01*
X15964286Y-12728429D02*
X15935714Y-12742714D01*
X15878571Y-12742714D01*
X15850000Y-12728429D01*
X15835714Y-12714143D01*
X15821428Y-12685571D01*
X15821428Y-12599857D01*
X15835714Y-12571286D01*
X15850000Y-12557000D01*
X15878571Y-12542714D01*
X15935714Y-12542714D01*
X15964286Y-12557000D01*
X16078571Y-12857000D02*
X16092857Y-12842714D01*
X16121428Y-12799857D01*
X16135714Y-12771286D01*
X16150000Y-12728429D01*
X16164286Y-12657000D01*
X16164286Y-12599857D01*
X16150000Y-12528429D01*
X16135714Y-12485571D01*
X16121428Y-12457000D01*
X16092857Y-12414143D01*
X16078571Y-12399857D01*
M02*
