G04 #@! TF.GenerationSoftware,KiCad,Pcbnew,(5.1.9)-1*
G04 #@! TF.CreationDate,2021-05-02T19:37:56+01:00*
G04 #@! TF.ProjectId,EnvMCRO,456e764d-4352-44f2-9e6b-696361645f70,rev?*
G04 #@! TF.SameCoordinates,Original*
G04 #@! TF.FileFunction,Soldermask,Bot*
G04 #@! TF.FilePolarity,Negative*
%FSLAX46Y46*%
G04 Gerber Fmt 4.6, Leading zero omitted, Abs format (unit mm)*
G04 Created by KiCad (PCBNEW (5.1.9)-1) date 2021-05-02 19:37:56*
%MOMM*%
%LPD*%
G01*
G04 APERTURE LIST*
%ADD10O,1.700000X1.700000*%
%ADD11R,1.700000X1.700000*%
%ADD12C,2.200000*%
%ADD13C,2.250000*%
%ADD14C,3.987800*%
%ADD15C,1.750000*%
%ADD16O,1.600000X1.600000*%
%ADD17R,1.600000X1.600000*%
G04 APERTURE END LIST*
D10*
X147210000Y-40270000D03*
X147210000Y-42810000D03*
D11*
X147210000Y-45350000D03*
D10*
X147210000Y-47890000D03*
X147210000Y-50430000D03*
X147210000Y-52970000D03*
X147210000Y-55510000D03*
D11*
X147210000Y-58050000D03*
D10*
X147210000Y-60590000D03*
X147210000Y-63130000D03*
X147210000Y-65670000D03*
X147210000Y-68210000D03*
D11*
X147210000Y-70750000D03*
D10*
X147210000Y-73290000D03*
X147210000Y-75830000D03*
X147210000Y-78370000D03*
X147210000Y-80910000D03*
D11*
X147210000Y-83450000D03*
D10*
X147210000Y-85990000D03*
X147210000Y-88530000D03*
X164990000Y-88530000D03*
X164990000Y-85990000D03*
D11*
X164990000Y-83450000D03*
D10*
X164990000Y-80910000D03*
X164990000Y-78370000D03*
X164990000Y-75830000D03*
X164990000Y-73290000D03*
D11*
X164990000Y-70750000D03*
D10*
X164990000Y-68210000D03*
X164990000Y-65670000D03*
X164990000Y-63130000D03*
X164990000Y-60590000D03*
D11*
X164990000Y-58050000D03*
D10*
X164990000Y-55510000D03*
X164990000Y-52970000D03*
X164990000Y-50430000D03*
X164990000Y-47890000D03*
D11*
X164990000Y-45350000D03*
D10*
X164990000Y-42810000D03*
X164990000Y-40270000D03*
X153560000Y-88300000D03*
D11*
X156100000Y-88300000D03*
D10*
X158640000Y-88300000D03*
D12*
X170500000Y-106000000D03*
X65900000Y-41300000D03*
X65900000Y-106000000D03*
X170500000Y-41300000D03*
D13*
X115975000Y-43355000D03*
D14*
X113435000Y-48435000D03*
D13*
X109625000Y-45895000D03*
D15*
X108355000Y-48435000D03*
X118515000Y-48435000D03*
D13*
X77875000Y-43355000D03*
D14*
X75335000Y-48435000D03*
D13*
X71525000Y-45895000D03*
D15*
X70255000Y-48435000D03*
X80415000Y-48435000D03*
D16*
X141010000Y-88940000D03*
D17*
X141010000Y-96560000D03*
D16*
X121960000Y-88940000D03*
D17*
X121960000Y-96560000D03*
D16*
X102910000Y-88940000D03*
D17*
X102910000Y-96560000D03*
D16*
X83860000Y-88940000D03*
D17*
X83860000Y-96560000D03*
D16*
X141010000Y-65527500D03*
D17*
X141010000Y-73147500D03*
D16*
X121960000Y-65127500D03*
D17*
X121960000Y-72747500D03*
D16*
X102910000Y-65127500D03*
D17*
X102910000Y-72747500D03*
D16*
X83860000Y-65127500D03*
D17*
X83860000Y-72747500D03*
D16*
X141010000Y-41315000D03*
D17*
X141010000Y-48935000D03*
D16*
X121960000Y-41315000D03*
D17*
X121960000Y-48935000D03*
D16*
X102910000Y-41315000D03*
D17*
X102910000Y-48935000D03*
D16*
X83860000Y-41315000D03*
D17*
X83860000Y-48935000D03*
D13*
X135025000Y-90980000D03*
D14*
X132485000Y-96060000D03*
D13*
X128675000Y-93520000D03*
D15*
X127405000Y-96060000D03*
X137565000Y-96060000D03*
D13*
X115975000Y-90980000D03*
D14*
X113435000Y-96060000D03*
D13*
X109625000Y-93520000D03*
D15*
X108355000Y-96060000D03*
X118515000Y-96060000D03*
D13*
X96925000Y-90980000D03*
D14*
X94385000Y-96060000D03*
D13*
X90575000Y-93520000D03*
D15*
X89305000Y-96060000D03*
X99465000Y-96060000D03*
D13*
X77875000Y-90980000D03*
D14*
X75335000Y-96060000D03*
D13*
X71525000Y-93520000D03*
D15*
X70255000Y-96060000D03*
X80415000Y-96060000D03*
D13*
X135025000Y-67167500D03*
D14*
X132485000Y-72247500D03*
D13*
X128675000Y-69707500D03*
D15*
X127405000Y-72247500D03*
X137565000Y-72247500D03*
D13*
X115975000Y-67167500D03*
D14*
X113435000Y-72247500D03*
D13*
X109625000Y-69707500D03*
D15*
X108355000Y-72247500D03*
X118515000Y-72247500D03*
D13*
X96925000Y-67167500D03*
D14*
X94385000Y-72247500D03*
D13*
X90575000Y-69707500D03*
D15*
X89305000Y-72247500D03*
X99465000Y-72247500D03*
D13*
X77875000Y-67167500D03*
D14*
X75335000Y-72247500D03*
D13*
X71525000Y-69707500D03*
D15*
X70255000Y-72247500D03*
X80415000Y-72247500D03*
D13*
X135025000Y-43355000D03*
D14*
X132485000Y-48435000D03*
D13*
X128675000Y-45895000D03*
D15*
X127405000Y-48435000D03*
X137565000Y-48435000D03*
D13*
X96925000Y-43355000D03*
D14*
X94385000Y-48435000D03*
D13*
X90575000Y-45895000D03*
D15*
X89305000Y-48435000D03*
X99465000Y-48435000D03*
M02*
