G04 #@! TF.GenerationSoftware,KiCad,Pcbnew,(5.1.9)-1*
G04 #@! TF.CreationDate,2021-05-02T14:29:51+01:00*
G04 #@! TF.ProjectId,EnvMCRO,456e764d-4352-44f2-9e6b-696361645f70,rev?*
G04 #@! TF.SameCoordinates,Original*
G04 #@! TF.FileFunction,Legend,Top*
G04 #@! TF.FilePolarity,Positive*
%FSLAX46Y46*%
G04 Gerber Fmt 4.6, Leading zero omitted, Abs format (unit mm)*
G04 Created by KiCad (PCBNEW (5.1.9)-1) date 2021-05-02 14:29:51*
%MOMM*%
%LPD*%
G01*
G04 APERTURE LIST*
G04 #@! TA.AperFunction,Profile*
%ADD10C,0.100000*%
G04 #@! TD*
%ADD11C,0.300000*%
%ADD12C,0.120000*%
%ADD13C,0.010000*%
%ADD14C,0.150000*%
G04 APERTURE END LIST*
D10*
X67005200Y-41300400D02*
G75*
G03*
X67005200Y-41300400I-1104496J0D01*
G01*
X67005200Y-105994200D02*
G75*
G03*
X67005200Y-105994200I-1104496J0D01*
G01*
X171602400Y-105994200D02*
G75*
G03*
X171602400Y-105994200I-1104496J0D01*
G01*
X171602400Y-41300400D02*
G75*
G03*
X171602400Y-41300400I-1104496J0D01*
G01*
X171000000Y-38800000D02*
G75*
G02*
X173000000Y-40800000I0J-2000000D01*
G01*
X173000000Y-106500000D02*
G75*
G02*
X171000000Y-108500000I-2000000J0D01*
G01*
X65400000Y-108500000D02*
G75*
G02*
X63400000Y-106500000I0J2000000D01*
G01*
X63400000Y-40800000D02*
X63400000Y-106500000D01*
X171000000Y-38800000D02*
X65400000Y-38800000D01*
X63400000Y-40800000D02*
G75*
G02*
X65400000Y-38800000I2000000J0D01*
G01*
X173000000Y-106500000D02*
X173000000Y-40800000D01*
X65400000Y-108500000D02*
X171000000Y-108500000D01*
D11*
X76947857Y-106678571D02*
X76947857Y-105178571D01*
X77590714Y-106678571D02*
X77590714Y-105892857D01*
X77519285Y-105750000D01*
X77376428Y-105678571D01*
X77162142Y-105678571D01*
X77019285Y-105750000D01*
X76947857Y-105821428D01*
X78090714Y-105678571D02*
X78662142Y-105678571D01*
X78304999Y-105178571D02*
X78304999Y-106464285D01*
X78376428Y-106607142D01*
X78519285Y-106678571D01*
X78662142Y-106678571D01*
X78947857Y-105678571D02*
X79519285Y-105678571D01*
X79162142Y-105178571D02*
X79162142Y-106464285D01*
X79233571Y-106607142D01*
X79376428Y-106678571D01*
X79519285Y-106678571D01*
X80019285Y-105678571D02*
X80019285Y-107178571D01*
X80019285Y-105750000D02*
X80162142Y-105678571D01*
X80447857Y-105678571D01*
X80590714Y-105750000D01*
X80662142Y-105821428D01*
X80733571Y-105964285D01*
X80733571Y-106392857D01*
X80662142Y-106535714D01*
X80590714Y-106607142D01*
X80447857Y-106678571D01*
X80162142Y-106678571D01*
X80019285Y-106607142D01*
X81376428Y-106535714D02*
X81447857Y-106607142D01*
X81376428Y-106678571D01*
X81304999Y-106607142D01*
X81376428Y-106535714D01*
X81376428Y-106678571D01*
X81376428Y-105750000D02*
X81447857Y-105821428D01*
X81376428Y-105892857D01*
X81304999Y-105821428D01*
X81376428Y-105750000D01*
X81376428Y-105892857D01*
X83162142Y-105107142D02*
X81876428Y-107035714D01*
X84733571Y-105107142D02*
X83447857Y-107035714D01*
X85876428Y-105678571D02*
X85876428Y-106892857D01*
X85804999Y-107035714D01*
X85733571Y-107107142D01*
X85590714Y-107178571D01*
X85376428Y-107178571D01*
X85233571Y-107107142D01*
X85876428Y-106607142D02*
X85733571Y-106678571D01*
X85447857Y-106678571D01*
X85304999Y-106607142D01*
X85233571Y-106535714D01*
X85162142Y-106392857D01*
X85162142Y-105964285D01*
X85233571Y-105821428D01*
X85304999Y-105750000D01*
X85447857Y-105678571D01*
X85733571Y-105678571D01*
X85876428Y-105750000D01*
X86590714Y-106678571D02*
X86590714Y-105678571D01*
X86590714Y-105178571D02*
X86519285Y-105250000D01*
X86590714Y-105321428D01*
X86662142Y-105250000D01*
X86590714Y-105178571D01*
X86590714Y-105321428D01*
X87090714Y-105678571D02*
X87662142Y-105678571D01*
X87304999Y-105178571D02*
X87304999Y-106464285D01*
X87376428Y-106607142D01*
X87519285Y-106678571D01*
X87662142Y-106678571D01*
X88162142Y-106678571D02*
X88162142Y-105178571D01*
X88804999Y-106678571D02*
X88804999Y-105892857D01*
X88733571Y-105750000D01*
X88590714Y-105678571D01*
X88376428Y-105678571D01*
X88233571Y-105750000D01*
X88162142Y-105821428D01*
X90162142Y-105678571D02*
X90162142Y-106678571D01*
X89519285Y-105678571D02*
X89519285Y-106464285D01*
X89590714Y-106607142D01*
X89733571Y-106678571D01*
X89947857Y-106678571D01*
X90090714Y-106607142D01*
X90162142Y-106535714D01*
X90876428Y-106678571D02*
X90876428Y-105178571D01*
X90876428Y-105750000D02*
X91019285Y-105678571D01*
X91304999Y-105678571D01*
X91447857Y-105750000D01*
X91519285Y-105821428D01*
X91590714Y-105964285D01*
X91590714Y-106392857D01*
X91519285Y-106535714D01*
X91447857Y-106607142D01*
X91304999Y-106678571D01*
X91019285Y-106678571D01*
X90876428Y-106607142D01*
X92233571Y-106535714D02*
X92304999Y-106607142D01*
X92233571Y-106678571D01*
X92162142Y-106607142D01*
X92233571Y-106535714D01*
X92233571Y-106678571D01*
X93590714Y-106607142D02*
X93447857Y-106678571D01*
X93162142Y-106678571D01*
X93019285Y-106607142D01*
X92947857Y-106535714D01*
X92876428Y-106392857D01*
X92876428Y-105964285D01*
X92947857Y-105821428D01*
X93019285Y-105750000D01*
X93162142Y-105678571D01*
X93447857Y-105678571D01*
X93590714Y-105750000D01*
X94447857Y-106678571D02*
X94304999Y-106607142D01*
X94233571Y-106535714D01*
X94162142Y-106392857D01*
X94162142Y-105964285D01*
X94233571Y-105821428D01*
X94304999Y-105750000D01*
X94447857Y-105678571D01*
X94662142Y-105678571D01*
X94804999Y-105750000D01*
X94876428Y-105821428D01*
X94947857Y-105964285D01*
X94947857Y-106392857D01*
X94876428Y-106535714D01*
X94804999Y-106607142D01*
X94662142Y-106678571D01*
X94447857Y-106678571D01*
X95590714Y-106678571D02*
X95590714Y-105678571D01*
X95590714Y-105821428D02*
X95662142Y-105750000D01*
X95804999Y-105678571D01*
X96019285Y-105678571D01*
X96162142Y-105750000D01*
X96233571Y-105892857D01*
X96233571Y-106678571D01*
X96233571Y-105892857D02*
X96304999Y-105750000D01*
X96447857Y-105678571D01*
X96662142Y-105678571D01*
X96804999Y-105750000D01*
X96876428Y-105892857D01*
X96876428Y-106678571D01*
X98662142Y-105107142D02*
X97376428Y-107035714D01*
X99162142Y-105892857D02*
X99662142Y-105892857D01*
X99876428Y-106678571D02*
X99162142Y-106678571D01*
X99162142Y-105178571D01*
X99876428Y-105178571D01*
X100519285Y-105678571D02*
X100519285Y-106678571D01*
X100519285Y-105821428D02*
X100590714Y-105750000D01*
X100733571Y-105678571D01*
X100947857Y-105678571D01*
X101090714Y-105750000D01*
X101162142Y-105892857D01*
X101162142Y-106678571D01*
X101733571Y-105678571D02*
X102090714Y-106678571D01*
X102447857Y-105678571D01*
X103019285Y-106678571D02*
X103019285Y-105678571D01*
X103019285Y-105178571D02*
X102947857Y-105250000D01*
X103019285Y-105321428D01*
X103090714Y-105250000D01*
X103019285Y-105178571D01*
X103019285Y-105321428D01*
X103947857Y-106678571D02*
X103804999Y-106607142D01*
X103733571Y-106535714D01*
X103662142Y-106392857D01*
X103662142Y-105964285D01*
X103733571Y-105821428D01*
X103804999Y-105750000D01*
X103947857Y-105678571D01*
X104162142Y-105678571D01*
X104304999Y-105750000D01*
X104376428Y-105821428D01*
X104447857Y-105964285D01*
X104447857Y-106392857D01*
X104376428Y-106535714D01*
X104304999Y-106607142D01*
X104162142Y-106678571D01*
X103947857Y-106678571D01*
X105733571Y-105678571D02*
X105733571Y-106678571D01*
X105090714Y-105678571D02*
X105090714Y-106464285D01*
X105162142Y-106607142D01*
X105304999Y-106678571D01*
X105519285Y-106678571D01*
X105662142Y-106607142D01*
X105733571Y-106535714D01*
X106376428Y-106607142D02*
X106519285Y-106678571D01*
X106804999Y-106678571D01*
X106947857Y-106607142D01*
X107019285Y-106464285D01*
X107019285Y-106392857D01*
X106947857Y-106250000D01*
X106804999Y-106178571D01*
X106590714Y-106178571D01*
X106447857Y-106107142D01*
X106376428Y-105964285D01*
X106376428Y-105892857D01*
X106447857Y-105750000D01*
X106590714Y-105678571D01*
X106804999Y-105678571D01*
X106947857Y-105750000D01*
X107662142Y-106107142D02*
X108804999Y-106107142D01*
X109519285Y-106678571D02*
X109519285Y-105178571D01*
X109876428Y-105178571D01*
X110090714Y-105250000D01*
X110233571Y-105392857D01*
X110304999Y-105535714D01*
X110376428Y-105821428D01*
X110376428Y-106035714D01*
X110304999Y-106321428D01*
X110233571Y-106464285D01*
X110090714Y-106607142D01*
X109876428Y-106678571D01*
X109519285Y-106678571D01*
X111662142Y-106678571D02*
X111662142Y-105892857D01*
X111590714Y-105750000D01*
X111447857Y-105678571D01*
X111162142Y-105678571D01*
X111019285Y-105750000D01*
X111662142Y-106607142D02*
X111519285Y-106678571D01*
X111162142Y-106678571D01*
X111019285Y-106607142D01*
X110947857Y-106464285D01*
X110947857Y-106321428D01*
X111019285Y-106178571D01*
X111162142Y-106107142D01*
X111519285Y-106107142D01*
X111662142Y-106035714D01*
X112162142Y-105678571D02*
X112733571Y-105678571D01*
X112376428Y-105178571D02*
X112376428Y-106464285D01*
X112447857Y-106607142D01*
X112590714Y-106678571D01*
X112733571Y-106678571D01*
X113876428Y-106678571D02*
X113876428Y-105892857D01*
X113804999Y-105750000D01*
X113662142Y-105678571D01*
X113376428Y-105678571D01*
X113233571Y-105750000D01*
X113876428Y-106607142D02*
X113733571Y-106678571D01*
X113376428Y-106678571D01*
X113233571Y-106607142D01*
X113162142Y-106464285D01*
X113162142Y-106321428D01*
X113233571Y-106178571D01*
X113376428Y-106107142D01*
X113733571Y-106107142D01*
X113876428Y-106035714D01*
X115662142Y-105107142D02*
X114376428Y-107035714D01*
X116162142Y-105892857D02*
X116662142Y-105892857D01*
X116876428Y-106678571D02*
X116162142Y-106678571D01*
X116162142Y-105178571D01*
X116876428Y-105178571D01*
X117519285Y-105678571D02*
X117519285Y-106678571D01*
X117519285Y-105821428D02*
X117590714Y-105750000D01*
X117733571Y-105678571D01*
X117947857Y-105678571D01*
X118090714Y-105750000D01*
X118162142Y-105892857D01*
X118162142Y-106678571D01*
X118733571Y-105678571D02*
X119090714Y-106678571D01*
X119447857Y-105678571D01*
X120019285Y-106107142D02*
X121162142Y-106107142D01*
X121876428Y-106678571D02*
X121876428Y-105178571D01*
X122376428Y-106250000D01*
X122876428Y-105178571D01*
X122876428Y-106678571D01*
X124447857Y-106535714D02*
X124376428Y-106607142D01*
X124162142Y-106678571D01*
X124019285Y-106678571D01*
X123805000Y-106607142D01*
X123662142Y-106464285D01*
X123590714Y-106321428D01*
X123519285Y-106035714D01*
X123519285Y-105821428D01*
X123590714Y-105535714D01*
X123662142Y-105392857D01*
X123805000Y-105250000D01*
X124019285Y-105178571D01*
X124162142Y-105178571D01*
X124376428Y-105250000D01*
X124447857Y-105321428D01*
X125947857Y-106678571D02*
X125447857Y-105964285D01*
X125090714Y-106678571D02*
X125090714Y-105178571D01*
X125662142Y-105178571D01*
X125805000Y-105250000D01*
X125876428Y-105321428D01*
X125947857Y-105464285D01*
X125947857Y-105678571D01*
X125876428Y-105821428D01*
X125805000Y-105892857D01*
X125662142Y-105964285D01*
X125090714Y-105964285D01*
X126876428Y-105178571D02*
X127162142Y-105178571D01*
X127305000Y-105250000D01*
X127447857Y-105392857D01*
X127519285Y-105678571D01*
X127519285Y-106178571D01*
X127447857Y-106464285D01*
X127305000Y-106607142D01*
X127162142Y-106678571D01*
X126876428Y-106678571D01*
X126733571Y-106607142D01*
X126590714Y-106464285D01*
X126519285Y-106178571D01*
X126519285Y-105678571D01*
X126590714Y-105392857D01*
X126733571Y-105250000D01*
X126876428Y-105178571D01*
D12*
X160250000Y-41390000D02*
X160250000Y-42940000D01*
X160250000Y-41390000D02*
X159950000Y-41390000D01*
X151950000Y-41390000D02*
X151950000Y-42940000D01*
X152250000Y-41390000D02*
X151950000Y-41390000D01*
X159950000Y-38590000D02*
X159950000Y-41390000D01*
X152250000Y-38590000D02*
X152250000Y-41390000D01*
X145600000Y-38900000D02*
X166600000Y-38900000D01*
X152400000Y-89900000D02*
X145600000Y-89900000D01*
X145600000Y-41567000D02*
X148607000Y-41567000D01*
X148607000Y-41567000D02*
X148607000Y-38900000D01*
X145600000Y-38900000D02*
X145600000Y-39200000D01*
X145600000Y-41300000D02*
X145600000Y-41700000D01*
X145600000Y-43900000D02*
X145600000Y-44300000D01*
X145600000Y-46400000D02*
X145600000Y-46800000D01*
X145600000Y-49000000D02*
X145600000Y-49400000D01*
X145600000Y-51500000D02*
X145600000Y-51900000D01*
X145600000Y-54000000D02*
X145600000Y-54400000D01*
X145600000Y-56600000D02*
X145600000Y-57000000D01*
X145600000Y-59100000D02*
X145600000Y-59500000D01*
X145600000Y-61700000D02*
X145600000Y-62100000D01*
X145600000Y-64200000D02*
X145600000Y-64600000D01*
X145600000Y-66700000D02*
X145600000Y-67100000D01*
X145600000Y-69300000D02*
X145600000Y-69700000D01*
X145600000Y-71800000D02*
X145600000Y-72200000D01*
X145600000Y-74400000D02*
X145600000Y-74800000D01*
X145600000Y-76900000D02*
X145600000Y-77300000D01*
X145600000Y-79500000D02*
X145600000Y-79900000D01*
X145600000Y-82000000D02*
X145600000Y-82400000D01*
X145600000Y-84500000D02*
X145600000Y-84900000D01*
X145600000Y-87100000D02*
X145600000Y-87500000D01*
X166600000Y-54000000D02*
X166600000Y-54400000D01*
X166600000Y-59100000D02*
X166600000Y-59500000D01*
X166600000Y-66700000D02*
X166600000Y-67100000D01*
X166600000Y-74400000D02*
X166600000Y-74800000D01*
X166600000Y-43900000D02*
X166600000Y-44300000D01*
X166600000Y-41300000D02*
X166600000Y-41700000D01*
X166600000Y-49000000D02*
X166600000Y-49400000D01*
X166600000Y-82000000D02*
X166600000Y-82400000D01*
X166600000Y-87100000D02*
X166600000Y-87500000D01*
X166600000Y-84500000D02*
X166600000Y-84900000D01*
X166600000Y-69300000D02*
X166600000Y-69700000D01*
X166600000Y-64200000D02*
X166600000Y-64600000D01*
X166600000Y-51500000D02*
X166600000Y-51900000D01*
X166600000Y-56600000D02*
X166600000Y-57000000D01*
X166600000Y-76900000D02*
X166600000Y-77300000D01*
X166600000Y-61700000D02*
X166600000Y-62100000D01*
X166600000Y-38900000D02*
X166600000Y-39200000D01*
X166600000Y-46400000D02*
X166600000Y-46800000D01*
X166600000Y-71800000D02*
X166600000Y-72200000D01*
X166600000Y-79500000D02*
X166600000Y-79900000D01*
X166600000Y-89900000D02*
X159800000Y-89900000D01*
X154600000Y-89900000D02*
X155000000Y-89900000D01*
X157200000Y-89900000D02*
X157600000Y-89900000D01*
D13*
G36*
X156820037Y-97570362D02*
G01*
X156874186Y-97617818D01*
X156877974Y-97704238D01*
X156829432Y-97836272D01*
X156726588Y-98020568D01*
X156651654Y-98138259D01*
X156526639Y-98330994D01*
X156396240Y-98535418D01*
X156282447Y-98716954D01*
X156248385Y-98772333D01*
X156157399Y-98919810D01*
X156037075Y-99112585D01*
X155903711Y-99324642D01*
X155784909Y-99512199D01*
X155675428Y-99688851D01*
X155586439Y-99841116D01*
X155526122Y-99954338D01*
X155502654Y-100013860D01*
X155502906Y-100017553D01*
X155549228Y-100057481D01*
X155640812Y-100095958D01*
X155779361Y-100138544D01*
X155849779Y-100165884D01*
X155864629Y-100188367D01*
X155836474Y-100216381D01*
X155809992Y-100235857D01*
X155718117Y-100272940D01*
X155584881Y-100294291D01*
X155531621Y-100296333D01*
X155383169Y-100309798D01*
X155283184Y-100357532D01*
X155246658Y-100391583D01*
X155199135Y-100453039D01*
X155113279Y-100574546D01*
X154996638Y-100744997D01*
X154856758Y-100953285D01*
X154701186Y-101188301D01*
X154592270Y-101354667D01*
X154326218Y-101762624D01*
X154102353Y-102105171D01*
X153916811Y-102387945D01*
X153765728Y-102616581D01*
X153645241Y-102796719D01*
X153551487Y-102933995D01*
X153480602Y-103034046D01*
X153428722Y-103102510D01*
X153391985Y-103145024D01*
X153366526Y-103167225D01*
X153348482Y-103174751D01*
X153344709Y-103175000D01*
X153300437Y-103139385D01*
X153288667Y-103083361D01*
X153309700Y-103002882D01*
X153366647Y-102868754D01*
X153450279Y-102698958D01*
X153551366Y-102511473D01*
X153660680Y-102324279D01*
X153752276Y-102180167D01*
X154026057Y-101767715D01*
X154254231Y-101419374D01*
X154439797Y-101129930D01*
X154585756Y-100894171D01*
X154695110Y-100706883D01*
X154770858Y-100562854D01*
X154816002Y-100456870D01*
X154833542Y-100383721D01*
X154826479Y-100338191D01*
X154818629Y-100327696D01*
X154759283Y-100308898D01*
X154630964Y-100292095D01*
X154449351Y-100277778D01*
X154230125Y-100266438D01*
X153988965Y-100258566D01*
X153741552Y-100254652D01*
X153503565Y-100255187D01*
X153290685Y-100260662D01*
X153118591Y-100271567D01*
X153096337Y-100273800D01*
X152944723Y-100294848D01*
X152831265Y-100328702D01*
X152724365Y-100389649D01*
X152592420Y-100491975D01*
X152566781Y-100513218D01*
X152433657Y-100628081D01*
X152262964Y-100781198D01*
X152077715Y-100951676D01*
X151917975Y-101102288D01*
X151748606Y-101261564D01*
X151624807Y-101369662D01*
X151533044Y-101436025D01*
X151459783Y-101470097D01*
X151391491Y-101481323D01*
X151374297Y-101481667D01*
X151246321Y-101455779D01*
X151142235Y-101390607D01*
X151089374Y-101304892D01*
X151087333Y-101284933D01*
X151116886Y-101241696D01*
X151197429Y-101154580D01*
X151316790Y-101036088D01*
X151462793Y-100898722D01*
X151468333Y-100893637D01*
X151614971Y-100756273D01*
X151735442Y-100637920D01*
X151817597Y-100550906D01*
X151849287Y-100507565D01*
X151849333Y-100506940D01*
X151814792Y-100466443D01*
X151729275Y-100413220D01*
X151704441Y-100400883D01*
X151578839Y-100322640D01*
X151535416Y-100248154D01*
X151571706Y-100179317D01*
X151685243Y-100118022D01*
X151873561Y-100066161D01*
X152134192Y-100025626D01*
X152203218Y-100018193D01*
X152322216Y-100003811D01*
X152422600Y-99982181D01*
X152521730Y-99945337D01*
X152623243Y-99892458D01*
X153431716Y-99892458D01*
X153454299Y-99920201D01*
X153506165Y-99933761D01*
X153583355Y-99944294D01*
X153726837Y-99957860D01*
X153918357Y-99972944D01*
X154139660Y-99988031D01*
X154220000Y-99992985D01*
X154439568Y-100006455D01*
X154628138Y-100018603D01*
X154770000Y-100028373D01*
X154849442Y-100034707D01*
X154860292Y-100036058D01*
X154916683Y-100032949D01*
X155015099Y-100016663D01*
X155099837Y-99982849D01*
X155187851Y-99909707D01*
X155285782Y-99788500D01*
X155400271Y-99610493D01*
X155537957Y-99366950D01*
X155606953Y-99238000D01*
X155719650Y-99027261D01*
X155841851Y-98802702D01*
X155953811Y-98600472D01*
X155996447Y-98524883D01*
X156074296Y-98381152D01*
X156128900Y-98266758D01*
X156151795Y-98200029D01*
X156150546Y-98191101D01*
X156091339Y-98189307D01*
X155972897Y-98235292D01*
X155803101Y-98325227D01*
X155589834Y-98455282D01*
X155538721Y-98488339D01*
X155388553Y-98584408D01*
X155259824Y-98663204D01*
X155172837Y-98712440D01*
X155153802Y-98721285D01*
X155073186Y-98762080D01*
X154937563Y-98842042D01*
X154760450Y-98952210D01*
X154555362Y-99083623D01*
X154335816Y-99227319D01*
X154115328Y-99374339D01*
X153907413Y-99515719D01*
X153725587Y-99642500D01*
X153583367Y-99745721D01*
X153494269Y-99816419D01*
X153477127Y-99832920D01*
X153431716Y-99892458D01*
X152623243Y-99892458D01*
X152636968Y-99885309D01*
X152785677Y-99794130D01*
X152985218Y-99663833D01*
X153007551Y-99649062D01*
X153434824Y-99372321D01*
X153877914Y-99096308D01*
X154323044Y-98828973D01*
X154756437Y-98578263D01*
X155164317Y-98352128D01*
X155532907Y-98158514D01*
X155848432Y-98005372D01*
X155886111Y-97988276D01*
X156071440Y-97898043D01*
X156246513Y-97800757D01*
X156383121Y-97712529D01*
X156422007Y-97682250D01*
X156570487Y-97579188D01*
X156702085Y-97546187D01*
X156820037Y-97570362D01*
G37*
X156820037Y-97570362D02*
X156874186Y-97617818D01*
X156877974Y-97704238D01*
X156829432Y-97836272D01*
X156726588Y-98020568D01*
X156651654Y-98138259D01*
X156526639Y-98330994D01*
X156396240Y-98535418D01*
X156282447Y-98716954D01*
X156248385Y-98772333D01*
X156157399Y-98919810D01*
X156037075Y-99112585D01*
X155903711Y-99324642D01*
X155784909Y-99512199D01*
X155675428Y-99688851D01*
X155586439Y-99841116D01*
X155526122Y-99954338D01*
X155502654Y-100013860D01*
X155502906Y-100017553D01*
X155549228Y-100057481D01*
X155640812Y-100095958D01*
X155779361Y-100138544D01*
X155849779Y-100165884D01*
X155864629Y-100188367D01*
X155836474Y-100216381D01*
X155809992Y-100235857D01*
X155718117Y-100272940D01*
X155584881Y-100294291D01*
X155531621Y-100296333D01*
X155383169Y-100309798D01*
X155283184Y-100357532D01*
X155246658Y-100391583D01*
X155199135Y-100453039D01*
X155113279Y-100574546D01*
X154996638Y-100744997D01*
X154856758Y-100953285D01*
X154701186Y-101188301D01*
X154592270Y-101354667D01*
X154326218Y-101762624D01*
X154102353Y-102105171D01*
X153916811Y-102387945D01*
X153765728Y-102616581D01*
X153645241Y-102796719D01*
X153551487Y-102933995D01*
X153480602Y-103034046D01*
X153428722Y-103102510D01*
X153391985Y-103145024D01*
X153366526Y-103167225D01*
X153348482Y-103174751D01*
X153344709Y-103175000D01*
X153300437Y-103139385D01*
X153288667Y-103083361D01*
X153309700Y-103002882D01*
X153366647Y-102868754D01*
X153450279Y-102698958D01*
X153551366Y-102511473D01*
X153660680Y-102324279D01*
X153752276Y-102180167D01*
X154026057Y-101767715D01*
X154254231Y-101419374D01*
X154439797Y-101129930D01*
X154585756Y-100894171D01*
X154695110Y-100706883D01*
X154770858Y-100562854D01*
X154816002Y-100456870D01*
X154833542Y-100383721D01*
X154826479Y-100338191D01*
X154818629Y-100327696D01*
X154759283Y-100308898D01*
X154630964Y-100292095D01*
X154449351Y-100277778D01*
X154230125Y-100266438D01*
X153988965Y-100258566D01*
X153741552Y-100254652D01*
X153503565Y-100255187D01*
X153290685Y-100260662D01*
X153118591Y-100271567D01*
X153096337Y-100273800D01*
X152944723Y-100294848D01*
X152831265Y-100328702D01*
X152724365Y-100389649D01*
X152592420Y-100491975D01*
X152566781Y-100513218D01*
X152433657Y-100628081D01*
X152262964Y-100781198D01*
X152077715Y-100951676D01*
X151917975Y-101102288D01*
X151748606Y-101261564D01*
X151624807Y-101369662D01*
X151533044Y-101436025D01*
X151459783Y-101470097D01*
X151391491Y-101481323D01*
X151374297Y-101481667D01*
X151246321Y-101455779D01*
X151142235Y-101390607D01*
X151089374Y-101304892D01*
X151087333Y-101284933D01*
X151116886Y-101241696D01*
X151197429Y-101154580D01*
X151316790Y-101036088D01*
X151462793Y-100898722D01*
X151468333Y-100893637D01*
X151614971Y-100756273D01*
X151735442Y-100637920D01*
X151817597Y-100550906D01*
X151849287Y-100507565D01*
X151849333Y-100506940D01*
X151814792Y-100466443D01*
X151729275Y-100413220D01*
X151704441Y-100400883D01*
X151578839Y-100322640D01*
X151535416Y-100248154D01*
X151571706Y-100179317D01*
X151685243Y-100118022D01*
X151873561Y-100066161D01*
X152134192Y-100025626D01*
X152203218Y-100018193D01*
X152322216Y-100003811D01*
X152422600Y-99982181D01*
X152521730Y-99945337D01*
X152623243Y-99892458D01*
X153431716Y-99892458D01*
X153454299Y-99920201D01*
X153506165Y-99933761D01*
X153583355Y-99944294D01*
X153726837Y-99957860D01*
X153918357Y-99972944D01*
X154139660Y-99988031D01*
X154220000Y-99992985D01*
X154439568Y-100006455D01*
X154628138Y-100018603D01*
X154770000Y-100028373D01*
X154849442Y-100034707D01*
X154860292Y-100036058D01*
X154916683Y-100032949D01*
X155015099Y-100016663D01*
X155099837Y-99982849D01*
X155187851Y-99909707D01*
X155285782Y-99788500D01*
X155400271Y-99610493D01*
X155537957Y-99366950D01*
X155606953Y-99238000D01*
X155719650Y-99027261D01*
X155841851Y-98802702D01*
X155953811Y-98600472D01*
X155996447Y-98524883D01*
X156074296Y-98381152D01*
X156128900Y-98266758D01*
X156151795Y-98200029D01*
X156150546Y-98191101D01*
X156091339Y-98189307D01*
X155972897Y-98235292D01*
X155803101Y-98325227D01*
X155589834Y-98455282D01*
X155538721Y-98488339D01*
X155388553Y-98584408D01*
X155259824Y-98663204D01*
X155172837Y-98712440D01*
X155153802Y-98721285D01*
X155073186Y-98762080D01*
X154937563Y-98842042D01*
X154760450Y-98952210D01*
X154555362Y-99083623D01*
X154335816Y-99227319D01*
X154115328Y-99374339D01*
X153907413Y-99515719D01*
X153725587Y-99642500D01*
X153583367Y-99745721D01*
X153494269Y-99816419D01*
X153477127Y-99832920D01*
X153431716Y-99892458D01*
X152623243Y-99892458D01*
X152636968Y-99885309D01*
X152785677Y-99794130D01*
X152985218Y-99663833D01*
X153007551Y-99649062D01*
X153434824Y-99372321D01*
X153877914Y-99096308D01*
X154323044Y-98828973D01*
X154756437Y-98578263D01*
X155164317Y-98352128D01*
X155532907Y-98158514D01*
X155848432Y-98005372D01*
X155886111Y-97988276D01*
X156071440Y-97898043D01*
X156246513Y-97800757D01*
X156383121Y-97712529D01*
X156422007Y-97682250D01*
X156570487Y-97579188D01*
X156702085Y-97546187D01*
X156820037Y-97570362D01*
G36*
X159052559Y-98500765D02*
G01*
X159086115Y-98517146D01*
X159148555Y-98558268D01*
X159164291Y-98603155D01*
X159129114Y-98669583D01*
X159038817Y-98775324D01*
X159020133Y-98795811D01*
X158932587Y-98891312D01*
X158804345Y-99031014D01*
X158652038Y-99196809D01*
X158492293Y-99370590D01*
X158477970Y-99386167D01*
X158285938Y-99596254D01*
X158068981Y-99835604D01*
X157856733Y-100071435D01*
X157712638Y-100232833D01*
X157525642Y-100440683D01*
X157313042Y-100672811D01*
X157104117Y-100897437D01*
X156963635Y-101045850D01*
X156822320Y-101198401D01*
X156705575Y-101333766D01*
X156624703Y-101438154D01*
X156591008Y-101497772D01*
X156590667Y-101500933D01*
X156599180Y-101558623D01*
X156606717Y-101566333D01*
X156664258Y-101547468D01*
X156779938Y-101496222D01*
X156937491Y-101420622D01*
X157120652Y-101328692D01*
X157313158Y-101228459D01*
X157498743Y-101127947D01*
X157526551Y-101112463D01*
X157843065Y-100952468D01*
X158112344Y-100854870D01*
X158342549Y-100818037D01*
X158541840Y-100840337D01*
X158659076Y-100885978D01*
X158774599Y-100951742D01*
X158842939Y-101015797D01*
X158862201Y-101090229D01*
X158830493Y-101187128D01*
X158745919Y-101318581D01*
X158606586Y-101496676D01*
X158553205Y-101561760D01*
X158449002Y-101694303D01*
X158370029Y-101806587D01*
X158329221Y-101879779D01*
X158326333Y-101892070D01*
X158352969Y-101933097D01*
X158437325Y-101943661D01*
X158586075Y-101923388D01*
X158805895Y-101871910D01*
X158837196Y-101863663D01*
X159002803Y-101822795D01*
X159147463Y-101792688D01*
X159242605Y-101779215D01*
X159249181Y-101778996D01*
X159335699Y-101749941D01*
X159445141Y-101677291D01*
X159499092Y-101629833D01*
X159632226Y-101523435D01*
X159741310Y-101480514D01*
X159816937Y-101501690D01*
X159849697Y-101587584D01*
X159850333Y-101606672D01*
X159854152Y-101680912D01*
X159880273Y-101714593D01*
X159950689Y-101718550D01*
X160054946Y-101707444D01*
X160183802Y-101697585D01*
X160262255Y-101713559D01*
X160323019Y-101765081D01*
X160346789Y-101794105D01*
X160420067Y-101870288D01*
X160479651Y-101904818D01*
X160482577Y-101905000D01*
X160542729Y-101886548D01*
X160652995Y-101838261D01*
X160784452Y-101773163D01*
X160957341Y-101698925D01*
X161132028Y-101650191D01*
X161290127Y-101628962D01*
X161413254Y-101637241D01*
X161483022Y-101677031D01*
X161490968Y-101696209D01*
X161468146Y-101747712D01*
X161395749Y-101852027D01*
X161281326Y-101999475D01*
X161132428Y-102180376D01*
X160956607Y-102385052D01*
X160929549Y-102415876D01*
X160720080Y-102656530D01*
X160567835Y-102839734D01*
X160472025Y-102969703D01*
X160431861Y-103050656D01*
X160446554Y-103086809D01*
X160515315Y-103082379D01*
X160637355Y-103041582D01*
X160811884Y-102968636D01*
X160827381Y-102961849D01*
X161079503Y-102854282D01*
X161303983Y-102764428D01*
X161489389Y-102696408D01*
X161624288Y-102654343D01*
X161697247Y-102642355D01*
X161705455Y-102645344D01*
X161706007Y-102683696D01*
X161647357Y-102743054D01*
X161525311Y-102826135D01*
X161335676Y-102935657D01*
X161074257Y-103074335D01*
X160928030Y-103149028D01*
X160652434Y-103285439D01*
X160440547Y-103381717D01*
X160282778Y-103440106D01*
X160169540Y-103462853D01*
X160091245Y-103452204D01*
X160038304Y-103410405D01*
X160011187Y-103363794D01*
X159985106Y-103271521D01*
X159998047Y-103176271D01*
X160056701Y-103064884D01*
X160167756Y-102924203D01*
X160316416Y-102763352D01*
X160512113Y-102555012D01*
X160682841Y-102364257D01*
X160821285Y-102200023D01*
X160920131Y-102071241D01*
X160972064Y-101986845D01*
X160975822Y-101958045D01*
X160923183Y-101960365D01*
X160813285Y-102001238D01*
X160660146Y-102073518D01*
X160477781Y-102170055D01*
X160280205Y-102283703D01*
X160081434Y-102407313D01*
X160034290Y-102438210D01*
X159879147Y-102536596D01*
X159744704Y-102613776D01*
X159649919Y-102659267D01*
X159620632Y-102667000D01*
X159553495Y-102632207D01*
X159505490Y-102564517D01*
X159482651Y-102479397D01*
X159509282Y-102396216D01*
X159548731Y-102335732D01*
X159620551Y-102215279D01*
X159634795Y-102139896D01*
X159596781Y-102116667D01*
X159547178Y-102143319D01*
X159454573Y-102213735D01*
X159337573Y-102313598D01*
X159318383Y-102330854D01*
X159150189Y-102464954D01*
X159021168Y-102527885D01*
X158932918Y-102519312D01*
X158887037Y-102438902D01*
X158884070Y-102421783D01*
X158902945Y-102327705D01*
X158988111Y-102209430D01*
X159037839Y-102157200D01*
X159124554Y-102066724D01*
X159175656Y-102005893D01*
X159181785Y-101989667D01*
X159133368Y-102002569D01*
X159025873Y-102036816D01*
X158880111Y-102085717D01*
X158838609Y-102099974D01*
X158563919Y-102173023D01*
X158326387Y-102192127D01*
X158136176Y-102157383D01*
X158026433Y-102092272D01*
X157966581Y-102006491D01*
X157964756Y-101896441D01*
X158007036Y-101769716D01*
X158009605Y-101739193D01*
X157972910Y-101735141D01*
X157884717Y-101759849D01*
X157732792Y-101815602D01*
X157705563Y-101826084D01*
X157453511Y-101907201D01*
X157257207Y-101932232D01*
X157108912Y-101901102D01*
X157005473Y-101819470D01*
X156949871Y-101762819D01*
X156894901Y-101757302D01*
X156806492Y-101797016D01*
X156614047Y-101861012D01*
X156441916Y-101846724D01*
X156297706Y-101755110D01*
X156274954Y-101730070D01*
X156205329Y-101654444D01*
X156141664Y-101618559D01*
X156052629Y-101612821D01*
X155931133Y-101624770D01*
X155791294Y-101636699D01*
X155703314Y-101626267D01*
X155635759Y-101586288D01*
X155618931Y-101570546D01*
X157418770Y-101570546D01*
X157471297Y-101577220D01*
X157590444Y-101543780D01*
X157769679Y-101472737D01*
X158002471Y-101366607D01*
X158197996Y-101270672D01*
X158348549Y-101190620D01*
X158464947Y-101120441D01*
X158530023Y-101070878D01*
X158538000Y-101057861D01*
X158501981Y-101024202D01*
X158409500Y-101016393D01*
X158283925Y-101032071D01*
X158148621Y-101068872D01*
X158060063Y-101106221D01*
X157915074Y-101186515D01*
X157763844Y-101281413D01*
X157622575Y-101379187D01*
X157507464Y-101468108D01*
X157434712Y-101536445D01*
X157418770Y-101570546D01*
X155618931Y-101570546D01*
X155594671Y-101547853D01*
X155526216Y-101464820D01*
X155515468Y-101390889D01*
X155523356Y-101364670D01*
X155869060Y-101364670D01*
X155929595Y-101375435D01*
X156055384Y-101335726D01*
X156244758Y-101244089D01*
X156294274Y-101217101D01*
X156449284Y-101125148D01*
X156552187Y-101042481D01*
X156628163Y-100943815D01*
X156699167Y-100810522D01*
X156742917Y-100689560D01*
X156731863Y-100625797D01*
X156671578Y-100617075D01*
X156567635Y-100661239D01*
X156425607Y-100756132D01*
X156251066Y-100899596D01*
X156095678Y-101044083D01*
X155950432Y-101197539D01*
X155875449Y-101304887D01*
X155869060Y-101364670D01*
X155523356Y-101364670D01*
X155534262Y-101328425D01*
X155644292Y-101122098D01*
X155810422Y-100911267D01*
X156012269Y-100714908D01*
X156229448Y-100552001D01*
X156441574Y-100441523D01*
X156511562Y-100418564D01*
X156641599Y-100390387D01*
X156737995Y-100395906D01*
X156846743Y-100440061D01*
X156882590Y-100458414D01*
X156994201Y-100513063D01*
X157074491Y-100545985D01*
X157093236Y-100550333D01*
X157130001Y-100519829D01*
X157213322Y-100434777D01*
X157334603Y-100304872D01*
X157485250Y-100139807D01*
X157656668Y-99949276D01*
X157840260Y-99742973D01*
X158027433Y-99530590D01*
X158209591Y-99321822D01*
X158378139Y-99126362D01*
X158524481Y-98953903D01*
X158640024Y-98814140D01*
X158700480Y-98737677D01*
X158816586Y-98593772D01*
X158903378Y-98512374D01*
X158976740Y-98484400D01*
X159052559Y-98500765D01*
G37*
X159052559Y-98500765D02*
X159086115Y-98517146D01*
X159148555Y-98558268D01*
X159164291Y-98603155D01*
X159129114Y-98669583D01*
X159038817Y-98775324D01*
X159020133Y-98795811D01*
X158932587Y-98891312D01*
X158804345Y-99031014D01*
X158652038Y-99196809D01*
X158492293Y-99370590D01*
X158477970Y-99386167D01*
X158285938Y-99596254D01*
X158068981Y-99835604D01*
X157856733Y-100071435D01*
X157712638Y-100232833D01*
X157525642Y-100440683D01*
X157313042Y-100672811D01*
X157104117Y-100897437D01*
X156963635Y-101045850D01*
X156822320Y-101198401D01*
X156705575Y-101333766D01*
X156624703Y-101438154D01*
X156591008Y-101497772D01*
X156590667Y-101500933D01*
X156599180Y-101558623D01*
X156606717Y-101566333D01*
X156664258Y-101547468D01*
X156779938Y-101496222D01*
X156937491Y-101420622D01*
X157120652Y-101328692D01*
X157313158Y-101228459D01*
X157498743Y-101127947D01*
X157526551Y-101112463D01*
X157843065Y-100952468D01*
X158112344Y-100854870D01*
X158342549Y-100818037D01*
X158541840Y-100840337D01*
X158659076Y-100885978D01*
X158774599Y-100951742D01*
X158842939Y-101015797D01*
X158862201Y-101090229D01*
X158830493Y-101187128D01*
X158745919Y-101318581D01*
X158606586Y-101496676D01*
X158553205Y-101561760D01*
X158449002Y-101694303D01*
X158370029Y-101806587D01*
X158329221Y-101879779D01*
X158326333Y-101892070D01*
X158352969Y-101933097D01*
X158437325Y-101943661D01*
X158586075Y-101923388D01*
X158805895Y-101871910D01*
X158837196Y-101863663D01*
X159002803Y-101822795D01*
X159147463Y-101792688D01*
X159242605Y-101779215D01*
X159249181Y-101778996D01*
X159335699Y-101749941D01*
X159445141Y-101677291D01*
X159499092Y-101629833D01*
X159632226Y-101523435D01*
X159741310Y-101480514D01*
X159816937Y-101501690D01*
X159849697Y-101587584D01*
X159850333Y-101606672D01*
X159854152Y-101680912D01*
X159880273Y-101714593D01*
X159950689Y-101718550D01*
X160054946Y-101707444D01*
X160183802Y-101697585D01*
X160262255Y-101713559D01*
X160323019Y-101765081D01*
X160346789Y-101794105D01*
X160420067Y-101870288D01*
X160479651Y-101904818D01*
X160482577Y-101905000D01*
X160542729Y-101886548D01*
X160652995Y-101838261D01*
X160784452Y-101773163D01*
X160957341Y-101698925D01*
X161132028Y-101650191D01*
X161290127Y-101628962D01*
X161413254Y-101637241D01*
X161483022Y-101677031D01*
X161490968Y-101696209D01*
X161468146Y-101747712D01*
X161395749Y-101852027D01*
X161281326Y-101999475D01*
X161132428Y-102180376D01*
X160956607Y-102385052D01*
X160929549Y-102415876D01*
X160720080Y-102656530D01*
X160567835Y-102839734D01*
X160472025Y-102969703D01*
X160431861Y-103050656D01*
X160446554Y-103086809D01*
X160515315Y-103082379D01*
X160637355Y-103041582D01*
X160811884Y-102968636D01*
X160827381Y-102961849D01*
X161079503Y-102854282D01*
X161303983Y-102764428D01*
X161489389Y-102696408D01*
X161624288Y-102654343D01*
X161697247Y-102642355D01*
X161705455Y-102645344D01*
X161706007Y-102683696D01*
X161647357Y-102743054D01*
X161525311Y-102826135D01*
X161335676Y-102935657D01*
X161074257Y-103074335D01*
X160928030Y-103149028D01*
X160652434Y-103285439D01*
X160440547Y-103381717D01*
X160282778Y-103440106D01*
X160169540Y-103462853D01*
X160091245Y-103452204D01*
X160038304Y-103410405D01*
X160011187Y-103363794D01*
X159985106Y-103271521D01*
X159998047Y-103176271D01*
X160056701Y-103064884D01*
X160167756Y-102924203D01*
X160316416Y-102763352D01*
X160512113Y-102555012D01*
X160682841Y-102364257D01*
X160821285Y-102200023D01*
X160920131Y-102071241D01*
X160972064Y-101986845D01*
X160975822Y-101958045D01*
X160923183Y-101960365D01*
X160813285Y-102001238D01*
X160660146Y-102073518D01*
X160477781Y-102170055D01*
X160280205Y-102283703D01*
X160081434Y-102407313D01*
X160034290Y-102438210D01*
X159879147Y-102536596D01*
X159744704Y-102613776D01*
X159649919Y-102659267D01*
X159620632Y-102667000D01*
X159553495Y-102632207D01*
X159505490Y-102564517D01*
X159482651Y-102479397D01*
X159509282Y-102396216D01*
X159548731Y-102335732D01*
X159620551Y-102215279D01*
X159634795Y-102139896D01*
X159596781Y-102116667D01*
X159547178Y-102143319D01*
X159454573Y-102213735D01*
X159337573Y-102313598D01*
X159318383Y-102330854D01*
X159150189Y-102464954D01*
X159021168Y-102527885D01*
X158932918Y-102519312D01*
X158887037Y-102438902D01*
X158884070Y-102421783D01*
X158902945Y-102327705D01*
X158988111Y-102209430D01*
X159037839Y-102157200D01*
X159124554Y-102066724D01*
X159175656Y-102005893D01*
X159181785Y-101989667D01*
X159133368Y-102002569D01*
X159025873Y-102036816D01*
X158880111Y-102085717D01*
X158838609Y-102099974D01*
X158563919Y-102173023D01*
X158326387Y-102192127D01*
X158136176Y-102157383D01*
X158026433Y-102092272D01*
X157966581Y-102006491D01*
X157964756Y-101896441D01*
X158007036Y-101769716D01*
X158009605Y-101739193D01*
X157972910Y-101735141D01*
X157884717Y-101759849D01*
X157732792Y-101815602D01*
X157705563Y-101826084D01*
X157453511Y-101907201D01*
X157257207Y-101932232D01*
X157108912Y-101901102D01*
X157005473Y-101819470D01*
X156949871Y-101762819D01*
X156894901Y-101757302D01*
X156806492Y-101797016D01*
X156614047Y-101861012D01*
X156441916Y-101846724D01*
X156297706Y-101755110D01*
X156274954Y-101730070D01*
X156205329Y-101654444D01*
X156141664Y-101618559D01*
X156052629Y-101612821D01*
X155931133Y-101624770D01*
X155791294Y-101636699D01*
X155703314Y-101626267D01*
X155635759Y-101586288D01*
X155618931Y-101570546D01*
X157418770Y-101570546D01*
X157471297Y-101577220D01*
X157590444Y-101543780D01*
X157769679Y-101472737D01*
X158002471Y-101366607D01*
X158197996Y-101270672D01*
X158348549Y-101190620D01*
X158464947Y-101120441D01*
X158530023Y-101070878D01*
X158538000Y-101057861D01*
X158501981Y-101024202D01*
X158409500Y-101016393D01*
X158283925Y-101032071D01*
X158148621Y-101068872D01*
X158060063Y-101106221D01*
X157915074Y-101186515D01*
X157763844Y-101281413D01*
X157622575Y-101379187D01*
X157507464Y-101468108D01*
X157434712Y-101536445D01*
X157418770Y-101570546D01*
X155618931Y-101570546D01*
X155594671Y-101547853D01*
X155526216Y-101464820D01*
X155515468Y-101390889D01*
X155523356Y-101364670D01*
X155869060Y-101364670D01*
X155929595Y-101375435D01*
X156055384Y-101335726D01*
X156244758Y-101244089D01*
X156294274Y-101217101D01*
X156449284Y-101125148D01*
X156552187Y-101042481D01*
X156628163Y-100943815D01*
X156699167Y-100810522D01*
X156742917Y-100689560D01*
X156731863Y-100625797D01*
X156671578Y-100617075D01*
X156567635Y-100661239D01*
X156425607Y-100756132D01*
X156251066Y-100899596D01*
X156095678Y-101044083D01*
X155950432Y-101197539D01*
X155875449Y-101304887D01*
X155869060Y-101364670D01*
X155523356Y-101364670D01*
X155534262Y-101328425D01*
X155644292Y-101122098D01*
X155810422Y-100911267D01*
X156012269Y-100714908D01*
X156229448Y-100552001D01*
X156441574Y-100441523D01*
X156511562Y-100418564D01*
X156641599Y-100390387D01*
X156737995Y-100395906D01*
X156846743Y-100440061D01*
X156882590Y-100458414D01*
X156994201Y-100513063D01*
X157074491Y-100545985D01*
X157093236Y-100550333D01*
X157130001Y-100519829D01*
X157213322Y-100434777D01*
X157334603Y-100304872D01*
X157485250Y-100139807D01*
X157656668Y-99949276D01*
X157840260Y-99742973D01*
X158027433Y-99530590D01*
X158209591Y-99321822D01*
X158378139Y-99126362D01*
X158524481Y-98953903D01*
X158640024Y-98814140D01*
X158700480Y-98737677D01*
X158816586Y-98593772D01*
X158903378Y-98512374D01*
X158976740Y-98484400D01*
X159052559Y-98500765D01*
G36*
X148842911Y-92304061D02*
G01*
X148936545Y-92330649D01*
X149087103Y-92375701D01*
X149296502Y-92439820D01*
X149566658Y-92523612D01*
X149899489Y-92627681D01*
X150296911Y-92752631D01*
X150760841Y-92899067D01*
X151293196Y-93067592D01*
X151895893Y-93258812D01*
X152570848Y-93473331D01*
X153319980Y-93711752D01*
X154145204Y-93974681D01*
X155048437Y-94262721D01*
X155384167Y-94369839D01*
X156191231Y-94627351D01*
X156920619Y-94860032D01*
X157575304Y-95068827D01*
X158158257Y-95254682D01*
X158672450Y-95418543D01*
X159120854Y-95561356D01*
X159506441Y-95684067D01*
X159832183Y-95787620D01*
X160101053Y-95872963D01*
X160316020Y-95941040D01*
X160480058Y-95992798D01*
X160596139Y-96029182D01*
X160665250Y-96050535D01*
X160780879Y-96092521D01*
X160853581Y-96132024D01*
X160866333Y-96148912D01*
X160835330Y-96193403D01*
X160755633Y-96268037D01*
X160684417Y-96325644D01*
X160502500Y-96465167D01*
X161150083Y-96674482D01*
X161368569Y-96746956D01*
X161555583Y-96812528D01*
X161697612Y-96866175D01*
X161781142Y-96902870D01*
X161797667Y-96915268D01*
X161766028Y-96955304D01*
X161684494Y-97025288D01*
X161607167Y-97083546D01*
X161502577Y-97162753D01*
X161433494Y-97222925D01*
X161416924Y-97244926D01*
X161455202Y-97265378D01*
X161560462Y-97305340D01*
X161718630Y-97359867D01*
X161915629Y-97424015D01*
X162020174Y-97456873D01*
X162276794Y-97537616D01*
X162461658Y-97599079D01*
X162584277Y-97645736D01*
X162654161Y-97682060D01*
X162680820Y-97712527D01*
X162673765Y-97741609D01*
X162659811Y-97757789D01*
X162614201Y-97758621D01*
X162501200Y-97735532D01*
X162318760Y-97687931D01*
X162064833Y-97615229D01*
X161737372Y-97516837D01*
X161334329Y-97392164D01*
X160853656Y-97240621D01*
X160756928Y-97209869D01*
X160438194Y-97108418D01*
X160048139Y-96984258D01*
X159596116Y-96840365D01*
X159510005Y-96812952D01*
X160088578Y-96812952D01*
X160091797Y-96827645D01*
X160138952Y-96848862D01*
X160248328Y-96889612D01*
X160401489Y-96943689D01*
X160579995Y-97004888D01*
X160765411Y-97067003D01*
X160939296Y-97123830D01*
X161083214Y-97169163D01*
X161178727Y-97196796D01*
X161205000Y-97202292D01*
X161248232Y-97179759D01*
X161334123Y-97120990D01*
X161387120Y-97081802D01*
X161548074Y-96959959D01*
X160952853Y-96763593D01*
X160357632Y-96567226D01*
X160207863Y-96681460D01*
X160125165Y-96756014D01*
X160088578Y-96812952D01*
X159510005Y-96812952D01*
X159091479Y-96679718D01*
X158543581Y-96505295D01*
X157961777Y-96320074D01*
X157355421Y-96127032D01*
X156733866Y-95929147D01*
X156106467Y-95729398D01*
X155482576Y-95530762D01*
X154897333Y-95344427D01*
X154334336Y-95165230D01*
X153793011Y-94993047D01*
X153278957Y-94829651D01*
X152797770Y-94676816D01*
X152355046Y-94536315D01*
X151956384Y-94409923D01*
X151607380Y-94299413D01*
X151313630Y-94206560D01*
X151080733Y-94133137D01*
X150914285Y-94080919D01*
X150819883Y-94051679D01*
X150800825Y-94046066D01*
X150704817Y-94021441D01*
X150727931Y-94671804D01*
X150732623Y-94821868D01*
X150738809Y-95048128D01*
X150746294Y-95342132D01*
X150754881Y-95695426D01*
X150764375Y-96099558D01*
X150774578Y-96546073D01*
X150785294Y-97026520D01*
X150796328Y-97532444D01*
X150807484Y-98055392D01*
X150816712Y-98497167D01*
X150829076Y-99092166D01*
X150842353Y-99726064D01*
X150856220Y-100383762D01*
X150870356Y-101050160D01*
X150884439Y-101710160D01*
X150898145Y-102348661D01*
X150911152Y-102950566D01*
X150923139Y-103500775D01*
X150933782Y-103984189D01*
X150935554Y-104064000D01*
X150946954Y-104588521D01*
X150955896Y-105034664D01*
X150962229Y-105408683D01*
X150965801Y-105716837D01*
X150966459Y-105965381D01*
X150964054Y-106160571D01*
X150958432Y-106308664D01*
X150949442Y-106415917D01*
X150936932Y-106488585D01*
X150920752Y-106532925D01*
X150900748Y-106555193D01*
X150876770Y-106561645D01*
X150875006Y-106561667D01*
X150862873Y-106521742D01*
X150850776Y-106411589D01*
X150839771Y-106245643D01*
X150830914Y-106038335D01*
X150827273Y-105909025D01*
X150820308Y-105682029D01*
X150811042Y-105485596D01*
X150800452Y-105335006D01*
X150789512Y-105245539D01*
X150783800Y-105228019D01*
X150740766Y-105240408D01*
X150645910Y-105295761D01*
X150514020Y-105384772D01*
X150385761Y-105478495D01*
X150232774Y-105591553D01*
X150103687Y-105682588D01*
X150013825Y-105741066D01*
X149980211Y-105757333D01*
X149970960Y-105717854D01*
X149961669Y-105610828D01*
X149952840Y-105453373D01*
X149944976Y-105262608D01*
X149938582Y-105055650D01*
X149934160Y-104849618D01*
X149932214Y-104661631D01*
X149933247Y-104508805D01*
X149937763Y-104408260D01*
X149940010Y-104390014D01*
X149910827Y-104401066D01*
X149826970Y-104455408D01*
X149700765Y-104544565D01*
X149544539Y-104660064D01*
X149517752Y-104680293D01*
X149354220Y-104799649D01*
X149214297Y-104893350D01*
X149111651Y-104952848D01*
X149059951Y-104969590D01*
X149057623Y-104968112D01*
X149050878Y-104920251D01*
X149042881Y-104795358D01*
X149033887Y-104601055D01*
X149024149Y-104344964D01*
X149013923Y-104034707D01*
X149003462Y-103677904D01*
X148993022Y-103282178D01*
X148982857Y-102855151D01*
X148975126Y-102497667D01*
X148951045Y-101335435D01*
X148928575Y-100256224D01*
X148907682Y-99258404D01*
X148888331Y-98340344D01*
X148870485Y-97500417D01*
X148854110Y-96736990D01*
X148839170Y-96048435D01*
X148825629Y-95433121D01*
X148813452Y-94889419D01*
X148802605Y-94415699D01*
X148793050Y-94010331D01*
X148784754Y-93671684D01*
X148777680Y-93398130D01*
X148776190Y-93343083D01*
X148767808Y-93010492D01*
X148767516Y-92994060D01*
X148935200Y-92994060D01*
X148935886Y-93182898D01*
X148938388Y-93439916D01*
X148942576Y-93756881D01*
X148948317Y-94125563D01*
X148955480Y-94537730D01*
X148963934Y-94985152D01*
X148973545Y-95459596D01*
X148984184Y-95952832D01*
X148989046Y-96168833D01*
X149001892Y-96737869D01*
X149015398Y-97346192D01*
X149029223Y-97977770D01*
X149043023Y-98616573D01*
X149056457Y-99246567D01*
X149069181Y-99851723D01*
X149080853Y-100416009D01*
X149091132Y-100923393D01*
X149097562Y-101248833D01*
X149110255Y-101887637D01*
X149121951Y-102446619D01*
X149132850Y-102930616D01*
X149143149Y-103344465D01*
X149153048Y-103693002D01*
X149162744Y-103981066D01*
X149172437Y-104213491D01*
X149182324Y-104395115D01*
X149192605Y-104530775D01*
X149203477Y-104625307D01*
X149215140Y-104683548D01*
X149227791Y-104710335D01*
X149239695Y-104711854D01*
X149293499Y-104674786D01*
X149396784Y-104599920D01*
X149531444Y-104500450D01*
X149600876Y-104448613D01*
X149823441Y-104281884D01*
X150071333Y-104281884D01*
X150071911Y-104797359D01*
X150074181Y-105006512D01*
X150079926Y-105191872D01*
X150088270Y-105332947D01*
X150098022Y-105408109D01*
X150123555Y-105503386D01*
X150298527Y-105373091D01*
X150440677Y-105268184D01*
X150587369Y-105161320D01*
X150631346Y-105129648D01*
X150789192Y-105016500D01*
X150790096Y-104371437D01*
X150791000Y-103726375D01*
X150431167Y-104004129D01*
X150071333Y-104281884D01*
X149823441Y-104281884D01*
X149913586Y-104214355D01*
X149884511Y-102837427D01*
X149877971Y-102531938D01*
X149869754Y-102155128D01*
X149860160Y-101720321D01*
X149849487Y-101240840D01*
X149838034Y-100730008D01*
X149826098Y-100201148D01*
X149813977Y-99667583D01*
X149801971Y-99142637D01*
X149795400Y-98857000D01*
X149776534Y-98035395D01*
X149759726Y-97294344D01*
X149744937Y-96629758D01*
X149732130Y-96037551D01*
X149721268Y-95513636D01*
X149712311Y-95053924D01*
X149705223Y-94654330D01*
X149699966Y-94310764D01*
X149696502Y-94019140D01*
X149694794Y-93775370D01*
X149694802Y-93575368D01*
X149696491Y-93415046D01*
X149699822Y-93290316D01*
X149700334Y-93280629D01*
X149833672Y-93280629D01*
X149834239Y-93401490D01*
X149836485Y-93592800D01*
X149840288Y-93847461D01*
X149845527Y-94158375D01*
X149852081Y-94518445D01*
X149859828Y-94920573D01*
X149868647Y-95357661D01*
X149878417Y-95822611D01*
X149881792Y-95979219D01*
X149893768Y-96532340D01*
X149906533Y-97123059D01*
X149919735Y-97735109D01*
X149933026Y-98352225D01*
X149946055Y-98958142D01*
X149958472Y-99536593D01*
X149969927Y-100071314D01*
X149980072Y-100546038D01*
X149984674Y-100762000D01*
X149994219Y-101198160D01*
X150004170Y-101630695D01*
X150014221Y-102047700D01*
X150024065Y-102437269D01*
X150033394Y-102787496D01*
X150041903Y-103086477D01*
X150049282Y-103322306D01*
X150054199Y-103458280D01*
X150080016Y-104101394D01*
X150431663Y-103839280D01*
X150783310Y-103577167D01*
X150766180Y-103238500D01*
X150761556Y-103121658D01*
X150755729Y-102932880D01*
X150748828Y-102678735D01*
X150740979Y-102365792D01*
X150732312Y-102000617D01*
X150722952Y-101589782D01*
X150713030Y-101139853D01*
X150702671Y-100657399D01*
X150692005Y-100148988D01*
X150681158Y-99621190D01*
X150670259Y-99080573D01*
X150659436Y-98533705D01*
X150648816Y-97987154D01*
X150638527Y-97447490D01*
X150628697Y-96921280D01*
X150619454Y-96415094D01*
X150610925Y-95935499D01*
X150603239Y-95489064D01*
X150596524Y-95082358D01*
X150590906Y-94721949D01*
X150586515Y-94414406D01*
X150583477Y-94166296D01*
X150581921Y-93984190D01*
X150581974Y-93874654D01*
X150583352Y-93843537D01*
X150626028Y-93852653D01*
X150742704Y-93885572D01*
X150926756Y-93940249D01*
X151171561Y-94014639D01*
X151470494Y-94106695D01*
X151816932Y-94214371D01*
X152204251Y-94335623D01*
X152625826Y-94468405D01*
X153075034Y-94610670D01*
X153332463Y-94692532D01*
X153840780Y-94854399D01*
X154360942Y-95020025D01*
X154881430Y-95185743D01*
X155390725Y-95347884D01*
X155877307Y-95502784D01*
X156329659Y-95646773D01*
X156736261Y-95776187D01*
X157085595Y-95887357D01*
X157366141Y-95976617D01*
X157373833Y-95979064D01*
X157725691Y-96091089D01*
X158081775Y-96204634D01*
X158426024Y-96314565D01*
X158742379Y-96415749D01*
X159014777Y-96503051D01*
X159227157Y-96571337D01*
X159274840Y-96586725D01*
X159863513Y-96776923D01*
X160005090Y-96668937D01*
X160092792Y-96595558D01*
X160142468Y-96541421D01*
X160146666Y-96530984D01*
X160108054Y-96510477D01*
X159999534Y-96468747D01*
X159832082Y-96409596D01*
X159616672Y-96336831D01*
X159364279Y-96254255D01*
X159162416Y-96189786D01*
X158528499Y-95989196D01*
X157923924Y-95797584D01*
X157327890Y-95608339D01*
X156719595Y-95414846D01*
X156078235Y-95210495D01*
X155383009Y-94988671D01*
X155172500Y-94921456D01*
X154794656Y-94800894D01*
X154394032Y-94673240D01*
X153990473Y-94544806D01*
X153603821Y-94421901D01*
X153253921Y-94310838D01*
X152960617Y-94217926D01*
X152907667Y-94201183D01*
X152594014Y-94101855D01*
X152226122Y-93985034D01*
X151830365Y-93859114D01*
X151433115Y-93732490D01*
X151060745Y-93613555D01*
X150922347Y-93569271D01*
X150636731Y-93478405D01*
X150378735Y-93397443D01*
X150158957Y-93329620D01*
X149987992Y-93278170D01*
X149876438Y-93246330D01*
X149834906Y-93237316D01*
X149833672Y-93280629D01*
X149700334Y-93280629D01*
X149704757Y-93197091D01*
X149711259Y-93131283D01*
X149719290Y-93088806D01*
X149728812Y-93065572D01*
X149739787Y-93057493D01*
X149741841Y-93057333D01*
X149793618Y-93069887D01*
X149918236Y-93105946D01*
X150107933Y-93163106D01*
X150354946Y-93238961D01*
X150651512Y-93331109D01*
X150989867Y-93437143D01*
X151362249Y-93554661D01*
X151760895Y-93681257D01*
X151918097Y-93731385D01*
X152394518Y-93883425D01*
X152932858Y-94055129D01*
X153514346Y-94240516D01*
X154120210Y-94433605D01*
X154731682Y-94628414D01*
X155329990Y-94818964D01*
X155896363Y-94999271D01*
X156379000Y-95152848D01*
X156836518Y-95298408D01*
X157293195Y-95443731D01*
X157738429Y-95585442D01*
X158161619Y-95720164D01*
X158552164Y-95844523D01*
X158899461Y-95955143D01*
X159192909Y-96048648D01*
X159421906Y-96121663D01*
X159513720Y-96150963D01*
X159758584Y-96228434D01*
X159976458Y-96296023D01*
X160154277Y-96349786D01*
X160278979Y-96385780D01*
X160337501Y-96400062D01*
X160339220Y-96400144D01*
X160395686Y-96374414D01*
X160484057Y-96312764D01*
X160504656Y-96296336D01*
X160580341Y-96224766D01*
X160588569Y-96184562D01*
X160568156Y-96172357D01*
X160514549Y-96154906D01*
X160389856Y-96115039D01*
X160203732Y-96055822D01*
X159965833Y-95980320D01*
X159685812Y-95891596D01*
X159373326Y-95792717D01*
X159088333Y-95702638D01*
X158726628Y-95588200D01*
X158363620Y-95473042D01*
X158014042Y-95361861D01*
X157692624Y-95259350D01*
X157414098Y-95170206D01*
X157193195Y-95099124D01*
X157098667Y-95068474D01*
X156945051Y-95018793D01*
X156721034Y-94946840D01*
X156436929Y-94855904D01*
X156103048Y-94749276D01*
X155729707Y-94630247D01*
X155327217Y-94502106D01*
X154905893Y-94368143D01*
X154476048Y-94231649D01*
X154389333Y-94204136D01*
X153907156Y-94051112D01*
X153388835Y-93886514D01*
X152851819Y-93715888D01*
X152313557Y-93544782D01*
X151791499Y-93378744D01*
X151303092Y-93223322D01*
X150865785Y-93084063D01*
X150600500Y-92999515D01*
X148949500Y-92473095D01*
X148936463Y-92881631D01*
X148935200Y-92994060D01*
X148767516Y-92994060D01*
X148763236Y-92753636D01*
X148762712Y-92563659D01*
X148766472Y-92431703D01*
X148774754Y-92348912D01*
X148787796Y-92306430D01*
X148804283Y-92295333D01*
X148842911Y-92304061D01*
G37*
X148842911Y-92304061D02*
X148936545Y-92330649D01*
X149087103Y-92375701D01*
X149296502Y-92439820D01*
X149566658Y-92523612D01*
X149899489Y-92627681D01*
X150296911Y-92752631D01*
X150760841Y-92899067D01*
X151293196Y-93067592D01*
X151895893Y-93258812D01*
X152570848Y-93473331D01*
X153319980Y-93711752D01*
X154145204Y-93974681D01*
X155048437Y-94262721D01*
X155384167Y-94369839D01*
X156191231Y-94627351D01*
X156920619Y-94860032D01*
X157575304Y-95068827D01*
X158158257Y-95254682D01*
X158672450Y-95418543D01*
X159120854Y-95561356D01*
X159506441Y-95684067D01*
X159832183Y-95787620D01*
X160101053Y-95872963D01*
X160316020Y-95941040D01*
X160480058Y-95992798D01*
X160596139Y-96029182D01*
X160665250Y-96050535D01*
X160780879Y-96092521D01*
X160853581Y-96132024D01*
X160866333Y-96148912D01*
X160835330Y-96193403D01*
X160755633Y-96268037D01*
X160684417Y-96325644D01*
X160502500Y-96465167D01*
X161150083Y-96674482D01*
X161368569Y-96746956D01*
X161555583Y-96812528D01*
X161697612Y-96866175D01*
X161781142Y-96902870D01*
X161797667Y-96915268D01*
X161766028Y-96955304D01*
X161684494Y-97025288D01*
X161607167Y-97083546D01*
X161502577Y-97162753D01*
X161433494Y-97222925D01*
X161416924Y-97244926D01*
X161455202Y-97265378D01*
X161560462Y-97305340D01*
X161718630Y-97359867D01*
X161915629Y-97424015D01*
X162020174Y-97456873D01*
X162276794Y-97537616D01*
X162461658Y-97599079D01*
X162584277Y-97645736D01*
X162654161Y-97682060D01*
X162680820Y-97712527D01*
X162673765Y-97741609D01*
X162659811Y-97757789D01*
X162614201Y-97758621D01*
X162501200Y-97735532D01*
X162318760Y-97687931D01*
X162064833Y-97615229D01*
X161737372Y-97516837D01*
X161334329Y-97392164D01*
X160853656Y-97240621D01*
X160756928Y-97209869D01*
X160438194Y-97108418D01*
X160048139Y-96984258D01*
X159596116Y-96840365D01*
X159510005Y-96812952D01*
X160088578Y-96812952D01*
X160091797Y-96827645D01*
X160138952Y-96848862D01*
X160248328Y-96889612D01*
X160401489Y-96943689D01*
X160579995Y-97004888D01*
X160765411Y-97067003D01*
X160939296Y-97123830D01*
X161083214Y-97169163D01*
X161178727Y-97196796D01*
X161205000Y-97202292D01*
X161248232Y-97179759D01*
X161334123Y-97120990D01*
X161387120Y-97081802D01*
X161548074Y-96959959D01*
X160952853Y-96763593D01*
X160357632Y-96567226D01*
X160207863Y-96681460D01*
X160125165Y-96756014D01*
X160088578Y-96812952D01*
X159510005Y-96812952D01*
X159091479Y-96679718D01*
X158543581Y-96505295D01*
X157961777Y-96320074D01*
X157355421Y-96127032D01*
X156733866Y-95929147D01*
X156106467Y-95729398D01*
X155482576Y-95530762D01*
X154897333Y-95344427D01*
X154334336Y-95165230D01*
X153793011Y-94993047D01*
X153278957Y-94829651D01*
X152797770Y-94676816D01*
X152355046Y-94536315D01*
X151956384Y-94409923D01*
X151607380Y-94299413D01*
X151313630Y-94206560D01*
X151080733Y-94133137D01*
X150914285Y-94080919D01*
X150819883Y-94051679D01*
X150800825Y-94046066D01*
X150704817Y-94021441D01*
X150727931Y-94671804D01*
X150732623Y-94821868D01*
X150738809Y-95048128D01*
X150746294Y-95342132D01*
X150754881Y-95695426D01*
X150764375Y-96099558D01*
X150774578Y-96546073D01*
X150785294Y-97026520D01*
X150796328Y-97532444D01*
X150807484Y-98055392D01*
X150816712Y-98497167D01*
X150829076Y-99092166D01*
X150842353Y-99726064D01*
X150856220Y-100383762D01*
X150870356Y-101050160D01*
X150884439Y-101710160D01*
X150898145Y-102348661D01*
X150911152Y-102950566D01*
X150923139Y-103500775D01*
X150933782Y-103984189D01*
X150935554Y-104064000D01*
X150946954Y-104588521D01*
X150955896Y-105034664D01*
X150962229Y-105408683D01*
X150965801Y-105716837D01*
X150966459Y-105965381D01*
X150964054Y-106160571D01*
X150958432Y-106308664D01*
X150949442Y-106415917D01*
X150936932Y-106488585D01*
X150920752Y-106532925D01*
X150900748Y-106555193D01*
X150876770Y-106561645D01*
X150875006Y-106561667D01*
X150862873Y-106521742D01*
X150850776Y-106411589D01*
X150839771Y-106245643D01*
X150830914Y-106038335D01*
X150827273Y-105909025D01*
X150820308Y-105682029D01*
X150811042Y-105485596D01*
X150800452Y-105335006D01*
X150789512Y-105245539D01*
X150783800Y-105228019D01*
X150740766Y-105240408D01*
X150645910Y-105295761D01*
X150514020Y-105384772D01*
X150385761Y-105478495D01*
X150232774Y-105591553D01*
X150103687Y-105682588D01*
X150013825Y-105741066D01*
X149980211Y-105757333D01*
X149970960Y-105717854D01*
X149961669Y-105610828D01*
X149952840Y-105453373D01*
X149944976Y-105262608D01*
X149938582Y-105055650D01*
X149934160Y-104849618D01*
X149932214Y-104661631D01*
X149933247Y-104508805D01*
X149937763Y-104408260D01*
X149940010Y-104390014D01*
X149910827Y-104401066D01*
X149826970Y-104455408D01*
X149700765Y-104544565D01*
X149544539Y-104660064D01*
X149517752Y-104680293D01*
X149354220Y-104799649D01*
X149214297Y-104893350D01*
X149111651Y-104952848D01*
X149059951Y-104969590D01*
X149057623Y-104968112D01*
X149050878Y-104920251D01*
X149042881Y-104795358D01*
X149033887Y-104601055D01*
X149024149Y-104344964D01*
X149013923Y-104034707D01*
X149003462Y-103677904D01*
X148993022Y-103282178D01*
X148982857Y-102855151D01*
X148975126Y-102497667D01*
X148951045Y-101335435D01*
X148928575Y-100256224D01*
X148907682Y-99258404D01*
X148888331Y-98340344D01*
X148870485Y-97500417D01*
X148854110Y-96736990D01*
X148839170Y-96048435D01*
X148825629Y-95433121D01*
X148813452Y-94889419D01*
X148802605Y-94415699D01*
X148793050Y-94010331D01*
X148784754Y-93671684D01*
X148777680Y-93398130D01*
X148776190Y-93343083D01*
X148767808Y-93010492D01*
X148767516Y-92994060D01*
X148935200Y-92994060D01*
X148935886Y-93182898D01*
X148938388Y-93439916D01*
X148942576Y-93756881D01*
X148948317Y-94125563D01*
X148955480Y-94537730D01*
X148963934Y-94985152D01*
X148973545Y-95459596D01*
X148984184Y-95952832D01*
X148989046Y-96168833D01*
X149001892Y-96737869D01*
X149015398Y-97346192D01*
X149029223Y-97977770D01*
X149043023Y-98616573D01*
X149056457Y-99246567D01*
X149069181Y-99851723D01*
X149080853Y-100416009D01*
X149091132Y-100923393D01*
X149097562Y-101248833D01*
X149110255Y-101887637D01*
X149121951Y-102446619D01*
X149132850Y-102930616D01*
X149143149Y-103344465D01*
X149153048Y-103693002D01*
X149162744Y-103981066D01*
X149172437Y-104213491D01*
X149182324Y-104395115D01*
X149192605Y-104530775D01*
X149203477Y-104625307D01*
X149215140Y-104683548D01*
X149227791Y-104710335D01*
X149239695Y-104711854D01*
X149293499Y-104674786D01*
X149396784Y-104599920D01*
X149531444Y-104500450D01*
X149600876Y-104448613D01*
X149823441Y-104281884D01*
X150071333Y-104281884D01*
X150071911Y-104797359D01*
X150074181Y-105006512D01*
X150079926Y-105191872D01*
X150088270Y-105332947D01*
X150098022Y-105408109D01*
X150123555Y-105503386D01*
X150298527Y-105373091D01*
X150440677Y-105268184D01*
X150587369Y-105161320D01*
X150631346Y-105129648D01*
X150789192Y-105016500D01*
X150790096Y-104371437D01*
X150791000Y-103726375D01*
X150431167Y-104004129D01*
X150071333Y-104281884D01*
X149823441Y-104281884D01*
X149913586Y-104214355D01*
X149884511Y-102837427D01*
X149877971Y-102531938D01*
X149869754Y-102155128D01*
X149860160Y-101720321D01*
X149849487Y-101240840D01*
X149838034Y-100730008D01*
X149826098Y-100201148D01*
X149813977Y-99667583D01*
X149801971Y-99142637D01*
X149795400Y-98857000D01*
X149776534Y-98035395D01*
X149759726Y-97294344D01*
X149744937Y-96629758D01*
X149732130Y-96037551D01*
X149721268Y-95513636D01*
X149712311Y-95053924D01*
X149705223Y-94654330D01*
X149699966Y-94310764D01*
X149696502Y-94019140D01*
X149694794Y-93775370D01*
X149694802Y-93575368D01*
X149696491Y-93415046D01*
X149699822Y-93290316D01*
X149700334Y-93280629D01*
X149833672Y-93280629D01*
X149834239Y-93401490D01*
X149836485Y-93592800D01*
X149840288Y-93847461D01*
X149845527Y-94158375D01*
X149852081Y-94518445D01*
X149859828Y-94920573D01*
X149868647Y-95357661D01*
X149878417Y-95822611D01*
X149881792Y-95979219D01*
X149893768Y-96532340D01*
X149906533Y-97123059D01*
X149919735Y-97735109D01*
X149933026Y-98352225D01*
X149946055Y-98958142D01*
X149958472Y-99536593D01*
X149969927Y-100071314D01*
X149980072Y-100546038D01*
X149984674Y-100762000D01*
X149994219Y-101198160D01*
X150004170Y-101630695D01*
X150014221Y-102047700D01*
X150024065Y-102437269D01*
X150033394Y-102787496D01*
X150041903Y-103086477D01*
X150049282Y-103322306D01*
X150054199Y-103458280D01*
X150080016Y-104101394D01*
X150431663Y-103839280D01*
X150783310Y-103577167D01*
X150766180Y-103238500D01*
X150761556Y-103121658D01*
X150755729Y-102932880D01*
X150748828Y-102678735D01*
X150740979Y-102365792D01*
X150732312Y-102000617D01*
X150722952Y-101589782D01*
X150713030Y-101139853D01*
X150702671Y-100657399D01*
X150692005Y-100148988D01*
X150681158Y-99621190D01*
X150670259Y-99080573D01*
X150659436Y-98533705D01*
X150648816Y-97987154D01*
X150638527Y-97447490D01*
X150628697Y-96921280D01*
X150619454Y-96415094D01*
X150610925Y-95935499D01*
X150603239Y-95489064D01*
X150596524Y-95082358D01*
X150590906Y-94721949D01*
X150586515Y-94414406D01*
X150583477Y-94166296D01*
X150581921Y-93984190D01*
X150581974Y-93874654D01*
X150583352Y-93843537D01*
X150626028Y-93852653D01*
X150742704Y-93885572D01*
X150926756Y-93940249D01*
X151171561Y-94014639D01*
X151470494Y-94106695D01*
X151816932Y-94214371D01*
X152204251Y-94335623D01*
X152625826Y-94468405D01*
X153075034Y-94610670D01*
X153332463Y-94692532D01*
X153840780Y-94854399D01*
X154360942Y-95020025D01*
X154881430Y-95185743D01*
X155390725Y-95347884D01*
X155877307Y-95502784D01*
X156329659Y-95646773D01*
X156736261Y-95776187D01*
X157085595Y-95887357D01*
X157366141Y-95976617D01*
X157373833Y-95979064D01*
X157725691Y-96091089D01*
X158081775Y-96204634D01*
X158426024Y-96314565D01*
X158742379Y-96415749D01*
X159014777Y-96503051D01*
X159227157Y-96571337D01*
X159274840Y-96586725D01*
X159863513Y-96776923D01*
X160005090Y-96668937D01*
X160092792Y-96595558D01*
X160142468Y-96541421D01*
X160146666Y-96530984D01*
X160108054Y-96510477D01*
X159999534Y-96468747D01*
X159832082Y-96409596D01*
X159616672Y-96336831D01*
X159364279Y-96254255D01*
X159162416Y-96189786D01*
X158528499Y-95989196D01*
X157923924Y-95797584D01*
X157327890Y-95608339D01*
X156719595Y-95414846D01*
X156078235Y-95210495D01*
X155383009Y-94988671D01*
X155172500Y-94921456D01*
X154794656Y-94800894D01*
X154394032Y-94673240D01*
X153990473Y-94544806D01*
X153603821Y-94421901D01*
X153253921Y-94310838D01*
X152960617Y-94217926D01*
X152907667Y-94201183D01*
X152594014Y-94101855D01*
X152226122Y-93985034D01*
X151830365Y-93859114D01*
X151433115Y-93732490D01*
X151060745Y-93613555D01*
X150922347Y-93569271D01*
X150636731Y-93478405D01*
X150378735Y-93397443D01*
X150158957Y-93329620D01*
X149987992Y-93278170D01*
X149876438Y-93246330D01*
X149834906Y-93237316D01*
X149833672Y-93280629D01*
X149700334Y-93280629D01*
X149704757Y-93197091D01*
X149711259Y-93131283D01*
X149719290Y-93088806D01*
X149728812Y-93065572D01*
X149739787Y-93057493D01*
X149741841Y-93057333D01*
X149793618Y-93069887D01*
X149918236Y-93105946D01*
X150107933Y-93163106D01*
X150354946Y-93238961D01*
X150651512Y-93331109D01*
X150989867Y-93437143D01*
X151362249Y-93554661D01*
X151760895Y-93681257D01*
X151918097Y-93731385D01*
X152394518Y-93883425D01*
X152932858Y-94055129D01*
X153514346Y-94240516D01*
X154120210Y-94433605D01*
X154731682Y-94628414D01*
X155329990Y-94818964D01*
X155896363Y-94999271D01*
X156379000Y-95152848D01*
X156836518Y-95298408D01*
X157293195Y-95443731D01*
X157738429Y-95585442D01*
X158161619Y-95720164D01*
X158552164Y-95844523D01*
X158899461Y-95955143D01*
X159192909Y-96048648D01*
X159421906Y-96121663D01*
X159513720Y-96150963D01*
X159758584Y-96228434D01*
X159976458Y-96296023D01*
X160154277Y-96349786D01*
X160278979Y-96385780D01*
X160337501Y-96400062D01*
X160339220Y-96400144D01*
X160395686Y-96374414D01*
X160484057Y-96312764D01*
X160504656Y-96296336D01*
X160580341Y-96224766D01*
X160588569Y-96184562D01*
X160568156Y-96172357D01*
X160514549Y-96154906D01*
X160389856Y-96115039D01*
X160203732Y-96055822D01*
X159965833Y-95980320D01*
X159685812Y-95891596D01*
X159373326Y-95792717D01*
X159088333Y-95702638D01*
X158726628Y-95588200D01*
X158363620Y-95473042D01*
X158014042Y-95361861D01*
X157692624Y-95259350D01*
X157414098Y-95170206D01*
X157193195Y-95099124D01*
X157098667Y-95068474D01*
X156945051Y-95018793D01*
X156721034Y-94946840D01*
X156436929Y-94855904D01*
X156103048Y-94749276D01*
X155729707Y-94630247D01*
X155327217Y-94502106D01*
X154905893Y-94368143D01*
X154476048Y-94231649D01*
X154389333Y-94204136D01*
X153907156Y-94051112D01*
X153388835Y-93886514D01*
X152851819Y-93715888D01*
X152313557Y-93544782D01*
X151791499Y-93378744D01*
X151303092Y-93223322D01*
X150865785Y-93084063D01*
X150600500Y-92999515D01*
X148949500Y-92473095D01*
X148936463Y-92881631D01*
X148935200Y-92994060D01*
X148767516Y-92994060D01*
X148763236Y-92753636D01*
X148762712Y-92563659D01*
X148766472Y-92431703D01*
X148774754Y-92348912D01*
X148787796Y-92306430D01*
X148804283Y-92295333D01*
X148842911Y-92304061D01*
G36*
X167483151Y-100451984D02*
G01*
X167555126Y-100490141D01*
X167654036Y-100559917D01*
X167716390Y-100637019D01*
X167739055Y-100727504D01*
X167718895Y-100837425D01*
X167652777Y-100972836D01*
X167537566Y-101139792D01*
X167370128Y-101344348D01*
X167147329Y-101592557D01*
X166866034Y-101890475D01*
X166788471Y-101971081D01*
X166571805Y-102196468D01*
X166367442Y-102410652D01*
X166185009Y-102603420D01*
X166034130Y-102764560D01*
X165924432Y-102883860D01*
X165870749Y-102944748D01*
X165792364Y-103042767D01*
X165765154Y-103094718D01*
X165783891Y-103117677D01*
X165815649Y-103124741D01*
X165922895Y-103116093D01*
X165980584Y-103094659D01*
X166061578Y-103058691D01*
X166212156Y-102999044D01*
X166421827Y-102919535D01*
X166680098Y-102823984D01*
X166976477Y-102716209D01*
X167300471Y-102600028D01*
X167641588Y-102479261D01*
X167989337Y-102357725D01*
X168295833Y-102252032D01*
X168657988Y-102134012D01*
X168962318Y-102047373D01*
X169204924Y-101992834D01*
X169381905Y-101971113D01*
X169489363Y-101982929D01*
X169523500Y-102025779D01*
X169484080Y-102067917D01*
X169372900Y-102125715D01*
X169200582Y-102195290D01*
X168977746Y-102272757D01*
X168715013Y-102354233D01*
X168423004Y-102435835D01*
X168349442Y-102455085D01*
X167766979Y-102626313D01*
X167203580Y-102831994D01*
X166689567Y-103060898D01*
X166622133Y-103094739D01*
X166218433Y-103300554D01*
X166226728Y-104179694D01*
X166231331Y-104506306D01*
X166239054Y-104764563D01*
X166251133Y-104970756D01*
X166268803Y-105141174D01*
X166293303Y-105292108D01*
X166320756Y-105418667D01*
X166397600Y-105696750D01*
X166503320Y-106017610D01*
X166626613Y-106349496D01*
X166756174Y-106660660D01*
X166787991Y-106731000D01*
X166847490Y-106885469D01*
X166874230Y-107011406D01*
X166866084Y-107091807D01*
X166835599Y-107112000D01*
X166788812Y-107080404D01*
X166714484Y-106999424D01*
X166662285Y-106932083D01*
X166513282Y-106702549D01*
X166373335Y-106431342D01*
X166235272Y-106103329D01*
X166122296Y-105792566D01*
X165952181Y-105209211D01*
X165852558Y-104642587D01*
X165819348Y-104069328D01*
X165819333Y-104056540D01*
X165818517Y-103855015D01*
X165814083Y-103723327D01*
X165803056Y-103646650D01*
X165782458Y-103610158D01*
X165749311Y-103599024D01*
X165727334Y-103598333D01*
X165661159Y-103620659D01*
X165539398Y-103682213D01*
X165376645Y-103774861D01*
X165187496Y-103890471D01*
X165081751Y-103958132D01*
X164803956Y-104147920D01*
X164537445Y-104350840D01*
X164269779Y-104577961D01*
X163988521Y-104840356D01*
X163681232Y-105149093D01*
X163350495Y-105499039D01*
X163210417Y-105646026D01*
X163090506Y-105764262D01*
X163002293Y-105842928D01*
X162957303Y-105871206D01*
X162954872Y-105870316D01*
X162952810Y-105837974D01*
X162983618Y-105770600D01*
X163051650Y-105661529D01*
X163161256Y-105504097D01*
X163316791Y-105291642D01*
X163442897Y-105123117D01*
X163579484Y-104936565D01*
X163669413Y-104799056D01*
X163721048Y-104695285D01*
X163742754Y-104609945D01*
X163745000Y-104570365D01*
X163751093Y-104490954D01*
X163778683Y-104425580D01*
X163841738Y-104356622D01*
X163954223Y-104266458D01*
X164030750Y-104209831D01*
X164147565Y-104114933D01*
X164311614Y-103968519D01*
X164512416Y-103781019D01*
X164739490Y-103562864D01*
X164982354Y-103324485D01*
X165230528Y-103076313D01*
X165473531Y-102828779D01*
X165700882Y-102592313D01*
X165902100Y-102377346D01*
X166066703Y-102194310D01*
X166128937Y-102121684D01*
X166275678Y-101947284D01*
X166432730Y-101761715D01*
X166571677Y-101598530D01*
X166602500Y-101562545D01*
X166765435Y-101359170D01*
X166887698Y-101178577D01*
X166963895Y-101030658D01*
X166988626Y-100925305D01*
X166973257Y-100882991D01*
X166928186Y-100864547D01*
X166844221Y-100871482D01*
X166707248Y-100906212D01*
X166551243Y-100955230D01*
X166195419Y-101090602D01*
X165795016Y-101275124D01*
X165366705Y-101499491D01*
X164927158Y-101754398D01*
X164493044Y-102030540D01*
X164081034Y-102318612D01*
X163998215Y-102380253D01*
X163837078Y-102495977D01*
X163692889Y-102589337D01*
X163583061Y-102649662D01*
X163530260Y-102667000D01*
X163393432Y-102638528D01*
X163303926Y-102562786D01*
X163279333Y-102477904D01*
X163294252Y-102419149D01*
X163346945Y-102354187D01*
X163449315Y-102271883D01*
X163613264Y-102161099D01*
X163628407Y-102151311D01*
X163819314Y-102027176D01*
X164020796Y-101894551D01*
X164197437Y-101776792D01*
X164242110Y-101746621D01*
X164604331Y-101519332D01*
X165015370Y-101292839D01*
X165456143Y-101075552D01*
X165907569Y-100875878D01*
X166350565Y-100702227D01*
X166766050Y-100563007D01*
X167134941Y-100466626D01*
X167157632Y-100461884D01*
X167306621Y-100434764D01*
X167404734Y-100430725D01*
X167483151Y-100451984D01*
G37*
X167483151Y-100451984D02*
X167555126Y-100490141D01*
X167654036Y-100559917D01*
X167716390Y-100637019D01*
X167739055Y-100727504D01*
X167718895Y-100837425D01*
X167652777Y-100972836D01*
X167537566Y-101139792D01*
X167370128Y-101344348D01*
X167147329Y-101592557D01*
X166866034Y-101890475D01*
X166788471Y-101971081D01*
X166571805Y-102196468D01*
X166367442Y-102410652D01*
X166185009Y-102603420D01*
X166034130Y-102764560D01*
X165924432Y-102883860D01*
X165870749Y-102944748D01*
X165792364Y-103042767D01*
X165765154Y-103094718D01*
X165783891Y-103117677D01*
X165815649Y-103124741D01*
X165922895Y-103116093D01*
X165980584Y-103094659D01*
X166061578Y-103058691D01*
X166212156Y-102999044D01*
X166421827Y-102919535D01*
X166680098Y-102823984D01*
X166976477Y-102716209D01*
X167300471Y-102600028D01*
X167641588Y-102479261D01*
X167989337Y-102357725D01*
X168295833Y-102252032D01*
X168657988Y-102134012D01*
X168962318Y-102047373D01*
X169204924Y-101992834D01*
X169381905Y-101971113D01*
X169489363Y-101982929D01*
X169523500Y-102025779D01*
X169484080Y-102067917D01*
X169372900Y-102125715D01*
X169200582Y-102195290D01*
X168977746Y-102272757D01*
X168715013Y-102354233D01*
X168423004Y-102435835D01*
X168349442Y-102455085D01*
X167766979Y-102626313D01*
X167203580Y-102831994D01*
X166689567Y-103060898D01*
X166622133Y-103094739D01*
X166218433Y-103300554D01*
X166226728Y-104179694D01*
X166231331Y-104506306D01*
X166239054Y-104764563D01*
X166251133Y-104970756D01*
X166268803Y-105141174D01*
X166293303Y-105292108D01*
X166320756Y-105418667D01*
X166397600Y-105696750D01*
X166503320Y-106017610D01*
X166626613Y-106349496D01*
X166756174Y-106660660D01*
X166787991Y-106731000D01*
X166847490Y-106885469D01*
X166874230Y-107011406D01*
X166866084Y-107091807D01*
X166835599Y-107112000D01*
X166788812Y-107080404D01*
X166714484Y-106999424D01*
X166662285Y-106932083D01*
X166513282Y-106702549D01*
X166373335Y-106431342D01*
X166235272Y-106103329D01*
X166122296Y-105792566D01*
X165952181Y-105209211D01*
X165852558Y-104642587D01*
X165819348Y-104069328D01*
X165819333Y-104056540D01*
X165818517Y-103855015D01*
X165814083Y-103723327D01*
X165803056Y-103646650D01*
X165782458Y-103610158D01*
X165749311Y-103599024D01*
X165727334Y-103598333D01*
X165661159Y-103620659D01*
X165539398Y-103682213D01*
X165376645Y-103774861D01*
X165187496Y-103890471D01*
X165081751Y-103958132D01*
X164803956Y-104147920D01*
X164537445Y-104350840D01*
X164269779Y-104577961D01*
X163988521Y-104840356D01*
X163681232Y-105149093D01*
X163350495Y-105499039D01*
X163210417Y-105646026D01*
X163090506Y-105764262D01*
X163002293Y-105842928D01*
X162957303Y-105871206D01*
X162954872Y-105870316D01*
X162952810Y-105837974D01*
X162983618Y-105770600D01*
X163051650Y-105661529D01*
X163161256Y-105504097D01*
X163316791Y-105291642D01*
X163442897Y-105123117D01*
X163579484Y-104936565D01*
X163669413Y-104799056D01*
X163721048Y-104695285D01*
X163742754Y-104609945D01*
X163745000Y-104570365D01*
X163751093Y-104490954D01*
X163778683Y-104425580D01*
X163841738Y-104356622D01*
X163954223Y-104266458D01*
X164030750Y-104209831D01*
X164147565Y-104114933D01*
X164311614Y-103968519D01*
X164512416Y-103781019D01*
X164739490Y-103562864D01*
X164982354Y-103324485D01*
X165230528Y-103076313D01*
X165473531Y-102828779D01*
X165700882Y-102592313D01*
X165902100Y-102377346D01*
X166066703Y-102194310D01*
X166128937Y-102121684D01*
X166275678Y-101947284D01*
X166432730Y-101761715D01*
X166571677Y-101598530D01*
X166602500Y-101562545D01*
X166765435Y-101359170D01*
X166887698Y-101178577D01*
X166963895Y-101030658D01*
X166988626Y-100925305D01*
X166973257Y-100882991D01*
X166928186Y-100864547D01*
X166844221Y-100871482D01*
X166707248Y-100906212D01*
X166551243Y-100955230D01*
X166195419Y-101090602D01*
X165795016Y-101275124D01*
X165366705Y-101499491D01*
X164927158Y-101754398D01*
X164493044Y-102030540D01*
X164081034Y-102318612D01*
X163998215Y-102380253D01*
X163837078Y-102495977D01*
X163692889Y-102589337D01*
X163583061Y-102649662D01*
X163530260Y-102667000D01*
X163393432Y-102638528D01*
X163303926Y-102562786D01*
X163279333Y-102477904D01*
X163294252Y-102419149D01*
X163346945Y-102354187D01*
X163449315Y-102271883D01*
X163613264Y-102161099D01*
X163628407Y-102151311D01*
X163819314Y-102027176D01*
X164020796Y-101894551D01*
X164197437Y-101776792D01*
X164242110Y-101746621D01*
X164604331Y-101519332D01*
X165015370Y-101292839D01*
X165456143Y-101075552D01*
X165907569Y-100875878D01*
X166350565Y-100702227D01*
X166766050Y-100563007D01*
X167134941Y-100466626D01*
X167157632Y-100461884D01*
X167306621Y-100434764D01*
X167404734Y-100430725D01*
X167483151Y-100451984D01*
D12*
X139890000Y-94870000D02*
X142130000Y-94870000D01*
X142130000Y-94870000D02*
X142130000Y-90630000D01*
X142130000Y-90630000D02*
X139890000Y-90630000D01*
X139890000Y-90630000D02*
X139890000Y-94870000D01*
X141010000Y-95520000D02*
X141010000Y-94870000D01*
X141010000Y-89980000D02*
X141010000Y-90630000D01*
X139890000Y-94150000D02*
X142130000Y-94150000D01*
X139890000Y-94030000D02*
X142130000Y-94030000D01*
X139890000Y-94270000D02*
X142130000Y-94270000D01*
X120840000Y-94870000D02*
X123080000Y-94870000D01*
X123080000Y-94870000D02*
X123080000Y-90630000D01*
X123080000Y-90630000D02*
X120840000Y-90630000D01*
X120840000Y-90630000D02*
X120840000Y-94870000D01*
X121960000Y-95520000D02*
X121960000Y-94870000D01*
X121960000Y-89980000D02*
X121960000Y-90630000D01*
X120840000Y-94150000D02*
X123080000Y-94150000D01*
X120840000Y-94030000D02*
X123080000Y-94030000D01*
X120840000Y-94270000D02*
X123080000Y-94270000D01*
X101790000Y-94870000D02*
X104030000Y-94870000D01*
X104030000Y-94870000D02*
X104030000Y-90630000D01*
X104030000Y-90630000D02*
X101790000Y-90630000D01*
X101790000Y-90630000D02*
X101790000Y-94870000D01*
X102910000Y-95520000D02*
X102910000Y-94870000D01*
X102910000Y-89980000D02*
X102910000Y-90630000D01*
X101790000Y-94150000D02*
X104030000Y-94150000D01*
X101790000Y-94030000D02*
X104030000Y-94030000D01*
X101790000Y-94270000D02*
X104030000Y-94270000D01*
X82740000Y-94870000D02*
X84980000Y-94870000D01*
X84980000Y-94870000D02*
X84980000Y-90630000D01*
X84980000Y-90630000D02*
X82740000Y-90630000D01*
X82740000Y-90630000D02*
X82740000Y-94870000D01*
X83860000Y-95520000D02*
X83860000Y-94870000D01*
X83860000Y-89980000D02*
X83860000Y-90630000D01*
X82740000Y-94150000D02*
X84980000Y-94150000D01*
X82740000Y-94030000D02*
X84980000Y-94030000D01*
X82740000Y-94270000D02*
X84980000Y-94270000D01*
X139890000Y-71457500D02*
X142130000Y-71457500D01*
X142130000Y-71457500D02*
X142130000Y-67217500D01*
X142130000Y-67217500D02*
X139890000Y-67217500D01*
X139890000Y-67217500D02*
X139890000Y-71457500D01*
X141010000Y-72107500D02*
X141010000Y-71457500D01*
X141010000Y-66567500D02*
X141010000Y-67217500D01*
X139890000Y-70737500D02*
X142130000Y-70737500D01*
X139890000Y-70617500D02*
X142130000Y-70617500D01*
X139890000Y-70857500D02*
X142130000Y-70857500D01*
X120840000Y-71057500D02*
X123080000Y-71057500D01*
X123080000Y-71057500D02*
X123080000Y-66817500D01*
X123080000Y-66817500D02*
X120840000Y-66817500D01*
X120840000Y-66817500D02*
X120840000Y-71057500D01*
X121960000Y-71707500D02*
X121960000Y-71057500D01*
X121960000Y-66167500D02*
X121960000Y-66817500D01*
X120840000Y-70337500D02*
X123080000Y-70337500D01*
X120840000Y-70217500D02*
X123080000Y-70217500D01*
X120840000Y-70457500D02*
X123080000Y-70457500D01*
X101790000Y-71057500D02*
X104030000Y-71057500D01*
X104030000Y-71057500D02*
X104030000Y-66817500D01*
X104030000Y-66817500D02*
X101790000Y-66817500D01*
X101790000Y-66817500D02*
X101790000Y-71057500D01*
X102910000Y-71707500D02*
X102910000Y-71057500D01*
X102910000Y-66167500D02*
X102910000Y-66817500D01*
X101790000Y-70337500D02*
X104030000Y-70337500D01*
X101790000Y-70217500D02*
X104030000Y-70217500D01*
X101790000Y-70457500D02*
X104030000Y-70457500D01*
X82740000Y-71057500D02*
X84980000Y-71057500D01*
X84980000Y-71057500D02*
X84980000Y-66817500D01*
X84980000Y-66817500D02*
X82740000Y-66817500D01*
X82740000Y-66817500D02*
X82740000Y-71057500D01*
X83860000Y-71707500D02*
X83860000Y-71057500D01*
X83860000Y-66167500D02*
X83860000Y-66817500D01*
X82740000Y-70337500D02*
X84980000Y-70337500D01*
X82740000Y-70217500D02*
X84980000Y-70217500D01*
X82740000Y-70457500D02*
X84980000Y-70457500D01*
X139890000Y-47245000D02*
X142130000Y-47245000D01*
X142130000Y-47245000D02*
X142130000Y-43005000D01*
X142130000Y-43005000D02*
X139890000Y-43005000D01*
X139890000Y-43005000D02*
X139890000Y-47245000D01*
X141010000Y-47895000D02*
X141010000Y-47245000D01*
X141010000Y-42355000D02*
X141010000Y-43005000D01*
X139890000Y-46525000D02*
X142130000Y-46525000D01*
X139890000Y-46405000D02*
X142130000Y-46405000D01*
X139890000Y-46645000D02*
X142130000Y-46645000D01*
X120840000Y-47245000D02*
X123080000Y-47245000D01*
X123080000Y-47245000D02*
X123080000Y-43005000D01*
X123080000Y-43005000D02*
X120840000Y-43005000D01*
X120840000Y-43005000D02*
X120840000Y-47245000D01*
X121960000Y-47895000D02*
X121960000Y-47245000D01*
X121960000Y-42355000D02*
X121960000Y-43005000D01*
X120840000Y-46525000D02*
X123080000Y-46525000D01*
X120840000Y-46405000D02*
X123080000Y-46405000D01*
X120840000Y-46645000D02*
X123080000Y-46645000D01*
X101790000Y-47245000D02*
X104030000Y-47245000D01*
X104030000Y-47245000D02*
X104030000Y-43005000D01*
X104030000Y-43005000D02*
X101790000Y-43005000D01*
X101790000Y-43005000D02*
X101790000Y-47245000D01*
X102910000Y-47895000D02*
X102910000Y-47245000D01*
X102910000Y-42355000D02*
X102910000Y-43005000D01*
X101790000Y-46525000D02*
X104030000Y-46525000D01*
X101790000Y-46405000D02*
X104030000Y-46405000D01*
X101790000Y-46645000D02*
X104030000Y-46645000D01*
X82740000Y-47245000D02*
X84980000Y-47245000D01*
X84980000Y-47245000D02*
X84980000Y-43005000D01*
X84980000Y-43005000D02*
X82740000Y-43005000D01*
X82740000Y-43005000D02*
X82740000Y-47245000D01*
X83860000Y-47895000D02*
X83860000Y-47245000D01*
X83860000Y-42355000D02*
X83860000Y-43005000D01*
X82740000Y-46525000D02*
X84980000Y-46525000D01*
X82740000Y-46405000D02*
X84980000Y-46405000D01*
X82740000Y-46645000D02*
X84980000Y-46645000D01*
D14*
X142513096Y-42921218D02*
X142432284Y-42948155D01*
X142351471Y-43028967D01*
X142297597Y-43136717D01*
X142297597Y-43244467D01*
X142324534Y-43325279D01*
X142405346Y-43459966D01*
X142486158Y-43540778D01*
X142620845Y-43621590D01*
X142701658Y-43648528D01*
X142809407Y-43648528D01*
X142917157Y-43594653D01*
X142971032Y-43540778D01*
X143024906Y-43433028D01*
X143024906Y-43379154D01*
X142836345Y-43190592D01*
X142728595Y-43298341D01*
X143321218Y-43190592D02*
X142755532Y-42624906D01*
X142971032Y-42409407D01*
X143051844Y-42382470D01*
X143105719Y-42382470D01*
X143186531Y-42409407D01*
X143267343Y-42490219D01*
X143294280Y-42571032D01*
X143294280Y-42624906D01*
X143267343Y-42705719D01*
X143051844Y-42921218D01*
X144183215Y-42328595D02*
X143859966Y-42651844D01*
X144021590Y-42490219D02*
X143455905Y-41924534D01*
X143482842Y-42059221D01*
X143482842Y-42166971D01*
X143455905Y-42247783D01*
X142513096Y-48011218D02*
X142432284Y-48038155D01*
X142351471Y-48118967D01*
X142297597Y-48226717D01*
X142297597Y-48334467D01*
X142324534Y-48415279D01*
X142405346Y-48549966D01*
X142486158Y-48630778D01*
X142620845Y-48711590D01*
X142701658Y-48738528D01*
X142809407Y-48738528D01*
X142917157Y-48684653D01*
X142971032Y-48630778D01*
X143024906Y-48523028D01*
X143024906Y-48469154D01*
X142836345Y-48280592D01*
X142728595Y-48388341D01*
X143321218Y-48280592D02*
X142755532Y-47714906D01*
X142971032Y-47499407D01*
X143051844Y-47472470D01*
X143105719Y-47472470D01*
X143186531Y-47499407D01*
X143267343Y-47580219D01*
X143294280Y-47661032D01*
X143294280Y-47714906D01*
X143267343Y-47795719D01*
X143051844Y-48011218D01*
X143348155Y-47230033D02*
X143348155Y-47176158D01*
X143375093Y-47095346D01*
X143509780Y-46960659D01*
X143590592Y-46933722D01*
X143644467Y-46933722D01*
X143725279Y-46960659D01*
X143779154Y-47014534D01*
X143833028Y-47122284D01*
X143833028Y-47768781D01*
X144183215Y-47418595D01*
X142613096Y-40391218D02*
X142532284Y-40418155D01*
X142451471Y-40498967D01*
X142397597Y-40606717D01*
X142397597Y-40714467D01*
X142424534Y-40795279D01*
X142505346Y-40929966D01*
X142586158Y-41010778D01*
X142720845Y-41091590D01*
X142801658Y-41118528D01*
X142909407Y-41118528D01*
X143017157Y-41064653D01*
X143071032Y-41010778D01*
X143124906Y-40903028D01*
X143124906Y-40849154D01*
X142936345Y-40660592D01*
X142828595Y-40768341D01*
X143421218Y-40660592D02*
X142855532Y-40094906D01*
X143071032Y-39879407D01*
X143151844Y-39852470D01*
X143205719Y-39852470D01*
X143286531Y-39879407D01*
X143367343Y-39960219D01*
X143394280Y-40041032D01*
X143394280Y-40094906D01*
X143367343Y-40175719D01*
X143151844Y-40391218D01*
X143528967Y-39421471D02*
X143582842Y-39367597D01*
X143663654Y-39340659D01*
X143717529Y-39340659D01*
X143798341Y-39367597D01*
X143933028Y-39448409D01*
X144067715Y-39583096D01*
X144148528Y-39717783D01*
X144175465Y-39798595D01*
X144175465Y-39852470D01*
X144148528Y-39933282D01*
X144094653Y-39987157D01*
X144013841Y-40014094D01*
X143959966Y-40014094D01*
X143879154Y-39987157D01*
X143744467Y-39906345D01*
X143609780Y-39771658D01*
X143528967Y-39636971D01*
X143502030Y-39556158D01*
X143502030Y-39502284D01*
X143528967Y-39421471D01*
X142613096Y-50551218D02*
X142532284Y-50578155D01*
X142451471Y-50658967D01*
X142397597Y-50766717D01*
X142397597Y-50874467D01*
X142424534Y-50955279D01*
X142505346Y-51089966D01*
X142586158Y-51170778D01*
X142720845Y-51251590D01*
X142801658Y-51278528D01*
X142909407Y-51278528D01*
X143017157Y-51224653D01*
X143071032Y-51170778D01*
X143124906Y-51063028D01*
X143124906Y-51009154D01*
X142936345Y-50820592D01*
X142828595Y-50928341D01*
X143421218Y-50820592D02*
X142855532Y-50254906D01*
X143071032Y-50039407D01*
X143151844Y-50012470D01*
X143205719Y-50012470D01*
X143286531Y-50039407D01*
X143367343Y-50120219D01*
X143394280Y-50201032D01*
X143394280Y-50254906D01*
X143367343Y-50335719D01*
X143151844Y-50551218D01*
X143367343Y-49743096D02*
X143717529Y-49392910D01*
X143744467Y-49796971D01*
X143825279Y-49716158D01*
X143906091Y-49689221D01*
X143959966Y-49689221D01*
X144040778Y-49716158D01*
X144175465Y-49850845D01*
X144202402Y-49931658D01*
X144202402Y-49985532D01*
X144175465Y-50066345D01*
X144013841Y-50227969D01*
X143933028Y-50254906D01*
X143879154Y-50254906D01*
X142613096Y-53091218D02*
X142532284Y-53118155D01*
X142451471Y-53198967D01*
X142397597Y-53306717D01*
X142397597Y-53414467D01*
X142424534Y-53495279D01*
X142505346Y-53629966D01*
X142586158Y-53710778D01*
X142720845Y-53791590D01*
X142801658Y-53818528D01*
X142909407Y-53818528D01*
X143017157Y-53764653D01*
X143071032Y-53710778D01*
X143124906Y-53603028D01*
X143124906Y-53549154D01*
X142936345Y-53360592D01*
X142828595Y-53468341D01*
X143421218Y-53360592D02*
X142855532Y-52794906D01*
X143071032Y-52579407D01*
X143151844Y-52552470D01*
X143205719Y-52552470D01*
X143286531Y-52579407D01*
X143367343Y-52660219D01*
X143394280Y-52741032D01*
X143394280Y-52794906D01*
X143367343Y-52875719D01*
X143151844Y-53091218D01*
X143852216Y-52175346D02*
X144229340Y-52552470D01*
X143502030Y-52094534D02*
X143771404Y-52633282D01*
X144121590Y-52283096D01*
X142613096Y-55631218D02*
X142532284Y-55658155D01*
X142451471Y-55738967D01*
X142397597Y-55846717D01*
X142397597Y-55954467D01*
X142424534Y-56035279D01*
X142505346Y-56169966D01*
X142586158Y-56250778D01*
X142720845Y-56331590D01*
X142801658Y-56358528D01*
X142909407Y-56358528D01*
X143017157Y-56304653D01*
X143071032Y-56250778D01*
X143124906Y-56143028D01*
X143124906Y-56089154D01*
X142936345Y-55900592D01*
X142828595Y-56008341D01*
X143421218Y-55900592D02*
X142855532Y-55334906D01*
X143071032Y-55119407D01*
X143151844Y-55092470D01*
X143205719Y-55092470D01*
X143286531Y-55119407D01*
X143367343Y-55200219D01*
X143394280Y-55281032D01*
X143394280Y-55334906D01*
X143367343Y-55415719D01*
X143151844Y-55631218D01*
X143690592Y-54499847D02*
X143421218Y-54769221D01*
X143663654Y-55065532D01*
X143663654Y-55011658D01*
X143690592Y-54930845D01*
X143825279Y-54796158D01*
X143906091Y-54769221D01*
X143959966Y-54769221D01*
X144040778Y-54796158D01*
X144175465Y-54930845D01*
X144202402Y-55011658D01*
X144202402Y-55065532D01*
X144175465Y-55146345D01*
X144040778Y-55281032D01*
X143959966Y-55307969D01*
X143906091Y-55307969D01*
X142613096Y-60711218D02*
X142532284Y-60738155D01*
X142451471Y-60818967D01*
X142397597Y-60926717D01*
X142397597Y-61034467D01*
X142424534Y-61115279D01*
X142505346Y-61249966D01*
X142586158Y-61330778D01*
X142720845Y-61411590D01*
X142801658Y-61438528D01*
X142909407Y-61438528D01*
X143017157Y-61384653D01*
X143071032Y-61330778D01*
X143124906Y-61223028D01*
X143124906Y-61169154D01*
X142936345Y-60980592D01*
X142828595Y-61088341D01*
X143421218Y-60980592D02*
X142855532Y-60414906D01*
X143071032Y-60199407D01*
X143151844Y-60172470D01*
X143205719Y-60172470D01*
X143286531Y-60199407D01*
X143367343Y-60280219D01*
X143394280Y-60361032D01*
X143394280Y-60414906D01*
X143367343Y-60495719D01*
X143151844Y-60711218D01*
X143663654Y-59606784D02*
X143555905Y-59714534D01*
X143528967Y-59795346D01*
X143528967Y-59849221D01*
X143555905Y-59983908D01*
X143636717Y-60118595D01*
X143852216Y-60334094D01*
X143933028Y-60361032D01*
X143986903Y-60361032D01*
X144067715Y-60334094D01*
X144175465Y-60226345D01*
X144202402Y-60145532D01*
X144202402Y-60091658D01*
X144175465Y-60010845D01*
X144040778Y-59876158D01*
X143959966Y-59849221D01*
X143906091Y-59849221D01*
X143825279Y-59876158D01*
X143717529Y-59983908D01*
X143690592Y-60064720D01*
X143690592Y-60118595D01*
X143717529Y-60199407D01*
X142713096Y-63221218D02*
X142632284Y-63248155D01*
X142551471Y-63328967D01*
X142497597Y-63436717D01*
X142497597Y-63544467D01*
X142524534Y-63625279D01*
X142605346Y-63759966D01*
X142686158Y-63840778D01*
X142820845Y-63921590D01*
X142901658Y-63948528D01*
X143009407Y-63948528D01*
X143117157Y-63894653D01*
X143171032Y-63840778D01*
X143224906Y-63733028D01*
X143224906Y-63679154D01*
X143036345Y-63490592D01*
X142928595Y-63598341D01*
X143521218Y-63490592D02*
X142955532Y-62924906D01*
X143171032Y-62709407D01*
X143251844Y-62682470D01*
X143305719Y-62682470D01*
X143386531Y-62709407D01*
X143467343Y-62790219D01*
X143494280Y-62871032D01*
X143494280Y-62924906D01*
X143467343Y-63005719D01*
X143251844Y-63221218D01*
X143467343Y-62413096D02*
X143844467Y-62035972D01*
X144167715Y-62844094D01*
X142613096Y-65791218D02*
X142532284Y-65818155D01*
X142451471Y-65898967D01*
X142397597Y-66006717D01*
X142397597Y-66114467D01*
X142424534Y-66195279D01*
X142505346Y-66329966D01*
X142586158Y-66410778D01*
X142720845Y-66491590D01*
X142801658Y-66518528D01*
X142909407Y-66518528D01*
X143017157Y-66464653D01*
X143071032Y-66410778D01*
X143124906Y-66303028D01*
X143124906Y-66249154D01*
X142936345Y-66060592D01*
X142828595Y-66168341D01*
X143421218Y-66060592D02*
X142855532Y-65494906D01*
X143071032Y-65279407D01*
X143151844Y-65252470D01*
X143205719Y-65252470D01*
X143286531Y-65279407D01*
X143367343Y-65360219D01*
X143394280Y-65441032D01*
X143394280Y-65494906D01*
X143367343Y-65575719D01*
X143151844Y-65791218D01*
X143744467Y-65090845D02*
X143663654Y-65117783D01*
X143609780Y-65117783D01*
X143528967Y-65090845D01*
X143502030Y-65063908D01*
X143475093Y-64983096D01*
X143475093Y-64929221D01*
X143502030Y-64848409D01*
X143609780Y-64740659D01*
X143690592Y-64713722D01*
X143744467Y-64713722D01*
X143825279Y-64740659D01*
X143852216Y-64767597D01*
X143879154Y-64848409D01*
X143879154Y-64902284D01*
X143852216Y-64983096D01*
X143744467Y-65090845D01*
X143717529Y-65171658D01*
X143717529Y-65225532D01*
X143744467Y-65306345D01*
X143852216Y-65414094D01*
X143933028Y-65441032D01*
X143986903Y-65441032D01*
X144067715Y-65414094D01*
X144175465Y-65306345D01*
X144202402Y-65225532D01*
X144202402Y-65171658D01*
X144175465Y-65090845D01*
X144067715Y-64983096D01*
X143986903Y-64956158D01*
X143933028Y-64956158D01*
X143852216Y-64983096D01*
X142613096Y-68331218D02*
X142532284Y-68358155D01*
X142451471Y-68438967D01*
X142397597Y-68546717D01*
X142397597Y-68654467D01*
X142424534Y-68735279D01*
X142505346Y-68869966D01*
X142586158Y-68950778D01*
X142720845Y-69031590D01*
X142801658Y-69058528D01*
X142909407Y-69058528D01*
X143017157Y-69004653D01*
X143071032Y-68950778D01*
X143124906Y-68843028D01*
X143124906Y-68789154D01*
X142936345Y-68600592D01*
X142828595Y-68708341D01*
X143421218Y-68600592D02*
X142855532Y-68034906D01*
X143071032Y-67819407D01*
X143151844Y-67792470D01*
X143205719Y-67792470D01*
X143286531Y-67819407D01*
X143367343Y-67900219D01*
X143394280Y-67981032D01*
X143394280Y-68034906D01*
X143367343Y-68115719D01*
X143151844Y-68331218D01*
X144013841Y-68007969D02*
X144121590Y-67900219D01*
X144148528Y-67819407D01*
X144148528Y-67765532D01*
X144121590Y-67630845D01*
X144040778Y-67496158D01*
X143825279Y-67280659D01*
X143744467Y-67253722D01*
X143690592Y-67253722D01*
X143609780Y-67280659D01*
X143502030Y-67388409D01*
X143475093Y-67469221D01*
X143475093Y-67523096D01*
X143502030Y-67603908D01*
X143636717Y-67738595D01*
X143717529Y-67765532D01*
X143771404Y-67765532D01*
X143852216Y-67738595D01*
X143959966Y-67630845D01*
X143986903Y-67550033D01*
X143986903Y-67496158D01*
X143959966Y-67415346D01*
X142089722Y-73680592D02*
X142008910Y-73707529D01*
X141928097Y-73788341D01*
X141874223Y-73896091D01*
X141874223Y-74003841D01*
X141901160Y-74084653D01*
X141981972Y-74219340D01*
X142062784Y-74300152D01*
X142197471Y-74380964D01*
X142278284Y-74407902D01*
X142386033Y-74407902D01*
X142493783Y-74354027D01*
X142547658Y-74300152D01*
X142601532Y-74192402D01*
X142601532Y-74138528D01*
X142412971Y-73949966D01*
X142305221Y-74057715D01*
X142897844Y-73949966D02*
X142332158Y-73384280D01*
X142547658Y-73168781D01*
X142628470Y-73141844D01*
X142682345Y-73141844D01*
X142763157Y-73168781D01*
X142843969Y-73249593D01*
X142870906Y-73330406D01*
X142870906Y-73384280D01*
X142843969Y-73465093D01*
X142628470Y-73680592D01*
X143759841Y-73087969D02*
X143436592Y-73411218D01*
X143598216Y-73249593D02*
X143032531Y-72683908D01*
X143059468Y-72818595D01*
X143059468Y-72926345D01*
X143032531Y-73007157D01*
X143544341Y-72172097D02*
X143598216Y-72118223D01*
X143679028Y-72091285D01*
X143732903Y-72091285D01*
X143813715Y-72118223D01*
X143948402Y-72199035D01*
X144083089Y-72333722D01*
X144163902Y-72468409D01*
X144190839Y-72549221D01*
X144190839Y-72603096D01*
X144163902Y-72683908D01*
X144110027Y-72737783D01*
X144029215Y-72764720D01*
X143975340Y-72764720D01*
X143894528Y-72737783D01*
X143759841Y-72656971D01*
X143625154Y-72522284D01*
X143544341Y-72387597D01*
X143517404Y-72306784D01*
X143517404Y-72252910D01*
X143544341Y-72172097D01*
X141943722Y-76220592D02*
X141862910Y-76247529D01*
X141782097Y-76328341D01*
X141728223Y-76436091D01*
X141728223Y-76543841D01*
X141755160Y-76624653D01*
X141835972Y-76759340D01*
X141916784Y-76840152D01*
X142051471Y-76920964D01*
X142132284Y-76947902D01*
X142240033Y-76947902D01*
X142347783Y-76894027D01*
X142401658Y-76840152D01*
X142455532Y-76732402D01*
X142455532Y-76678528D01*
X142266971Y-76489966D01*
X142159221Y-76597715D01*
X142751844Y-76489966D02*
X142186158Y-75924280D01*
X142401658Y-75708781D01*
X142482470Y-75681844D01*
X142536345Y-75681844D01*
X142617157Y-75708781D01*
X142697969Y-75789593D01*
X142724906Y-75870406D01*
X142724906Y-75924280D01*
X142697969Y-76005093D01*
X142482470Y-76220592D01*
X143613841Y-75627969D02*
X143290592Y-75951218D01*
X143452216Y-75789593D02*
X142886531Y-75223908D01*
X142913468Y-75358595D01*
X142913468Y-75466345D01*
X142886531Y-75547157D01*
X144152589Y-75089221D02*
X143829340Y-75412470D01*
X143990964Y-75250845D02*
X143425279Y-74685160D01*
X143452216Y-74819847D01*
X143452216Y-74927597D01*
X143425279Y-75008409D01*
X141943722Y-78760592D02*
X141862910Y-78787529D01*
X141782097Y-78868341D01*
X141728223Y-78976091D01*
X141728223Y-79083841D01*
X141755160Y-79164653D01*
X141835972Y-79299340D01*
X141916784Y-79380152D01*
X142051471Y-79460964D01*
X142132284Y-79487902D01*
X142240033Y-79487902D01*
X142347783Y-79434027D01*
X142401658Y-79380152D01*
X142455532Y-79272402D01*
X142455532Y-79218528D01*
X142266971Y-79029966D01*
X142159221Y-79137715D01*
X142751844Y-79029966D02*
X142186158Y-78464280D01*
X142401658Y-78248781D01*
X142482470Y-78221844D01*
X142536345Y-78221844D01*
X142617157Y-78248781D01*
X142697969Y-78329593D01*
X142724906Y-78410406D01*
X142724906Y-78464280D01*
X142697969Y-78545093D01*
X142482470Y-78760592D01*
X143613841Y-78167969D02*
X143290592Y-78491218D01*
X143452216Y-78329593D02*
X142886531Y-77763908D01*
X142913468Y-77898595D01*
X142913468Y-78006345D01*
X142886531Y-78087157D01*
X143317529Y-77440659D02*
X143317529Y-77386784D01*
X143344467Y-77305972D01*
X143479154Y-77171285D01*
X143559966Y-77144348D01*
X143613841Y-77144348D01*
X143694653Y-77171285D01*
X143748528Y-77225160D01*
X143802402Y-77332910D01*
X143802402Y-77979407D01*
X144152589Y-77629221D01*
X142089722Y-81300592D02*
X142008910Y-81327529D01*
X141928097Y-81408341D01*
X141874223Y-81516091D01*
X141874223Y-81623841D01*
X141901160Y-81704653D01*
X141981972Y-81839340D01*
X142062784Y-81920152D01*
X142197471Y-82000964D01*
X142278284Y-82027902D01*
X142386033Y-82027902D01*
X142493783Y-81974027D01*
X142547658Y-81920152D01*
X142601532Y-81812402D01*
X142601532Y-81758528D01*
X142412971Y-81569966D01*
X142305221Y-81677715D01*
X142897844Y-81569966D02*
X142332158Y-81004280D01*
X142547658Y-80788781D01*
X142628470Y-80761844D01*
X142682345Y-80761844D01*
X142763157Y-80788781D01*
X142843969Y-80869593D01*
X142870906Y-80950406D01*
X142870906Y-81004280D01*
X142843969Y-81085093D01*
X142628470Y-81300592D01*
X143759841Y-80707969D02*
X143436592Y-81031218D01*
X143598216Y-80869593D02*
X143032531Y-80303908D01*
X143059468Y-80438595D01*
X143059468Y-80546345D01*
X143032531Y-80627157D01*
X143382717Y-79953722D02*
X143732903Y-79603536D01*
X143759841Y-80007597D01*
X143840653Y-79926784D01*
X143921465Y-79899847D01*
X143975340Y-79899847D01*
X144056152Y-79926784D01*
X144190839Y-80061471D01*
X144217776Y-80142284D01*
X144217776Y-80196158D01*
X144190839Y-80276971D01*
X144029215Y-80438595D01*
X143948402Y-80465532D01*
X143894528Y-80465532D01*
X142043722Y-86380592D02*
X141962910Y-86407529D01*
X141882097Y-86488341D01*
X141828223Y-86596091D01*
X141828223Y-86703841D01*
X141855160Y-86784653D01*
X141935972Y-86919340D01*
X142016784Y-87000152D01*
X142151471Y-87080964D01*
X142232284Y-87107902D01*
X142340033Y-87107902D01*
X142447783Y-87054027D01*
X142501658Y-87000152D01*
X142555532Y-86892402D01*
X142555532Y-86838528D01*
X142366971Y-86649966D01*
X142259221Y-86757715D01*
X142851844Y-86649966D02*
X142286158Y-86084280D01*
X142501658Y-85868781D01*
X142582470Y-85841844D01*
X142636345Y-85841844D01*
X142717157Y-85868781D01*
X142797969Y-85949593D01*
X142824906Y-86030406D01*
X142824906Y-86084280D01*
X142797969Y-86165093D01*
X142582470Y-86380592D01*
X143713841Y-85787969D02*
X143390592Y-86111218D01*
X143552216Y-85949593D02*
X142986531Y-85383908D01*
X143013468Y-85518595D01*
X143013468Y-85626345D01*
X142986531Y-85707157D01*
X143821590Y-84925972D02*
X144198714Y-85303096D01*
X143471404Y-84845160D02*
X143740778Y-85383908D01*
X144090964Y-85033722D01*
X142089722Y-88920592D02*
X142008910Y-88947529D01*
X141928097Y-89028341D01*
X141874223Y-89136091D01*
X141874223Y-89243841D01*
X141901160Y-89324653D01*
X141981972Y-89459340D01*
X142062784Y-89540152D01*
X142197471Y-89620964D01*
X142278284Y-89647902D01*
X142386033Y-89647902D01*
X142493783Y-89594027D01*
X142547658Y-89540152D01*
X142601532Y-89432402D01*
X142601532Y-89378528D01*
X142412971Y-89189966D01*
X142305221Y-89297715D01*
X142897844Y-89189966D02*
X142332158Y-88624280D01*
X142547658Y-88408781D01*
X142628470Y-88381844D01*
X142682345Y-88381844D01*
X142763157Y-88408781D01*
X142843969Y-88489593D01*
X142870906Y-88570406D01*
X142870906Y-88624280D01*
X142843969Y-88705093D01*
X142628470Y-88920592D01*
X143759841Y-88327969D02*
X143436592Y-88651218D01*
X143598216Y-88489593D02*
X143032531Y-87923908D01*
X143059468Y-88058595D01*
X143059468Y-88166345D01*
X143032531Y-88247157D01*
X143705966Y-87250473D02*
X143436592Y-87519847D01*
X143679028Y-87816158D01*
X143679028Y-87762284D01*
X143705966Y-87681471D01*
X143840653Y-87546784D01*
X143921465Y-87519847D01*
X143975340Y-87519847D01*
X144056152Y-87546784D01*
X144190839Y-87681471D01*
X144217776Y-87762284D01*
X144217776Y-87816158D01*
X144190839Y-87896971D01*
X144056152Y-88031658D01*
X143975340Y-88058595D01*
X143921465Y-88058595D01*
X168197722Y-88920592D02*
X168116910Y-88947529D01*
X168036097Y-89028341D01*
X167982223Y-89136091D01*
X167982223Y-89243841D01*
X168009160Y-89324653D01*
X168089972Y-89459340D01*
X168170784Y-89540152D01*
X168305471Y-89620964D01*
X168386284Y-89647902D01*
X168494033Y-89647902D01*
X168601783Y-89594027D01*
X168655658Y-89540152D01*
X168709532Y-89432402D01*
X168709532Y-89378528D01*
X168520971Y-89189966D01*
X168413221Y-89297715D01*
X169005844Y-89189966D02*
X168440158Y-88624280D01*
X168655658Y-88408781D01*
X168736470Y-88381844D01*
X168790345Y-88381844D01*
X168871157Y-88408781D01*
X168951969Y-88489593D01*
X168978906Y-88570406D01*
X168978906Y-88624280D01*
X168951969Y-88705093D01*
X168736470Y-88920592D01*
X169867841Y-88327969D02*
X169544592Y-88651218D01*
X169706216Y-88489593D02*
X169140531Y-87923908D01*
X169167468Y-88058595D01*
X169167468Y-88166345D01*
X169140531Y-88247157D01*
X169787028Y-87277410D02*
X169679279Y-87385160D01*
X169652341Y-87465972D01*
X169652341Y-87519847D01*
X169679279Y-87654534D01*
X169760091Y-87789221D01*
X169975590Y-88004720D01*
X170056402Y-88031658D01*
X170110277Y-88031658D01*
X170191089Y-88004720D01*
X170298839Y-87896971D01*
X170325776Y-87816158D01*
X170325776Y-87762284D01*
X170298839Y-87681471D01*
X170164152Y-87546784D01*
X170083340Y-87519847D01*
X170029465Y-87519847D01*
X169948653Y-87546784D01*
X169840903Y-87654534D01*
X169813966Y-87735346D01*
X169813966Y-87789221D01*
X169840903Y-87870033D01*
X168197722Y-86380592D02*
X168116910Y-86407529D01*
X168036097Y-86488341D01*
X167982223Y-86596091D01*
X167982223Y-86703841D01*
X168009160Y-86784653D01*
X168089972Y-86919340D01*
X168170784Y-87000152D01*
X168305471Y-87080964D01*
X168386284Y-87107902D01*
X168494033Y-87107902D01*
X168601783Y-87054027D01*
X168655658Y-87000152D01*
X168709532Y-86892402D01*
X168709532Y-86838528D01*
X168520971Y-86649966D01*
X168413221Y-86757715D01*
X169005844Y-86649966D02*
X168440158Y-86084280D01*
X168655658Y-85868781D01*
X168736470Y-85841844D01*
X168790345Y-85841844D01*
X168871157Y-85868781D01*
X168951969Y-85949593D01*
X168978906Y-86030406D01*
X168978906Y-86084280D01*
X168951969Y-86165093D01*
X168736470Y-86380592D01*
X169867841Y-85787969D02*
X169544592Y-86111218D01*
X169706216Y-85949593D02*
X169140531Y-85383908D01*
X169167468Y-85518595D01*
X169167468Y-85626345D01*
X169140531Y-85707157D01*
X169490717Y-85033722D02*
X169867841Y-84656598D01*
X170191089Y-85464720D01*
X168197722Y-81300592D02*
X168116910Y-81327529D01*
X168036097Y-81408341D01*
X167982223Y-81516091D01*
X167982223Y-81623841D01*
X168009160Y-81704653D01*
X168089972Y-81839340D01*
X168170784Y-81920152D01*
X168305471Y-82000964D01*
X168386284Y-82027902D01*
X168494033Y-82027902D01*
X168601783Y-81974027D01*
X168655658Y-81920152D01*
X168709532Y-81812402D01*
X168709532Y-81758528D01*
X168520971Y-81569966D01*
X168413221Y-81677715D01*
X169005844Y-81569966D02*
X168440158Y-81004280D01*
X168655658Y-80788781D01*
X168736470Y-80761844D01*
X168790345Y-80761844D01*
X168871157Y-80788781D01*
X168951969Y-80869593D01*
X168978906Y-80950406D01*
X168978906Y-81004280D01*
X168951969Y-81085093D01*
X168736470Y-81300592D01*
X169867841Y-80707969D02*
X169544592Y-81031218D01*
X169706216Y-80869593D02*
X169140531Y-80303908D01*
X169167468Y-80438595D01*
X169167468Y-80546345D01*
X169140531Y-80627157D01*
X169867841Y-80061471D02*
X169787028Y-80088409D01*
X169733154Y-80088409D01*
X169652341Y-80061471D01*
X169625404Y-80034534D01*
X169598467Y-79953722D01*
X169598467Y-79899847D01*
X169625404Y-79819035D01*
X169733154Y-79711285D01*
X169813966Y-79684348D01*
X169867841Y-79684348D01*
X169948653Y-79711285D01*
X169975590Y-79738223D01*
X170002528Y-79819035D01*
X170002528Y-79872910D01*
X169975590Y-79953722D01*
X169867841Y-80061471D01*
X169840903Y-80142284D01*
X169840903Y-80196158D01*
X169867841Y-80276971D01*
X169975590Y-80384720D01*
X170056402Y-80411658D01*
X170110277Y-80411658D01*
X170191089Y-80384720D01*
X170298839Y-80276971D01*
X170325776Y-80196158D01*
X170325776Y-80142284D01*
X170298839Y-80061471D01*
X170191089Y-79953722D01*
X170110277Y-79926784D01*
X170056402Y-79926784D01*
X169975590Y-79953722D01*
X168197722Y-78760592D02*
X168116910Y-78787529D01*
X168036097Y-78868341D01*
X167982223Y-78976091D01*
X167982223Y-79083841D01*
X168009160Y-79164653D01*
X168089972Y-79299340D01*
X168170784Y-79380152D01*
X168305471Y-79460964D01*
X168386284Y-79487902D01*
X168494033Y-79487902D01*
X168601783Y-79434027D01*
X168655658Y-79380152D01*
X168709532Y-79272402D01*
X168709532Y-79218528D01*
X168520971Y-79029966D01*
X168413221Y-79137715D01*
X169005844Y-79029966D02*
X168440158Y-78464280D01*
X168655658Y-78248781D01*
X168736470Y-78221844D01*
X168790345Y-78221844D01*
X168871157Y-78248781D01*
X168951969Y-78329593D01*
X168978906Y-78410406D01*
X168978906Y-78464280D01*
X168951969Y-78545093D01*
X168736470Y-78760592D01*
X169867841Y-78167969D02*
X169544592Y-78491218D01*
X169706216Y-78329593D02*
X169140531Y-77763908D01*
X169167468Y-77898595D01*
X169167468Y-78006345D01*
X169140531Y-78087157D01*
X170137215Y-77898595D02*
X170244964Y-77790845D01*
X170271902Y-77710033D01*
X170271902Y-77656158D01*
X170244964Y-77521471D01*
X170164152Y-77386784D01*
X169948653Y-77171285D01*
X169867841Y-77144348D01*
X169813966Y-77144348D01*
X169733154Y-77171285D01*
X169625404Y-77279035D01*
X169598467Y-77359847D01*
X169598467Y-77413722D01*
X169625404Y-77494534D01*
X169760091Y-77629221D01*
X169840903Y-77656158D01*
X169894778Y-77656158D01*
X169975590Y-77629221D01*
X170083340Y-77521471D01*
X170110277Y-77440659D01*
X170110277Y-77386784D01*
X170083340Y-77305972D01*
X168197722Y-76220592D02*
X168116910Y-76247529D01*
X168036097Y-76328341D01*
X167982223Y-76436091D01*
X167982223Y-76543841D01*
X168009160Y-76624653D01*
X168089972Y-76759340D01*
X168170784Y-76840152D01*
X168305471Y-76920964D01*
X168386284Y-76947902D01*
X168494033Y-76947902D01*
X168601783Y-76894027D01*
X168655658Y-76840152D01*
X168709532Y-76732402D01*
X168709532Y-76678528D01*
X168520971Y-76489966D01*
X168413221Y-76597715D01*
X169005844Y-76489966D02*
X168440158Y-75924280D01*
X168655658Y-75708781D01*
X168736470Y-75681844D01*
X168790345Y-75681844D01*
X168871157Y-75708781D01*
X168951969Y-75789593D01*
X168978906Y-75870406D01*
X168978906Y-75924280D01*
X168951969Y-76005093D01*
X168736470Y-76220592D01*
X169032781Y-75439407D02*
X169032781Y-75385532D01*
X169059719Y-75304720D01*
X169194406Y-75170033D01*
X169275218Y-75143096D01*
X169329093Y-75143096D01*
X169409905Y-75170033D01*
X169463780Y-75223908D01*
X169517654Y-75331658D01*
X169517654Y-75978155D01*
X169867841Y-75627969D01*
X169652341Y-74712097D02*
X169706216Y-74658223D01*
X169787028Y-74631285D01*
X169840903Y-74631285D01*
X169921715Y-74658223D01*
X170056402Y-74739035D01*
X170191089Y-74873722D01*
X170271902Y-75008409D01*
X170298839Y-75089221D01*
X170298839Y-75143096D01*
X170271902Y-75223908D01*
X170218027Y-75277783D01*
X170137215Y-75304720D01*
X170083340Y-75304720D01*
X170002528Y-75277783D01*
X169867841Y-75196971D01*
X169733154Y-75062284D01*
X169652341Y-74927597D01*
X169625404Y-74846784D01*
X169625404Y-74792910D01*
X169652341Y-74712097D01*
X168197722Y-73690592D02*
X168116910Y-73717529D01*
X168036097Y-73798341D01*
X167982223Y-73906091D01*
X167982223Y-74013841D01*
X168009160Y-74094653D01*
X168089972Y-74229340D01*
X168170784Y-74310152D01*
X168305471Y-74390964D01*
X168386284Y-74417902D01*
X168494033Y-74417902D01*
X168601783Y-74364027D01*
X168655658Y-74310152D01*
X168709532Y-74202402D01*
X168709532Y-74148528D01*
X168520971Y-73959966D01*
X168413221Y-74067715D01*
X169005844Y-73959966D02*
X168440158Y-73394280D01*
X168655658Y-73178781D01*
X168736470Y-73151844D01*
X168790345Y-73151844D01*
X168871157Y-73178781D01*
X168951969Y-73259593D01*
X168978906Y-73340406D01*
X168978906Y-73394280D01*
X168951969Y-73475093D01*
X168736470Y-73690592D01*
X169032781Y-72909407D02*
X169032781Y-72855532D01*
X169059719Y-72774720D01*
X169194406Y-72640033D01*
X169275218Y-72613096D01*
X169329093Y-72613096D01*
X169409905Y-72640033D01*
X169463780Y-72693908D01*
X169517654Y-72801658D01*
X169517654Y-73448155D01*
X169867841Y-73097969D01*
X170406589Y-72559221D02*
X170083340Y-72882470D01*
X170244964Y-72720845D02*
X169679279Y-72155160D01*
X169706216Y-72289847D01*
X169706216Y-72397597D01*
X169679279Y-72478409D01*
X168197722Y-68600592D02*
X168116910Y-68627529D01*
X168036097Y-68708341D01*
X167982223Y-68816091D01*
X167982223Y-68923841D01*
X168009160Y-69004653D01*
X168089972Y-69139340D01*
X168170784Y-69220152D01*
X168305471Y-69300964D01*
X168386284Y-69327902D01*
X168494033Y-69327902D01*
X168601783Y-69274027D01*
X168655658Y-69220152D01*
X168709532Y-69112402D01*
X168709532Y-69058528D01*
X168520971Y-68869966D01*
X168413221Y-68977715D01*
X169005844Y-68869966D02*
X168440158Y-68304280D01*
X168655658Y-68088781D01*
X168736470Y-68061844D01*
X168790345Y-68061844D01*
X168871157Y-68088781D01*
X168951969Y-68169593D01*
X168978906Y-68250406D01*
X168978906Y-68304280D01*
X168951969Y-68385093D01*
X168736470Y-68600592D01*
X169032781Y-67819407D02*
X169032781Y-67765532D01*
X169059719Y-67684720D01*
X169194406Y-67550033D01*
X169275218Y-67523096D01*
X169329093Y-67523096D01*
X169409905Y-67550033D01*
X169463780Y-67603908D01*
X169517654Y-67711658D01*
X169517654Y-68358155D01*
X169867841Y-68007969D01*
X169571529Y-67280659D02*
X169571529Y-67226784D01*
X169598467Y-67145972D01*
X169733154Y-67011285D01*
X169813966Y-66984348D01*
X169867841Y-66984348D01*
X169948653Y-67011285D01*
X170002528Y-67065160D01*
X170056402Y-67172910D01*
X170056402Y-67819407D01*
X170406589Y-67469221D01*
X168938375Y-66343435D02*
X168480439Y-66262622D01*
X168615126Y-66666683D02*
X168049441Y-66100998D01*
X168264940Y-65885499D01*
X168345752Y-65858561D01*
X168399627Y-65858561D01*
X168480439Y-65885499D01*
X168561251Y-65966311D01*
X168588189Y-66047123D01*
X168588189Y-66100998D01*
X168561251Y-66181810D01*
X168345752Y-66397309D01*
X168615126Y-65535312D02*
X169073062Y-65993248D01*
X169153874Y-66020186D01*
X169207749Y-66020186D01*
X169288561Y-65993248D01*
X169396311Y-65885499D01*
X169423248Y-65804687D01*
X169423248Y-65750812D01*
X169396311Y-65669999D01*
X168938375Y-65212064D01*
X169773435Y-65508375D02*
X169207749Y-64942690D01*
X170096683Y-65185126D01*
X169530998Y-64619441D01*
X168197722Y-63520592D02*
X168116910Y-63547529D01*
X168036097Y-63628341D01*
X167982223Y-63736091D01*
X167982223Y-63843841D01*
X168009160Y-63924653D01*
X168089972Y-64059340D01*
X168170784Y-64140152D01*
X168305471Y-64220964D01*
X168386284Y-64247902D01*
X168494033Y-64247902D01*
X168601783Y-64194027D01*
X168655658Y-64140152D01*
X168709532Y-64032402D01*
X168709532Y-63978528D01*
X168520971Y-63789966D01*
X168413221Y-63897715D01*
X169005844Y-63789966D02*
X168440158Y-63224280D01*
X168655658Y-63008781D01*
X168736470Y-62981844D01*
X168790345Y-62981844D01*
X168871157Y-63008781D01*
X168951969Y-63089593D01*
X168978906Y-63170406D01*
X168978906Y-63224280D01*
X168951969Y-63305093D01*
X168736470Y-63520592D01*
X169032781Y-62739407D02*
X169032781Y-62685532D01*
X169059719Y-62604720D01*
X169194406Y-62470033D01*
X169275218Y-62443096D01*
X169329093Y-62443096D01*
X169409905Y-62470033D01*
X169463780Y-62523908D01*
X169517654Y-62631658D01*
X169517654Y-63278155D01*
X169867841Y-62927969D01*
X169787028Y-61877410D02*
X169679279Y-61985160D01*
X169652341Y-62065972D01*
X169652341Y-62119847D01*
X169679279Y-62254534D01*
X169760091Y-62389221D01*
X169975590Y-62604720D01*
X170056402Y-62631658D01*
X170110277Y-62631658D01*
X170191089Y-62604720D01*
X170298839Y-62496971D01*
X170325776Y-62416158D01*
X170325776Y-62362284D01*
X170298839Y-62281471D01*
X170164152Y-62146784D01*
X170083340Y-62119847D01*
X170029465Y-62119847D01*
X169948653Y-62146784D01*
X169840903Y-62254534D01*
X169813966Y-62335346D01*
X169813966Y-62389221D01*
X169840903Y-62470033D01*
X168197722Y-60990592D02*
X168116910Y-61017529D01*
X168036097Y-61098341D01*
X167982223Y-61206091D01*
X167982223Y-61313841D01*
X168009160Y-61394653D01*
X168089972Y-61529340D01*
X168170784Y-61610152D01*
X168305471Y-61690964D01*
X168386284Y-61717902D01*
X168494033Y-61717902D01*
X168601783Y-61664027D01*
X168655658Y-61610152D01*
X168709532Y-61502402D01*
X168709532Y-61448528D01*
X168520971Y-61259966D01*
X168413221Y-61367715D01*
X169005844Y-61259966D02*
X168440158Y-60694280D01*
X168655658Y-60478781D01*
X168736470Y-60451844D01*
X168790345Y-60451844D01*
X168871157Y-60478781D01*
X168951969Y-60559593D01*
X168978906Y-60640406D01*
X168978906Y-60694280D01*
X168951969Y-60775093D01*
X168736470Y-60990592D01*
X169032781Y-60209407D02*
X169032781Y-60155532D01*
X169059719Y-60074720D01*
X169194406Y-59940033D01*
X169275218Y-59913096D01*
X169329093Y-59913096D01*
X169409905Y-59940033D01*
X169463780Y-59993908D01*
X169517654Y-60101658D01*
X169517654Y-60748155D01*
X169867841Y-60397969D01*
X169490717Y-59643722D02*
X169867841Y-59266598D01*
X170191089Y-60074720D01*
X168197722Y-55646592D02*
X168116910Y-55673529D01*
X168036097Y-55754341D01*
X167982223Y-55862091D01*
X167982223Y-55969841D01*
X168009160Y-56050653D01*
X168089972Y-56185340D01*
X168170784Y-56266152D01*
X168305471Y-56346964D01*
X168386284Y-56373902D01*
X168494033Y-56373902D01*
X168601783Y-56320027D01*
X168655658Y-56266152D01*
X168709532Y-56158402D01*
X168709532Y-56104528D01*
X168520971Y-55915966D01*
X168413221Y-56023715D01*
X169005844Y-55915966D02*
X168440158Y-55350280D01*
X168655658Y-55134781D01*
X168736470Y-55107844D01*
X168790345Y-55107844D01*
X168871157Y-55134781D01*
X168951969Y-55215593D01*
X168978906Y-55296406D01*
X168978906Y-55350280D01*
X168951969Y-55431093D01*
X168736470Y-55646592D01*
X169032781Y-54865407D02*
X169032781Y-54811532D01*
X169059719Y-54730720D01*
X169194406Y-54596033D01*
X169275218Y-54569096D01*
X169329093Y-54569096D01*
X169409905Y-54596033D01*
X169463780Y-54649908D01*
X169517654Y-54757658D01*
X169517654Y-55404155D01*
X169867841Y-55053969D01*
X169867841Y-54407471D02*
X169787028Y-54434409D01*
X169733154Y-54434409D01*
X169652341Y-54407471D01*
X169625404Y-54380534D01*
X169598467Y-54299722D01*
X169598467Y-54245847D01*
X169625404Y-54165035D01*
X169733154Y-54057285D01*
X169813966Y-54030348D01*
X169867841Y-54030348D01*
X169948653Y-54057285D01*
X169975590Y-54084223D01*
X170002528Y-54165035D01*
X170002528Y-54218910D01*
X169975590Y-54299722D01*
X169867841Y-54407471D01*
X169840903Y-54488284D01*
X169840903Y-54542158D01*
X169867841Y-54622971D01*
X169975590Y-54730720D01*
X170056402Y-54757658D01*
X170110277Y-54757658D01*
X170191089Y-54730720D01*
X170298839Y-54622971D01*
X170325776Y-54542158D01*
X170325776Y-54488284D01*
X170298839Y-54407471D01*
X170191089Y-54299722D01*
X170110277Y-54272784D01*
X170056402Y-54272784D01*
X169975590Y-54299722D01*
X168254788Y-53933773D02*
X168524162Y-53664399D01*
X168362537Y-54149272D02*
X167985414Y-53395025D01*
X168739661Y-53772149D01*
X168928223Y-53583587D02*
X168362537Y-53017902D01*
X168497224Y-52883215D01*
X168604974Y-52829340D01*
X168712723Y-52829340D01*
X168793536Y-52856277D01*
X168928223Y-52937089D01*
X169009035Y-53017902D01*
X169089847Y-53152589D01*
X169116784Y-53233401D01*
X169116784Y-53341150D01*
X169062910Y-53448900D01*
X168928223Y-53583587D01*
X169763282Y-52640778D02*
X169763282Y-52694653D01*
X169709407Y-52802402D01*
X169655532Y-52856277D01*
X169547783Y-52910152D01*
X169440033Y-52910152D01*
X169359221Y-52883215D01*
X169224534Y-52802402D01*
X169143722Y-52721590D01*
X169062910Y-52586903D01*
X169035972Y-52506091D01*
X169035972Y-52398341D01*
X169089847Y-52290592D01*
X169143722Y-52236717D01*
X169251471Y-52182842D01*
X169305346Y-52182842D01*
X169978781Y-52640778D02*
X170409780Y-52209780D01*
X169844094Y-51536345D02*
X170598341Y-51913468D01*
X170221218Y-51159221D01*
X171298714Y-51213096D02*
X170840778Y-51132284D01*
X170975465Y-51536345D02*
X170409780Y-50970659D01*
X170625279Y-50755160D01*
X170706091Y-50728223D01*
X170759966Y-50728223D01*
X170840778Y-50755160D01*
X170921590Y-50835972D01*
X170948528Y-50916784D01*
X170948528Y-50970659D01*
X170921590Y-51051471D01*
X170706091Y-51266971D01*
X171244839Y-50674348D02*
X171433401Y-50485786D01*
X171810524Y-50701285D02*
X171541150Y-50970659D01*
X170975465Y-50404974D01*
X171244839Y-50135600D01*
X171945211Y-49973975D02*
X171756650Y-50162537D01*
X172052961Y-50458849D02*
X171487276Y-49893163D01*
X171756650Y-49623789D01*
X167989847Y-50890592D02*
X168340033Y-50540406D01*
X168366971Y-50944467D01*
X168447783Y-50863654D01*
X168528595Y-50836717D01*
X168582470Y-50836717D01*
X168663282Y-50863654D01*
X168797969Y-50998341D01*
X168824906Y-51079154D01*
X168824906Y-51133028D01*
X168797969Y-51213841D01*
X168636345Y-51375465D01*
X168555532Y-51402402D01*
X168501658Y-51402402D01*
X168501658Y-50378781D02*
X169255905Y-50755905D01*
X168878781Y-50001658D01*
X169013468Y-49866971D02*
X169363654Y-49516784D01*
X169390592Y-49920845D01*
X169471404Y-49840033D01*
X169552216Y-49813096D01*
X169606091Y-49813096D01*
X169686903Y-49840033D01*
X169821590Y-49974720D01*
X169848528Y-50055532D01*
X169848528Y-50109407D01*
X169821590Y-50190219D01*
X169659966Y-50351844D01*
X169579154Y-50378781D01*
X169525279Y-50378781D01*
X168022131Y-48358308D02*
X168372317Y-48008122D01*
X168399255Y-48412183D01*
X168480067Y-48331370D01*
X168560879Y-48304433D01*
X168614754Y-48304433D01*
X168695566Y-48331370D01*
X168830253Y-48466057D01*
X168857190Y-48546870D01*
X168857190Y-48600744D01*
X168830253Y-48681557D01*
X168668629Y-48843181D01*
X168587816Y-48870118D01*
X168533942Y-48870118D01*
X168533942Y-47846497D02*
X169288189Y-48223621D01*
X168911065Y-47469374D01*
X169045752Y-47334687D02*
X169395938Y-46984500D01*
X169422876Y-47388561D01*
X169503688Y-47307749D01*
X169584500Y-47280812D01*
X169638375Y-47280812D01*
X169719187Y-47307749D01*
X169853874Y-47442436D01*
X169880812Y-47523248D01*
X169880812Y-47577123D01*
X169853874Y-47657935D01*
X169692250Y-47819560D01*
X169611438Y-47846497D01*
X169557563Y-47846497D01*
X170123248Y-47496311D02*
X170554247Y-47065312D01*
X170338748Y-46580439D02*
X170527309Y-46391877D01*
X170904433Y-46607377D02*
X170635059Y-46876751D01*
X170069374Y-46311065D01*
X170338748Y-46041691D01*
X171146870Y-46364940D02*
X170581184Y-45799255D01*
X171470118Y-46041691D01*
X170904433Y-45476006D01*
X161420473Y-43469966D02*
X162174720Y-43847089D01*
X161797597Y-43092842D01*
X162497969Y-43469966D02*
X162605719Y-43416091D01*
X162740406Y-43281404D01*
X162767343Y-43200592D01*
X162767343Y-43146717D01*
X162740406Y-43065905D01*
X162686531Y-43012030D01*
X162605719Y-42985093D01*
X162551844Y-42985093D01*
X162471032Y-43012030D01*
X162336345Y-43092842D01*
X162255532Y-43119780D01*
X162201658Y-43119780D01*
X162120845Y-43092842D01*
X162066971Y-43038967D01*
X162040033Y-42958155D01*
X162040033Y-42904280D01*
X162066971Y-42823468D01*
X162201658Y-42688781D01*
X162309407Y-42634906D01*
X162928967Y-42554094D02*
X163198341Y-42823468D01*
X162444094Y-42446345D02*
X162928967Y-42554094D01*
X162821218Y-42069221D01*
X163521590Y-42446345D02*
X163629340Y-42392470D01*
X163764027Y-42257783D01*
X163790964Y-42176971D01*
X163790964Y-42123096D01*
X163764027Y-42042284D01*
X163710152Y-41988409D01*
X163629340Y-41961471D01*
X163575465Y-41961471D01*
X163494653Y-41988409D01*
X163359966Y-42069221D01*
X163279154Y-42096158D01*
X163225279Y-42096158D01*
X163144467Y-42069221D01*
X163090592Y-42015346D01*
X163063654Y-41934534D01*
X163063654Y-41880659D01*
X163090592Y-41799847D01*
X163225279Y-41665160D01*
X163333028Y-41611285D01*
X168053129Y-40927309D02*
X168807377Y-41304433D01*
X168430253Y-40550186D01*
X169076751Y-40442436D02*
X169184500Y-40388561D01*
X169238375Y-40388561D01*
X169319187Y-40415499D01*
X169400000Y-40496311D01*
X169426937Y-40577123D01*
X169426937Y-40630998D01*
X169400000Y-40711810D01*
X169184500Y-40927309D01*
X168618815Y-40361624D01*
X168807377Y-40173062D01*
X168888189Y-40146125D01*
X168942064Y-40146125D01*
X169022876Y-40173062D01*
X169076751Y-40226937D01*
X169103688Y-40307749D01*
X169103688Y-40361624D01*
X169076751Y-40442436D01*
X168888189Y-40630998D01*
X169184500Y-39795938D02*
X169642436Y-40253874D01*
X169723248Y-40280812D01*
X169777123Y-40280812D01*
X169857935Y-40253874D01*
X169965685Y-40146125D01*
X169992622Y-40065312D01*
X169992622Y-40011438D01*
X169965685Y-39930625D01*
X169507749Y-39472690D01*
X170288934Y-39769001D02*
X170396683Y-39715126D01*
X170531370Y-39580439D01*
X170558308Y-39499627D01*
X170558308Y-39445752D01*
X170531370Y-39364940D01*
X170477496Y-39311065D01*
X170396683Y-39284128D01*
X170342809Y-39284128D01*
X170261996Y-39311065D01*
X170127309Y-39391877D01*
X170046497Y-39418815D01*
X169992622Y-39418815D01*
X169911810Y-39391877D01*
X169857935Y-39338003D01*
X169830998Y-39257190D01*
X169830998Y-39203316D01*
X169857935Y-39122503D01*
X169992622Y-38987816D01*
X170100372Y-38933942D01*
X142586158Y-45498155D02*
X142505346Y-45525093D01*
X142424534Y-45605905D01*
X142370659Y-45713654D01*
X142370659Y-45821404D01*
X142397597Y-45902216D01*
X142478409Y-46036903D01*
X142559221Y-46117715D01*
X142693908Y-46198528D01*
X142774720Y-46225465D01*
X142882470Y-46225465D01*
X142990219Y-46171590D01*
X143044094Y-46117715D01*
X143097969Y-46009966D01*
X143097969Y-45956091D01*
X142909407Y-45767529D01*
X142801658Y-45875279D01*
X143394280Y-45767529D02*
X142828595Y-45201844D01*
X143717529Y-45444280D01*
X143151844Y-44878595D01*
X143986903Y-45174906D02*
X143421218Y-44609221D01*
X143555905Y-44474534D01*
X143663654Y-44420659D01*
X143771404Y-44420659D01*
X143852216Y-44447597D01*
X143986903Y-44528409D01*
X144067715Y-44609221D01*
X144148528Y-44743908D01*
X144175465Y-44824720D01*
X144175465Y-44932470D01*
X144121590Y-45040219D01*
X143986903Y-45174906D01*
X142586158Y-58198155D02*
X142505346Y-58225093D01*
X142424534Y-58305905D01*
X142370659Y-58413654D01*
X142370659Y-58521404D01*
X142397597Y-58602216D01*
X142478409Y-58736903D01*
X142559221Y-58817715D01*
X142693908Y-58898528D01*
X142774720Y-58925465D01*
X142882470Y-58925465D01*
X142990219Y-58871590D01*
X143044094Y-58817715D01*
X143097969Y-58709966D01*
X143097969Y-58656091D01*
X142909407Y-58467529D01*
X142801658Y-58575279D01*
X143394280Y-58467529D02*
X142828595Y-57901844D01*
X143717529Y-58144280D01*
X143151844Y-57578595D01*
X143986903Y-57874906D02*
X143421218Y-57309221D01*
X143555905Y-57174534D01*
X143663654Y-57120659D01*
X143771404Y-57120659D01*
X143852216Y-57147597D01*
X143986903Y-57228409D01*
X144067715Y-57309221D01*
X144148528Y-57443908D01*
X144175465Y-57524720D01*
X144175465Y-57632470D01*
X144121590Y-57740219D01*
X143986903Y-57874906D01*
X142586158Y-70898155D02*
X142505346Y-70925093D01*
X142424534Y-71005905D01*
X142370659Y-71113654D01*
X142370659Y-71221404D01*
X142397597Y-71302216D01*
X142478409Y-71436903D01*
X142559221Y-71517715D01*
X142693908Y-71598528D01*
X142774720Y-71625465D01*
X142882470Y-71625465D01*
X142990219Y-71571590D01*
X143044094Y-71517715D01*
X143097969Y-71409966D01*
X143097969Y-71356091D01*
X142909407Y-71167529D01*
X142801658Y-71275279D01*
X143394280Y-71167529D02*
X142828595Y-70601844D01*
X143717529Y-70844280D01*
X143151844Y-70278595D01*
X143986903Y-70574906D02*
X143421218Y-70009221D01*
X143555905Y-69874534D01*
X143663654Y-69820659D01*
X143771404Y-69820659D01*
X143852216Y-69847597D01*
X143986903Y-69928409D01*
X144067715Y-70009221D01*
X144148528Y-70143908D01*
X144175465Y-70224720D01*
X144175465Y-70332470D01*
X144121590Y-70440219D01*
X143986903Y-70574906D01*
X142586158Y-83598155D02*
X142505346Y-83625093D01*
X142424534Y-83705905D01*
X142370659Y-83813654D01*
X142370659Y-83921404D01*
X142397597Y-84002216D01*
X142478409Y-84136903D01*
X142559221Y-84217715D01*
X142693908Y-84298528D01*
X142774720Y-84325465D01*
X142882470Y-84325465D01*
X142990219Y-84271590D01*
X143044094Y-84217715D01*
X143097969Y-84109966D01*
X143097969Y-84056091D01*
X142909407Y-83867529D01*
X142801658Y-83975279D01*
X143394280Y-83867529D02*
X142828595Y-83301844D01*
X143717529Y-83544280D01*
X143151844Y-82978595D01*
X143986903Y-83274906D02*
X143421218Y-82709221D01*
X143555905Y-82574534D01*
X143663654Y-82520659D01*
X143771404Y-82520659D01*
X143852216Y-82547597D01*
X143986903Y-82628409D01*
X144067715Y-82709221D01*
X144148528Y-82843908D01*
X144175465Y-82924720D01*
X144175465Y-83032470D01*
X144121590Y-83140219D01*
X143986903Y-83274906D01*
X168186158Y-83598155D02*
X168105346Y-83625093D01*
X168024534Y-83705905D01*
X167970659Y-83813654D01*
X167970659Y-83921404D01*
X167997597Y-84002216D01*
X168078409Y-84136903D01*
X168159221Y-84217715D01*
X168293908Y-84298528D01*
X168374720Y-84325465D01*
X168482470Y-84325465D01*
X168590219Y-84271590D01*
X168644094Y-84217715D01*
X168697969Y-84109966D01*
X168697969Y-84056091D01*
X168509407Y-83867529D01*
X168401658Y-83975279D01*
X168994280Y-83867529D02*
X168428595Y-83301844D01*
X169317529Y-83544280D01*
X168751844Y-82978595D01*
X169586903Y-83274906D02*
X169021218Y-82709221D01*
X169155905Y-82574534D01*
X169263654Y-82520659D01*
X169371404Y-82520659D01*
X169452216Y-82547597D01*
X169586903Y-82628409D01*
X169667715Y-82709221D01*
X169748528Y-82843908D01*
X169775465Y-82924720D01*
X169775465Y-83032470D01*
X169721590Y-83140219D01*
X169586903Y-83274906D01*
X168186158Y-70898155D02*
X168105346Y-70925093D01*
X168024534Y-71005905D01*
X167970659Y-71113654D01*
X167970659Y-71221404D01*
X167997597Y-71302216D01*
X168078409Y-71436903D01*
X168159221Y-71517715D01*
X168293908Y-71598528D01*
X168374720Y-71625465D01*
X168482470Y-71625465D01*
X168590219Y-71571590D01*
X168644094Y-71517715D01*
X168697969Y-71409966D01*
X168697969Y-71356091D01*
X168509407Y-71167529D01*
X168401658Y-71275279D01*
X168994280Y-71167529D02*
X168428595Y-70601844D01*
X169317529Y-70844280D01*
X168751844Y-70278595D01*
X169586903Y-70574906D02*
X169021218Y-70009221D01*
X169155905Y-69874534D01*
X169263654Y-69820659D01*
X169371404Y-69820659D01*
X169452216Y-69847597D01*
X169586903Y-69928409D01*
X169667715Y-70009221D01*
X169748528Y-70143908D01*
X169775465Y-70224720D01*
X169775465Y-70332470D01*
X169721590Y-70440219D01*
X169586903Y-70574906D01*
X168186158Y-45498155D02*
X168105346Y-45525093D01*
X168024534Y-45605905D01*
X167970659Y-45713654D01*
X167970659Y-45821404D01*
X167997597Y-45902216D01*
X168078409Y-46036903D01*
X168159221Y-46117715D01*
X168293908Y-46198528D01*
X168374720Y-46225465D01*
X168482470Y-46225465D01*
X168590219Y-46171590D01*
X168644094Y-46117715D01*
X168697969Y-46009966D01*
X168697969Y-45956091D01*
X168509407Y-45767529D01*
X168401658Y-45875279D01*
X168994280Y-45767529D02*
X168428595Y-45201844D01*
X169317529Y-45444280D01*
X168751844Y-44878595D01*
X169586903Y-45174906D02*
X169021218Y-44609221D01*
X169155905Y-44474534D01*
X169263654Y-44420659D01*
X169371404Y-44420659D01*
X169452216Y-44447597D01*
X169586903Y-44528409D01*
X169667715Y-44609221D01*
X169748528Y-44743908D01*
X169775465Y-44824720D01*
X169775465Y-44932470D01*
X169721590Y-45040219D01*
X169586903Y-45174906D01*
X168251597Y-59140964D02*
X168520971Y-58871590D01*
X168359346Y-59356463D02*
X167982223Y-58602216D01*
X168736470Y-58979340D01*
X168682595Y-57955719D02*
X168601783Y-57982656D01*
X168520971Y-58063468D01*
X168467096Y-58171218D01*
X168467096Y-58278967D01*
X168494033Y-58359780D01*
X168574845Y-58494467D01*
X168655658Y-58575279D01*
X168790345Y-58656091D01*
X168871157Y-58683028D01*
X168978906Y-58683028D01*
X169086656Y-58629154D01*
X169140531Y-58575279D01*
X169194406Y-58467529D01*
X169194406Y-58413654D01*
X169005844Y-58225093D01*
X168898094Y-58332842D01*
X169490717Y-58225093D02*
X168925032Y-57659407D01*
X169813966Y-57901844D01*
X169248280Y-57336158D01*
X170083340Y-57632470D02*
X169517654Y-57066784D01*
X169652341Y-56932097D01*
X169760091Y-56878223D01*
X169867841Y-56878223D01*
X169948653Y-56905160D01*
X170083340Y-56985972D01*
X170164152Y-57066784D01*
X170244964Y-57201471D01*
X170271902Y-57282284D01*
X170271902Y-57390033D01*
X170218027Y-57497783D01*
X170083340Y-57632470D01*
X148590476Y-90923809D02*
X148704761Y-90961904D01*
X148895238Y-90961904D01*
X148971428Y-90923809D01*
X149009523Y-90885714D01*
X149047619Y-90809523D01*
X149047619Y-90733333D01*
X149009523Y-90657142D01*
X148971428Y-90619047D01*
X148895238Y-90580952D01*
X148742857Y-90542857D01*
X148666666Y-90504761D01*
X148628571Y-90466666D01*
X148590476Y-90390476D01*
X148590476Y-90314285D01*
X148628571Y-90238095D01*
X148666666Y-90200000D01*
X148742857Y-90161904D01*
X148933333Y-90161904D01*
X149047619Y-90200000D01*
X149314285Y-90161904D02*
X149504761Y-90961904D01*
X149657142Y-90390476D01*
X149809523Y-90961904D01*
X150000000Y-90161904D01*
X150761904Y-90885714D02*
X150723809Y-90923809D01*
X150609523Y-90961904D01*
X150533333Y-90961904D01*
X150419047Y-90923809D01*
X150342857Y-90847619D01*
X150304761Y-90771428D01*
X150266666Y-90619047D01*
X150266666Y-90504761D01*
X150304761Y-90352380D01*
X150342857Y-90276190D01*
X150419047Y-90200000D01*
X150533333Y-90161904D01*
X150609523Y-90161904D01*
X150723809Y-90200000D01*
X150761904Y-90238095D01*
X151485714Y-90961904D02*
X151104761Y-90961904D01*
X151104761Y-90161904D01*
X151752380Y-90961904D02*
X151752380Y-90161904D01*
X152209523Y-90961904D02*
X151866666Y-90504761D01*
X152209523Y-90161904D02*
X151752380Y-90619047D01*
X160004761Y-90923809D02*
X160119047Y-90961904D01*
X160309523Y-90961904D01*
X160385714Y-90923809D01*
X160423809Y-90885714D01*
X160461904Y-90809523D01*
X160461904Y-90733333D01*
X160423809Y-90657142D01*
X160385714Y-90619047D01*
X160309523Y-90580952D01*
X160157142Y-90542857D01*
X160080952Y-90504761D01*
X160042857Y-90466666D01*
X160004761Y-90390476D01*
X160004761Y-90314285D01*
X160042857Y-90238095D01*
X160080952Y-90200000D01*
X160157142Y-90161904D01*
X160347619Y-90161904D01*
X160461904Y-90200000D01*
X160728571Y-90161904D02*
X160919047Y-90961904D01*
X161071428Y-90390476D01*
X161223809Y-90961904D01*
X161414285Y-90161904D01*
X161719047Y-90961904D02*
X161719047Y-90161904D01*
X161909523Y-90161904D01*
X162023809Y-90200000D01*
X162100000Y-90276190D01*
X162138095Y-90352380D01*
X162176190Y-90504761D01*
X162176190Y-90619047D01*
X162138095Y-90771428D01*
X162100000Y-90847619D01*
X162023809Y-90923809D01*
X161909523Y-90961904D01*
X161719047Y-90961904D01*
X162519047Y-90961904D02*
X162519047Y-90161904D01*
X163052380Y-90161904D02*
X163204761Y-90161904D01*
X163280952Y-90200000D01*
X163357142Y-90276190D01*
X163395238Y-90428571D01*
X163395238Y-90695238D01*
X163357142Y-90847619D01*
X163280952Y-90923809D01*
X163204761Y-90961904D01*
X163052380Y-90961904D01*
X162976190Y-90923809D01*
X162900000Y-90847619D01*
X162861904Y-90695238D01*
X162861904Y-90428571D01*
X162900000Y-90276190D01*
X162976190Y-90200000D01*
X163052380Y-90161904D01*
X139662380Y-96821904D02*
X138662380Y-96821904D01*
X139662380Y-96250476D02*
X139090952Y-96679047D01*
X138662380Y-96250476D02*
X139233809Y-96821904D01*
X120612380Y-96821904D02*
X119612380Y-96821904D01*
X120612380Y-96250476D02*
X120040952Y-96679047D01*
X119612380Y-96250476D02*
X120183809Y-96821904D01*
X101562380Y-96821904D02*
X100562380Y-96821904D01*
X101562380Y-96250476D02*
X100990952Y-96679047D01*
X100562380Y-96250476D02*
X101133809Y-96821904D01*
X82512380Y-96821904D02*
X81512380Y-96821904D01*
X82512380Y-96250476D02*
X81940952Y-96679047D01*
X81512380Y-96250476D02*
X82083809Y-96821904D01*
X139662380Y-73409404D02*
X138662380Y-73409404D01*
X139662380Y-72837976D02*
X139090952Y-73266547D01*
X138662380Y-72837976D02*
X139233809Y-73409404D01*
X120612380Y-73009404D02*
X119612380Y-73009404D01*
X120612380Y-72437976D02*
X120040952Y-72866547D01*
X119612380Y-72437976D02*
X120183809Y-73009404D01*
X101562380Y-73009404D02*
X100562380Y-73009404D01*
X101562380Y-72437976D02*
X100990952Y-72866547D01*
X100562380Y-72437976D02*
X101133809Y-73009404D01*
X82512380Y-73009404D02*
X81512380Y-73009404D01*
X82512380Y-72437976D02*
X81940952Y-72866547D01*
X81512380Y-72437976D02*
X82083809Y-73009404D01*
X139662380Y-49196904D02*
X138662380Y-49196904D01*
X139662380Y-48625476D02*
X139090952Y-49054047D01*
X138662380Y-48625476D02*
X139233809Y-49196904D01*
X120612380Y-49196904D02*
X119612380Y-49196904D01*
X120612380Y-48625476D02*
X120040952Y-49054047D01*
X119612380Y-48625476D02*
X120183809Y-49196904D01*
X101562380Y-49196904D02*
X100562380Y-49196904D01*
X101562380Y-48625476D02*
X100990952Y-49054047D01*
X100562380Y-48625476D02*
X101133809Y-49196904D01*
X82512380Y-49196904D02*
X81512380Y-49196904D01*
X82512380Y-48625476D02*
X81940952Y-49054047D01*
X81512380Y-48625476D02*
X82083809Y-49196904D01*
M02*
