%FSLAX45Y45*%
G04 Gerber Fmt 4.5, Leading zero omitted, Abs format (unit mm)*
G04 Created by KiCad (PCBNEW (5.1.9)-1) date 2021-05-27 04:07:02*
%MOMM*%
%LPD*%
G01*
G04 APERTURE LIST*
%TA.AperFunction,Profile*%
%ADD10C,0.100000*%
%TD*%
%ADD11C,0.200000*%
%ADD12C,0.300000*%
G04 APERTURE END LIST*
D10*
X17100000Y-3880000D02*
G75*
G02*
X17300000Y-4080000I0J-200000D01*
G01*
X17300000Y-10650000D02*
G75*
G02*
X17100000Y-10850000I-200000J0D01*
G01*
X6540000Y-10850000D02*
G75*
G02*
X6340000Y-10650000I0J200000D01*
G01*
X6340000Y-4080000D02*
X6340000Y-10650000D01*
X17100000Y-3880000D02*
X6540000Y-3880000D01*
X6340000Y-4080000D02*
G75*
G02*
X6540000Y-3880000I200000J0D01*
G01*
X17300000Y-10650000D02*
X17300000Y-4080000D01*
X6540000Y-10850000D02*
X17100000Y-10850000D01*
D11*
X8346000Y-4091500D02*
X8426000Y-4171500D01*
X8426000Y-4091500D02*
X8346000Y-4171500D01*
X8346000Y-4853500D02*
X8426000Y-4933500D01*
X8426000Y-4853500D02*
X8346000Y-4933500D01*
X8346000Y-6472750D02*
X8426000Y-6552750D01*
X8426000Y-6472750D02*
X8346000Y-6552750D01*
X8346000Y-7234750D02*
X8426000Y-7314750D01*
X8426000Y-7234750D02*
X8346000Y-7314750D01*
X8346000Y-8854000D02*
X8426000Y-8934000D01*
X8426000Y-8854000D02*
X8346000Y-8934000D01*
X8346000Y-9616000D02*
X8426000Y-9696000D01*
X8426000Y-9616000D02*
X8346000Y-9696000D01*
X10251000Y-4091500D02*
X10331000Y-4171500D01*
X10331000Y-4091500D02*
X10251000Y-4171500D01*
X10251000Y-4853500D02*
X10331000Y-4933500D01*
X10331000Y-4853500D02*
X10251000Y-4933500D01*
X10251000Y-6472750D02*
X10331000Y-6552750D01*
X10331000Y-6472750D02*
X10251000Y-6552750D01*
X10251000Y-7234750D02*
X10331000Y-7314750D01*
X10331000Y-7234750D02*
X10251000Y-7314750D01*
X10251000Y-8854000D02*
X10331000Y-8934000D01*
X10331000Y-8854000D02*
X10251000Y-8934000D01*
X10251000Y-9616000D02*
X10331000Y-9696000D01*
X10331000Y-9616000D02*
X10251000Y-9696000D01*
X12156000Y-4091500D02*
X12236000Y-4171500D01*
X12236000Y-4091500D02*
X12156000Y-4171500D01*
X12156000Y-4853500D02*
X12236000Y-4933500D01*
X12236000Y-4853500D02*
X12156000Y-4933500D01*
X12156000Y-6472750D02*
X12236000Y-6552750D01*
X12236000Y-6472750D02*
X12156000Y-6552750D01*
X12156000Y-7234750D02*
X12236000Y-7314750D01*
X12236000Y-7234750D02*
X12156000Y-7314750D01*
X12156000Y-8854000D02*
X12236000Y-8934000D01*
X12236000Y-8854000D02*
X12156000Y-8934000D01*
X12156000Y-9616000D02*
X12236000Y-9696000D01*
X12236000Y-9616000D02*
X12156000Y-9696000D01*
X14061000Y-4091500D02*
X14141000Y-4171500D01*
X14141000Y-4091500D02*
X14061000Y-4171500D01*
X14061000Y-4853500D02*
X14141000Y-4933500D01*
X14141000Y-4853500D02*
X14061000Y-4933500D01*
X14061000Y-6512750D02*
X14141000Y-6592750D01*
X14141000Y-6512750D02*
X14061000Y-6592750D01*
X14061000Y-7274750D02*
X14141000Y-7354750D01*
X14141000Y-7274750D02*
X14061000Y-7354750D01*
X14061000Y-8854000D02*
X14141000Y-8934000D01*
X14141000Y-8854000D02*
X14061000Y-8934000D01*
X14061000Y-9616000D02*
X14141000Y-9696000D01*
X14141000Y-9616000D02*
X14061000Y-9696000D01*
X14772000Y-4027000D02*
G75*
G03*
X14772000Y-4027000I-51000J0D01*
G01*
X14772000Y-4281000D02*
G75*
G03*
X14772000Y-4281000I-51000J0D01*
G01*
X14772000Y-4535000D02*
G75*
G03*
X14772000Y-4535000I-51000J0D01*
G01*
X14772000Y-4789000D02*
G75*
G03*
X14772000Y-4789000I-51000J0D01*
G01*
X14772000Y-5043000D02*
G75*
G03*
X14772000Y-5043000I-51000J0D01*
G01*
X14772000Y-5297000D02*
G75*
G03*
X14772000Y-5297000I-51000J0D01*
G01*
X14772000Y-5551000D02*
G75*
G03*
X14772000Y-5551000I-51000J0D01*
G01*
X14772000Y-5805000D02*
G75*
G03*
X14772000Y-5805000I-51000J0D01*
G01*
X14772000Y-6059000D02*
G75*
G03*
X14772000Y-6059000I-51000J0D01*
G01*
X14772000Y-6313000D02*
G75*
G03*
X14772000Y-6313000I-51000J0D01*
G01*
X14772000Y-6567000D02*
G75*
G03*
X14772000Y-6567000I-51000J0D01*
G01*
X14772000Y-6821000D02*
G75*
G03*
X14772000Y-6821000I-51000J0D01*
G01*
X14772000Y-7075000D02*
G75*
G03*
X14772000Y-7075000I-51000J0D01*
G01*
X14772000Y-7329000D02*
G75*
G03*
X14772000Y-7329000I-51000J0D01*
G01*
X14772000Y-7583000D02*
G75*
G03*
X14772000Y-7583000I-51000J0D01*
G01*
X14772000Y-7837000D02*
G75*
G03*
X14772000Y-7837000I-51000J0D01*
G01*
X14772000Y-8091000D02*
G75*
G03*
X14772000Y-8091000I-51000J0D01*
G01*
X14772000Y-8345000D02*
G75*
G03*
X14772000Y-8345000I-51000J0D01*
G01*
X14772000Y-8599000D02*
G75*
G03*
X14772000Y-8599000I-51000J0D01*
G01*
X14772000Y-8853000D02*
G75*
G03*
X14772000Y-8853000I-51000J0D01*
G01*
X15407000Y-8830000D02*
G75*
G03*
X15407000Y-8830000I-51000J0D01*
G01*
X15661000Y-8830000D02*
G75*
G03*
X15661000Y-8830000I-51000J0D01*
G01*
X15915000Y-8830000D02*
G75*
G03*
X15915000Y-8830000I-51000J0D01*
G01*
X16550000Y-4027000D02*
G75*
G03*
X16550000Y-4027000I-51000J0D01*
G01*
X16550000Y-4281000D02*
G75*
G03*
X16550000Y-4281000I-51000J0D01*
G01*
X16550000Y-4535000D02*
G75*
G03*
X16550000Y-4535000I-51000J0D01*
G01*
X16550000Y-4789000D02*
G75*
G03*
X16550000Y-4789000I-51000J0D01*
G01*
X16550000Y-5043000D02*
G75*
G03*
X16550000Y-5043000I-51000J0D01*
G01*
X16550000Y-5297000D02*
G75*
G03*
X16550000Y-5297000I-51000J0D01*
G01*
X16550000Y-5551000D02*
G75*
G03*
X16550000Y-5551000I-51000J0D01*
G01*
X16550000Y-5805000D02*
G75*
G03*
X16550000Y-5805000I-51000J0D01*
G01*
X16550000Y-6059000D02*
G75*
G03*
X16550000Y-6059000I-51000J0D01*
G01*
X16550000Y-6313000D02*
G75*
G03*
X16550000Y-6313000I-51000J0D01*
G01*
X16550000Y-6567000D02*
G75*
G03*
X16550000Y-6567000I-51000J0D01*
G01*
X16550000Y-6821000D02*
G75*
G03*
X16550000Y-6821000I-51000J0D01*
G01*
X16550000Y-7075000D02*
G75*
G03*
X16550000Y-7075000I-51000J0D01*
G01*
X16550000Y-7329000D02*
G75*
G03*
X16550000Y-7329000I-51000J0D01*
G01*
X16550000Y-7583000D02*
G75*
G03*
X16550000Y-7583000I-51000J0D01*
G01*
X16550000Y-7837000D02*
G75*
G03*
X16550000Y-7837000I-51000J0D01*
G01*
X16550000Y-8091000D02*
G75*
G03*
X16550000Y-8091000I-51000J0D01*
G01*
X16550000Y-8345000D02*
G75*
G03*
X16550000Y-8345000I-51000J0D01*
G01*
X16550000Y-8599000D02*
G75*
G03*
X16550000Y-8599000I-51000J0D01*
G01*
X16550000Y-8853000D02*
G75*
G03*
X16550000Y-8853000I-51000J0D01*
G01*
X7152500Y-4516000D02*
X7152500Y-4663000D01*
X7079000Y-4589500D02*
X7226000Y-4589500D01*
X7152500Y-6897250D02*
X7152500Y-7044250D01*
X7079000Y-6970750D02*
X7226000Y-6970750D01*
X7152500Y-9278500D02*
X7152500Y-9425500D01*
X7079000Y-9352000D02*
X7226000Y-9352000D01*
X7787500Y-4262000D02*
X7787500Y-4409000D01*
X7714000Y-4335500D02*
X7861000Y-4335500D01*
X7787500Y-6643250D02*
X7787500Y-6790250D01*
X7714000Y-6716750D02*
X7861000Y-6716750D01*
X7787500Y-9024500D02*
X7787500Y-9171500D01*
X7714000Y-9098000D02*
X7861000Y-9098000D01*
X9057500Y-4516000D02*
X9057500Y-4663000D01*
X8984000Y-4589500D02*
X9131000Y-4589500D01*
X9057500Y-6897250D02*
X9057500Y-7044250D01*
X8984000Y-6970750D02*
X9131000Y-6970750D01*
X9057500Y-9278500D02*
X9057500Y-9425500D01*
X8984000Y-9352000D02*
X9131000Y-9352000D01*
X9692500Y-4262000D02*
X9692500Y-4409000D01*
X9619000Y-4335500D02*
X9766000Y-4335500D01*
X9692500Y-6643250D02*
X9692500Y-6790250D01*
X9619000Y-6716750D02*
X9766000Y-6716750D01*
X9692500Y-9024500D02*
X9692500Y-9171500D01*
X9619000Y-9098000D02*
X9766000Y-9098000D01*
X10962500Y-4516000D02*
X10962500Y-4663000D01*
X10889000Y-4589500D02*
X11036000Y-4589500D01*
X10962500Y-6897250D02*
X10962500Y-7044250D01*
X10889000Y-6970750D02*
X11036000Y-6970750D01*
X10962500Y-9278500D02*
X10962500Y-9425500D01*
X10889000Y-9352000D02*
X11036000Y-9352000D01*
X11597500Y-4262000D02*
X11597500Y-4409000D01*
X11524000Y-4335500D02*
X11671000Y-4335500D01*
X11597500Y-6643250D02*
X11597500Y-6790250D01*
X11524000Y-6716750D02*
X11671000Y-6716750D01*
X11597500Y-9024500D02*
X11597500Y-9171500D01*
X11524000Y-9098000D02*
X11671000Y-9098000D01*
X12867500Y-4516000D02*
X12867500Y-4663000D01*
X12794000Y-4589500D02*
X12941000Y-4589500D01*
X12867500Y-6897250D02*
X12867500Y-7044250D01*
X12794000Y-6970750D02*
X12941000Y-6970750D01*
X12867500Y-9278500D02*
X12867500Y-9425500D01*
X12794000Y-9352000D02*
X12941000Y-9352000D01*
X13502500Y-4262000D02*
X13502500Y-4409000D01*
X13429000Y-4335500D02*
X13576000Y-4335500D01*
X13502500Y-6643250D02*
X13502500Y-6790250D01*
X13429000Y-6716750D02*
X13576000Y-6716750D01*
X13502500Y-9024500D02*
X13502500Y-9171500D01*
X13429000Y-9098000D02*
X13576000Y-9098000D01*
D12*
X6621428Y-11320714D02*
X6621428Y-11020714D01*
X6692857Y-11020714D01*
X6735714Y-11035000D01*
X6764286Y-11063572D01*
X6778571Y-11092143D01*
X6792857Y-11149286D01*
X6792857Y-11192143D01*
X6778571Y-11249286D01*
X6764286Y-11277857D01*
X6735714Y-11306429D01*
X6692857Y-11320714D01*
X6621428Y-11320714D01*
X6921428Y-11320714D02*
X6921428Y-11120714D01*
X6921428Y-11177857D02*
X6935714Y-11149286D01*
X6950000Y-11135000D01*
X6978571Y-11120714D01*
X7007143Y-11120714D01*
X7107143Y-11320714D02*
X7107143Y-11120714D01*
X7107143Y-11020714D02*
X7092857Y-11035000D01*
X7107143Y-11049286D01*
X7121428Y-11035000D01*
X7107143Y-11020714D01*
X7107143Y-11049286D01*
X7292857Y-11320714D02*
X7264286Y-11306429D01*
X7250000Y-11277857D01*
X7250000Y-11020714D01*
X7450000Y-11320714D02*
X7421428Y-11306429D01*
X7407143Y-11277857D01*
X7407143Y-11020714D01*
X7792857Y-11320714D02*
X7792857Y-11020714D01*
X7892857Y-11235000D01*
X7992857Y-11020714D01*
X7992857Y-11320714D01*
X8264286Y-11320714D02*
X8264286Y-11163572D01*
X8250000Y-11135000D01*
X8221428Y-11120714D01*
X8164286Y-11120714D01*
X8135714Y-11135000D01*
X8264286Y-11306429D02*
X8235714Y-11320714D01*
X8164286Y-11320714D01*
X8135714Y-11306429D01*
X8121428Y-11277857D01*
X8121428Y-11249286D01*
X8135714Y-11220714D01*
X8164286Y-11206429D01*
X8235714Y-11206429D01*
X8264286Y-11192143D01*
X8407143Y-11120714D02*
X8407143Y-11420714D01*
X8407143Y-11135000D02*
X8435714Y-11120714D01*
X8492857Y-11120714D01*
X8521428Y-11135000D01*
X8535714Y-11149286D01*
X8550000Y-11177857D01*
X8550000Y-11263571D01*
X8535714Y-11292143D01*
X8521428Y-11306429D01*
X8492857Y-11320714D01*
X8435714Y-11320714D01*
X8407143Y-11306429D01*
X8678571Y-11292143D02*
X8692857Y-11306429D01*
X8678571Y-11320714D01*
X8664286Y-11306429D01*
X8678571Y-11292143D01*
X8678571Y-11320714D01*
X8678571Y-11135000D02*
X8692857Y-11149286D01*
X8678571Y-11163572D01*
X8664286Y-11149286D01*
X8678571Y-11135000D01*
X8678571Y-11163572D01*
X6255000Y-11775000D02*
X6335000Y-11855000D01*
X6335000Y-11775000D02*
X6255000Y-11855000D01*
X6678571Y-11650714D02*
X6707143Y-11650714D01*
X6735714Y-11665000D01*
X6750000Y-11679286D01*
X6764286Y-11707857D01*
X6778571Y-11765000D01*
X6778571Y-11836429D01*
X6764286Y-11893571D01*
X6750000Y-11922143D01*
X6735714Y-11936429D01*
X6707143Y-11950714D01*
X6678571Y-11950714D01*
X6650000Y-11936429D01*
X6635714Y-11922143D01*
X6621428Y-11893571D01*
X6607143Y-11836429D01*
X6607143Y-11765000D01*
X6621428Y-11707857D01*
X6635714Y-11679286D01*
X6650000Y-11665000D01*
X6678571Y-11650714D01*
X6907143Y-11922143D02*
X6921428Y-11936429D01*
X6907143Y-11950714D01*
X6892857Y-11936429D01*
X6907143Y-11922143D01*
X6907143Y-11950714D01*
X7092857Y-11779286D02*
X7064286Y-11765000D01*
X7050000Y-11750714D01*
X7035714Y-11722143D01*
X7035714Y-11707857D01*
X7050000Y-11679286D01*
X7064286Y-11665000D01*
X7092857Y-11650714D01*
X7150000Y-11650714D01*
X7178571Y-11665000D01*
X7192857Y-11679286D01*
X7207143Y-11707857D01*
X7207143Y-11722143D01*
X7192857Y-11750714D01*
X7178571Y-11765000D01*
X7150000Y-11779286D01*
X7092857Y-11779286D01*
X7064286Y-11793571D01*
X7050000Y-11807857D01*
X7035714Y-11836429D01*
X7035714Y-11893571D01*
X7050000Y-11922143D01*
X7064286Y-11936429D01*
X7092857Y-11950714D01*
X7150000Y-11950714D01*
X7178571Y-11936429D01*
X7192857Y-11922143D01*
X7207143Y-11893571D01*
X7207143Y-11836429D01*
X7192857Y-11807857D01*
X7178571Y-11793571D01*
X7150000Y-11779286D01*
X7392857Y-11650714D02*
X7421428Y-11650714D01*
X7450000Y-11665000D01*
X7464286Y-11679286D01*
X7478571Y-11707857D01*
X7492857Y-11765000D01*
X7492857Y-11836429D01*
X7478571Y-11893571D01*
X7464286Y-11922143D01*
X7450000Y-11936429D01*
X7421428Y-11950714D01*
X7392857Y-11950714D01*
X7364286Y-11936429D01*
X7350000Y-11922143D01*
X7335714Y-11893571D01*
X7321428Y-11836429D01*
X7321428Y-11765000D01*
X7335714Y-11707857D01*
X7350000Y-11679286D01*
X7364286Y-11665000D01*
X7392857Y-11650714D01*
X7621428Y-11950714D02*
X7621428Y-11750714D01*
X7621428Y-11779286D02*
X7635714Y-11765000D01*
X7664286Y-11750714D01*
X7707143Y-11750714D01*
X7735714Y-11765000D01*
X7750000Y-11793571D01*
X7750000Y-11950714D01*
X7750000Y-11793571D02*
X7764286Y-11765000D01*
X7792857Y-11750714D01*
X7835714Y-11750714D01*
X7864286Y-11765000D01*
X7878571Y-11793571D01*
X7878571Y-11950714D01*
X8021428Y-11950714D02*
X8021428Y-11750714D01*
X8021428Y-11779286D02*
X8035714Y-11765000D01*
X8064286Y-11750714D01*
X8107143Y-11750714D01*
X8135714Y-11765000D01*
X8150000Y-11793571D01*
X8150000Y-11950714D01*
X8150000Y-11793571D02*
X8164286Y-11765000D01*
X8192857Y-11750714D01*
X8235714Y-11750714D01*
X8264286Y-11765000D01*
X8278571Y-11793571D01*
X8278571Y-11950714D01*
X8864286Y-11636429D02*
X8607143Y-12022143D01*
X9250000Y-11650714D02*
X9278571Y-11650714D01*
X9307143Y-11665000D01*
X9321428Y-11679286D01*
X9335714Y-11707857D01*
X9350000Y-11765000D01*
X9350000Y-11836429D01*
X9335714Y-11893571D01*
X9321428Y-11922143D01*
X9307143Y-11936429D01*
X9278571Y-11950714D01*
X9250000Y-11950714D01*
X9221428Y-11936429D01*
X9207143Y-11922143D01*
X9192857Y-11893571D01*
X9178571Y-11836429D01*
X9178571Y-11765000D01*
X9192857Y-11707857D01*
X9207143Y-11679286D01*
X9221428Y-11665000D01*
X9250000Y-11650714D01*
X9478571Y-11922143D02*
X9492857Y-11936429D01*
X9478571Y-11950714D01*
X9464286Y-11936429D01*
X9478571Y-11922143D01*
X9478571Y-11950714D01*
X9678571Y-11650714D02*
X9707143Y-11650714D01*
X9735714Y-11665000D01*
X9750000Y-11679286D01*
X9764286Y-11707857D01*
X9778571Y-11765000D01*
X9778571Y-11836429D01*
X9764286Y-11893571D01*
X9750000Y-11922143D01*
X9735714Y-11936429D01*
X9707143Y-11950714D01*
X9678571Y-11950714D01*
X9650000Y-11936429D01*
X9635714Y-11922143D01*
X9621428Y-11893571D01*
X9607143Y-11836429D01*
X9607143Y-11765000D01*
X9621428Y-11707857D01*
X9635714Y-11679286D01*
X9650000Y-11665000D01*
X9678571Y-11650714D01*
X9878571Y-11650714D02*
X10064286Y-11650714D01*
X9964286Y-11765000D01*
X10007143Y-11765000D01*
X10035714Y-11779286D01*
X10050000Y-11793571D01*
X10064286Y-11822143D01*
X10064286Y-11893571D01*
X10050000Y-11922143D01*
X10035714Y-11936429D01*
X10007143Y-11950714D01*
X9921428Y-11950714D01*
X9892857Y-11936429D01*
X9878571Y-11922143D01*
X10350000Y-11950714D02*
X10178571Y-11950714D01*
X10264286Y-11950714D02*
X10264286Y-11650714D01*
X10235714Y-11693571D01*
X10207143Y-11722143D01*
X10178571Y-11736429D01*
X10464286Y-11650714D02*
X10464286Y-11707857D01*
X10578571Y-11650714D02*
X10578571Y-11707857D01*
X11021428Y-12065000D02*
X11007143Y-12050714D01*
X10978571Y-12007857D01*
X10964286Y-11979286D01*
X10950000Y-11936429D01*
X10935714Y-11865000D01*
X10935714Y-11807857D01*
X10950000Y-11736429D01*
X10964286Y-11693571D01*
X10978571Y-11665000D01*
X11007143Y-11622143D01*
X11021428Y-11607857D01*
X11121428Y-11679286D02*
X11135714Y-11665000D01*
X11164286Y-11650714D01*
X11235714Y-11650714D01*
X11264286Y-11665000D01*
X11278571Y-11679286D01*
X11292857Y-11707857D01*
X11292857Y-11736429D01*
X11278571Y-11779286D01*
X11107143Y-11950714D01*
X11292857Y-11950714D01*
X11550000Y-11750714D02*
X11550000Y-11950714D01*
X11478571Y-11636429D02*
X11407143Y-11850714D01*
X11592857Y-11850714D01*
X11935714Y-11950714D02*
X11935714Y-11650714D01*
X12064286Y-11950714D02*
X12064286Y-11793571D01*
X12050000Y-11765000D01*
X12021428Y-11750714D01*
X11978571Y-11750714D01*
X11950000Y-11765000D01*
X11935714Y-11779286D01*
X12250000Y-11950714D02*
X12221428Y-11936429D01*
X12207143Y-11922143D01*
X12192857Y-11893571D01*
X12192857Y-11807857D01*
X12207143Y-11779286D01*
X12221428Y-11765000D01*
X12250000Y-11750714D01*
X12292857Y-11750714D01*
X12321428Y-11765000D01*
X12335714Y-11779286D01*
X12350000Y-11807857D01*
X12350000Y-11893571D01*
X12335714Y-11922143D01*
X12321428Y-11936429D01*
X12292857Y-11950714D01*
X12250000Y-11950714D01*
X12521428Y-11950714D02*
X12492857Y-11936429D01*
X12478571Y-11907857D01*
X12478571Y-11650714D01*
X12750000Y-11936429D02*
X12721428Y-11950714D01*
X12664286Y-11950714D01*
X12635714Y-11936429D01*
X12621428Y-11907857D01*
X12621428Y-11793571D01*
X12635714Y-11765000D01*
X12664286Y-11750714D01*
X12721428Y-11750714D01*
X12750000Y-11765000D01*
X12764286Y-11793571D01*
X12764286Y-11822143D01*
X12621428Y-11850714D01*
X12878571Y-11936429D02*
X12907143Y-11950714D01*
X12964286Y-11950714D01*
X12992857Y-11936429D01*
X13007143Y-11907857D01*
X13007143Y-11893571D01*
X12992857Y-11865000D01*
X12964286Y-11850714D01*
X12921428Y-11850714D01*
X12892857Y-11836429D01*
X12878571Y-11807857D01*
X12878571Y-11793571D01*
X12892857Y-11765000D01*
X12921428Y-11750714D01*
X12964286Y-11750714D01*
X12992857Y-11765000D01*
X13107143Y-12065000D02*
X13121428Y-12050714D01*
X13150000Y-12007857D01*
X13164286Y-11979286D01*
X13178571Y-11936429D01*
X13192857Y-11865000D01*
X13192857Y-11807857D01*
X13178571Y-11736429D01*
X13164286Y-11693571D01*
X13150000Y-11665000D01*
X13121428Y-11622143D01*
X13107143Y-11607857D01*
X6335000Y-12211000D02*
G75*
G03*
X6335000Y-12211000I-51000J0D01*
G01*
X6778571Y-12346714D02*
X6607143Y-12346714D01*
X6692857Y-12346714D02*
X6692857Y-12046714D01*
X6664286Y-12089571D01*
X6635714Y-12118143D01*
X6607143Y-12132429D01*
X6907143Y-12318143D02*
X6921428Y-12332429D01*
X6907143Y-12346714D01*
X6892857Y-12332429D01*
X6907143Y-12318143D01*
X6907143Y-12346714D01*
X7107143Y-12046714D02*
X7135714Y-12046714D01*
X7164286Y-12061000D01*
X7178571Y-12075286D01*
X7192857Y-12103857D01*
X7207143Y-12161000D01*
X7207143Y-12232429D01*
X7192857Y-12289571D01*
X7178571Y-12318143D01*
X7164286Y-12332429D01*
X7135714Y-12346714D01*
X7107143Y-12346714D01*
X7078571Y-12332429D01*
X7064286Y-12318143D01*
X7050000Y-12289571D01*
X7035714Y-12232429D01*
X7035714Y-12161000D01*
X7050000Y-12103857D01*
X7064286Y-12075286D01*
X7078571Y-12061000D01*
X7107143Y-12046714D01*
X7321428Y-12075286D02*
X7335714Y-12061000D01*
X7364286Y-12046714D01*
X7435714Y-12046714D01*
X7464286Y-12061000D01*
X7478571Y-12075286D01*
X7492857Y-12103857D01*
X7492857Y-12132429D01*
X7478571Y-12175286D01*
X7307143Y-12346714D01*
X7492857Y-12346714D01*
X7621428Y-12346714D02*
X7621428Y-12146714D01*
X7621428Y-12175286D02*
X7635714Y-12161000D01*
X7664286Y-12146714D01*
X7707143Y-12146714D01*
X7735714Y-12161000D01*
X7750000Y-12189571D01*
X7750000Y-12346714D01*
X7750000Y-12189571D02*
X7764286Y-12161000D01*
X7792857Y-12146714D01*
X7835714Y-12146714D01*
X7864286Y-12161000D01*
X7878571Y-12189571D01*
X7878571Y-12346714D01*
X8021428Y-12346714D02*
X8021428Y-12146714D01*
X8021428Y-12175286D02*
X8035714Y-12161000D01*
X8064286Y-12146714D01*
X8107143Y-12146714D01*
X8135714Y-12161000D01*
X8150000Y-12189571D01*
X8150000Y-12346714D01*
X8150000Y-12189571D02*
X8164286Y-12161000D01*
X8192857Y-12146714D01*
X8235714Y-12146714D01*
X8264286Y-12161000D01*
X8278571Y-12189571D01*
X8278571Y-12346714D01*
X8864286Y-12032429D02*
X8607143Y-12418143D01*
X9250000Y-12046714D02*
X9278571Y-12046714D01*
X9307143Y-12061000D01*
X9321428Y-12075286D01*
X9335714Y-12103857D01*
X9350000Y-12161000D01*
X9350000Y-12232429D01*
X9335714Y-12289571D01*
X9321428Y-12318143D01*
X9307143Y-12332429D01*
X9278571Y-12346714D01*
X9250000Y-12346714D01*
X9221428Y-12332429D01*
X9207143Y-12318143D01*
X9192857Y-12289571D01*
X9178571Y-12232429D01*
X9178571Y-12161000D01*
X9192857Y-12103857D01*
X9207143Y-12075286D01*
X9221428Y-12061000D01*
X9250000Y-12046714D01*
X9478571Y-12318143D02*
X9492857Y-12332429D01*
X9478571Y-12346714D01*
X9464286Y-12332429D01*
X9478571Y-12318143D01*
X9478571Y-12346714D01*
X9678571Y-12046714D02*
X9707143Y-12046714D01*
X9735714Y-12061000D01*
X9750000Y-12075286D01*
X9764286Y-12103857D01*
X9778571Y-12161000D01*
X9778571Y-12232429D01*
X9764286Y-12289571D01*
X9750000Y-12318143D01*
X9735714Y-12332429D01*
X9707143Y-12346714D01*
X9678571Y-12346714D01*
X9650000Y-12332429D01*
X9635714Y-12318143D01*
X9621428Y-12289571D01*
X9607143Y-12232429D01*
X9607143Y-12161000D01*
X9621428Y-12103857D01*
X9635714Y-12075286D01*
X9650000Y-12061000D01*
X9678571Y-12046714D01*
X10035714Y-12146714D02*
X10035714Y-12346714D01*
X9964286Y-12032429D02*
X9892857Y-12246714D01*
X10078571Y-12246714D01*
X10250000Y-12046714D02*
X10278571Y-12046714D01*
X10307143Y-12061000D01*
X10321428Y-12075286D01*
X10335714Y-12103857D01*
X10350000Y-12161000D01*
X10350000Y-12232429D01*
X10335714Y-12289571D01*
X10321428Y-12318143D01*
X10307143Y-12332429D01*
X10278571Y-12346714D01*
X10250000Y-12346714D01*
X10221428Y-12332429D01*
X10207143Y-12318143D01*
X10192857Y-12289571D01*
X10178571Y-12232429D01*
X10178571Y-12161000D01*
X10192857Y-12103857D01*
X10207143Y-12075286D01*
X10221428Y-12061000D01*
X10250000Y-12046714D01*
X10464286Y-12046714D02*
X10464286Y-12103857D01*
X10578571Y-12046714D02*
X10578571Y-12103857D01*
X11021428Y-12461000D02*
X11007143Y-12446714D01*
X10978571Y-12403857D01*
X10964286Y-12375286D01*
X10950000Y-12332429D01*
X10935714Y-12261000D01*
X10935714Y-12203857D01*
X10950000Y-12132429D01*
X10964286Y-12089571D01*
X10978571Y-12061000D01*
X11007143Y-12018143D01*
X11021428Y-12003857D01*
X11264286Y-12146714D02*
X11264286Y-12346714D01*
X11192857Y-12032429D02*
X11121428Y-12246714D01*
X11307143Y-12246714D01*
X11392857Y-12046714D02*
X11578571Y-12046714D01*
X11478571Y-12161000D01*
X11521428Y-12161000D01*
X11550000Y-12175286D01*
X11564286Y-12189571D01*
X11578571Y-12218143D01*
X11578571Y-12289571D01*
X11564286Y-12318143D01*
X11550000Y-12332429D01*
X11521428Y-12346714D01*
X11435714Y-12346714D01*
X11407143Y-12332429D01*
X11392857Y-12318143D01*
X11935714Y-12346714D02*
X11935714Y-12046714D01*
X12064286Y-12346714D02*
X12064286Y-12189571D01*
X12050000Y-12161000D01*
X12021428Y-12146714D01*
X11978571Y-12146714D01*
X11950000Y-12161000D01*
X11935714Y-12175286D01*
X12250000Y-12346714D02*
X12221428Y-12332429D01*
X12207143Y-12318143D01*
X12192857Y-12289571D01*
X12192857Y-12203857D01*
X12207143Y-12175286D01*
X12221428Y-12161000D01*
X12250000Y-12146714D01*
X12292857Y-12146714D01*
X12321428Y-12161000D01*
X12335714Y-12175286D01*
X12350000Y-12203857D01*
X12350000Y-12289571D01*
X12335714Y-12318143D01*
X12321428Y-12332429D01*
X12292857Y-12346714D01*
X12250000Y-12346714D01*
X12521428Y-12346714D02*
X12492857Y-12332429D01*
X12478571Y-12303857D01*
X12478571Y-12046714D01*
X12750000Y-12332429D02*
X12721428Y-12346714D01*
X12664286Y-12346714D01*
X12635714Y-12332429D01*
X12621428Y-12303857D01*
X12621428Y-12189571D01*
X12635714Y-12161000D01*
X12664286Y-12146714D01*
X12721428Y-12146714D01*
X12750000Y-12161000D01*
X12764286Y-12189571D01*
X12764286Y-12218143D01*
X12621428Y-12246714D01*
X12878571Y-12332429D02*
X12907143Y-12346714D01*
X12964286Y-12346714D01*
X12992857Y-12332429D01*
X13007143Y-12303857D01*
X13007143Y-12289571D01*
X12992857Y-12261000D01*
X12964286Y-12246714D01*
X12921428Y-12246714D01*
X12892857Y-12232429D01*
X12878571Y-12203857D01*
X12878571Y-12189571D01*
X12892857Y-12161000D01*
X12921428Y-12146714D01*
X12964286Y-12146714D01*
X12992857Y-12161000D01*
X13107143Y-12461000D02*
X13121428Y-12446714D01*
X13150000Y-12403857D01*
X13164286Y-12375286D01*
X13178571Y-12332429D01*
X13192857Y-12261000D01*
X13192857Y-12203857D01*
X13178571Y-12132429D01*
X13164286Y-12089571D01*
X13150000Y-12061000D01*
X13121428Y-12018143D01*
X13107143Y-12003857D01*
X6261500Y-12533500D02*
X6261500Y-12680500D01*
X6188000Y-12607000D02*
X6335000Y-12607000D01*
X6778571Y-12742714D02*
X6607143Y-12742714D01*
X6692857Y-12742714D02*
X6692857Y-12442714D01*
X6664286Y-12485571D01*
X6635714Y-12514143D01*
X6607143Y-12528429D01*
X6907143Y-12714143D02*
X6921428Y-12728429D01*
X6907143Y-12742714D01*
X6892857Y-12728429D01*
X6907143Y-12714143D01*
X6907143Y-12742714D01*
X7178571Y-12542714D02*
X7178571Y-12742714D01*
X7107143Y-12428429D02*
X7035714Y-12642714D01*
X7221428Y-12642714D01*
X7307143Y-12442714D02*
X7507143Y-12442714D01*
X7378571Y-12742714D01*
X7621428Y-12742714D02*
X7621428Y-12542714D01*
X7621428Y-12571286D02*
X7635714Y-12557000D01*
X7664286Y-12542714D01*
X7707143Y-12542714D01*
X7735714Y-12557000D01*
X7750000Y-12585571D01*
X7750000Y-12742714D01*
X7750000Y-12585571D02*
X7764286Y-12557000D01*
X7792857Y-12542714D01*
X7835714Y-12542714D01*
X7864286Y-12557000D01*
X7878571Y-12585571D01*
X7878571Y-12742714D01*
X8021428Y-12742714D02*
X8021428Y-12542714D01*
X8021428Y-12571286D02*
X8035714Y-12557000D01*
X8064286Y-12542714D01*
X8107143Y-12542714D01*
X8135714Y-12557000D01*
X8150000Y-12585571D01*
X8150000Y-12742714D01*
X8150000Y-12585571D02*
X8164286Y-12557000D01*
X8192857Y-12542714D01*
X8235714Y-12542714D01*
X8264286Y-12557000D01*
X8278571Y-12585571D01*
X8278571Y-12742714D01*
X8864286Y-12428429D02*
X8607143Y-12814143D01*
X9250000Y-12442714D02*
X9278571Y-12442714D01*
X9307143Y-12457000D01*
X9321428Y-12471286D01*
X9335714Y-12499857D01*
X9350000Y-12557000D01*
X9350000Y-12628429D01*
X9335714Y-12685571D01*
X9321428Y-12714143D01*
X9307143Y-12728429D01*
X9278571Y-12742714D01*
X9250000Y-12742714D01*
X9221428Y-12728429D01*
X9207143Y-12714143D01*
X9192857Y-12685571D01*
X9178571Y-12628429D01*
X9178571Y-12557000D01*
X9192857Y-12499857D01*
X9207143Y-12471286D01*
X9221428Y-12457000D01*
X9250000Y-12442714D01*
X9478571Y-12714143D02*
X9492857Y-12728429D01*
X9478571Y-12742714D01*
X9464286Y-12728429D01*
X9478571Y-12714143D01*
X9478571Y-12742714D01*
X9678571Y-12442714D02*
X9707143Y-12442714D01*
X9735714Y-12457000D01*
X9750000Y-12471286D01*
X9764286Y-12499857D01*
X9778571Y-12557000D01*
X9778571Y-12628429D01*
X9764286Y-12685571D01*
X9750000Y-12714143D01*
X9735714Y-12728429D01*
X9707143Y-12742714D01*
X9678571Y-12742714D01*
X9650000Y-12728429D01*
X9635714Y-12714143D01*
X9621428Y-12685571D01*
X9607143Y-12628429D01*
X9607143Y-12557000D01*
X9621428Y-12499857D01*
X9635714Y-12471286D01*
X9650000Y-12457000D01*
X9678571Y-12442714D01*
X10050000Y-12442714D02*
X9907143Y-12442714D01*
X9892857Y-12585571D01*
X9907143Y-12571286D01*
X9935714Y-12557000D01*
X10007143Y-12557000D01*
X10035714Y-12571286D01*
X10050000Y-12585571D01*
X10064286Y-12614143D01*
X10064286Y-12685571D01*
X10050000Y-12714143D01*
X10035714Y-12728429D01*
X10007143Y-12742714D01*
X9935714Y-12742714D01*
X9907143Y-12728429D01*
X9892857Y-12714143D01*
X10235714Y-12571286D02*
X10207143Y-12557000D01*
X10192857Y-12542714D01*
X10178571Y-12514143D01*
X10178571Y-12499857D01*
X10192857Y-12471286D01*
X10207143Y-12457000D01*
X10235714Y-12442714D01*
X10292857Y-12442714D01*
X10321428Y-12457000D01*
X10335714Y-12471286D01*
X10350000Y-12499857D01*
X10350000Y-12514143D01*
X10335714Y-12542714D01*
X10321428Y-12557000D01*
X10292857Y-12571286D01*
X10235714Y-12571286D01*
X10207143Y-12585571D01*
X10192857Y-12599857D01*
X10178571Y-12628429D01*
X10178571Y-12685571D01*
X10192857Y-12714143D01*
X10207143Y-12728429D01*
X10235714Y-12742714D01*
X10292857Y-12742714D01*
X10321428Y-12728429D01*
X10335714Y-12714143D01*
X10350000Y-12685571D01*
X10350000Y-12628429D01*
X10335714Y-12599857D01*
X10321428Y-12585571D01*
X10292857Y-12571286D01*
X10464286Y-12442714D02*
X10464286Y-12499857D01*
X10578571Y-12442714D02*
X10578571Y-12499857D01*
X11021428Y-12857000D02*
X11007143Y-12842714D01*
X10978571Y-12799857D01*
X10964286Y-12771286D01*
X10950000Y-12728429D01*
X10935714Y-12657000D01*
X10935714Y-12599857D01*
X10950000Y-12528429D01*
X10964286Y-12485571D01*
X10978571Y-12457000D01*
X11007143Y-12414143D01*
X11021428Y-12399857D01*
X11121428Y-12471286D02*
X11135714Y-12457000D01*
X11164286Y-12442714D01*
X11235714Y-12442714D01*
X11264286Y-12457000D01*
X11278571Y-12471286D01*
X11292857Y-12499857D01*
X11292857Y-12528429D01*
X11278571Y-12571286D01*
X11107143Y-12742714D01*
X11292857Y-12742714D01*
X11550000Y-12542714D02*
X11550000Y-12742714D01*
X11478571Y-12428429D02*
X11407143Y-12642714D01*
X11592857Y-12642714D01*
X11935714Y-12742714D02*
X11935714Y-12442714D01*
X12064286Y-12742714D02*
X12064286Y-12585571D01*
X12050000Y-12557000D01*
X12021428Y-12542714D01*
X11978571Y-12542714D01*
X11950000Y-12557000D01*
X11935714Y-12571286D01*
X12250000Y-12742714D02*
X12221428Y-12728429D01*
X12207143Y-12714143D01*
X12192857Y-12685571D01*
X12192857Y-12599857D01*
X12207143Y-12571286D01*
X12221428Y-12557000D01*
X12250000Y-12542714D01*
X12292857Y-12542714D01*
X12321428Y-12557000D01*
X12335714Y-12571286D01*
X12350000Y-12599857D01*
X12350000Y-12685571D01*
X12335714Y-12714143D01*
X12321428Y-12728429D01*
X12292857Y-12742714D01*
X12250000Y-12742714D01*
X12521428Y-12742714D02*
X12492857Y-12728429D01*
X12478571Y-12699857D01*
X12478571Y-12442714D01*
X12750000Y-12728429D02*
X12721428Y-12742714D01*
X12664286Y-12742714D01*
X12635714Y-12728429D01*
X12621428Y-12699857D01*
X12621428Y-12585571D01*
X12635714Y-12557000D01*
X12664286Y-12542714D01*
X12721428Y-12542714D01*
X12750000Y-12557000D01*
X12764286Y-12585571D01*
X12764286Y-12614143D01*
X12621428Y-12642714D01*
X12878571Y-12728429D02*
X12907143Y-12742714D01*
X12964286Y-12742714D01*
X12992857Y-12728429D01*
X13007143Y-12699857D01*
X13007143Y-12685571D01*
X12992857Y-12657000D01*
X12964286Y-12642714D01*
X12921428Y-12642714D01*
X12892857Y-12628429D01*
X12878571Y-12599857D01*
X12878571Y-12585571D01*
X12892857Y-12557000D01*
X12921428Y-12542714D01*
X12964286Y-12542714D01*
X12992857Y-12557000D01*
X13107143Y-12857000D02*
X13121428Y-12842714D01*
X13150000Y-12799857D01*
X13164286Y-12771286D01*
X13178571Y-12728429D01*
X13192857Y-12657000D01*
X13192857Y-12599857D01*
X13178571Y-12528429D01*
X13164286Y-12485571D01*
X13150000Y-12457000D01*
X13121428Y-12414143D01*
X13107143Y-12399857D01*
M02*
