G04 #@! TF.GenerationSoftware,KiCad,Pcbnew,(5.1.9)-1*
G04 #@! TF.CreationDate,2021-06-04T20:59:22+01:00*
G04 #@! TF.ProjectId,EnvMCRO,456e764d-4352-44f2-9e6b-696361645f70,rev?*
G04 #@! TF.SameCoordinates,Original*
G04 #@! TF.FileFunction,Paste,Top*
G04 #@! TF.FilePolarity,Positive*
%FSLAX46Y46*%
G04 Gerber Fmt 4.6, Leading zero omitted, Abs format (unit mm)*
G04 Created by KiCad (PCBNEW (5.1.9)-1) date 2021-06-04 20:59:22*
%MOMM*%
%LPD*%
G01*
G04 APERTURE LIST*
%ADD10R,1.600000X0.850000*%
G04 APERTURE END LIST*
D10*
X130735000Y-104361000D03*
X130735000Y-106111000D03*
X134235000Y-104361000D03*
X134235000Y-106111000D03*
X111689000Y-104353000D03*
X111689000Y-106103000D03*
X115189000Y-104353000D03*
X115189000Y-106103000D03*
X92625000Y-104360000D03*
X92625000Y-106110000D03*
X96125000Y-104360000D03*
X96125000Y-106110000D03*
X73585000Y-104360000D03*
X73585000Y-106110000D03*
X77085000Y-104360000D03*
X77085000Y-106110000D03*
X130730000Y-80655000D03*
X130730000Y-82405000D03*
X134230000Y-80655000D03*
X134230000Y-82405000D03*
X111680000Y-80655000D03*
X111680000Y-82405000D03*
X115180000Y-80655000D03*
X115180000Y-82405000D03*
X92630000Y-80655000D03*
X92630000Y-82405000D03*
X96130000Y-80655000D03*
X96130000Y-82405000D03*
X73585000Y-80660000D03*
X73585000Y-82410000D03*
X77085000Y-80660000D03*
X77085000Y-82410000D03*
X130730000Y-56945000D03*
X130730000Y-58695000D03*
X134230000Y-56945000D03*
X134230000Y-58695000D03*
X111680000Y-56945000D03*
X111680000Y-58695000D03*
X115180000Y-56945000D03*
X115180000Y-58695000D03*
X92630000Y-56825000D03*
X92630000Y-58575000D03*
X96130000Y-56825000D03*
X96130000Y-58575000D03*
X73585000Y-56810000D03*
X73585000Y-58560000D03*
X77085000Y-56810000D03*
X77085000Y-58560000D03*
M02*
