G04 #@! TF.GenerationSoftware,KiCad,Pcbnew,(5.1.9)-1*
G04 #@! TF.CreationDate,2021-05-27T04:07:03+01:00*
G04 #@! TF.ProjectId,EnvMCRO,456e764d-4352-44f2-9e6b-696361645f70,rev?*
G04 #@! TF.SameCoordinates,Original*
G04 #@! TF.FileFunction,Soldermask,Top*
G04 #@! TF.FilePolarity,Negative*
%FSLAX46Y46*%
G04 Gerber Fmt 4.6, Leading zero omitted, Abs format (unit mm)*
G04 Created by KiCad (PCBNEW (5.1.9)-1) date 2021-05-27 04:07:03*
%MOMM*%
%LPD*%
G01*
G04 APERTURE LIST*
%ADD10C,0.153000*%
%ADD11C,0.010000*%
%ADD12O,1.700000X1.700000*%
%ADD13R,1.700000X3.500000*%
%ADD14R,1.700000X1.700000*%
%ADD15O,1.500000X1.500000*%
%ADD16O,1.800000X1.800000*%
%ADD17R,3.500000X1.700000*%
%ADD18C,2.200000*%
%ADD19C,3.987800*%
%ADD20C,1.750000*%
%ADD21O,1.600000X1.600000*%
%ADD22R,1.600000X1.600000*%
G04 APERTURE END LIST*
D10*
X69787069Y-107215476D02*
X69787069Y-105965476D01*
X70322783Y-107215476D02*
X70322783Y-106560714D01*
X70263259Y-106441666D01*
X70144211Y-106382142D01*
X69965640Y-106382142D01*
X69846592Y-106441666D01*
X69787069Y-106501190D01*
X70739450Y-106382142D02*
X71215640Y-106382142D01*
X70918021Y-105965476D02*
X70918021Y-107036904D01*
X70977545Y-107155952D01*
X71096592Y-107215476D01*
X71215640Y-107215476D01*
X71453735Y-106382142D02*
X71929926Y-106382142D01*
X71632307Y-105965476D02*
X71632307Y-107036904D01*
X71691830Y-107155952D01*
X71810878Y-107215476D01*
X71929926Y-107215476D01*
X72346592Y-106382142D02*
X72346592Y-107632142D01*
X72346592Y-106441666D02*
X72465640Y-106382142D01*
X72703735Y-106382142D01*
X72822783Y-106441666D01*
X72882307Y-106501190D01*
X72941830Y-106620238D01*
X72941830Y-106977380D01*
X72882307Y-107096428D01*
X72822783Y-107155952D01*
X72703735Y-107215476D01*
X72465640Y-107215476D01*
X72346592Y-107155952D01*
X73477545Y-107096428D02*
X73537069Y-107155952D01*
X73477545Y-107215476D01*
X73418021Y-107155952D01*
X73477545Y-107096428D01*
X73477545Y-107215476D01*
X73477545Y-106441666D02*
X73537069Y-106501190D01*
X73477545Y-106560714D01*
X73418021Y-106501190D01*
X73477545Y-106441666D01*
X73477545Y-106560714D01*
X74965640Y-105905952D02*
X73894211Y-107513095D01*
X76275164Y-105905952D02*
X75203735Y-107513095D01*
X77227545Y-106382142D02*
X77227545Y-107394047D01*
X77168021Y-107513095D01*
X77108497Y-107572619D01*
X76989450Y-107632142D01*
X76810878Y-107632142D01*
X76691830Y-107572619D01*
X77227545Y-107155952D02*
X77108497Y-107215476D01*
X76870402Y-107215476D01*
X76751354Y-107155952D01*
X76691830Y-107096428D01*
X76632307Y-106977380D01*
X76632307Y-106620238D01*
X76691830Y-106501190D01*
X76751354Y-106441666D01*
X76870402Y-106382142D01*
X77108497Y-106382142D01*
X77227545Y-106441666D01*
X77822783Y-107215476D02*
X77822783Y-106382142D01*
X77822783Y-105965476D02*
X77763259Y-106025000D01*
X77822783Y-106084523D01*
X77882307Y-106025000D01*
X77822783Y-105965476D01*
X77822783Y-106084523D01*
X78239450Y-106382142D02*
X78715640Y-106382142D01*
X78418021Y-105965476D02*
X78418021Y-107036904D01*
X78477545Y-107155952D01*
X78596592Y-107215476D01*
X78715640Y-107215476D01*
X79132307Y-107215476D02*
X79132307Y-105965476D01*
X79668021Y-107215476D02*
X79668021Y-106560714D01*
X79608497Y-106441666D01*
X79489450Y-106382142D01*
X79310878Y-106382142D01*
X79191830Y-106441666D01*
X79132307Y-106501190D01*
X80798973Y-106382142D02*
X80798973Y-107215476D01*
X80263259Y-106382142D02*
X80263259Y-107036904D01*
X80322783Y-107155952D01*
X80441830Y-107215476D01*
X80620402Y-107215476D01*
X80739450Y-107155952D01*
X80798973Y-107096428D01*
X81394211Y-107215476D02*
X81394211Y-105965476D01*
X81394211Y-106441666D02*
X81513259Y-106382142D01*
X81751354Y-106382142D01*
X81870402Y-106441666D01*
X81929926Y-106501190D01*
X81989450Y-106620238D01*
X81989450Y-106977380D01*
X81929926Y-107096428D01*
X81870402Y-107155952D01*
X81751354Y-107215476D01*
X81513259Y-107215476D01*
X81394211Y-107155952D01*
X82525164Y-107096428D02*
X82584688Y-107155952D01*
X82525164Y-107215476D01*
X82465640Y-107155952D01*
X82525164Y-107096428D01*
X82525164Y-107215476D01*
X83656116Y-107155952D02*
X83537069Y-107215476D01*
X83298973Y-107215476D01*
X83179926Y-107155952D01*
X83120402Y-107096428D01*
X83060878Y-106977380D01*
X83060878Y-106620238D01*
X83120402Y-106501190D01*
X83179926Y-106441666D01*
X83298973Y-106382142D01*
X83537069Y-106382142D01*
X83656116Y-106441666D01*
X84370402Y-107215476D02*
X84251354Y-107155952D01*
X84191830Y-107096428D01*
X84132307Y-106977380D01*
X84132307Y-106620238D01*
X84191830Y-106501190D01*
X84251354Y-106441666D01*
X84370402Y-106382142D01*
X84548973Y-106382142D01*
X84668021Y-106441666D01*
X84727545Y-106501190D01*
X84787069Y-106620238D01*
X84787069Y-106977380D01*
X84727545Y-107096428D01*
X84668021Y-107155952D01*
X84548973Y-107215476D01*
X84370402Y-107215476D01*
X85322783Y-107215476D02*
X85322783Y-106382142D01*
X85322783Y-106501190D02*
X85382307Y-106441666D01*
X85501354Y-106382142D01*
X85679926Y-106382142D01*
X85798973Y-106441666D01*
X85858497Y-106560714D01*
X85858497Y-107215476D01*
X85858497Y-106560714D02*
X85918021Y-106441666D01*
X86037069Y-106382142D01*
X86215640Y-106382142D01*
X86334688Y-106441666D01*
X86394211Y-106560714D01*
X86394211Y-107215476D01*
X87882307Y-105905952D02*
X86810878Y-107513095D01*
X88298973Y-106560714D02*
X88715640Y-106560714D01*
X88894211Y-107215476D02*
X88298973Y-107215476D01*
X88298973Y-105965476D01*
X88894211Y-105965476D01*
X89429926Y-106382142D02*
X89429926Y-107215476D01*
X89429926Y-106501190D02*
X89489450Y-106441666D01*
X89608497Y-106382142D01*
X89787069Y-106382142D01*
X89906116Y-106441666D01*
X89965640Y-106560714D01*
X89965640Y-107215476D01*
X90441830Y-106382142D02*
X90739450Y-107215476D01*
X91037069Y-106382142D01*
X91513259Y-107215476D02*
X91513259Y-106382142D01*
X91513259Y-105965476D02*
X91453735Y-106025000D01*
X91513259Y-106084523D01*
X91572783Y-106025000D01*
X91513259Y-105965476D01*
X91513259Y-106084523D01*
X92287069Y-107215476D02*
X92168021Y-107155952D01*
X92108497Y-107096428D01*
X92048973Y-106977380D01*
X92048973Y-106620238D01*
X92108497Y-106501190D01*
X92168021Y-106441666D01*
X92287069Y-106382142D01*
X92465640Y-106382142D01*
X92584688Y-106441666D01*
X92644211Y-106501190D01*
X92703735Y-106620238D01*
X92703735Y-106977380D01*
X92644211Y-107096428D01*
X92584688Y-107155952D01*
X92465640Y-107215476D01*
X92287069Y-107215476D01*
X93775164Y-106382142D02*
X93775164Y-107215476D01*
X93239450Y-106382142D02*
X93239450Y-107036904D01*
X93298973Y-107155952D01*
X93418021Y-107215476D01*
X93596592Y-107215476D01*
X93715640Y-107155952D01*
X93775164Y-107096428D01*
X94310878Y-107155952D02*
X94429926Y-107215476D01*
X94668021Y-107215476D01*
X94787069Y-107155952D01*
X94846592Y-107036904D01*
X94846592Y-106977380D01*
X94787069Y-106858333D01*
X94668021Y-106798809D01*
X94489450Y-106798809D01*
X94370402Y-106739285D01*
X94310878Y-106620238D01*
X94310878Y-106560714D01*
X94370402Y-106441666D01*
X94489450Y-106382142D01*
X94668021Y-106382142D01*
X94787069Y-106441666D01*
X95382307Y-106739285D02*
X96334688Y-106739285D01*
X96929926Y-107215476D02*
X96929926Y-105965476D01*
X97227545Y-105965476D01*
X97406116Y-106025000D01*
X97525164Y-106144047D01*
X97584688Y-106263095D01*
X97644211Y-106501190D01*
X97644211Y-106679761D01*
X97584688Y-106917857D01*
X97525164Y-107036904D01*
X97406116Y-107155952D01*
X97227545Y-107215476D01*
X96929926Y-107215476D01*
X98715640Y-107215476D02*
X98715640Y-106560714D01*
X98656116Y-106441666D01*
X98537069Y-106382142D01*
X98298973Y-106382142D01*
X98179926Y-106441666D01*
X98715640Y-107155952D02*
X98596592Y-107215476D01*
X98298973Y-107215476D01*
X98179926Y-107155952D01*
X98120402Y-107036904D01*
X98120402Y-106917857D01*
X98179926Y-106798809D01*
X98298973Y-106739285D01*
X98596592Y-106739285D01*
X98715640Y-106679761D01*
X99132307Y-106382142D02*
X99608497Y-106382142D01*
X99310878Y-105965476D02*
X99310878Y-107036904D01*
X99370402Y-107155952D01*
X99489450Y-107215476D01*
X99608497Y-107215476D01*
X100560878Y-107215476D02*
X100560878Y-106560714D01*
X100501354Y-106441666D01*
X100382307Y-106382142D01*
X100144211Y-106382142D01*
X100025164Y-106441666D01*
X100560878Y-107155952D02*
X100441830Y-107215476D01*
X100144211Y-107215476D01*
X100025164Y-107155952D01*
X99965640Y-107036904D01*
X99965640Y-106917857D01*
X100025164Y-106798809D01*
X100144211Y-106739285D01*
X100441830Y-106739285D01*
X100560878Y-106679761D01*
X102048973Y-105905952D02*
X100977545Y-107513095D01*
X102465640Y-106560714D02*
X102882307Y-106560714D01*
X103060878Y-107215476D02*
X102465640Y-107215476D01*
X102465640Y-105965476D01*
X103060878Y-105965476D01*
X103596592Y-106382142D02*
X103596592Y-107215476D01*
X103596592Y-106501190D02*
X103656116Y-106441666D01*
X103775164Y-106382142D01*
X103953735Y-106382142D01*
X104072783Y-106441666D01*
X104132307Y-106560714D01*
X104132307Y-107215476D01*
X104608497Y-106382142D02*
X104906116Y-107215476D01*
X105203735Y-106382142D01*
X105679926Y-106739285D02*
X106632307Y-106739285D01*
X107227545Y-107215476D02*
X107227545Y-105965476D01*
X107644211Y-106858333D01*
X108060878Y-105965476D01*
X108060878Y-107215476D01*
X109370402Y-107096428D02*
X109310878Y-107155952D01*
X109132307Y-107215476D01*
X109013259Y-107215476D01*
X108834688Y-107155952D01*
X108715640Y-107036904D01*
X108656116Y-106917857D01*
X108596592Y-106679761D01*
X108596592Y-106501190D01*
X108656116Y-106263095D01*
X108715640Y-106144047D01*
X108834688Y-106025000D01*
X109013259Y-105965476D01*
X109132307Y-105965476D01*
X109310878Y-106025000D01*
X109370402Y-106084523D01*
X110620402Y-107215476D02*
X110203735Y-106620238D01*
X109906116Y-107215476D02*
X109906116Y-105965476D01*
X110382307Y-105965476D01*
X110501354Y-106025000D01*
X110560878Y-106084523D01*
X110620402Y-106203571D01*
X110620402Y-106382142D01*
X110560878Y-106501190D01*
X110501354Y-106560714D01*
X110382307Y-106620238D01*
X109906116Y-106620238D01*
X111394211Y-105965476D02*
X111632307Y-105965476D01*
X111751354Y-106025000D01*
X111870402Y-106144047D01*
X111929926Y-106382142D01*
X111929926Y-106798809D01*
X111870402Y-107036904D01*
X111751354Y-107155952D01*
X111632307Y-107215476D01*
X111394211Y-107215476D01*
X111275164Y-107155952D01*
X111156116Y-107036904D01*
X111096592Y-106798809D01*
X111096592Y-106382142D01*
X111156116Y-106144047D01*
X111275164Y-106025000D01*
X111394211Y-105965476D01*
D11*
G36*
X155189535Y-97020838D02*
G01*
X155298245Y-97054174D01*
X155356922Y-97110038D01*
X155364556Y-97197295D01*
X155320142Y-97324807D01*
X155222671Y-97501435D01*
X155115881Y-97668839D01*
X154987735Y-97864581D01*
X154858454Y-98064648D01*
X154745874Y-98241313D01*
X154686789Y-98335833D01*
X154597452Y-98479024D01*
X154479355Y-98665935D01*
X154349809Y-98869254D01*
X154257430Y-99013167D01*
X154150599Y-99183168D01*
X154063189Y-99330265D01*
X154004418Y-99438386D01*
X153983494Y-99490745D01*
X153992171Y-99529733D01*
X154033535Y-99557992D01*
X154127523Y-99585589D01*
X154207396Y-99603810D01*
X154297542Y-99644115D01*
X154313007Y-99700740D01*
X154256984Y-99770756D01*
X154122114Y-99815593D01*
X153913241Y-99834447D01*
X153738316Y-99838667D01*
X153344315Y-100441917D01*
X153014527Y-100946245D01*
X152728994Y-101381570D01*
X152486222Y-101750128D01*
X152284718Y-102054159D01*
X152122986Y-102295900D01*
X151999535Y-102477589D01*
X151912869Y-102601464D01*
X151861494Y-102669763D01*
X151847079Y-102684935D01*
X151768369Y-102713981D01*
X151716647Y-102664848D01*
X151708826Y-102646495D01*
X151715246Y-102572956D01*
X151760828Y-102443795D01*
X151838213Y-102274130D01*
X151940042Y-102079079D01*
X152058957Y-101873762D01*
X152169287Y-101700490D01*
X152250253Y-101576052D01*
X152308350Y-101480675D01*
X152331315Y-101434515D01*
X152331333Y-101434132D01*
X152354084Y-101392261D01*
X152416191Y-101295088D01*
X152508435Y-101156657D01*
X152621598Y-100991012D01*
X152633494Y-100973804D01*
X152773079Y-100766346D01*
X152915520Y-100544956D01*
X153042000Y-100339364D01*
X153117493Y-100209056D01*
X153203155Y-100052063D01*
X153251225Y-99952387D01*
X153266001Y-99893771D01*
X153251781Y-99859954D01*
X153216022Y-99836359D01*
X153140447Y-99820466D01*
X152985106Y-99809388D01*
X152754772Y-99803275D01*
X152454216Y-99802278D01*
X152209438Y-99804637D01*
X151286164Y-99817500D01*
X151081284Y-99985474D01*
X150974686Y-100077154D01*
X150825145Y-100211504D01*
X150650489Y-100372244D01*
X150468548Y-100543093D01*
X150420613Y-100588724D01*
X150223030Y-100773249D01*
X150073956Y-100902035D01*
X149964700Y-100981760D01*
X149886568Y-101019104D01*
X149854129Y-101024000D01*
X149684768Y-100989099D01*
X149560639Y-100890436D01*
X149534826Y-100849981D01*
X149521288Y-100808351D01*
X149531860Y-100760915D01*
X149575042Y-100696277D01*
X149659334Y-100603040D01*
X149793237Y-100469808D01*
X149883105Y-100383041D01*
X150034840Y-100232179D01*
X150148431Y-100108879D01*
X150215795Y-100022561D01*
X150228850Y-99982648D01*
X150227374Y-99981770D01*
X150126927Y-99921787D01*
X150032717Y-99839731D01*
X149971106Y-99760725D01*
X149960667Y-99727600D01*
X150002265Y-99661799D01*
X150124277Y-99601116D01*
X150322527Y-99547040D01*
X150592840Y-99501063D01*
X150597043Y-99500494D01*
X150727242Y-99481776D01*
X150833569Y-99460631D01*
X150931309Y-99429940D01*
X151035748Y-99382582D01*
X151047680Y-99375867D01*
X151908000Y-99375867D01*
X151947261Y-99391885D01*
X152052968Y-99409515D01*
X152207001Y-99426164D01*
X152320750Y-99434983D01*
X152504921Y-99448219D01*
X152661107Y-99461175D01*
X152767304Y-99471941D01*
X152797000Y-99476356D01*
X152868016Y-99483578D01*
X152997879Y-99490064D01*
X153160772Y-99494588D01*
X153190970Y-99495089D01*
X153359164Y-99495705D01*
X153467029Y-99486873D01*
X153538859Y-99461774D01*
X153598950Y-99413590D01*
X153641364Y-99368699D01*
X153711629Y-99275572D01*
X153805241Y-99129413D01*
X153908046Y-98953096D01*
X153975301Y-98828949D01*
X154090408Y-98612441D01*
X154217658Y-98378082D01*
X154336372Y-98163790D01*
X154382157Y-98082858D01*
X154466868Y-97931530D01*
X154532630Y-97808327D01*
X154569959Y-97731295D01*
X154575000Y-97715794D01*
X154541370Y-97716297D01*
X154448972Y-97755519D01*
X154310544Y-97826844D01*
X154138825Y-97923656D01*
X153946553Y-98039339D01*
X153918833Y-98056593D01*
X153742428Y-98165134D01*
X153541316Y-98286362D01*
X153389667Y-98376051D01*
X153242121Y-98465266D01*
X153062185Y-98578766D01*
X152862022Y-98708343D01*
X152653796Y-98845788D01*
X152449671Y-98982895D01*
X152261812Y-99111453D01*
X152102383Y-99223255D01*
X151983548Y-99310092D01*
X151917472Y-99363757D01*
X151908000Y-99375867D01*
X151047680Y-99375867D01*
X151162173Y-99311437D01*
X151325869Y-99209386D01*
X151542123Y-99069307D01*
X151590500Y-99037750D01*
X151942457Y-98812141D01*
X152310546Y-98583513D01*
X152684077Y-98357957D01*
X153052362Y-98141562D01*
X153404711Y-97940418D01*
X153730434Y-97760615D01*
X154018844Y-97608243D01*
X154259250Y-97489393D01*
X154440963Y-97410154D01*
X154459597Y-97403125D01*
X154609917Y-97330079D01*
X154771365Y-97225413D01*
X154852223Y-97161012D01*
X154967053Y-97066353D01*
X155050596Y-97020698D01*
X155130710Y-97012472D01*
X155189535Y-97020838D01*
G37*
X155189535Y-97020838D02*
X155298245Y-97054174D01*
X155356922Y-97110038D01*
X155364556Y-97197295D01*
X155320142Y-97324807D01*
X155222671Y-97501435D01*
X155115881Y-97668839D01*
X154987735Y-97864581D01*
X154858454Y-98064648D01*
X154745874Y-98241313D01*
X154686789Y-98335833D01*
X154597452Y-98479024D01*
X154479355Y-98665935D01*
X154349809Y-98869254D01*
X154257430Y-99013167D01*
X154150599Y-99183168D01*
X154063189Y-99330265D01*
X154004418Y-99438386D01*
X153983494Y-99490745D01*
X153992171Y-99529733D01*
X154033535Y-99557992D01*
X154127523Y-99585589D01*
X154207396Y-99603810D01*
X154297542Y-99644115D01*
X154313007Y-99700740D01*
X154256984Y-99770756D01*
X154122114Y-99815593D01*
X153913241Y-99834447D01*
X153738316Y-99838667D01*
X153344315Y-100441917D01*
X153014527Y-100946245D01*
X152728994Y-101381570D01*
X152486222Y-101750128D01*
X152284718Y-102054159D01*
X152122986Y-102295900D01*
X151999535Y-102477589D01*
X151912869Y-102601464D01*
X151861494Y-102669763D01*
X151847079Y-102684935D01*
X151768369Y-102713981D01*
X151716647Y-102664848D01*
X151708826Y-102646495D01*
X151715246Y-102572956D01*
X151760828Y-102443795D01*
X151838213Y-102274130D01*
X151940042Y-102079079D01*
X152058957Y-101873762D01*
X152169287Y-101700490D01*
X152250253Y-101576052D01*
X152308350Y-101480675D01*
X152331315Y-101434515D01*
X152331333Y-101434132D01*
X152354084Y-101392261D01*
X152416191Y-101295088D01*
X152508435Y-101156657D01*
X152621598Y-100991012D01*
X152633494Y-100973804D01*
X152773079Y-100766346D01*
X152915520Y-100544956D01*
X153042000Y-100339364D01*
X153117493Y-100209056D01*
X153203155Y-100052063D01*
X153251225Y-99952387D01*
X153266001Y-99893771D01*
X153251781Y-99859954D01*
X153216022Y-99836359D01*
X153140447Y-99820466D01*
X152985106Y-99809388D01*
X152754772Y-99803275D01*
X152454216Y-99802278D01*
X152209438Y-99804637D01*
X151286164Y-99817500D01*
X151081284Y-99985474D01*
X150974686Y-100077154D01*
X150825145Y-100211504D01*
X150650489Y-100372244D01*
X150468548Y-100543093D01*
X150420613Y-100588724D01*
X150223030Y-100773249D01*
X150073956Y-100902035D01*
X149964700Y-100981760D01*
X149886568Y-101019104D01*
X149854129Y-101024000D01*
X149684768Y-100989099D01*
X149560639Y-100890436D01*
X149534826Y-100849981D01*
X149521288Y-100808351D01*
X149531860Y-100760915D01*
X149575042Y-100696277D01*
X149659334Y-100603040D01*
X149793237Y-100469808D01*
X149883105Y-100383041D01*
X150034840Y-100232179D01*
X150148431Y-100108879D01*
X150215795Y-100022561D01*
X150228850Y-99982648D01*
X150227374Y-99981770D01*
X150126927Y-99921787D01*
X150032717Y-99839731D01*
X149971106Y-99760725D01*
X149960667Y-99727600D01*
X150002265Y-99661799D01*
X150124277Y-99601116D01*
X150322527Y-99547040D01*
X150592840Y-99501063D01*
X150597043Y-99500494D01*
X150727242Y-99481776D01*
X150833569Y-99460631D01*
X150931309Y-99429940D01*
X151035748Y-99382582D01*
X151047680Y-99375867D01*
X151908000Y-99375867D01*
X151947261Y-99391885D01*
X152052968Y-99409515D01*
X152207001Y-99426164D01*
X152320750Y-99434983D01*
X152504921Y-99448219D01*
X152661107Y-99461175D01*
X152767304Y-99471941D01*
X152797000Y-99476356D01*
X152868016Y-99483578D01*
X152997879Y-99490064D01*
X153160772Y-99494588D01*
X153190970Y-99495089D01*
X153359164Y-99495705D01*
X153467029Y-99486873D01*
X153538859Y-99461774D01*
X153598950Y-99413590D01*
X153641364Y-99368699D01*
X153711629Y-99275572D01*
X153805241Y-99129413D01*
X153908046Y-98953096D01*
X153975301Y-98828949D01*
X154090408Y-98612441D01*
X154217658Y-98378082D01*
X154336372Y-98163790D01*
X154382157Y-98082858D01*
X154466868Y-97931530D01*
X154532630Y-97808327D01*
X154569959Y-97731295D01*
X154575000Y-97715794D01*
X154541370Y-97716297D01*
X154448972Y-97755519D01*
X154310544Y-97826844D01*
X154138825Y-97923656D01*
X153946553Y-98039339D01*
X153918833Y-98056593D01*
X153742428Y-98165134D01*
X153541316Y-98286362D01*
X153389667Y-98376051D01*
X153242121Y-98465266D01*
X153062185Y-98578766D01*
X152862022Y-98708343D01*
X152653796Y-98845788D01*
X152449671Y-98982895D01*
X152261812Y-99111453D01*
X152102383Y-99223255D01*
X151983548Y-99310092D01*
X151917472Y-99363757D01*
X151908000Y-99375867D01*
X151047680Y-99375867D01*
X151162173Y-99311437D01*
X151325869Y-99209386D01*
X151542123Y-99069307D01*
X151590500Y-99037750D01*
X151942457Y-98812141D01*
X152310546Y-98583513D01*
X152684077Y-98357957D01*
X153052362Y-98141562D01*
X153404711Y-97940418D01*
X153730434Y-97760615D01*
X154018844Y-97608243D01*
X154259250Y-97489393D01*
X154440963Y-97410154D01*
X154459597Y-97403125D01*
X154609917Y-97330079D01*
X154771365Y-97225413D01*
X154852223Y-97161012D01*
X154967053Y-97066353D01*
X155050596Y-97020698D01*
X155130710Y-97012472D01*
X155189535Y-97020838D01*
G36*
X157393046Y-97950738D02*
G01*
X157421917Y-97956448D01*
X157525746Y-97982022D01*
X157589599Y-98003729D01*
X157591250Y-98004643D01*
X157622958Y-98055211D01*
X157597198Y-98140588D01*
X157510950Y-98266228D01*
X157361191Y-98437584D01*
X157337250Y-98463132D01*
X157199900Y-98610986D01*
X157027286Y-98800041D01*
X156839856Y-99007744D01*
X156658055Y-99211539D01*
X156628167Y-99245319D01*
X156367543Y-99539738D01*
X156150035Y-99783977D01*
X155963200Y-99991743D01*
X155794594Y-100176744D01*
X155631773Y-100352689D01*
X155462296Y-100533285D01*
X155381322Y-100618902D01*
X155248653Y-100763751D01*
X155145800Y-100885498D01*
X155082317Y-100972101D01*
X155067757Y-101011514D01*
X155069240Y-101012358D01*
X155106617Y-101009571D01*
X155179778Y-100984396D01*
X155295844Y-100933472D01*
X155461935Y-100853437D01*
X155685172Y-100740929D01*
X155972676Y-100592586D01*
X156110924Y-100520553D01*
X156304968Y-100422077D01*
X156448609Y-100358632D01*
X156564706Y-100322816D01*
X156676120Y-100307223D01*
X156778515Y-100304333D01*
X156958053Y-100315097D01*
X157096253Y-100354397D01*
X157202744Y-100412109D01*
X157288766Y-100472803D01*
X157336216Y-100531747D01*
X157341902Y-100601658D01*
X157302634Y-100695248D01*
X157215222Y-100825235D01*
X157076474Y-101004333D01*
X157043882Y-101045167D01*
X156772939Y-101383833D01*
X156920668Y-101396845D01*
X157037073Y-101391233D01*
X157197837Y-101363892D01*
X157360846Y-101322761D01*
X157518007Y-101279258D01*
X157651955Y-101248036D01*
X157734356Y-101235677D01*
X157735676Y-101235667D01*
X157812517Y-101206711D01*
X157913200Y-101133321D01*
X157961667Y-101087500D01*
X158060199Y-101000080D01*
X158146783Y-100946870D01*
X158176454Y-100939333D01*
X158271558Y-100975288D01*
X158325376Y-101061657D01*
X158323230Y-101145548D01*
X158313264Y-101198927D01*
X158344893Y-101210138D01*
X158436149Y-101186488D01*
X158584905Y-101169013D01*
X158719635Y-101200051D01*
X158814019Y-101270815D01*
X158838534Y-101320843D01*
X158863070Y-101379456D01*
X158906588Y-101398458D01*
X158984992Y-101375993D01*
X159114184Y-101310205D01*
X159163013Y-101282987D01*
X159362221Y-101185418D01*
X159554050Y-101117219D01*
X159720377Y-101082818D01*
X159843078Y-101086645D01*
X159885237Y-101106512D01*
X159940903Y-101187463D01*
X159951333Y-101236505D01*
X159924157Y-101290113D01*
X159848435Y-101395166D01*
X159732873Y-101540738D01*
X159586179Y-101715901D01*
X159417060Y-101909727D01*
X159396697Y-101932575D01*
X159227797Y-102123897D01*
X159081840Y-102293527D01*
X158967010Y-102431594D01*
X158891490Y-102528225D01*
X158863466Y-102573546D01*
X158863876Y-102575320D01*
X158908706Y-102567871D01*
X159016213Y-102532167D01*
X159171406Y-102473659D01*
X159359293Y-102397798D01*
X159407083Y-102377826D01*
X159614941Y-102293247D01*
X159807899Y-102219873D01*
X159965899Y-102164992D01*
X160068885Y-102135893D01*
X160076813Y-102134445D01*
X160225151Y-102110373D01*
X160158274Y-102212770D01*
X160101580Y-102261501D01*
X159983376Y-102338371D01*
X159818743Y-102435438D01*
X159622765Y-102544763D01*
X159410527Y-102658405D01*
X159197110Y-102768424D01*
X158997599Y-102866880D01*
X158827077Y-102945831D01*
X158700628Y-102997338D01*
X158636901Y-103013667D01*
X158555052Y-102984102D01*
X158501215Y-102939583D01*
X158437952Y-102837882D01*
X158420419Y-102707696D01*
X158422317Y-102659244D01*
X158452448Y-102598007D01*
X158530280Y-102492769D01*
X158643428Y-102359181D01*
X158757279Y-102235911D01*
X158928723Y-102053101D01*
X159087458Y-101876458D01*
X159223598Y-101717722D01*
X159327258Y-101588634D01*
X159388554Y-101500934D01*
X159401000Y-101471349D01*
X159367278Y-101472249D01*
X159275029Y-101510687D01*
X159137626Y-101579496D01*
X158968445Y-101671509D01*
X158780860Y-101779558D01*
X158588244Y-101896476D01*
X158482670Y-101963475D01*
X158305823Y-102075205D01*
X158183445Y-102144564D01*
X158100765Y-102177905D01*
X158043010Y-102181581D01*
X158006420Y-102168295D01*
X157935095Y-102087751D01*
X157925450Y-101967984D01*
X157977464Y-101827746D01*
X158006882Y-101781952D01*
X158055197Y-101694890D01*
X158047493Y-101658397D01*
X157995217Y-101671886D01*
X157909813Y-101734765D01*
X157853170Y-101789868D01*
X157742109Y-101897062D01*
X157629367Y-101991851D01*
X157612446Y-102004397D01*
X157488936Y-102064611D01*
X157396086Y-102058448D01*
X157340147Y-102000603D01*
X157327370Y-101905770D01*
X157364007Y-101788645D01*
X157456309Y-101663921D01*
X157464250Y-101656032D01*
X157538578Y-101577072D01*
X157548214Y-101547295D01*
X157517167Y-101554018D01*
X157233328Y-101650661D01*
X156988539Y-101710972D01*
X156795922Y-101732135D01*
X156715984Y-101725884D01*
X156586324Y-101680796D01*
X156471293Y-101606205D01*
X156391208Y-101519838D01*
X156366385Y-101439422D01*
X156370360Y-101424284D01*
X156410009Y-101326437D01*
X156420517Y-101300500D01*
X156415032Y-101273965D01*
X156357170Y-101281029D01*
X156236737Y-101323552D01*
X156188525Y-101342833D01*
X155940649Y-101421598D01*
X155725036Y-101446360D01*
X155553366Y-101416904D01*
X155457731Y-101356398D01*
X155381616Y-101296549D01*
X155317428Y-101298761D01*
X155287473Y-101315001D01*
X155195787Y-101352066D01*
X155065254Y-101383304D01*
X155026289Y-101389467D01*
X154906096Y-101399022D01*
X154827378Y-101375011D01*
X154750101Y-101301859D01*
X154724671Y-101272113D01*
X154653980Y-101195055D01*
X154587440Y-101152407D01*
X154496801Y-101134051D01*
X154353814Y-101129865D01*
X154327517Y-101129833D01*
X154175393Y-101126870D01*
X154084023Y-101112808D01*
X154029561Y-101079890D01*
X154022721Y-101070053D01*
X155888337Y-101070053D01*
X155941684Y-101061894D01*
X156065876Y-101014443D01*
X156262366Y-100927593D01*
X156458271Y-100836435D01*
X156694496Y-100720119D01*
X156851947Y-100630923D01*
X156931740Y-100567935D01*
X156934992Y-100530245D01*
X156862821Y-100516944D01*
X156850417Y-100516930D01*
X156713823Y-100545294D01*
X156530416Y-100623247D01*
X156315864Y-100743239D01*
X156138834Y-100859849D01*
X155988366Y-100968925D01*
X155904383Y-101039028D01*
X155888337Y-101070053D01*
X154022721Y-101070053D01*
X153988161Y-101020358D01*
X153987519Y-101019226D01*
X153954175Y-100914372D01*
X153965844Y-100839300D01*
X154333482Y-100839300D01*
X154363606Y-100850650D01*
X154432859Y-100835999D01*
X154537933Y-100797480D01*
X154676627Y-100731274D01*
X154765500Y-100682465D01*
X154962996Y-100543759D01*
X155088441Y-100395305D01*
X155148895Y-100246362D01*
X155156058Y-100158400D01*
X155123335Y-100135000D01*
X155052635Y-100162884D01*
X154940118Y-100236803D01*
X154803061Y-100342151D01*
X154658736Y-100464327D01*
X154524419Y-100588727D01*
X154417384Y-100700748D01*
X154356020Y-100783664D01*
X154333482Y-100839300D01*
X153965844Y-100839300D01*
X153972491Y-100796539D01*
X154047192Y-100655532D01*
X154183004Y-100481154D01*
X154293781Y-100358413D01*
X154534139Y-100125453D01*
X154750823Y-99968843D01*
X154950622Y-99885937D01*
X155140325Y-99874091D01*
X155326722Y-99930658D01*
X155354887Y-99944918D01*
X155548379Y-100047798D01*
X156278773Y-99217773D01*
X156549287Y-98909615D01*
X156768253Y-98658237D01*
X156940713Y-98457444D01*
X157071709Y-98301038D01*
X157166283Y-98182823D01*
X157229476Y-98096603D01*
X157266329Y-98036182D01*
X157281886Y-97995362D01*
X157283273Y-97983220D01*
X157308747Y-97947799D01*
X157393046Y-97950738D01*
G37*
X157393046Y-97950738D02*
X157421917Y-97956448D01*
X157525746Y-97982022D01*
X157589599Y-98003729D01*
X157591250Y-98004643D01*
X157622958Y-98055211D01*
X157597198Y-98140588D01*
X157510950Y-98266228D01*
X157361191Y-98437584D01*
X157337250Y-98463132D01*
X157199900Y-98610986D01*
X157027286Y-98800041D01*
X156839856Y-99007744D01*
X156658055Y-99211539D01*
X156628167Y-99245319D01*
X156367543Y-99539738D01*
X156150035Y-99783977D01*
X155963200Y-99991743D01*
X155794594Y-100176744D01*
X155631773Y-100352689D01*
X155462296Y-100533285D01*
X155381322Y-100618902D01*
X155248653Y-100763751D01*
X155145800Y-100885498D01*
X155082317Y-100972101D01*
X155067757Y-101011514D01*
X155069240Y-101012358D01*
X155106617Y-101009571D01*
X155179778Y-100984396D01*
X155295844Y-100933472D01*
X155461935Y-100853437D01*
X155685172Y-100740929D01*
X155972676Y-100592586D01*
X156110924Y-100520553D01*
X156304968Y-100422077D01*
X156448609Y-100358632D01*
X156564706Y-100322816D01*
X156676120Y-100307223D01*
X156778515Y-100304333D01*
X156958053Y-100315097D01*
X157096253Y-100354397D01*
X157202744Y-100412109D01*
X157288766Y-100472803D01*
X157336216Y-100531747D01*
X157341902Y-100601658D01*
X157302634Y-100695248D01*
X157215222Y-100825235D01*
X157076474Y-101004333D01*
X157043882Y-101045167D01*
X156772939Y-101383833D01*
X156920668Y-101396845D01*
X157037073Y-101391233D01*
X157197837Y-101363892D01*
X157360846Y-101322761D01*
X157518007Y-101279258D01*
X157651955Y-101248036D01*
X157734356Y-101235677D01*
X157735676Y-101235667D01*
X157812517Y-101206711D01*
X157913200Y-101133321D01*
X157961667Y-101087500D01*
X158060199Y-101000080D01*
X158146783Y-100946870D01*
X158176454Y-100939333D01*
X158271558Y-100975288D01*
X158325376Y-101061657D01*
X158323230Y-101145548D01*
X158313264Y-101198927D01*
X158344893Y-101210138D01*
X158436149Y-101186488D01*
X158584905Y-101169013D01*
X158719635Y-101200051D01*
X158814019Y-101270815D01*
X158838534Y-101320843D01*
X158863070Y-101379456D01*
X158906588Y-101398458D01*
X158984992Y-101375993D01*
X159114184Y-101310205D01*
X159163013Y-101282987D01*
X159362221Y-101185418D01*
X159554050Y-101117219D01*
X159720377Y-101082818D01*
X159843078Y-101086645D01*
X159885237Y-101106512D01*
X159940903Y-101187463D01*
X159951333Y-101236505D01*
X159924157Y-101290113D01*
X159848435Y-101395166D01*
X159732873Y-101540738D01*
X159586179Y-101715901D01*
X159417060Y-101909727D01*
X159396697Y-101932575D01*
X159227797Y-102123897D01*
X159081840Y-102293527D01*
X158967010Y-102431594D01*
X158891490Y-102528225D01*
X158863466Y-102573546D01*
X158863876Y-102575320D01*
X158908706Y-102567871D01*
X159016213Y-102532167D01*
X159171406Y-102473659D01*
X159359293Y-102397798D01*
X159407083Y-102377826D01*
X159614941Y-102293247D01*
X159807899Y-102219873D01*
X159965899Y-102164992D01*
X160068885Y-102135893D01*
X160076813Y-102134445D01*
X160225151Y-102110373D01*
X160158274Y-102212770D01*
X160101580Y-102261501D01*
X159983376Y-102338371D01*
X159818743Y-102435438D01*
X159622765Y-102544763D01*
X159410527Y-102658405D01*
X159197110Y-102768424D01*
X158997599Y-102866880D01*
X158827077Y-102945831D01*
X158700628Y-102997338D01*
X158636901Y-103013667D01*
X158555052Y-102984102D01*
X158501215Y-102939583D01*
X158437952Y-102837882D01*
X158420419Y-102707696D01*
X158422317Y-102659244D01*
X158452448Y-102598007D01*
X158530280Y-102492769D01*
X158643428Y-102359181D01*
X158757279Y-102235911D01*
X158928723Y-102053101D01*
X159087458Y-101876458D01*
X159223598Y-101717722D01*
X159327258Y-101588634D01*
X159388554Y-101500934D01*
X159401000Y-101471349D01*
X159367278Y-101472249D01*
X159275029Y-101510687D01*
X159137626Y-101579496D01*
X158968445Y-101671509D01*
X158780860Y-101779558D01*
X158588244Y-101896476D01*
X158482670Y-101963475D01*
X158305823Y-102075205D01*
X158183445Y-102144564D01*
X158100765Y-102177905D01*
X158043010Y-102181581D01*
X158006420Y-102168295D01*
X157935095Y-102087751D01*
X157925450Y-101967984D01*
X157977464Y-101827746D01*
X158006882Y-101781952D01*
X158055197Y-101694890D01*
X158047493Y-101658397D01*
X157995217Y-101671886D01*
X157909813Y-101734765D01*
X157853170Y-101789868D01*
X157742109Y-101897062D01*
X157629367Y-101991851D01*
X157612446Y-102004397D01*
X157488936Y-102064611D01*
X157396086Y-102058448D01*
X157340147Y-102000603D01*
X157327370Y-101905770D01*
X157364007Y-101788645D01*
X157456309Y-101663921D01*
X157464250Y-101656032D01*
X157538578Y-101577072D01*
X157548214Y-101547295D01*
X157517167Y-101554018D01*
X157233328Y-101650661D01*
X156988539Y-101710972D01*
X156795922Y-101732135D01*
X156715984Y-101725884D01*
X156586324Y-101680796D01*
X156471293Y-101606205D01*
X156391208Y-101519838D01*
X156366385Y-101439422D01*
X156370360Y-101424284D01*
X156410009Y-101326437D01*
X156420517Y-101300500D01*
X156415032Y-101273965D01*
X156357170Y-101281029D01*
X156236737Y-101323552D01*
X156188525Y-101342833D01*
X155940649Y-101421598D01*
X155725036Y-101446360D01*
X155553366Y-101416904D01*
X155457731Y-101356398D01*
X155381616Y-101296549D01*
X155317428Y-101298761D01*
X155287473Y-101315001D01*
X155195787Y-101352066D01*
X155065254Y-101383304D01*
X155026289Y-101389467D01*
X154906096Y-101399022D01*
X154827378Y-101375011D01*
X154750101Y-101301859D01*
X154724671Y-101272113D01*
X154653980Y-101195055D01*
X154587440Y-101152407D01*
X154496801Y-101134051D01*
X154353814Y-101129865D01*
X154327517Y-101129833D01*
X154175393Y-101126870D01*
X154084023Y-101112808D01*
X154029561Y-101079890D01*
X154022721Y-101070053D01*
X155888337Y-101070053D01*
X155941684Y-101061894D01*
X156065876Y-101014443D01*
X156262366Y-100927593D01*
X156458271Y-100836435D01*
X156694496Y-100720119D01*
X156851947Y-100630923D01*
X156931740Y-100567935D01*
X156934992Y-100530245D01*
X156862821Y-100516944D01*
X156850417Y-100516930D01*
X156713823Y-100545294D01*
X156530416Y-100623247D01*
X156315864Y-100743239D01*
X156138834Y-100859849D01*
X155988366Y-100968925D01*
X155904383Y-101039028D01*
X155888337Y-101070053D01*
X154022721Y-101070053D01*
X153988161Y-101020358D01*
X153987519Y-101019226D01*
X153954175Y-100914372D01*
X153965844Y-100839300D01*
X154333482Y-100839300D01*
X154363606Y-100850650D01*
X154432859Y-100835999D01*
X154537933Y-100797480D01*
X154676627Y-100731274D01*
X154765500Y-100682465D01*
X154962996Y-100543759D01*
X155088441Y-100395305D01*
X155148895Y-100246362D01*
X155156058Y-100158400D01*
X155123335Y-100135000D01*
X155052635Y-100162884D01*
X154940118Y-100236803D01*
X154803061Y-100342151D01*
X154658736Y-100464327D01*
X154524419Y-100588727D01*
X154417384Y-100700748D01*
X154356020Y-100783664D01*
X154333482Y-100839300D01*
X153965844Y-100839300D01*
X153972491Y-100796539D01*
X154047192Y-100655532D01*
X154183004Y-100481154D01*
X154293781Y-100358413D01*
X154534139Y-100125453D01*
X154750823Y-99968843D01*
X154950622Y-99885937D01*
X155140325Y-99874091D01*
X155326722Y-99930658D01*
X155354887Y-99944918D01*
X155548379Y-100047798D01*
X156278773Y-99217773D01*
X156549287Y-98909615D01*
X156768253Y-98658237D01*
X156940713Y-98457444D01*
X157071709Y-98301038D01*
X157166283Y-98182823D01*
X157229476Y-98096603D01*
X157266329Y-98036182D01*
X157281886Y-97995362D01*
X157283273Y-97983220D01*
X157308747Y-97947799D01*
X157393046Y-97950738D01*
G36*
X147395260Y-91809519D02*
G01*
X147609878Y-91867047D01*
X147903001Y-91955418D01*
X148040942Y-91998987D01*
X148287994Y-92077775D01*
X148597456Y-92176379D01*
X148951048Y-92288979D01*
X149330487Y-92409756D01*
X149717492Y-92532888D01*
X150093781Y-92652557D01*
X150193500Y-92684259D01*
X150552699Y-92798540D01*
X150917956Y-92914920D01*
X151273121Y-93028242D01*
X151602043Y-93133348D01*
X151888573Y-93225078D01*
X152116559Y-93298276D01*
X152183167Y-93319734D01*
X152318100Y-93363061D01*
X152525485Y-93429383D01*
X152797076Y-93516079D01*
X153124628Y-93620526D01*
X153499895Y-93740099D01*
X153914630Y-93872178D01*
X154360589Y-94014138D01*
X154829526Y-94163357D01*
X155313195Y-94317212D01*
X155803349Y-94473081D01*
X156291744Y-94628339D01*
X156770134Y-94780366D01*
X157230272Y-94926537D01*
X157663914Y-95064230D01*
X158062813Y-95190823D01*
X158418724Y-95303691D01*
X158723400Y-95400213D01*
X158808333Y-95427094D01*
X159025467Y-95499884D01*
X159195611Y-95565188D01*
X159307047Y-95618100D01*
X159347942Y-95652846D01*
X159321996Y-95708678D01*
X159244213Y-95787282D01*
X159181743Y-95835683D01*
X159089674Y-95907522D01*
X159042911Y-95958304D01*
X159044300Y-95972838D01*
X159096774Y-95989459D01*
X159214603Y-96026630D01*
X159382380Y-96079495D01*
X159584695Y-96143199D01*
X159674522Y-96171471D01*
X159884520Y-96240174D01*
X160063754Y-96303776D01*
X160197517Y-96356672D01*
X160271102Y-96393256D01*
X160280542Y-96402460D01*
X160257798Y-96450775D01*
X160183203Y-96525039D01*
X160121251Y-96573710D01*
X160021395Y-96652119D01*
X159957840Y-96713677D01*
X159945932Y-96734289D01*
X159983724Y-96758337D01*
X160088533Y-96801807D01*
X160246380Y-96859466D01*
X160443287Y-96926082D01*
X160551368Y-96960906D01*
X160819866Y-97049713D01*
X161008599Y-97120760D01*
X161120331Y-97175203D01*
X161157821Y-97214201D01*
X161157833Y-97214770D01*
X161157090Y-97243615D01*
X161151077Y-97266682D01*
X161134113Y-97282458D01*
X161100522Y-97289435D01*
X161044623Y-97286101D01*
X160960740Y-97270945D01*
X160843192Y-97242459D01*
X160686303Y-97199130D01*
X160484393Y-97139448D01*
X160231783Y-97061903D01*
X159922795Y-96964984D01*
X159551751Y-96847181D01*
X159112972Y-96706983D01*
X158600780Y-96542880D01*
X158448500Y-96494064D01*
X157866993Y-96307948D01*
X158570164Y-96307948D01*
X158570531Y-96312976D01*
X158617383Y-96334198D01*
X158725932Y-96374364D01*
X158877076Y-96427126D01*
X159051710Y-96486138D01*
X159230731Y-96545053D01*
X159395035Y-96597524D01*
X159525519Y-96637205D01*
X159603079Y-96657749D01*
X159612667Y-96659204D01*
X159685151Y-96636844D01*
X159782986Y-96576499D01*
X159803167Y-96560883D01*
X159879739Y-96490246D01*
X159889814Y-96450532D01*
X159866667Y-96436457D01*
X159803126Y-96415640D01*
X159677064Y-96375271D01*
X159506732Y-96321168D01*
X159310404Y-96259155D01*
X158817642Y-96103916D01*
X158686508Y-96200868D01*
X158606696Y-96265913D01*
X158570164Y-96307948D01*
X157866993Y-96307948D01*
X157625245Y-96230575D01*
X156739660Y-95947949D01*
X155787105Y-95644710D01*
X154762942Y-95319380D01*
X153664833Y-94971212D01*
X153462826Y-94907102D01*
X153196308Y-94822346D01*
X152881412Y-94722085D01*
X152534272Y-94611457D01*
X152171021Y-94495604D01*
X151807792Y-94379664D01*
X151675167Y-94337306D01*
X151170908Y-94176273D01*
X150741241Y-94039230D01*
X150380127Y-93924339D01*
X150081527Y-93829763D01*
X149839401Y-93753665D01*
X149647710Y-93694208D01*
X149500415Y-93649554D01*
X149391476Y-93617866D01*
X149314853Y-93597308D01*
X149264509Y-93586041D01*
X149234403Y-93582230D01*
X149218496Y-93584035D01*
X149212168Y-93588054D01*
X149207872Y-93634414D01*
X149205802Y-93757025D01*
X149205866Y-93947503D01*
X149207969Y-94197463D01*
X149212020Y-94498520D01*
X149217924Y-94842292D01*
X149225588Y-95220393D01*
X149234696Y-95615262D01*
X149263304Y-96801014D01*
X149289665Y-97921426D01*
X149313757Y-98975233D01*
X149335560Y-99961167D01*
X149355051Y-100877964D01*
X149372210Y-101724356D01*
X149387016Y-102499077D01*
X149399448Y-103200862D01*
X149409484Y-103828443D01*
X149417103Y-104380556D01*
X149422284Y-104855932D01*
X149425007Y-105253307D01*
X149425249Y-105571414D01*
X149422990Y-105808986D01*
X149418208Y-105964758D01*
X149410883Y-106037464D01*
X149408811Y-106042334D01*
X149336328Y-106100140D01*
X149272984Y-106079415D01*
X149269222Y-106075778D01*
X149259457Y-106025716D01*
X149251156Y-105906315D01*
X149244958Y-105732898D01*
X149241502Y-105520789D01*
X149241000Y-105398444D01*
X149239607Y-105174861D01*
X149235764Y-104984565D01*
X149229978Y-104842030D01*
X149222752Y-104761728D01*
X149218349Y-104749333D01*
X149177371Y-104773299D01*
X149083934Y-104838192D01*
X148952829Y-104933505D01*
X148829628Y-105025454D01*
X148676647Y-105136569D01*
X148546179Y-105223400D01*
X148453974Y-105275949D01*
X148418362Y-105286588D01*
X148398711Y-105238698D01*
X148380903Y-105113255D01*
X148365635Y-104917365D01*
X148353606Y-104658133D01*
X148352000Y-104610345D01*
X148330833Y-103949089D01*
X147935058Y-104247652D01*
X147738389Y-104390265D01*
X147600571Y-104476649D01*
X147518699Y-104508491D01*
X147495856Y-104502789D01*
X147485483Y-104450935D01*
X147474428Y-104317262D01*
X147462796Y-104104614D01*
X147450691Y-103815834D01*
X147438218Y-103453768D01*
X147425482Y-103021259D01*
X147412587Y-102521151D01*
X147399639Y-101956288D01*
X147396289Y-101799765D01*
X147375691Y-100826745D01*
X147356641Y-99933003D01*
X147339016Y-99113167D01*
X147322692Y-98361865D01*
X147307546Y-97673723D01*
X147293454Y-97043371D01*
X147280293Y-96465435D01*
X147267938Y-95934543D01*
X147256267Y-95445324D01*
X147245156Y-94992404D01*
X147234482Y-94570412D01*
X147224120Y-94173976D01*
X147213948Y-93797722D01*
X147204306Y-93452672D01*
X147191620Y-92965094D01*
X147183637Y-92561890D01*
X147180359Y-92242894D01*
X147180729Y-92181748D01*
X147385759Y-92181748D01*
X147388997Y-92338587D01*
X147397694Y-92566743D01*
X147398390Y-92583587D01*
X147403163Y-92721609D01*
X147409323Y-92936180D01*
X147416685Y-93219196D01*
X147425064Y-93562555D01*
X147434275Y-93958154D01*
X147444132Y-94397889D01*
X147454452Y-94873657D01*
X147465049Y-95377356D01*
X147475738Y-95900882D01*
X147486230Y-96430833D01*
X147497446Y-96998542D01*
X147509200Y-97578829D01*
X147521246Y-98160446D01*
X147533341Y-98732145D01*
X147545238Y-99282680D01*
X147556693Y-99800802D01*
X147567462Y-100275264D01*
X147577299Y-100694818D01*
X147585961Y-101048217D01*
X147590805Y-101235667D01*
X147600646Y-101625607D01*
X147609655Y-102020275D01*
X147617539Y-102403906D01*
X147624006Y-102760737D01*
X147628764Y-103075004D01*
X147631519Y-103330944D01*
X147632100Y-103461694D01*
X147633733Y-103693504D01*
X147638096Y-103894763D01*
X147644631Y-104050604D01*
X147652781Y-104146159D01*
X147658586Y-104168808D01*
X147701044Y-104156020D01*
X147794325Y-104100461D01*
X147922900Y-104011957D01*
X148017923Y-103941506D01*
X148232073Y-103778487D01*
X148563667Y-103778487D01*
X148563667Y-104964052D01*
X148702606Y-104867276D01*
X148818218Y-104784815D01*
X148960251Y-104680946D01*
X149039011Y-104622333D01*
X149236477Y-104474167D01*
X149211684Y-103902667D01*
X149202224Y-103692991D01*
X149193580Y-103516690D01*
X149186574Y-103389452D01*
X149182026Y-103326970D01*
X149181339Y-103323254D01*
X149147651Y-103343426D01*
X149062010Y-103404096D01*
X148939694Y-103494295D01*
X148869726Y-103546914D01*
X148563667Y-103778487D01*
X148232073Y-103778487D01*
X148351007Y-103687950D01*
X148328791Y-103255558D01*
X148324772Y-103151411D01*
X148319281Y-102969179D01*
X148312469Y-102715431D01*
X148304485Y-102396734D01*
X148295481Y-102019655D01*
X148285606Y-101590762D01*
X148275012Y-101116622D01*
X148263847Y-100603803D01*
X148252264Y-100058871D01*
X148240411Y-99488395D01*
X148228440Y-98898941D01*
X148224376Y-98695667D01*
X148212137Y-98085110D01*
X148199854Y-97479982D01*
X148187693Y-96888087D01*
X148175823Y-96317227D01*
X148164409Y-95775207D01*
X148153618Y-95269829D01*
X148143617Y-94808897D01*
X148134572Y-94400213D01*
X148126652Y-94051583D01*
X148120022Y-93770807D01*
X148114849Y-93565691D01*
X148114199Y-93541583D01*
X148105974Y-93210386D01*
X148101748Y-92956401D01*
X148318042Y-92956401D01*
X148318823Y-93158031D01*
X148321611Y-93430494D01*
X148326320Y-93769188D01*
X148332865Y-94169511D01*
X148341159Y-94626862D01*
X148351116Y-95136640D01*
X148362650Y-95694243D01*
X148375675Y-96295070D01*
X148390106Y-96934520D01*
X148405855Y-97607991D01*
X148422836Y-98310881D01*
X148436591Y-98865000D01*
X148447626Y-99317521D01*
X148459451Y-99825353D01*
X148471487Y-100362069D01*
X148483157Y-100901243D01*
X148493879Y-101416449D01*
X148503075Y-101881260D01*
X148505417Y-102005184D01*
X148534386Y-103557868D01*
X148866526Y-103305032D01*
X149033752Y-103171721D01*
X149138188Y-103072283D01*
X149189386Y-102996596D01*
X149198667Y-102953103D01*
X149197626Y-102889967D01*
X149194660Y-102751880D01*
X149189996Y-102548530D01*
X149183866Y-102289605D01*
X149176500Y-101984792D01*
X149168127Y-101643781D01*
X149158979Y-101276258D01*
X149156221Y-101166422D01*
X149149722Y-100902381D01*
X149142040Y-100580780D01*
X149133340Y-100209056D01*
X149123783Y-99794646D01*
X149113532Y-99344989D01*
X149102750Y-98867520D01*
X149091599Y-98369679D01*
X149080241Y-97858901D01*
X149068840Y-97342625D01*
X149057557Y-96828287D01*
X149046555Y-96323326D01*
X149035998Y-95835179D01*
X149026046Y-95371282D01*
X149016863Y-94939074D01*
X149008612Y-94545991D01*
X149001454Y-94199472D01*
X148995553Y-93906953D01*
X148991071Y-93675873D01*
X148988170Y-93513667D01*
X148987014Y-93427774D01*
X148987000Y-93422938D01*
X149010643Y-93338080D01*
X149055207Y-93319333D01*
X149107373Y-93331862D01*
X149232166Y-93367779D01*
X149421603Y-93424581D01*
X149667702Y-93499764D01*
X149962477Y-93590825D01*
X150297947Y-93695261D01*
X150666129Y-93810567D01*
X151059038Y-93934241D01*
X151468692Y-94063779D01*
X151887108Y-94196678D01*
X152306302Y-94330433D01*
X152718291Y-94462542D01*
X153115092Y-94590500D01*
X153305000Y-94652043D01*
X153493814Y-94712997D01*
X153747264Y-94794306D01*
X154049246Y-94890830D01*
X154383657Y-94997432D01*
X154734395Y-95108974D01*
X155085357Y-95220317D01*
X155167667Y-95246386D01*
X155540949Y-95364735D01*
X155939978Y-95491530D01*
X156343580Y-95620023D01*
X156730581Y-95743468D01*
X157079809Y-95855117D01*
X157370090Y-95948222D01*
X157377466Y-95950594D01*
X158296099Y-96245998D01*
X158425507Y-96150323D01*
X158500504Y-96082449D01*
X158526648Y-96032220D01*
X158522874Y-96024369D01*
X158476977Y-96005596D01*
X158358711Y-95964182D01*
X158176472Y-95902883D01*
X157938659Y-95824456D01*
X157653670Y-95731657D01*
X157329901Y-95627243D01*
X156975750Y-95513971D01*
X156734000Y-95437141D01*
X156317477Y-95305016D01*
X155885894Y-95167970D01*
X155454754Y-95030936D01*
X155039559Y-94898846D01*
X154655811Y-94776631D01*
X154319014Y-94669226D01*
X154044669Y-94581562D01*
X154003500Y-94568382D01*
X153713055Y-94475498D01*
X153361603Y-94363313D01*
X152968848Y-94238103D01*
X152554495Y-94106146D01*
X152138247Y-93973719D01*
X151739809Y-93847100D01*
X151611667Y-93806414D01*
X151227188Y-93684252D01*
X150821207Y-93555044D01*
X150412759Y-93424865D01*
X150020883Y-93299788D01*
X149664615Y-93185886D01*
X149362994Y-93089232D01*
X149269213Y-93059108D01*
X149004635Y-92975267D01*
X148767688Y-92902503D01*
X148569965Y-92844188D01*
X148423056Y-92803689D01*
X148338556Y-92784378D01*
X148322847Y-92784041D01*
X148319355Y-92830204D01*
X148318042Y-92956401D01*
X148101748Y-92956401D01*
X148101727Y-92955148D01*
X148101684Y-92767246D01*
X148106069Y-92638056D01*
X148115108Y-92558954D01*
X148129025Y-92521316D01*
X148140981Y-92515000D01*
X148151413Y-92515380D01*
X148166089Y-92517424D01*
X148189312Y-92522485D01*
X148225383Y-92531918D01*
X148278604Y-92547078D01*
X148353277Y-92569318D01*
X148453703Y-92599993D01*
X148584184Y-92640458D01*
X148749022Y-92692067D01*
X148952519Y-92756174D01*
X149198976Y-92834134D01*
X149492696Y-92927300D01*
X149837979Y-93037028D01*
X150239128Y-93164671D01*
X150700445Y-93311584D01*
X151226231Y-93479122D01*
X151820788Y-93668638D01*
X152488418Y-93881487D01*
X153051000Y-94060860D01*
X153852614Y-94316409D01*
X154577325Y-94547351D01*
X155228872Y-94754862D01*
X155810996Y-94940121D01*
X156327438Y-95104304D01*
X156781937Y-95248590D01*
X157178236Y-95374157D01*
X157520073Y-95482181D01*
X157811191Y-95573841D01*
X158055328Y-95650315D01*
X158256226Y-95712779D01*
X158417625Y-95762413D01*
X158543266Y-95800393D01*
X158636889Y-95827897D01*
X158702235Y-95846104D01*
X158743044Y-95856190D01*
X158763057Y-95859333D01*
X158763178Y-95859333D01*
X158832023Y-95834917D01*
X158919154Y-95778306D01*
X159022163Y-95697280D01*
X158883498Y-95653745D01*
X158811313Y-95630889D01*
X158668796Y-95585596D01*
X158466278Y-95521156D01*
X158214090Y-95440857D01*
X157922563Y-95347990D01*
X157602029Y-95245843D01*
X157326667Y-95158063D01*
X156965182Y-95042873D01*
X156602389Y-94927376D01*
X156252990Y-94816246D01*
X155931692Y-94714155D01*
X155653197Y-94625777D01*
X155432210Y-94555786D01*
X155337000Y-94525715D01*
X155152138Y-94467271D01*
X154901973Y-94387954D01*
X154601860Y-94292645D01*
X154267151Y-94186222D01*
X153913199Y-94073567D01*
X153555357Y-93959558D01*
X153410833Y-93913477D01*
X152816241Y-93723851D01*
X152294200Y-93557371D01*
X151836595Y-93411453D01*
X151435317Y-93283515D01*
X151082251Y-93170971D01*
X150769286Y-93071238D01*
X150488309Y-92981732D01*
X150231209Y-92899870D01*
X149989873Y-92823067D01*
X149756188Y-92748739D01*
X149522042Y-92674303D01*
X149279324Y-92597175D01*
X149019920Y-92514771D01*
X148860000Y-92463978D01*
X148536938Y-92361432D01*
X148237491Y-92266492D01*
X147971781Y-92182361D01*
X147749932Y-92112239D01*
X147582069Y-92059328D01*
X147478316Y-92026828D01*
X147450282Y-92018232D01*
X147420241Y-92014468D01*
X147400237Y-92032155D01*
X147389124Y-92083759D01*
X147385759Y-92181748D01*
X147180729Y-92181748D01*
X147181784Y-92007943D01*
X147187912Y-91856873D01*
X147198744Y-91789522D01*
X147200637Y-91786763D01*
X147258921Y-91782777D01*
X147395260Y-91809519D01*
G37*
X147395260Y-91809519D02*
X147609878Y-91867047D01*
X147903001Y-91955418D01*
X148040942Y-91998987D01*
X148287994Y-92077775D01*
X148597456Y-92176379D01*
X148951048Y-92288979D01*
X149330487Y-92409756D01*
X149717492Y-92532888D01*
X150093781Y-92652557D01*
X150193500Y-92684259D01*
X150552699Y-92798540D01*
X150917956Y-92914920D01*
X151273121Y-93028242D01*
X151602043Y-93133348D01*
X151888573Y-93225078D01*
X152116559Y-93298276D01*
X152183167Y-93319734D01*
X152318100Y-93363061D01*
X152525485Y-93429383D01*
X152797076Y-93516079D01*
X153124628Y-93620526D01*
X153499895Y-93740099D01*
X153914630Y-93872178D01*
X154360589Y-94014138D01*
X154829526Y-94163357D01*
X155313195Y-94317212D01*
X155803349Y-94473081D01*
X156291744Y-94628339D01*
X156770134Y-94780366D01*
X157230272Y-94926537D01*
X157663914Y-95064230D01*
X158062813Y-95190823D01*
X158418724Y-95303691D01*
X158723400Y-95400213D01*
X158808333Y-95427094D01*
X159025467Y-95499884D01*
X159195611Y-95565188D01*
X159307047Y-95618100D01*
X159347942Y-95652846D01*
X159321996Y-95708678D01*
X159244213Y-95787282D01*
X159181743Y-95835683D01*
X159089674Y-95907522D01*
X159042911Y-95958304D01*
X159044300Y-95972838D01*
X159096774Y-95989459D01*
X159214603Y-96026630D01*
X159382380Y-96079495D01*
X159584695Y-96143199D01*
X159674522Y-96171471D01*
X159884520Y-96240174D01*
X160063754Y-96303776D01*
X160197517Y-96356672D01*
X160271102Y-96393256D01*
X160280542Y-96402460D01*
X160257798Y-96450775D01*
X160183203Y-96525039D01*
X160121251Y-96573710D01*
X160021395Y-96652119D01*
X159957840Y-96713677D01*
X159945932Y-96734289D01*
X159983724Y-96758337D01*
X160088533Y-96801807D01*
X160246380Y-96859466D01*
X160443287Y-96926082D01*
X160551368Y-96960906D01*
X160819866Y-97049713D01*
X161008599Y-97120760D01*
X161120331Y-97175203D01*
X161157821Y-97214201D01*
X161157833Y-97214770D01*
X161157090Y-97243615D01*
X161151077Y-97266682D01*
X161134113Y-97282458D01*
X161100522Y-97289435D01*
X161044623Y-97286101D01*
X160960740Y-97270945D01*
X160843192Y-97242459D01*
X160686303Y-97199130D01*
X160484393Y-97139448D01*
X160231783Y-97061903D01*
X159922795Y-96964984D01*
X159551751Y-96847181D01*
X159112972Y-96706983D01*
X158600780Y-96542880D01*
X158448500Y-96494064D01*
X157866993Y-96307948D01*
X158570164Y-96307948D01*
X158570531Y-96312976D01*
X158617383Y-96334198D01*
X158725932Y-96374364D01*
X158877076Y-96427126D01*
X159051710Y-96486138D01*
X159230731Y-96545053D01*
X159395035Y-96597524D01*
X159525519Y-96637205D01*
X159603079Y-96657749D01*
X159612667Y-96659204D01*
X159685151Y-96636844D01*
X159782986Y-96576499D01*
X159803167Y-96560883D01*
X159879739Y-96490246D01*
X159889814Y-96450532D01*
X159866667Y-96436457D01*
X159803126Y-96415640D01*
X159677064Y-96375271D01*
X159506732Y-96321168D01*
X159310404Y-96259155D01*
X158817642Y-96103916D01*
X158686508Y-96200868D01*
X158606696Y-96265913D01*
X158570164Y-96307948D01*
X157866993Y-96307948D01*
X157625245Y-96230575D01*
X156739660Y-95947949D01*
X155787105Y-95644710D01*
X154762942Y-95319380D01*
X153664833Y-94971212D01*
X153462826Y-94907102D01*
X153196308Y-94822346D01*
X152881412Y-94722085D01*
X152534272Y-94611457D01*
X152171021Y-94495604D01*
X151807792Y-94379664D01*
X151675167Y-94337306D01*
X151170908Y-94176273D01*
X150741241Y-94039230D01*
X150380127Y-93924339D01*
X150081527Y-93829763D01*
X149839401Y-93753665D01*
X149647710Y-93694208D01*
X149500415Y-93649554D01*
X149391476Y-93617866D01*
X149314853Y-93597308D01*
X149264509Y-93586041D01*
X149234403Y-93582230D01*
X149218496Y-93584035D01*
X149212168Y-93588054D01*
X149207872Y-93634414D01*
X149205802Y-93757025D01*
X149205866Y-93947503D01*
X149207969Y-94197463D01*
X149212020Y-94498520D01*
X149217924Y-94842292D01*
X149225588Y-95220393D01*
X149234696Y-95615262D01*
X149263304Y-96801014D01*
X149289665Y-97921426D01*
X149313757Y-98975233D01*
X149335560Y-99961167D01*
X149355051Y-100877964D01*
X149372210Y-101724356D01*
X149387016Y-102499077D01*
X149399448Y-103200862D01*
X149409484Y-103828443D01*
X149417103Y-104380556D01*
X149422284Y-104855932D01*
X149425007Y-105253307D01*
X149425249Y-105571414D01*
X149422990Y-105808986D01*
X149418208Y-105964758D01*
X149410883Y-106037464D01*
X149408811Y-106042334D01*
X149336328Y-106100140D01*
X149272984Y-106079415D01*
X149269222Y-106075778D01*
X149259457Y-106025716D01*
X149251156Y-105906315D01*
X149244958Y-105732898D01*
X149241502Y-105520789D01*
X149241000Y-105398444D01*
X149239607Y-105174861D01*
X149235764Y-104984565D01*
X149229978Y-104842030D01*
X149222752Y-104761728D01*
X149218349Y-104749333D01*
X149177371Y-104773299D01*
X149083934Y-104838192D01*
X148952829Y-104933505D01*
X148829628Y-105025454D01*
X148676647Y-105136569D01*
X148546179Y-105223400D01*
X148453974Y-105275949D01*
X148418362Y-105286588D01*
X148398711Y-105238698D01*
X148380903Y-105113255D01*
X148365635Y-104917365D01*
X148353606Y-104658133D01*
X148352000Y-104610345D01*
X148330833Y-103949089D01*
X147935058Y-104247652D01*
X147738389Y-104390265D01*
X147600571Y-104476649D01*
X147518699Y-104508491D01*
X147495856Y-104502789D01*
X147485483Y-104450935D01*
X147474428Y-104317262D01*
X147462796Y-104104614D01*
X147450691Y-103815834D01*
X147438218Y-103453768D01*
X147425482Y-103021259D01*
X147412587Y-102521151D01*
X147399639Y-101956288D01*
X147396289Y-101799765D01*
X147375691Y-100826745D01*
X147356641Y-99933003D01*
X147339016Y-99113167D01*
X147322692Y-98361865D01*
X147307546Y-97673723D01*
X147293454Y-97043371D01*
X147280293Y-96465435D01*
X147267938Y-95934543D01*
X147256267Y-95445324D01*
X147245156Y-94992404D01*
X147234482Y-94570412D01*
X147224120Y-94173976D01*
X147213948Y-93797722D01*
X147204306Y-93452672D01*
X147191620Y-92965094D01*
X147183637Y-92561890D01*
X147180359Y-92242894D01*
X147180729Y-92181748D01*
X147385759Y-92181748D01*
X147388997Y-92338587D01*
X147397694Y-92566743D01*
X147398390Y-92583587D01*
X147403163Y-92721609D01*
X147409323Y-92936180D01*
X147416685Y-93219196D01*
X147425064Y-93562555D01*
X147434275Y-93958154D01*
X147444132Y-94397889D01*
X147454452Y-94873657D01*
X147465049Y-95377356D01*
X147475738Y-95900882D01*
X147486230Y-96430833D01*
X147497446Y-96998542D01*
X147509200Y-97578829D01*
X147521246Y-98160446D01*
X147533341Y-98732145D01*
X147545238Y-99282680D01*
X147556693Y-99800802D01*
X147567462Y-100275264D01*
X147577299Y-100694818D01*
X147585961Y-101048217D01*
X147590805Y-101235667D01*
X147600646Y-101625607D01*
X147609655Y-102020275D01*
X147617539Y-102403906D01*
X147624006Y-102760737D01*
X147628764Y-103075004D01*
X147631519Y-103330944D01*
X147632100Y-103461694D01*
X147633733Y-103693504D01*
X147638096Y-103894763D01*
X147644631Y-104050604D01*
X147652781Y-104146159D01*
X147658586Y-104168808D01*
X147701044Y-104156020D01*
X147794325Y-104100461D01*
X147922900Y-104011957D01*
X148017923Y-103941506D01*
X148232073Y-103778487D01*
X148563667Y-103778487D01*
X148563667Y-104964052D01*
X148702606Y-104867276D01*
X148818218Y-104784815D01*
X148960251Y-104680946D01*
X149039011Y-104622333D01*
X149236477Y-104474167D01*
X149211684Y-103902667D01*
X149202224Y-103692991D01*
X149193580Y-103516690D01*
X149186574Y-103389452D01*
X149182026Y-103326970D01*
X149181339Y-103323254D01*
X149147651Y-103343426D01*
X149062010Y-103404096D01*
X148939694Y-103494295D01*
X148869726Y-103546914D01*
X148563667Y-103778487D01*
X148232073Y-103778487D01*
X148351007Y-103687950D01*
X148328791Y-103255558D01*
X148324772Y-103151411D01*
X148319281Y-102969179D01*
X148312469Y-102715431D01*
X148304485Y-102396734D01*
X148295481Y-102019655D01*
X148285606Y-101590762D01*
X148275012Y-101116622D01*
X148263847Y-100603803D01*
X148252264Y-100058871D01*
X148240411Y-99488395D01*
X148228440Y-98898941D01*
X148224376Y-98695667D01*
X148212137Y-98085110D01*
X148199854Y-97479982D01*
X148187693Y-96888087D01*
X148175823Y-96317227D01*
X148164409Y-95775207D01*
X148153618Y-95269829D01*
X148143617Y-94808897D01*
X148134572Y-94400213D01*
X148126652Y-94051583D01*
X148120022Y-93770807D01*
X148114849Y-93565691D01*
X148114199Y-93541583D01*
X148105974Y-93210386D01*
X148101748Y-92956401D01*
X148318042Y-92956401D01*
X148318823Y-93158031D01*
X148321611Y-93430494D01*
X148326320Y-93769188D01*
X148332865Y-94169511D01*
X148341159Y-94626862D01*
X148351116Y-95136640D01*
X148362650Y-95694243D01*
X148375675Y-96295070D01*
X148390106Y-96934520D01*
X148405855Y-97607991D01*
X148422836Y-98310881D01*
X148436591Y-98865000D01*
X148447626Y-99317521D01*
X148459451Y-99825353D01*
X148471487Y-100362069D01*
X148483157Y-100901243D01*
X148493879Y-101416449D01*
X148503075Y-101881260D01*
X148505417Y-102005184D01*
X148534386Y-103557868D01*
X148866526Y-103305032D01*
X149033752Y-103171721D01*
X149138188Y-103072283D01*
X149189386Y-102996596D01*
X149198667Y-102953103D01*
X149197626Y-102889967D01*
X149194660Y-102751880D01*
X149189996Y-102548530D01*
X149183866Y-102289605D01*
X149176500Y-101984792D01*
X149168127Y-101643781D01*
X149158979Y-101276258D01*
X149156221Y-101166422D01*
X149149722Y-100902381D01*
X149142040Y-100580780D01*
X149133340Y-100209056D01*
X149123783Y-99794646D01*
X149113532Y-99344989D01*
X149102750Y-98867520D01*
X149091599Y-98369679D01*
X149080241Y-97858901D01*
X149068840Y-97342625D01*
X149057557Y-96828287D01*
X149046555Y-96323326D01*
X149035998Y-95835179D01*
X149026046Y-95371282D01*
X149016863Y-94939074D01*
X149008612Y-94545991D01*
X149001454Y-94199472D01*
X148995553Y-93906953D01*
X148991071Y-93675873D01*
X148988170Y-93513667D01*
X148987014Y-93427774D01*
X148987000Y-93422938D01*
X149010643Y-93338080D01*
X149055207Y-93319333D01*
X149107373Y-93331862D01*
X149232166Y-93367779D01*
X149421603Y-93424581D01*
X149667702Y-93499764D01*
X149962477Y-93590825D01*
X150297947Y-93695261D01*
X150666129Y-93810567D01*
X151059038Y-93934241D01*
X151468692Y-94063779D01*
X151887108Y-94196678D01*
X152306302Y-94330433D01*
X152718291Y-94462542D01*
X153115092Y-94590500D01*
X153305000Y-94652043D01*
X153493814Y-94712997D01*
X153747264Y-94794306D01*
X154049246Y-94890830D01*
X154383657Y-94997432D01*
X154734395Y-95108974D01*
X155085357Y-95220317D01*
X155167667Y-95246386D01*
X155540949Y-95364735D01*
X155939978Y-95491530D01*
X156343580Y-95620023D01*
X156730581Y-95743468D01*
X157079809Y-95855117D01*
X157370090Y-95948222D01*
X157377466Y-95950594D01*
X158296099Y-96245998D01*
X158425507Y-96150323D01*
X158500504Y-96082449D01*
X158526648Y-96032220D01*
X158522874Y-96024369D01*
X158476977Y-96005596D01*
X158358711Y-95964182D01*
X158176472Y-95902883D01*
X157938659Y-95824456D01*
X157653670Y-95731657D01*
X157329901Y-95627243D01*
X156975750Y-95513971D01*
X156734000Y-95437141D01*
X156317477Y-95305016D01*
X155885894Y-95167970D01*
X155454754Y-95030936D01*
X155039559Y-94898846D01*
X154655811Y-94776631D01*
X154319014Y-94669226D01*
X154044669Y-94581562D01*
X154003500Y-94568382D01*
X153713055Y-94475498D01*
X153361603Y-94363313D01*
X152968848Y-94238103D01*
X152554495Y-94106146D01*
X152138247Y-93973719D01*
X151739809Y-93847100D01*
X151611667Y-93806414D01*
X151227188Y-93684252D01*
X150821207Y-93555044D01*
X150412759Y-93424865D01*
X150020883Y-93299788D01*
X149664615Y-93185886D01*
X149362994Y-93089232D01*
X149269213Y-93059108D01*
X149004635Y-92975267D01*
X148767688Y-92902503D01*
X148569965Y-92844188D01*
X148423056Y-92803689D01*
X148338556Y-92784378D01*
X148322847Y-92784041D01*
X148319355Y-92830204D01*
X148318042Y-92956401D01*
X148101748Y-92956401D01*
X148101727Y-92955148D01*
X148101684Y-92767246D01*
X148106069Y-92638056D01*
X148115108Y-92558954D01*
X148129025Y-92521316D01*
X148140981Y-92515000D01*
X148151413Y-92515380D01*
X148166089Y-92517424D01*
X148189312Y-92522485D01*
X148225383Y-92531918D01*
X148278604Y-92547078D01*
X148353277Y-92569318D01*
X148453703Y-92599993D01*
X148584184Y-92640458D01*
X148749022Y-92692067D01*
X148952519Y-92756174D01*
X149198976Y-92834134D01*
X149492696Y-92927300D01*
X149837979Y-93037028D01*
X150239128Y-93164671D01*
X150700445Y-93311584D01*
X151226231Y-93479122D01*
X151820788Y-93668638D01*
X152488418Y-93881487D01*
X153051000Y-94060860D01*
X153852614Y-94316409D01*
X154577325Y-94547351D01*
X155228872Y-94754862D01*
X155810996Y-94940121D01*
X156327438Y-95104304D01*
X156781937Y-95248590D01*
X157178236Y-95374157D01*
X157520073Y-95482181D01*
X157811191Y-95573841D01*
X158055328Y-95650315D01*
X158256226Y-95712779D01*
X158417625Y-95762413D01*
X158543266Y-95800393D01*
X158636889Y-95827897D01*
X158702235Y-95846104D01*
X158743044Y-95856190D01*
X158763057Y-95859333D01*
X158763178Y-95859333D01*
X158832023Y-95834917D01*
X158919154Y-95778306D01*
X159022163Y-95697280D01*
X158883498Y-95653745D01*
X158811313Y-95630889D01*
X158668796Y-95585596D01*
X158466278Y-95521156D01*
X158214090Y-95440857D01*
X157922563Y-95347990D01*
X157602029Y-95245843D01*
X157326667Y-95158063D01*
X156965182Y-95042873D01*
X156602389Y-94927376D01*
X156252990Y-94816246D01*
X155931692Y-94714155D01*
X155653197Y-94625777D01*
X155432210Y-94555786D01*
X155337000Y-94525715D01*
X155152138Y-94467271D01*
X154901973Y-94387954D01*
X154601860Y-94292645D01*
X154267151Y-94186222D01*
X153913199Y-94073567D01*
X153555357Y-93959558D01*
X153410833Y-93913477D01*
X152816241Y-93723851D01*
X152294200Y-93557371D01*
X151836595Y-93411453D01*
X151435317Y-93283515D01*
X151082251Y-93170971D01*
X150769286Y-93071238D01*
X150488309Y-92981732D01*
X150231209Y-92899870D01*
X149989873Y-92823067D01*
X149756188Y-92748739D01*
X149522042Y-92674303D01*
X149279324Y-92597175D01*
X149019920Y-92514771D01*
X148860000Y-92463978D01*
X148536938Y-92361432D01*
X148237491Y-92266492D01*
X147971781Y-92182361D01*
X147749932Y-92112239D01*
X147582069Y-92059328D01*
X147478316Y-92026828D01*
X147450282Y-92018232D01*
X147420241Y-92014468D01*
X147400237Y-92032155D01*
X147389124Y-92083759D01*
X147385759Y-92181748D01*
X147180729Y-92181748D01*
X147181784Y-92007943D01*
X147187912Y-91856873D01*
X147198744Y-91789522D01*
X147200637Y-91786763D01*
X147258921Y-91782777D01*
X147395260Y-91809519D01*
G36*
X165887117Y-99920468D02*
G01*
X165910826Y-99927610D01*
X166046348Y-100000907D01*
X166154379Y-100098605D01*
X166212360Y-100198513D01*
X166216667Y-100228453D01*
X166192226Y-100347816D01*
X166116543Y-100497750D01*
X165986070Y-100683064D01*
X165797264Y-100908569D01*
X165546580Y-101179075D01*
X165420487Y-101308790D01*
X165176278Y-101559052D01*
X164945302Y-101799344D01*
X164734621Y-102022015D01*
X164551300Y-102219410D01*
X164402401Y-102383879D01*
X164294988Y-102507767D01*
X164236124Y-102583422D01*
X164227000Y-102601864D01*
X164236062Y-102611223D01*
X164269426Y-102608368D01*
X164336360Y-102590235D01*
X164446133Y-102553762D01*
X164608013Y-102495884D01*
X164831267Y-102413540D01*
X165094833Y-102315041D01*
X165441282Y-102186572D01*
X165806652Y-102053595D01*
X166166801Y-101924743D01*
X166497589Y-101808650D01*
X166774872Y-101713949D01*
X166788167Y-101709508D01*
X166911282Y-101670347D01*
X167088640Y-101616267D01*
X167293007Y-101555377D01*
X167497151Y-101495787D01*
X167673839Y-101445606D01*
X167681507Y-101443478D01*
X167822544Y-101422503D01*
X167934402Y-101436881D01*
X168006031Y-101476224D01*
X168026378Y-101530140D01*
X167984392Y-101588241D01*
X167885374Y-101635138D01*
X167789785Y-101668118D01*
X167641691Y-101721793D01*
X167467621Y-101786496D01*
X167402000Y-101811274D01*
X167199843Y-101881614D01*
X166988201Y-101945083D01*
X166806491Y-101990058D01*
X166774177Y-101996366D01*
X166523164Y-102055997D01*
X166219779Y-102150739D01*
X165884713Y-102272921D01*
X165538658Y-102414869D01*
X165202304Y-102568913D01*
X165118082Y-102610456D01*
X164641842Y-102849299D01*
X164673937Y-103005566D01*
X164685082Y-103105501D01*
X164693002Y-103269123D01*
X164697083Y-103475488D01*
X164696708Y-103703658D01*
X164695970Y-103754500D01*
X164699314Y-104138094D01*
X164725906Y-104490501D01*
X164779935Y-104830408D01*
X164865591Y-105176505D01*
X164987065Y-105547479D01*
X165148547Y-105962020D01*
X165238829Y-106175763D01*
X165301469Y-106329263D01*
X165347834Y-106458209D01*
X165369407Y-106538541D01*
X165370000Y-106546179D01*
X165345646Y-106605803D01*
X165282751Y-106606174D01*
X165196561Y-106553426D01*
X165102326Y-106453691D01*
X165086301Y-106432083D01*
X164916911Y-106158324D01*
X164750600Y-105821085D01*
X164595754Y-105441384D01*
X164460759Y-105040242D01*
X164353999Y-104638678D01*
X164333698Y-104545482D01*
X164303498Y-104345913D01*
X164281693Y-104090254D01*
X164270417Y-103806850D01*
X164269333Y-103690731D01*
X164266288Y-103478276D01*
X164257904Y-103302117D01*
X164245313Y-103177939D01*
X164229643Y-103121426D01*
X164228243Y-103120268D01*
X164187387Y-103114769D01*
X164116759Y-103136734D01*
X164008098Y-103190599D01*
X163853142Y-103280801D01*
X163643630Y-103411777D01*
X163436589Y-103545379D01*
X163261812Y-103663624D01*
X163093251Y-103788383D01*
X162921567Y-103928149D01*
X162737419Y-104091415D01*
X162531465Y-104286674D01*
X162294365Y-104522419D01*
X162016778Y-104807143D01*
X161798202Y-105035083D01*
X161629197Y-105205095D01*
X161499341Y-105321021D01*
X161412276Y-105380695D01*
X161371644Y-105381953D01*
X161381089Y-105322627D01*
X161406585Y-105267917D01*
X161454250Y-105190890D01*
X161541508Y-105063262D01*
X161656616Y-104901756D01*
X161787829Y-104723097D01*
X161809839Y-104693629D01*
X161957510Y-104491787D01*
X162058062Y-104341560D01*
X162118967Y-104229846D01*
X162147696Y-104143543D01*
X162152667Y-104092459D01*
X162158244Y-104027864D01*
X162182190Y-103967846D01*
X162235325Y-103899861D01*
X162328468Y-103811362D01*
X162472438Y-103689805D01*
X162565417Y-103613885D01*
X162735338Y-103467086D01*
X162950086Y-103267871D01*
X163198670Y-103027484D01*
X163470095Y-102757168D01*
X163753368Y-102468167D01*
X164037498Y-102171723D01*
X164311490Y-101879082D01*
X164564352Y-101601485D01*
X164785091Y-101350177D01*
X164828561Y-101299167D01*
X165061521Y-101016349D01*
X165234009Y-100789112D01*
X165347316Y-100615127D01*
X165402734Y-100492064D01*
X165401556Y-100417595D01*
X165345072Y-100389390D01*
X165333407Y-100389000D01*
X165244828Y-100405774D01*
X165097126Y-100451475D01*
X164907876Y-100519169D01*
X164694653Y-100601923D01*
X164475031Y-100692805D01*
X164266587Y-100784881D01*
X164086894Y-100871218D01*
X164015333Y-100908960D01*
X163400884Y-101265127D01*
X162831143Y-101635852D01*
X162289400Y-102029417D01*
X162135963Y-102138611D01*
X162023808Y-102193299D01*
X161932806Y-102197261D01*
X161842828Y-102154276D01*
X161798542Y-102121594D01*
X161717810Y-102043609D01*
X161691832Y-101970405D01*
X161725666Y-101891968D01*
X161824369Y-101798285D01*
X161993000Y-101679341D01*
X162036074Y-101651311D01*
X162226054Y-101527799D01*
X162425730Y-101396406D01*
X162600162Y-101280166D01*
X162644943Y-101249930D01*
X162936334Y-101064096D01*
X163258980Y-100878873D01*
X163602685Y-100698390D01*
X163957256Y-100526774D01*
X164312496Y-100368153D01*
X164658212Y-100226654D01*
X164984209Y-100106406D01*
X165280293Y-100011535D01*
X165536269Y-99946170D01*
X165741941Y-99914439D01*
X165887117Y-99920468D01*
G37*
X165887117Y-99920468D02*
X165910826Y-99927610D01*
X166046348Y-100000907D01*
X166154379Y-100098605D01*
X166212360Y-100198513D01*
X166216667Y-100228453D01*
X166192226Y-100347816D01*
X166116543Y-100497750D01*
X165986070Y-100683064D01*
X165797264Y-100908569D01*
X165546580Y-101179075D01*
X165420487Y-101308790D01*
X165176278Y-101559052D01*
X164945302Y-101799344D01*
X164734621Y-102022015D01*
X164551300Y-102219410D01*
X164402401Y-102383879D01*
X164294988Y-102507767D01*
X164236124Y-102583422D01*
X164227000Y-102601864D01*
X164236062Y-102611223D01*
X164269426Y-102608368D01*
X164336360Y-102590235D01*
X164446133Y-102553762D01*
X164608013Y-102495884D01*
X164831267Y-102413540D01*
X165094833Y-102315041D01*
X165441282Y-102186572D01*
X165806652Y-102053595D01*
X166166801Y-101924743D01*
X166497589Y-101808650D01*
X166774872Y-101713949D01*
X166788167Y-101709508D01*
X166911282Y-101670347D01*
X167088640Y-101616267D01*
X167293007Y-101555377D01*
X167497151Y-101495787D01*
X167673839Y-101445606D01*
X167681507Y-101443478D01*
X167822544Y-101422503D01*
X167934402Y-101436881D01*
X168006031Y-101476224D01*
X168026378Y-101530140D01*
X167984392Y-101588241D01*
X167885374Y-101635138D01*
X167789785Y-101668118D01*
X167641691Y-101721793D01*
X167467621Y-101786496D01*
X167402000Y-101811274D01*
X167199843Y-101881614D01*
X166988201Y-101945083D01*
X166806491Y-101990058D01*
X166774177Y-101996366D01*
X166523164Y-102055997D01*
X166219779Y-102150739D01*
X165884713Y-102272921D01*
X165538658Y-102414869D01*
X165202304Y-102568913D01*
X165118082Y-102610456D01*
X164641842Y-102849299D01*
X164673937Y-103005566D01*
X164685082Y-103105501D01*
X164693002Y-103269123D01*
X164697083Y-103475488D01*
X164696708Y-103703658D01*
X164695970Y-103754500D01*
X164699314Y-104138094D01*
X164725906Y-104490501D01*
X164779935Y-104830408D01*
X164865591Y-105176505D01*
X164987065Y-105547479D01*
X165148547Y-105962020D01*
X165238829Y-106175763D01*
X165301469Y-106329263D01*
X165347834Y-106458209D01*
X165369407Y-106538541D01*
X165370000Y-106546179D01*
X165345646Y-106605803D01*
X165282751Y-106606174D01*
X165196561Y-106553426D01*
X165102326Y-106453691D01*
X165086301Y-106432083D01*
X164916911Y-106158324D01*
X164750600Y-105821085D01*
X164595754Y-105441384D01*
X164460759Y-105040242D01*
X164353999Y-104638678D01*
X164333698Y-104545482D01*
X164303498Y-104345913D01*
X164281693Y-104090254D01*
X164270417Y-103806850D01*
X164269333Y-103690731D01*
X164266288Y-103478276D01*
X164257904Y-103302117D01*
X164245313Y-103177939D01*
X164229643Y-103121426D01*
X164228243Y-103120268D01*
X164187387Y-103114769D01*
X164116759Y-103136734D01*
X164008098Y-103190599D01*
X163853142Y-103280801D01*
X163643630Y-103411777D01*
X163436589Y-103545379D01*
X163261812Y-103663624D01*
X163093251Y-103788383D01*
X162921567Y-103928149D01*
X162737419Y-104091415D01*
X162531465Y-104286674D01*
X162294365Y-104522419D01*
X162016778Y-104807143D01*
X161798202Y-105035083D01*
X161629197Y-105205095D01*
X161499341Y-105321021D01*
X161412276Y-105380695D01*
X161371644Y-105381953D01*
X161381089Y-105322627D01*
X161406585Y-105267917D01*
X161454250Y-105190890D01*
X161541508Y-105063262D01*
X161656616Y-104901756D01*
X161787829Y-104723097D01*
X161809839Y-104693629D01*
X161957510Y-104491787D01*
X162058062Y-104341560D01*
X162118967Y-104229846D01*
X162147696Y-104143543D01*
X162152667Y-104092459D01*
X162158244Y-104027864D01*
X162182190Y-103967846D01*
X162235325Y-103899861D01*
X162328468Y-103811362D01*
X162472438Y-103689805D01*
X162565417Y-103613885D01*
X162735338Y-103467086D01*
X162950086Y-103267871D01*
X163198670Y-103027484D01*
X163470095Y-102757168D01*
X163753368Y-102468167D01*
X164037498Y-102171723D01*
X164311490Y-101879082D01*
X164564352Y-101601485D01*
X164785091Y-101350177D01*
X164828561Y-101299167D01*
X165061521Y-101016349D01*
X165234009Y-100789112D01*
X165347316Y-100615127D01*
X165402734Y-100492064D01*
X165401556Y-100417595D01*
X165345072Y-100389390D01*
X165333407Y-100389000D01*
X165244828Y-100405774D01*
X165097126Y-100451475D01*
X164907876Y-100519169D01*
X164694653Y-100601923D01*
X164475031Y-100692805D01*
X164266587Y-100784881D01*
X164086894Y-100871218D01*
X164015333Y-100908960D01*
X163400884Y-101265127D01*
X162831143Y-101635852D01*
X162289400Y-102029417D01*
X162135963Y-102138611D01*
X162023808Y-102193299D01*
X161932806Y-102197261D01*
X161842828Y-102154276D01*
X161798542Y-102121594D01*
X161717810Y-102043609D01*
X161691832Y-101970405D01*
X161725666Y-101891968D01*
X161824369Y-101798285D01*
X161993000Y-101679341D01*
X162036074Y-101651311D01*
X162226054Y-101527799D01*
X162425730Y-101396406D01*
X162600162Y-101280166D01*
X162644943Y-101249930D01*
X162936334Y-101064096D01*
X163258980Y-100878873D01*
X163602685Y-100698390D01*
X163957256Y-100526774D01*
X164312496Y-100368153D01*
X164658212Y-100226654D01*
X164984209Y-100106406D01*
X165280293Y-100011535D01*
X165536269Y-99946170D01*
X165741941Y-99914439D01*
X165887117Y-99920468D01*
D12*
X158640000Y-88300000D03*
D13*
X158640000Y-89200000D03*
D14*
X156100000Y-88300000D03*
D13*
X156100000Y-89200000D03*
D12*
X153560000Y-88300000D03*
D13*
X153560000Y-89200000D03*
D15*
X158525000Y-43430000D03*
X153675000Y-43430000D03*
D16*
X158825000Y-40400000D03*
X153375000Y-40400000D03*
D17*
X165890000Y-88530000D03*
X165890000Y-85990000D03*
X165890000Y-83450000D03*
X165890000Y-80910000D03*
X165890000Y-78370000D03*
X165890000Y-75830000D03*
X165890000Y-73290000D03*
X165890000Y-70750000D03*
X165890000Y-68210000D03*
X165890000Y-65670000D03*
X165890000Y-63130000D03*
X165890000Y-60590000D03*
X165890000Y-58050000D03*
X165890000Y-55510000D03*
X165890000Y-52970000D03*
X165890000Y-50430000D03*
X165890000Y-47890000D03*
X165890000Y-45350000D03*
X165890000Y-42810000D03*
X165890000Y-40270000D03*
X146310000Y-88530000D03*
X146310000Y-85990000D03*
X146310000Y-83450000D03*
X146310000Y-80910000D03*
X146310000Y-78370000D03*
X146310000Y-75830000D03*
X146310000Y-73290000D03*
X146310000Y-70750000D03*
X146310000Y-68210000D03*
X146310000Y-65670000D03*
X146310000Y-63130000D03*
X146310000Y-60590000D03*
X146310000Y-58050000D03*
X146310000Y-55510000D03*
X146310000Y-52970000D03*
X146310000Y-50430000D03*
X146310000Y-47890000D03*
X146310000Y-45350000D03*
X146310000Y-42810000D03*
X146310000Y-40270000D03*
D12*
X164990000Y-40270000D03*
X164990000Y-42810000D03*
D14*
X164990000Y-45350000D03*
D12*
X164990000Y-47890000D03*
X164990000Y-50430000D03*
X164990000Y-52970000D03*
X164990000Y-55510000D03*
D14*
X164990000Y-58050000D03*
D12*
X164990000Y-60590000D03*
X164990000Y-63130000D03*
X164990000Y-65670000D03*
X164990000Y-68210000D03*
D14*
X164990000Y-70750000D03*
D12*
X164990000Y-73290000D03*
X164990000Y-75830000D03*
X164990000Y-78370000D03*
X164990000Y-80910000D03*
D14*
X164990000Y-83450000D03*
D12*
X164990000Y-85990000D03*
X164990000Y-88530000D03*
X147210000Y-88530000D03*
X147210000Y-85990000D03*
D14*
X147210000Y-83450000D03*
D12*
X147210000Y-80910000D03*
X147210000Y-78370000D03*
X147210000Y-75830000D03*
X147210000Y-73290000D03*
D14*
X147210000Y-70750000D03*
D12*
X147210000Y-68210000D03*
X147210000Y-65670000D03*
X147210000Y-63130000D03*
X147210000Y-60590000D03*
D14*
X147210000Y-58050000D03*
D12*
X147210000Y-55510000D03*
X147210000Y-52970000D03*
X147210000Y-50430000D03*
X147210000Y-47890000D03*
D14*
X147210000Y-45350000D03*
D12*
X147210000Y-42810000D03*
X147210000Y-40270000D03*
D18*
X170500000Y-106000000D03*
X65900000Y-41300000D03*
X65900000Y-106000000D03*
X170500000Y-41300000D03*
D19*
X113435000Y-48435000D03*
D20*
X108355000Y-48435000D03*
X118515000Y-48435000D03*
D19*
X75335000Y-48435000D03*
D20*
X70255000Y-48435000D03*
X80415000Y-48435000D03*
D21*
X141010000Y-88940000D03*
D22*
X141010000Y-96560000D03*
D21*
X121960000Y-88940000D03*
D22*
X121960000Y-96560000D03*
D21*
X102910000Y-88940000D03*
D22*
X102910000Y-96560000D03*
D21*
X83860000Y-88940000D03*
D22*
X83860000Y-96560000D03*
D21*
X141010000Y-65527500D03*
D22*
X141010000Y-73147500D03*
D21*
X121960000Y-65127500D03*
D22*
X121960000Y-72747500D03*
D21*
X102910000Y-65127500D03*
D22*
X102910000Y-72747500D03*
D21*
X83860000Y-65127500D03*
D22*
X83860000Y-72747500D03*
D21*
X141010000Y-41315000D03*
D22*
X141010000Y-48935000D03*
D21*
X121960000Y-41315000D03*
D22*
X121960000Y-48935000D03*
D21*
X102910000Y-41315000D03*
D22*
X102910000Y-48935000D03*
D21*
X83860000Y-41315000D03*
D22*
X83860000Y-48935000D03*
D19*
X132485000Y-96060000D03*
D20*
X127405000Y-96060000D03*
X137565000Y-96060000D03*
D19*
X113435000Y-96060000D03*
D20*
X108355000Y-96060000D03*
X118515000Y-96060000D03*
D19*
X94385000Y-96060000D03*
D20*
X89305000Y-96060000D03*
X99465000Y-96060000D03*
D19*
X75335000Y-96060000D03*
D20*
X70255000Y-96060000D03*
X80415000Y-96060000D03*
D19*
X132485000Y-72247500D03*
D20*
X127405000Y-72247500D03*
X137565000Y-72247500D03*
D19*
X113435000Y-72247500D03*
D20*
X108355000Y-72247500D03*
X118515000Y-72247500D03*
D19*
X94385000Y-72247500D03*
D20*
X89305000Y-72247500D03*
X99465000Y-72247500D03*
D19*
X75335000Y-72247500D03*
D20*
X70255000Y-72247500D03*
X80415000Y-72247500D03*
D19*
X132485000Y-48435000D03*
D20*
X127405000Y-48435000D03*
X137565000Y-48435000D03*
D19*
X94385000Y-48435000D03*
D20*
X89305000Y-48435000D03*
X99465000Y-48435000D03*
M02*
