M48
; DRILL file {KiCad (5.1.9)-1} date 06/06/21 12:20:08
; FORMAT={-:-/ absolute / metric / decimal}
; #@! TF.CreationDate,2021-06-06T12:20:08+01:00
; #@! TF.GenerationSoftware,Kicad,Pcbnew,(5.1.9)-1
; #@! TF.FileFunction,NonPlated,1,2,NPTH
FMAT,2
METRIC
T1C1.500
T2C1.750
T3C1.800
T4C2.200
T5C3.988
%
G90
G05
T1
X153.675Y-43.43
X158.525Y-43.43
T2
X70.255Y-48.435
X70.255Y-72.248
X70.255Y-96.06
X80.415Y-48.435
X80.415Y-72.248
X80.415Y-96.06
X89.305Y-48.435
X89.305Y-72.248
X89.305Y-96.06
X99.465Y-48.435
X99.465Y-72.248
X99.465Y-96.06
X108.355Y-48.435
X108.355Y-72.248
X108.355Y-96.06
X118.515Y-48.435
X118.515Y-72.248
X118.515Y-96.06
X127.405Y-48.435
X127.405Y-72.248
X127.405Y-96.06
X137.565Y-48.435
X137.565Y-72.248
X137.565Y-96.06
T3
X153.375Y-40.4
X158.825Y-40.4
T4
X65.9Y-41.3
X65.9Y-106.0
X170.5Y-41.3
X170.5Y-106.0
T5
X75.335Y-48.435
X75.335Y-72.248
X75.335Y-96.06
X94.385Y-48.435
X94.385Y-72.248
X94.385Y-96.06
X113.435Y-48.435
X113.435Y-72.248
X113.435Y-96.06
X132.485Y-48.435
X132.485Y-72.248
X132.485Y-96.06
T0
M30
