%FSLAX45Y45*%
G04 Gerber Fmt 4.5, Leading zero omitted, Abs format (unit mm)*
G04 Created by KiCad (PCBNEW (5.1.9)-1) date 2021-05-27 04:12:52*
%MOMM*%
%LPD*%
G01*
G04 APERTURE LIST*
%TA.AperFunction,Profile*%
%ADD10C,0.100000*%
%TD*%
%ADD11C,0.200000*%
%ADD12C,0.300000*%
G04 APERTURE END LIST*
D10*
X17100000Y-3880000D02*
G75*
G02*
X17300000Y-4080000I0J-200000D01*
G01*
X17300000Y-10650000D02*
G75*
G02*
X17100000Y-10850000I-200000J0D01*
G01*
X6540000Y-10850000D02*
G75*
G02*
X6340000Y-10650000I0J200000D01*
G01*
X6340000Y-4080000D02*
X6340000Y-10650000D01*
X17100000Y-3880000D02*
X6540000Y-3880000D01*
X6340000Y-4080000D02*
G75*
G02*
X6540000Y-3880000I200000J0D01*
G01*
X17300000Y-10650000D02*
X17300000Y-4080000D01*
X6540000Y-10850000D02*
X17100000Y-10850000D01*
D11*
X6480000Y-4020000D02*
X6700000Y-4240000D01*
X6700000Y-4020000D02*
X6480000Y-4240000D01*
X6480000Y-10490000D02*
X6700000Y-10710000D01*
X6700000Y-10490000D02*
X6480000Y-10710000D01*
X16940000Y-4020000D02*
X17160000Y-4240000D01*
X17160000Y-4020000D02*
X16940000Y-4240000D01*
X16940000Y-10490000D02*
X17160000Y-10710000D01*
X17160000Y-10490000D02*
X16940000Y-10710000D01*
D12*
X6621428Y-11320714D02*
X6621428Y-11020714D01*
X6692857Y-11020714D01*
X6735714Y-11035000D01*
X6764286Y-11063572D01*
X6778571Y-11092143D01*
X6792857Y-11149286D01*
X6792857Y-11192143D01*
X6778571Y-11249286D01*
X6764286Y-11277857D01*
X6735714Y-11306429D01*
X6692857Y-11320714D01*
X6621428Y-11320714D01*
X6921428Y-11320714D02*
X6921428Y-11120714D01*
X6921428Y-11177857D02*
X6935714Y-11149286D01*
X6950000Y-11135000D01*
X6978571Y-11120714D01*
X7007143Y-11120714D01*
X7107143Y-11320714D02*
X7107143Y-11120714D01*
X7107143Y-11020714D02*
X7092857Y-11035000D01*
X7107143Y-11049286D01*
X7121428Y-11035000D01*
X7107143Y-11020714D01*
X7107143Y-11049286D01*
X7292857Y-11320714D02*
X7264286Y-11306429D01*
X7250000Y-11277857D01*
X7250000Y-11020714D01*
X7450000Y-11320714D02*
X7421428Y-11306429D01*
X7407143Y-11277857D01*
X7407143Y-11020714D01*
X7792857Y-11320714D02*
X7792857Y-11020714D01*
X7892857Y-11235000D01*
X7992857Y-11020714D01*
X7992857Y-11320714D01*
X8264286Y-11320714D02*
X8264286Y-11163572D01*
X8250000Y-11135000D01*
X8221428Y-11120714D01*
X8164286Y-11120714D01*
X8135714Y-11135000D01*
X8264286Y-11306429D02*
X8235714Y-11320714D01*
X8164286Y-11320714D01*
X8135714Y-11306429D01*
X8121428Y-11277857D01*
X8121428Y-11249286D01*
X8135714Y-11220714D01*
X8164286Y-11206429D01*
X8235714Y-11206429D01*
X8264286Y-11192143D01*
X8407143Y-11120714D02*
X8407143Y-11420714D01*
X8407143Y-11135000D02*
X8435714Y-11120714D01*
X8492857Y-11120714D01*
X8521428Y-11135000D01*
X8535714Y-11149286D01*
X8550000Y-11177857D01*
X8550000Y-11263571D01*
X8535714Y-11292143D01*
X8521428Y-11306429D01*
X8492857Y-11320714D01*
X8435714Y-11320714D01*
X8407143Y-11306429D01*
X8678571Y-11292143D02*
X8692857Y-11306429D01*
X8678571Y-11320714D01*
X8664286Y-11306429D01*
X8678571Y-11292143D01*
X8678571Y-11320714D01*
X8678571Y-11135000D02*
X8692857Y-11149286D01*
X8678571Y-11163572D01*
X8664286Y-11149286D01*
X8678571Y-11135000D01*
X8678571Y-11163572D01*
X6115000Y-11705000D02*
X6335000Y-11925000D01*
X6335000Y-11705000D02*
X6115000Y-11925000D01*
X6607143Y-11679286D02*
X6621428Y-11665000D01*
X6650000Y-11650714D01*
X6721428Y-11650714D01*
X6750000Y-11665000D01*
X6764286Y-11679286D01*
X6778571Y-11707857D01*
X6778571Y-11736429D01*
X6764286Y-11779286D01*
X6592857Y-11950714D01*
X6778571Y-11950714D01*
X6907143Y-11922143D02*
X6921428Y-11936429D01*
X6907143Y-11950714D01*
X6892857Y-11936429D01*
X6907143Y-11922143D01*
X6907143Y-11950714D01*
X7035714Y-11679286D02*
X7050000Y-11665000D01*
X7078571Y-11650714D01*
X7150000Y-11650714D01*
X7178571Y-11665000D01*
X7192857Y-11679286D01*
X7207143Y-11707857D01*
X7207143Y-11736429D01*
X7192857Y-11779286D01*
X7021428Y-11950714D01*
X7207143Y-11950714D01*
X7392857Y-11650714D02*
X7421428Y-11650714D01*
X7450000Y-11665000D01*
X7464286Y-11679286D01*
X7478571Y-11707857D01*
X7492857Y-11765000D01*
X7492857Y-11836429D01*
X7478571Y-11893571D01*
X7464286Y-11922143D01*
X7450000Y-11936429D01*
X7421428Y-11950714D01*
X7392857Y-11950714D01*
X7364286Y-11936429D01*
X7350000Y-11922143D01*
X7335714Y-11893571D01*
X7321428Y-11836429D01*
X7321428Y-11765000D01*
X7335714Y-11707857D01*
X7350000Y-11679286D01*
X7364286Y-11665000D01*
X7392857Y-11650714D01*
X7621428Y-11950714D02*
X7621428Y-11750714D01*
X7621428Y-11779286D02*
X7635714Y-11765000D01*
X7664286Y-11750714D01*
X7707143Y-11750714D01*
X7735714Y-11765000D01*
X7750000Y-11793571D01*
X7750000Y-11950714D01*
X7750000Y-11793571D02*
X7764286Y-11765000D01*
X7792857Y-11750714D01*
X7835714Y-11750714D01*
X7864286Y-11765000D01*
X7878571Y-11793571D01*
X7878571Y-11950714D01*
X8021428Y-11950714D02*
X8021428Y-11750714D01*
X8021428Y-11779286D02*
X8035714Y-11765000D01*
X8064286Y-11750714D01*
X8107143Y-11750714D01*
X8135714Y-11765000D01*
X8150000Y-11793571D01*
X8150000Y-11950714D01*
X8150000Y-11793571D02*
X8164286Y-11765000D01*
X8192857Y-11750714D01*
X8235714Y-11750714D01*
X8264286Y-11765000D01*
X8278571Y-11793571D01*
X8278571Y-11950714D01*
X8864286Y-11636429D02*
X8607143Y-12022143D01*
X9250000Y-11650714D02*
X9278571Y-11650714D01*
X9307143Y-11665000D01*
X9321428Y-11679286D01*
X9335714Y-11707857D01*
X9350000Y-11765000D01*
X9350000Y-11836429D01*
X9335714Y-11893571D01*
X9321428Y-11922143D01*
X9307143Y-11936429D01*
X9278571Y-11950714D01*
X9250000Y-11950714D01*
X9221428Y-11936429D01*
X9207143Y-11922143D01*
X9192857Y-11893571D01*
X9178571Y-11836429D01*
X9178571Y-11765000D01*
X9192857Y-11707857D01*
X9207143Y-11679286D01*
X9221428Y-11665000D01*
X9250000Y-11650714D01*
X9478571Y-11922143D02*
X9492857Y-11936429D01*
X9478571Y-11950714D01*
X9464286Y-11936429D01*
X9478571Y-11922143D01*
X9478571Y-11950714D01*
X9678571Y-11650714D02*
X9707143Y-11650714D01*
X9735714Y-11665000D01*
X9750000Y-11679286D01*
X9764286Y-11707857D01*
X9778571Y-11765000D01*
X9778571Y-11836429D01*
X9764286Y-11893571D01*
X9750000Y-11922143D01*
X9735714Y-11936429D01*
X9707143Y-11950714D01*
X9678571Y-11950714D01*
X9650000Y-11936429D01*
X9635714Y-11922143D01*
X9621428Y-11893571D01*
X9607143Y-11836429D01*
X9607143Y-11765000D01*
X9621428Y-11707857D01*
X9635714Y-11679286D01*
X9650000Y-11665000D01*
X9678571Y-11650714D01*
X9950000Y-11779286D02*
X9921428Y-11765000D01*
X9907143Y-11750714D01*
X9892857Y-11722143D01*
X9892857Y-11707857D01*
X9907143Y-11679286D01*
X9921428Y-11665000D01*
X9950000Y-11650714D01*
X10007143Y-11650714D01*
X10035714Y-11665000D01*
X10050000Y-11679286D01*
X10064286Y-11707857D01*
X10064286Y-11722143D01*
X10050000Y-11750714D01*
X10035714Y-11765000D01*
X10007143Y-11779286D01*
X9950000Y-11779286D01*
X9921428Y-11793571D01*
X9907143Y-11807857D01*
X9892857Y-11836429D01*
X9892857Y-11893571D01*
X9907143Y-11922143D01*
X9921428Y-11936429D01*
X9950000Y-11950714D01*
X10007143Y-11950714D01*
X10035714Y-11936429D01*
X10050000Y-11922143D01*
X10064286Y-11893571D01*
X10064286Y-11836429D01*
X10050000Y-11807857D01*
X10035714Y-11793571D01*
X10007143Y-11779286D01*
X10164286Y-11650714D02*
X10364286Y-11650714D01*
X10235714Y-11950714D01*
X10464286Y-11650714D02*
X10464286Y-11707857D01*
X10578571Y-11650714D02*
X10578571Y-11707857D01*
X11021428Y-12065000D02*
X11007143Y-12050714D01*
X10978571Y-12007857D01*
X10964286Y-11979286D01*
X10950000Y-11936429D01*
X10935714Y-11865000D01*
X10935714Y-11807857D01*
X10950000Y-11736429D01*
X10964286Y-11693571D01*
X10978571Y-11665000D01*
X11007143Y-11622143D01*
X11021428Y-11607857D01*
X11264286Y-11750714D02*
X11264286Y-11950714D01*
X11192857Y-11636429D02*
X11121428Y-11850714D01*
X11307143Y-11850714D01*
X11650000Y-11950714D02*
X11650000Y-11650714D01*
X11778571Y-11950714D02*
X11778571Y-11793571D01*
X11764286Y-11765000D01*
X11735714Y-11750714D01*
X11692857Y-11750714D01*
X11664286Y-11765000D01*
X11650000Y-11779286D01*
X11964286Y-11950714D02*
X11935714Y-11936429D01*
X11921428Y-11922143D01*
X11907143Y-11893571D01*
X11907143Y-11807857D01*
X11921428Y-11779286D01*
X11935714Y-11765000D01*
X11964286Y-11750714D01*
X12007143Y-11750714D01*
X12035714Y-11765000D01*
X12050000Y-11779286D01*
X12064286Y-11807857D01*
X12064286Y-11893571D01*
X12050000Y-11922143D01*
X12035714Y-11936429D01*
X12007143Y-11950714D01*
X11964286Y-11950714D01*
X12235714Y-11950714D02*
X12207143Y-11936429D01*
X12192857Y-11907857D01*
X12192857Y-11650714D01*
X12464286Y-11936429D02*
X12435714Y-11950714D01*
X12378571Y-11950714D01*
X12350000Y-11936429D01*
X12335714Y-11907857D01*
X12335714Y-11793571D01*
X12350000Y-11765000D01*
X12378571Y-11750714D01*
X12435714Y-11750714D01*
X12464286Y-11765000D01*
X12478571Y-11793571D01*
X12478571Y-11822143D01*
X12335714Y-11850714D01*
X12592857Y-11936429D02*
X12621428Y-11950714D01*
X12678571Y-11950714D01*
X12707143Y-11936429D01*
X12721428Y-11907857D01*
X12721428Y-11893571D01*
X12707143Y-11865000D01*
X12678571Y-11850714D01*
X12635714Y-11850714D01*
X12607143Y-11836429D01*
X12592857Y-11807857D01*
X12592857Y-11793571D01*
X12607143Y-11765000D01*
X12635714Y-11750714D01*
X12678571Y-11750714D01*
X12707143Y-11765000D01*
X12821428Y-12065000D02*
X12835714Y-12050714D01*
X12864286Y-12007857D01*
X12878571Y-11979286D01*
X12892857Y-11936429D01*
X12907143Y-11865000D01*
X12907143Y-11807857D01*
X12892857Y-11736429D01*
X12878571Y-11693571D01*
X12864286Y-11665000D01*
X12835714Y-11622143D01*
X12821428Y-11607857D01*
X13364286Y-12065000D02*
X13350000Y-12050714D01*
X13321428Y-12007857D01*
X13307143Y-11979286D01*
X13292857Y-11936429D01*
X13278571Y-11865000D01*
X13278571Y-11807857D01*
X13292857Y-11736429D01*
X13307143Y-11693571D01*
X13321428Y-11665000D01*
X13350000Y-11622143D01*
X13364286Y-11607857D01*
X13478571Y-11750714D02*
X13478571Y-11950714D01*
X13478571Y-11779286D02*
X13492857Y-11765000D01*
X13521428Y-11750714D01*
X13564286Y-11750714D01*
X13592857Y-11765000D01*
X13607143Y-11793571D01*
X13607143Y-11950714D01*
X13792857Y-11950714D02*
X13764286Y-11936429D01*
X13750000Y-11922143D01*
X13735714Y-11893571D01*
X13735714Y-11807857D01*
X13750000Y-11779286D01*
X13764286Y-11765000D01*
X13792857Y-11750714D01*
X13835714Y-11750714D01*
X13864286Y-11765000D01*
X13878571Y-11779286D01*
X13892857Y-11807857D01*
X13892857Y-11893571D01*
X13878571Y-11922143D01*
X13864286Y-11936429D01*
X13835714Y-11950714D01*
X13792857Y-11950714D01*
X13978571Y-11750714D02*
X14092857Y-11750714D01*
X14021428Y-11650714D02*
X14021428Y-11907857D01*
X14035714Y-11936429D01*
X14064286Y-11950714D01*
X14092857Y-11950714D01*
X14421428Y-11750714D02*
X14421428Y-12050714D01*
X14421428Y-11765000D02*
X14450000Y-11750714D01*
X14507143Y-11750714D01*
X14535714Y-11765000D01*
X14550000Y-11779286D01*
X14564286Y-11807857D01*
X14564286Y-11893571D01*
X14550000Y-11922143D01*
X14535714Y-11936429D01*
X14507143Y-11950714D01*
X14450000Y-11950714D01*
X14421428Y-11936429D01*
X14735714Y-11950714D02*
X14707143Y-11936429D01*
X14692857Y-11907857D01*
X14692857Y-11650714D01*
X14978571Y-11950714D02*
X14978571Y-11793571D01*
X14964286Y-11765000D01*
X14935714Y-11750714D01*
X14878571Y-11750714D01*
X14850000Y-11765000D01*
X14978571Y-11936429D02*
X14950000Y-11950714D01*
X14878571Y-11950714D01*
X14850000Y-11936429D01*
X14835714Y-11907857D01*
X14835714Y-11879286D01*
X14850000Y-11850714D01*
X14878571Y-11836429D01*
X14950000Y-11836429D01*
X14978571Y-11822143D01*
X15078571Y-11750714D02*
X15192857Y-11750714D01*
X15121428Y-11650714D02*
X15121428Y-11907857D01*
X15135714Y-11936429D01*
X15164286Y-11950714D01*
X15192857Y-11950714D01*
X15407143Y-11936429D02*
X15378571Y-11950714D01*
X15321428Y-11950714D01*
X15292857Y-11936429D01*
X15278571Y-11907857D01*
X15278571Y-11793571D01*
X15292857Y-11765000D01*
X15321428Y-11750714D01*
X15378571Y-11750714D01*
X15407143Y-11765000D01*
X15421428Y-11793571D01*
X15421428Y-11822143D01*
X15278571Y-11850714D01*
X15678571Y-11950714D02*
X15678571Y-11650714D01*
X15678571Y-11936429D02*
X15650000Y-11950714D01*
X15592857Y-11950714D01*
X15564286Y-11936429D01*
X15550000Y-11922143D01*
X15535714Y-11893571D01*
X15535714Y-11807857D01*
X15550000Y-11779286D01*
X15564286Y-11765000D01*
X15592857Y-11750714D01*
X15650000Y-11750714D01*
X15678571Y-11765000D01*
X15792857Y-12065000D02*
X15807143Y-12050714D01*
X15835714Y-12007857D01*
X15850000Y-11979286D01*
X15864286Y-11936429D01*
X15878571Y-11865000D01*
X15878571Y-11807857D01*
X15864286Y-11736429D01*
X15850000Y-11693571D01*
X15835714Y-11665000D01*
X15807143Y-11622143D01*
X15792857Y-11607857D01*
M02*
