G04 #@! TF.GenerationSoftware,KiCad,Pcbnew,(5.1.9)-1*
G04 #@! TF.CreationDate,2021-05-27T04:12:53+01:00*
G04 #@! TF.ProjectId,EnvMCRO,456e764d-4352-44f2-9e6b-696361645f70,rev?*
G04 #@! TF.SameCoordinates,Original*
G04 #@! TF.FileFunction,Copper,L1,Top*
G04 #@! TF.FilePolarity,Positive*
%FSLAX46Y46*%
G04 Gerber Fmt 4.6, Leading zero omitted, Abs format (unit mm)*
G04 Created by KiCad (PCBNEW (5.1.9)-1) date 2021-05-27 04:12:53*
%MOMM*%
%LPD*%
G01*
G04 APERTURE LIST*
G04 #@! TA.AperFunction,NonConductor*
%ADD10C,0.150000*%
G04 #@! TD*
G04 #@! TA.AperFunction,EtchedComponent*
%ADD11C,0.010000*%
G04 #@! TD*
G04 APERTURE END LIST*
D10*
X113223809Y-40428571D02*
X113557142Y-40428571D01*
X113700000Y-40952380D02*
X113223809Y-40952380D01*
X113223809Y-39952380D01*
X113700000Y-39952380D01*
X114128571Y-40285714D02*
X114128571Y-40952380D01*
X114128571Y-40380952D02*
X114176190Y-40333333D01*
X114271428Y-40285714D01*
X114414285Y-40285714D01*
X114509523Y-40333333D01*
X114557142Y-40428571D01*
X114557142Y-40952380D01*
X114938095Y-40285714D02*
X115176190Y-40952380D01*
X115414285Y-40285714D01*
X115795238Y-40952380D02*
X115795238Y-40285714D01*
X115795238Y-39952380D02*
X115747619Y-40000000D01*
X115795238Y-40047619D01*
X115842857Y-40000000D01*
X115795238Y-39952380D01*
X115795238Y-40047619D01*
X116414285Y-40952380D02*
X116319047Y-40904761D01*
X116271428Y-40857142D01*
X116223809Y-40761904D01*
X116223809Y-40476190D01*
X116271428Y-40380952D01*
X116319047Y-40333333D01*
X116414285Y-40285714D01*
X116557142Y-40285714D01*
X116652380Y-40333333D01*
X116700000Y-40380952D01*
X116747619Y-40476190D01*
X116747619Y-40761904D01*
X116700000Y-40857142D01*
X116652380Y-40904761D01*
X116557142Y-40952380D01*
X116414285Y-40952380D01*
X117604761Y-40285714D02*
X117604761Y-40952380D01*
X117176190Y-40285714D02*
X117176190Y-40809523D01*
X117223809Y-40904761D01*
X117319047Y-40952380D01*
X117461904Y-40952380D01*
X117557142Y-40904761D01*
X117604761Y-40857142D01*
X118033333Y-40904761D02*
X118128571Y-40952380D01*
X118319047Y-40952380D01*
X118414285Y-40904761D01*
X118461904Y-40809523D01*
X118461904Y-40761904D01*
X118414285Y-40666666D01*
X118319047Y-40619047D01*
X118176190Y-40619047D01*
X118080952Y-40571428D01*
X118033333Y-40476190D01*
X118033333Y-40428571D01*
X118080952Y-40333333D01*
X118176190Y-40285714D01*
X118319047Y-40285714D01*
X118414285Y-40333333D01*
X118890476Y-40857142D02*
X118938095Y-40904761D01*
X118890476Y-40952380D01*
X118842857Y-40904761D01*
X118890476Y-40857142D01*
X118890476Y-40952380D01*
X119366666Y-40952380D02*
X119366666Y-39952380D01*
X119700000Y-40666666D01*
X120033333Y-39952380D01*
X120033333Y-40952380D01*
X120890476Y-40904761D02*
X120795238Y-40952380D01*
X120604761Y-40952380D01*
X120509523Y-40904761D01*
X120461904Y-40809523D01*
X120461904Y-40428571D01*
X120509523Y-40333333D01*
X120604761Y-40285714D01*
X120795238Y-40285714D01*
X120890476Y-40333333D01*
X120938095Y-40428571D01*
X120938095Y-40523809D01*
X120461904Y-40619047D01*
X121795238Y-40952380D02*
X121795238Y-39952380D01*
X121795238Y-40904761D02*
X121700000Y-40952380D01*
X121509523Y-40952380D01*
X121414285Y-40904761D01*
X121366666Y-40857142D01*
X121319047Y-40761904D01*
X121319047Y-40476190D01*
X121366666Y-40380952D01*
X121414285Y-40333333D01*
X121509523Y-40285714D01*
X121700000Y-40285714D01*
X121795238Y-40333333D01*
X122271428Y-40952380D02*
X122271428Y-40285714D01*
X122271428Y-39952380D02*
X122223809Y-40000000D01*
X122271428Y-40047619D01*
X122319047Y-40000000D01*
X122271428Y-39952380D01*
X122271428Y-40047619D01*
X123176190Y-40952380D02*
X123176190Y-40428571D01*
X123128571Y-40333333D01*
X123033333Y-40285714D01*
X122842857Y-40285714D01*
X122747619Y-40333333D01*
X123176190Y-40904761D02*
X123080952Y-40952380D01*
X122842857Y-40952380D01*
X122747619Y-40904761D01*
X122700000Y-40809523D01*
X122700000Y-40714285D01*
X122747619Y-40619047D01*
X122842857Y-40571428D01*
X123080952Y-40571428D01*
X123176190Y-40523809D01*
D11*
G36*
X113079070Y-68691677D02*
G01*
X113296491Y-68758348D01*
X113413844Y-68870077D01*
X113429113Y-69044591D01*
X113340284Y-69299614D01*
X113145343Y-69652871D01*
X112931763Y-69987679D01*
X112675471Y-70379163D01*
X112416908Y-70779297D01*
X112191749Y-71132627D01*
X112073578Y-71321667D01*
X111894905Y-71608049D01*
X111658710Y-71981871D01*
X111399619Y-72388508D01*
X111214860Y-72676334D01*
X111001199Y-73016337D01*
X110826379Y-73310530D01*
X110708837Y-73526772D01*
X110666988Y-73631491D01*
X110684342Y-73709466D01*
X110767070Y-73765984D01*
X110955046Y-73821179D01*
X111114792Y-73857620D01*
X111295085Y-73938230D01*
X111326014Y-74051480D01*
X111213968Y-74191513D01*
X110944228Y-74281187D01*
X110526483Y-74318894D01*
X110176633Y-74327334D01*
X109388631Y-75533834D01*
X108729054Y-76542491D01*
X108157988Y-77413140D01*
X107672445Y-78150257D01*
X107269436Y-78758318D01*
X106945973Y-79241800D01*
X106699070Y-79605178D01*
X106525738Y-79852928D01*
X106422989Y-79989527D01*
X106394159Y-80019870D01*
X106236738Y-80077963D01*
X106133295Y-79979697D01*
X106117652Y-79942990D01*
X106130493Y-79795912D01*
X106221657Y-79537590D01*
X106376427Y-79198260D01*
X106580085Y-78808159D01*
X106817914Y-78397525D01*
X107038574Y-78050981D01*
X107200507Y-77802104D01*
X107316701Y-77611350D01*
X107362631Y-77519030D01*
X107362667Y-77518265D01*
X107408169Y-77434523D01*
X107532383Y-77240176D01*
X107716871Y-76963314D01*
X107943197Y-76632024D01*
X107966988Y-76597608D01*
X108246159Y-76182692D01*
X108531040Y-75739913D01*
X108784001Y-75328729D01*
X108934986Y-75068112D01*
X109106311Y-74754126D01*
X109202451Y-74554775D01*
X109232002Y-74437542D01*
X109203563Y-74369908D01*
X109132044Y-74322719D01*
X108980894Y-74290932D01*
X108670213Y-74268776D01*
X108209544Y-74256550D01*
X107608433Y-74254556D01*
X107118877Y-74259274D01*
X105272328Y-74285000D01*
X104862568Y-74620949D01*
X104649373Y-74804309D01*
X104350290Y-75073009D01*
X104000978Y-75394488D01*
X103637096Y-75736187D01*
X103541227Y-75827449D01*
X103146060Y-76196499D01*
X102847913Y-76454070D01*
X102629400Y-76613520D01*
X102473136Y-76688209D01*
X102408258Y-76698000D01*
X102069537Y-76628198D01*
X101821279Y-76430873D01*
X101769652Y-76349963D01*
X101742576Y-76266703D01*
X101763721Y-76171831D01*
X101850085Y-76042554D01*
X102018669Y-75856081D01*
X102286474Y-75589617D01*
X102466211Y-75416083D01*
X102769681Y-75114358D01*
X102996863Y-74867758D01*
X103131591Y-74695123D01*
X103157701Y-74615296D01*
X103154749Y-74613541D01*
X102953854Y-74493575D01*
X102765434Y-74329462D01*
X102642212Y-74171450D01*
X102621334Y-74105201D01*
X102704531Y-73973599D01*
X102948555Y-73852232D01*
X103345055Y-73744081D01*
X103885680Y-73652127D01*
X103894086Y-73650989D01*
X104154485Y-73613552D01*
X104367138Y-73571263D01*
X104562618Y-73509880D01*
X104771497Y-73415164D01*
X104795362Y-73401734D01*
X106516000Y-73401734D01*
X106594523Y-73433770D01*
X106805936Y-73469031D01*
X107114003Y-73502328D01*
X107341500Y-73519967D01*
X107709843Y-73546438D01*
X108022215Y-73572351D01*
X108234608Y-73593882D01*
X108294000Y-73602713D01*
X108436033Y-73617157D01*
X108695759Y-73630129D01*
X109021544Y-73639176D01*
X109081940Y-73640179D01*
X109418329Y-73641411D01*
X109634058Y-73623746D01*
X109777718Y-73573548D01*
X109897901Y-73477181D01*
X109982728Y-73387399D01*
X110123259Y-73201145D01*
X110310482Y-72908826D01*
X110516093Y-72556192D01*
X110650603Y-72307899D01*
X110880816Y-71874883D01*
X111135316Y-71406164D01*
X111372745Y-70977581D01*
X111464314Y-70815717D01*
X111633737Y-70513061D01*
X111765260Y-70266655D01*
X111839919Y-70112591D01*
X111850000Y-70081589D01*
X111782740Y-70082594D01*
X111597944Y-70161038D01*
X111321088Y-70303688D01*
X110977650Y-70497313D01*
X110593106Y-70728679D01*
X110537667Y-70763187D01*
X110184857Y-70980269D01*
X109782633Y-71222724D01*
X109479334Y-71402102D01*
X109184243Y-71580532D01*
X108824371Y-71807532D01*
X108424044Y-72066686D01*
X108007592Y-72341577D01*
X107599343Y-72615790D01*
X107223625Y-72872906D01*
X106904767Y-73096510D01*
X106667097Y-73270185D01*
X106534944Y-73377515D01*
X106516000Y-73401734D01*
X104795362Y-73401734D01*
X105024346Y-73272875D01*
X105351739Y-73068772D01*
X105784246Y-72788614D01*
X105881000Y-72725500D01*
X106584914Y-72274282D01*
X107321092Y-71817027D01*
X108068154Y-71365914D01*
X108804724Y-70933124D01*
X109509422Y-70530836D01*
X110160869Y-70171230D01*
X110737688Y-69866487D01*
X111218500Y-69628787D01*
X111581926Y-69470309D01*
X111619194Y-69456250D01*
X111919834Y-69310158D01*
X112242730Y-69100826D01*
X112404446Y-68972025D01*
X112634106Y-68782706D01*
X112801192Y-68691397D01*
X112961421Y-68674945D01*
X113079070Y-68691677D01*
G37*
X113079070Y-68691677D02*
X113296491Y-68758348D01*
X113413844Y-68870077D01*
X113429113Y-69044591D01*
X113340284Y-69299614D01*
X113145343Y-69652871D01*
X112931763Y-69987679D01*
X112675471Y-70379163D01*
X112416908Y-70779297D01*
X112191749Y-71132627D01*
X112073578Y-71321667D01*
X111894905Y-71608049D01*
X111658710Y-71981871D01*
X111399619Y-72388508D01*
X111214860Y-72676334D01*
X111001199Y-73016337D01*
X110826379Y-73310530D01*
X110708837Y-73526772D01*
X110666988Y-73631491D01*
X110684342Y-73709466D01*
X110767070Y-73765984D01*
X110955046Y-73821179D01*
X111114792Y-73857620D01*
X111295085Y-73938230D01*
X111326014Y-74051480D01*
X111213968Y-74191513D01*
X110944228Y-74281187D01*
X110526483Y-74318894D01*
X110176633Y-74327334D01*
X109388631Y-75533834D01*
X108729054Y-76542491D01*
X108157988Y-77413140D01*
X107672445Y-78150257D01*
X107269436Y-78758318D01*
X106945973Y-79241800D01*
X106699070Y-79605178D01*
X106525738Y-79852928D01*
X106422989Y-79989527D01*
X106394159Y-80019870D01*
X106236738Y-80077963D01*
X106133295Y-79979697D01*
X106117652Y-79942990D01*
X106130493Y-79795912D01*
X106221657Y-79537590D01*
X106376427Y-79198260D01*
X106580085Y-78808159D01*
X106817914Y-78397525D01*
X107038574Y-78050981D01*
X107200507Y-77802104D01*
X107316701Y-77611350D01*
X107362631Y-77519030D01*
X107362667Y-77518265D01*
X107408169Y-77434523D01*
X107532383Y-77240176D01*
X107716871Y-76963314D01*
X107943197Y-76632024D01*
X107966988Y-76597608D01*
X108246159Y-76182692D01*
X108531040Y-75739913D01*
X108784001Y-75328729D01*
X108934986Y-75068112D01*
X109106311Y-74754126D01*
X109202451Y-74554775D01*
X109232002Y-74437542D01*
X109203563Y-74369908D01*
X109132044Y-74322719D01*
X108980894Y-74290932D01*
X108670213Y-74268776D01*
X108209544Y-74256550D01*
X107608433Y-74254556D01*
X107118877Y-74259274D01*
X105272328Y-74285000D01*
X104862568Y-74620949D01*
X104649373Y-74804309D01*
X104350290Y-75073009D01*
X104000978Y-75394488D01*
X103637096Y-75736187D01*
X103541227Y-75827449D01*
X103146060Y-76196499D01*
X102847913Y-76454070D01*
X102629400Y-76613520D01*
X102473136Y-76688209D01*
X102408258Y-76698000D01*
X102069537Y-76628198D01*
X101821279Y-76430873D01*
X101769652Y-76349963D01*
X101742576Y-76266703D01*
X101763721Y-76171831D01*
X101850085Y-76042554D01*
X102018669Y-75856081D01*
X102286474Y-75589617D01*
X102466211Y-75416083D01*
X102769681Y-75114358D01*
X102996863Y-74867758D01*
X103131591Y-74695123D01*
X103157701Y-74615296D01*
X103154749Y-74613541D01*
X102953854Y-74493575D01*
X102765434Y-74329462D01*
X102642212Y-74171450D01*
X102621334Y-74105201D01*
X102704531Y-73973599D01*
X102948555Y-73852232D01*
X103345055Y-73744081D01*
X103885680Y-73652127D01*
X103894086Y-73650989D01*
X104154485Y-73613552D01*
X104367138Y-73571263D01*
X104562618Y-73509880D01*
X104771497Y-73415164D01*
X104795362Y-73401734D01*
X106516000Y-73401734D01*
X106594523Y-73433770D01*
X106805936Y-73469031D01*
X107114003Y-73502328D01*
X107341500Y-73519967D01*
X107709843Y-73546438D01*
X108022215Y-73572351D01*
X108234608Y-73593882D01*
X108294000Y-73602713D01*
X108436033Y-73617157D01*
X108695759Y-73630129D01*
X109021544Y-73639176D01*
X109081940Y-73640179D01*
X109418329Y-73641411D01*
X109634058Y-73623746D01*
X109777718Y-73573548D01*
X109897901Y-73477181D01*
X109982728Y-73387399D01*
X110123259Y-73201145D01*
X110310482Y-72908826D01*
X110516093Y-72556192D01*
X110650603Y-72307899D01*
X110880816Y-71874883D01*
X111135316Y-71406164D01*
X111372745Y-70977581D01*
X111464314Y-70815717D01*
X111633737Y-70513061D01*
X111765260Y-70266655D01*
X111839919Y-70112591D01*
X111850000Y-70081589D01*
X111782740Y-70082594D01*
X111597944Y-70161038D01*
X111321088Y-70303688D01*
X110977650Y-70497313D01*
X110593106Y-70728679D01*
X110537667Y-70763187D01*
X110184857Y-70980269D01*
X109782633Y-71222724D01*
X109479334Y-71402102D01*
X109184243Y-71580532D01*
X108824371Y-71807532D01*
X108424044Y-72066686D01*
X108007592Y-72341577D01*
X107599343Y-72615790D01*
X107223625Y-72872906D01*
X106904767Y-73096510D01*
X106667097Y-73270185D01*
X106534944Y-73377515D01*
X106516000Y-73401734D01*
X104795362Y-73401734D01*
X105024346Y-73272875D01*
X105351739Y-73068772D01*
X105784246Y-72788614D01*
X105881000Y-72725500D01*
X106584914Y-72274282D01*
X107321092Y-71817027D01*
X108068154Y-71365914D01*
X108804724Y-70933124D01*
X109509422Y-70530836D01*
X110160869Y-70171230D01*
X110737688Y-69866487D01*
X111218500Y-69628787D01*
X111581926Y-69470309D01*
X111619194Y-69456250D01*
X111919834Y-69310158D01*
X112242730Y-69100826D01*
X112404446Y-68972025D01*
X112634106Y-68782706D01*
X112801192Y-68691397D01*
X112961421Y-68674945D01*
X113079070Y-68691677D01*
G36*
X117486092Y-70551477D02*
G01*
X117543834Y-70562896D01*
X117751493Y-70614045D01*
X117879199Y-70657458D01*
X117882500Y-70659287D01*
X117945916Y-70760422D01*
X117894397Y-70931176D01*
X117721900Y-71182456D01*
X117422383Y-71525168D01*
X117374500Y-71576264D01*
X117099800Y-71871972D01*
X116754573Y-72250083D01*
X116379712Y-72665488D01*
X116016110Y-73073079D01*
X115956334Y-73140639D01*
X115435087Y-73729477D01*
X115000071Y-74217954D01*
X114626400Y-74633486D01*
X114289188Y-75003489D01*
X113963547Y-75355379D01*
X113624593Y-75716571D01*
X113462645Y-75887805D01*
X113197306Y-76177502D01*
X112991601Y-76420997D01*
X112864634Y-76594202D01*
X112835514Y-76673028D01*
X112838481Y-76674716D01*
X112913235Y-76669142D01*
X113059557Y-76618793D01*
X113291688Y-76516945D01*
X113623870Y-76356875D01*
X114070344Y-76131859D01*
X114645353Y-75835172D01*
X114921848Y-75691106D01*
X115309937Y-75494154D01*
X115597218Y-75367265D01*
X115829412Y-75295632D01*
X116052240Y-75264446D01*
X116257030Y-75258667D01*
X116616107Y-75280194D01*
X116892507Y-75358794D01*
X117105488Y-75474219D01*
X117277533Y-75595606D01*
X117372432Y-75713495D01*
X117383805Y-75853316D01*
X117305269Y-76040497D01*
X117130444Y-76300471D01*
X116852948Y-76658666D01*
X116787764Y-76740334D01*
X116245878Y-77417667D01*
X116541337Y-77443690D01*
X116774146Y-77432467D01*
X117095675Y-77377784D01*
X117421693Y-77295523D01*
X117736015Y-77208517D01*
X118003911Y-77146072D01*
X118168712Y-77121355D01*
X118171353Y-77121334D01*
X118325034Y-77063423D01*
X118526400Y-76916642D01*
X118623334Y-76825000D01*
X118820399Y-76650160D01*
X118993567Y-76543741D01*
X119052909Y-76528667D01*
X119243117Y-76600576D01*
X119350753Y-76773314D01*
X119346461Y-76941097D01*
X119326529Y-77047854D01*
X119389786Y-77070277D01*
X119572299Y-77022976D01*
X119869811Y-76988026D01*
X120139271Y-77050103D01*
X120328038Y-77191631D01*
X120377068Y-77291686D01*
X120426140Y-77408913D01*
X120513177Y-77446917D01*
X120669985Y-77401986D01*
X120928368Y-77270411D01*
X121026027Y-77215975D01*
X121424442Y-77020837D01*
X121808101Y-76884438D01*
X122140755Y-76815637D01*
X122386156Y-76823290D01*
X122470475Y-76863025D01*
X122581807Y-77024927D01*
X122602667Y-77123011D01*
X122548315Y-77230226D01*
X122396871Y-77440332D01*
X122165747Y-77731476D01*
X121872359Y-78081802D01*
X121534121Y-78469455D01*
X121493394Y-78515150D01*
X121155594Y-78897794D01*
X120863680Y-79237055D01*
X120634020Y-79513189D01*
X120482981Y-79706450D01*
X120426933Y-79797093D01*
X120427753Y-79800641D01*
X120517413Y-79785742D01*
X120732427Y-79714334D01*
X121042813Y-79597319D01*
X121418587Y-79445597D01*
X121514166Y-79405653D01*
X121929883Y-79236495D01*
X122315798Y-79089746D01*
X122631799Y-78979984D01*
X122837770Y-78921787D01*
X122853626Y-78918890D01*
X123150302Y-78870746D01*
X123016548Y-79075540D01*
X122903161Y-79173002D01*
X122666752Y-79326742D01*
X122337486Y-79520877D01*
X121945531Y-79739527D01*
X121521054Y-79966811D01*
X121094221Y-80186849D01*
X120695199Y-80383760D01*
X120354155Y-80541662D01*
X120101257Y-80644676D01*
X119973802Y-80677334D01*
X119810105Y-80618205D01*
X119702431Y-80529167D01*
X119575904Y-80325765D01*
X119540839Y-80065392D01*
X119544635Y-79968488D01*
X119604897Y-79846015D01*
X119760560Y-79635539D01*
X119986857Y-79368363D01*
X120214558Y-79121822D01*
X120557447Y-78756203D01*
X120874916Y-78402917D01*
X121147197Y-78085445D01*
X121354517Y-77827268D01*
X121477108Y-77651868D01*
X121502000Y-77592699D01*
X121434556Y-77594499D01*
X121250058Y-77671375D01*
X120975253Y-77808993D01*
X120636891Y-77993019D01*
X120261720Y-78209117D01*
X119876489Y-78442953D01*
X119665341Y-78576950D01*
X119311646Y-78800410D01*
X119066890Y-78939129D01*
X118901530Y-79005811D01*
X118786021Y-79013163D01*
X118712841Y-78986591D01*
X118570190Y-78825503D01*
X118550900Y-78585969D01*
X118654928Y-78305492D01*
X118713765Y-78213904D01*
X118810394Y-78039780D01*
X118794987Y-77966795D01*
X118690435Y-77993772D01*
X118519626Y-78119530D01*
X118406341Y-78229737D01*
X118184218Y-78444124D01*
X117958735Y-78633702D01*
X117924892Y-78658794D01*
X117677872Y-78779223D01*
X117492172Y-78766897D01*
X117380295Y-78651207D01*
X117354741Y-78461541D01*
X117428015Y-78227290D01*
X117612618Y-77977842D01*
X117628500Y-77962064D01*
X117777157Y-77804145D01*
X117796429Y-77744590D01*
X117734334Y-77758036D01*
X117166656Y-77951323D01*
X116677078Y-78071945D01*
X116291845Y-78114271D01*
X116131969Y-78101769D01*
X115872648Y-78011593D01*
X115642586Y-77862410D01*
X115482417Y-77689676D01*
X115432770Y-77528844D01*
X115440720Y-77498568D01*
X115520019Y-77302874D01*
X115541035Y-77251000D01*
X115530064Y-77197931D01*
X115414340Y-77212058D01*
X115173474Y-77297104D01*
X115077051Y-77335667D01*
X114581299Y-77493196D01*
X114150072Y-77542721D01*
X113806733Y-77483808D01*
X113615463Y-77362797D01*
X113463233Y-77243098D01*
X113334856Y-77247523D01*
X113274946Y-77280003D01*
X113091575Y-77354133D01*
X112830509Y-77416608D01*
X112752579Y-77428934D01*
X112512192Y-77448044D01*
X112354756Y-77400023D01*
X112200203Y-77253718D01*
X112149342Y-77194227D01*
X112007960Y-77040110D01*
X111874880Y-76954815D01*
X111693603Y-76918102D01*
X111407629Y-76909730D01*
X111355035Y-76909667D01*
X111050786Y-76903740D01*
X110868046Y-76875616D01*
X110759122Y-76809781D01*
X110745441Y-76790107D01*
X114476675Y-76790107D01*
X114583369Y-76773788D01*
X114831752Y-76678886D01*
X115224733Y-76505187D01*
X115616542Y-76322871D01*
X116088993Y-76090239D01*
X116403894Y-75911846D01*
X116563480Y-75785870D01*
X116569984Y-75710491D01*
X116425642Y-75683888D01*
X116400834Y-75683860D01*
X116127646Y-75740589D01*
X115760833Y-75896495D01*
X115331728Y-76136478D01*
X114977669Y-76369699D01*
X114676733Y-76587850D01*
X114508766Y-76728057D01*
X114476675Y-76790107D01*
X110745441Y-76790107D01*
X110676323Y-76690717D01*
X110675039Y-76688452D01*
X110608351Y-76478744D01*
X110631688Y-76328601D01*
X111366965Y-76328601D01*
X111427213Y-76351301D01*
X111565718Y-76321999D01*
X111775866Y-76244961D01*
X112053254Y-76112549D01*
X112231000Y-76014931D01*
X112625993Y-75737519D01*
X112876883Y-75440611D01*
X112997790Y-75142725D01*
X113012117Y-74966801D01*
X112946670Y-74920000D01*
X112805270Y-74975769D01*
X112580237Y-75123606D01*
X112306122Y-75334303D01*
X112017473Y-75578654D01*
X111748839Y-75827454D01*
X111534768Y-76051496D01*
X111412041Y-76217329D01*
X111366965Y-76328601D01*
X110631688Y-76328601D01*
X110644982Y-76243079D01*
X110794384Y-75961065D01*
X111066008Y-75612308D01*
X111287562Y-75366827D01*
X111768279Y-74900906D01*
X112201647Y-74587686D01*
X112601245Y-74421875D01*
X112980651Y-74398182D01*
X113353444Y-74511316D01*
X113409775Y-74539836D01*
X113796759Y-74745597D01*
X115257546Y-73085546D01*
X115798574Y-72469230D01*
X116236506Y-71966475D01*
X116581427Y-71564888D01*
X116843419Y-71252076D01*
X117032566Y-71015647D01*
X117158952Y-70843207D01*
X117232659Y-70722364D01*
X117263772Y-70640725D01*
X117266547Y-70616440D01*
X117317494Y-70545599D01*
X117486092Y-70551477D01*
G37*
X117486092Y-70551477D02*
X117543834Y-70562896D01*
X117751493Y-70614045D01*
X117879199Y-70657458D01*
X117882500Y-70659287D01*
X117945916Y-70760422D01*
X117894397Y-70931176D01*
X117721900Y-71182456D01*
X117422383Y-71525168D01*
X117374500Y-71576264D01*
X117099800Y-71871972D01*
X116754573Y-72250083D01*
X116379712Y-72665488D01*
X116016110Y-73073079D01*
X115956334Y-73140639D01*
X115435087Y-73729477D01*
X115000071Y-74217954D01*
X114626400Y-74633486D01*
X114289188Y-75003489D01*
X113963547Y-75355379D01*
X113624593Y-75716571D01*
X113462645Y-75887805D01*
X113197306Y-76177502D01*
X112991601Y-76420997D01*
X112864634Y-76594202D01*
X112835514Y-76673028D01*
X112838481Y-76674716D01*
X112913235Y-76669142D01*
X113059557Y-76618793D01*
X113291688Y-76516945D01*
X113623870Y-76356875D01*
X114070344Y-76131859D01*
X114645353Y-75835172D01*
X114921848Y-75691106D01*
X115309937Y-75494154D01*
X115597218Y-75367265D01*
X115829412Y-75295632D01*
X116052240Y-75264446D01*
X116257030Y-75258667D01*
X116616107Y-75280194D01*
X116892507Y-75358794D01*
X117105488Y-75474219D01*
X117277533Y-75595606D01*
X117372432Y-75713495D01*
X117383805Y-75853316D01*
X117305269Y-76040497D01*
X117130444Y-76300471D01*
X116852948Y-76658666D01*
X116787764Y-76740334D01*
X116245878Y-77417667D01*
X116541337Y-77443690D01*
X116774146Y-77432467D01*
X117095675Y-77377784D01*
X117421693Y-77295523D01*
X117736015Y-77208517D01*
X118003911Y-77146072D01*
X118168712Y-77121355D01*
X118171353Y-77121334D01*
X118325034Y-77063423D01*
X118526400Y-76916642D01*
X118623334Y-76825000D01*
X118820399Y-76650160D01*
X118993567Y-76543741D01*
X119052909Y-76528667D01*
X119243117Y-76600576D01*
X119350753Y-76773314D01*
X119346461Y-76941097D01*
X119326529Y-77047854D01*
X119389786Y-77070277D01*
X119572299Y-77022976D01*
X119869811Y-76988026D01*
X120139271Y-77050103D01*
X120328038Y-77191631D01*
X120377068Y-77291686D01*
X120426140Y-77408913D01*
X120513177Y-77446917D01*
X120669985Y-77401986D01*
X120928368Y-77270411D01*
X121026027Y-77215975D01*
X121424442Y-77020837D01*
X121808101Y-76884438D01*
X122140755Y-76815637D01*
X122386156Y-76823290D01*
X122470475Y-76863025D01*
X122581807Y-77024927D01*
X122602667Y-77123011D01*
X122548315Y-77230226D01*
X122396871Y-77440332D01*
X122165747Y-77731476D01*
X121872359Y-78081802D01*
X121534121Y-78469455D01*
X121493394Y-78515150D01*
X121155594Y-78897794D01*
X120863680Y-79237055D01*
X120634020Y-79513189D01*
X120482981Y-79706450D01*
X120426933Y-79797093D01*
X120427753Y-79800641D01*
X120517413Y-79785742D01*
X120732427Y-79714334D01*
X121042813Y-79597319D01*
X121418587Y-79445597D01*
X121514166Y-79405653D01*
X121929883Y-79236495D01*
X122315798Y-79089746D01*
X122631799Y-78979984D01*
X122837770Y-78921787D01*
X122853626Y-78918890D01*
X123150302Y-78870746D01*
X123016548Y-79075540D01*
X122903161Y-79173002D01*
X122666752Y-79326742D01*
X122337486Y-79520877D01*
X121945531Y-79739527D01*
X121521054Y-79966811D01*
X121094221Y-80186849D01*
X120695199Y-80383760D01*
X120354155Y-80541662D01*
X120101257Y-80644676D01*
X119973802Y-80677334D01*
X119810105Y-80618205D01*
X119702431Y-80529167D01*
X119575904Y-80325765D01*
X119540839Y-80065392D01*
X119544635Y-79968488D01*
X119604897Y-79846015D01*
X119760560Y-79635539D01*
X119986857Y-79368363D01*
X120214558Y-79121822D01*
X120557447Y-78756203D01*
X120874916Y-78402917D01*
X121147197Y-78085445D01*
X121354517Y-77827268D01*
X121477108Y-77651868D01*
X121502000Y-77592699D01*
X121434556Y-77594499D01*
X121250058Y-77671375D01*
X120975253Y-77808993D01*
X120636891Y-77993019D01*
X120261720Y-78209117D01*
X119876489Y-78442953D01*
X119665341Y-78576950D01*
X119311646Y-78800410D01*
X119066890Y-78939129D01*
X118901530Y-79005811D01*
X118786021Y-79013163D01*
X118712841Y-78986591D01*
X118570190Y-78825503D01*
X118550900Y-78585969D01*
X118654928Y-78305492D01*
X118713765Y-78213904D01*
X118810394Y-78039780D01*
X118794987Y-77966795D01*
X118690435Y-77993772D01*
X118519626Y-78119530D01*
X118406341Y-78229737D01*
X118184218Y-78444124D01*
X117958735Y-78633702D01*
X117924892Y-78658794D01*
X117677872Y-78779223D01*
X117492172Y-78766897D01*
X117380295Y-78651207D01*
X117354741Y-78461541D01*
X117428015Y-78227290D01*
X117612618Y-77977842D01*
X117628500Y-77962064D01*
X117777157Y-77804145D01*
X117796429Y-77744590D01*
X117734334Y-77758036D01*
X117166656Y-77951323D01*
X116677078Y-78071945D01*
X116291845Y-78114271D01*
X116131969Y-78101769D01*
X115872648Y-78011593D01*
X115642586Y-77862410D01*
X115482417Y-77689676D01*
X115432770Y-77528844D01*
X115440720Y-77498568D01*
X115520019Y-77302874D01*
X115541035Y-77251000D01*
X115530064Y-77197931D01*
X115414340Y-77212058D01*
X115173474Y-77297104D01*
X115077051Y-77335667D01*
X114581299Y-77493196D01*
X114150072Y-77542721D01*
X113806733Y-77483808D01*
X113615463Y-77362797D01*
X113463233Y-77243098D01*
X113334856Y-77247523D01*
X113274946Y-77280003D01*
X113091575Y-77354133D01*
X112830509Y-77416608D01*
X112752579Y-77428934D01*
X112512192Y-77448044D01*
X112354756Y-77400023D01*
X112200203Y-77253718D01*
X112149342Y-77194227D01*
X112007960Y-77040110D01*
X111874880Y-76954815D01*
X111693603Y-76918102D01*
X111407629Y-76909730D01*
X111355035Y-76909667D01*
X111050786Y-76903740D01*
X110868046Y-76875616D01*
X110759122Y-76809781D01*
X110745441Y-76790107D01*
X114476675Y-76790107D01*
X114583369Y-76773788D01*
X114831752Y-76678886D01*
X115224733Y-76505187D01*
X115616542Y-76322871D01*
X116088993Y-76090239D01*
X116403894Y-75911846D01*
X116563480Y-75785870D01*
X116569984Y-75710491D01*
X116425642Y-75683888D01*
X116400834Y-75683860D01*
X116127646Y-75740589D01*
X115760833Y-75896495D01*
X115331728Y-76136478D01*
X114977669Y-76369699D01*
X114676733Y-76587850D01*
X114508766Y-76728057D01*
X114476675Y-76790107D01*
X110745441Y-76790107D01*
X110676323Y-76690717D01*
X110675039Y-76688452D01*
X110608351Y-76478744D01*
X110631688Y-76328601D01*
X111366965Y-76328601D01*
X111427213Y-76351301D01*
X111565718Y-76321999D01*
X111775866Y-76244961D01*
X112053254Y-76112549D01*
X112231000Y-76014931D01*
X112625993Y-75737519D01*
X112876883Y-75440611D01*
X112997790Y-75142725D01*
X113012117Y-74966801D01*
X112946670Y-74920000D01*
X112805270Y-74975769D01*
X112580237Y-75123606D01*
X112306122Y-75334303D01*
X112017473Y-75578654D01*
X111748839Y-75827454D01*
X111534768Y-76051496D01*
X111412041Y-76217329D01*
X111366965Y-76328601D01*
X110631688Y-76328601D01*
X110644982Y-76243079D01*
X110794384Y-75961065D01*
X111066008Y-75612308D01*
X111287562Y-75366827D01*
X111768279Y-74900906D01*
X112201647Y-74587686D01*
X112601245Y-74421875D01*
X112980651Y-74398182D01*
X113353444Y-74511316D01*
X113409775Y-74539836D01*
X113796759Y-74745597D01*
X115257546Y-73085546D01*
X115798574Y-72469230D01*
X116236506Y-71966475D01*
X116581427Y-71564888D01*
X116843419Y-71252076D01*
X117032566Y-71015647D01*
X117158952Y-70843207D01*
X117232659Y-70722364D01*
X117263772Y-70640725D01*
X117266547Y-70616440D01*
X117317494Y-70545599D01*
X117486092Y-70551477D01*
G36*
X97237382Y-58180796D02*
G01*
X97485310Y-58249857D01*
X97840508Y-58355190D01*
X98276077Y-58488806D01*
X98765116Y-58642712D01*
X98808760Y-58656624D01*
X99295337Y-58811780D01*
X99907100Y-59006687D01*
X100607854Y-59229822D01*
X101361401Y-59469663D01*
X102131544Y-59714688D01*
X102882087Y-59953373D01*
X103087000Y-60018518D01*
X103805398Y-60247081D01*
X104535913Y-60479844D01*
X105246243Y-60706492D01*
X105904087Y-60916708D01*
X106477147Y-61100175D01*
X106933120Y-61246576D01*
X107066334Y-61289493D01*
X107429277Y-61406140D01*
X107935572Y-61568208D01*
X108567151Y-61769949D01*
X109305947Y-62005618D01*
X110133894Y-62269467D01*
X111032924Y-62555751D01*
X111984970Y-62858723D01*
X112971967Y-63172636D01*
X113975846Y-63491744D01*
X114978541Y-63810300D01*
X115961985Y-64122557D01*
X116908112Y-64422770D01*
X117798854Y-64705191D01*
X118616145Y-64964074D01*
X119173667Y-65140479D01*
X119884093Y-65369214D01*
X120467991Y-65565827D01*
X120917103Y-65727291D01*
X121223169Y-65850580D01*
X121377929Y-65932670D01*
X121395885Y-65954464D01*
X121343975Y-66066854D01*
X121188360Y-66224539D01*
X121063486Y-66321367D01*
X120879349Y-66465045D01*
X120785822Y-66566608D01*
X120788601Y-66595677D01*
X120893548Y-66628918D01*
X121129207Y-66703260D01*
X121464760Y-66808991D01*
X121869390Y-66936398D01*
X122049044Y-66992942D01*
X122469040Y-67130348D01*
X122827508Y-67257552D01*
X123095034Y-67363344D01*
X123242204Y-67436513D01*
X123261085Y-67454921D01*
X123215596Y-67551550D01*
X123066406Y-67700078D01*
X122942502Y-67797420D01*
X122742790Y-67954238D01*
X122615680Y-68077355D01*
X122591865Y-68118578D01*
X122667448Y-68166675D01*
X122877066Y-68253615D01*
X123192761Y-68368933D01*
X123586574Y-68502164D01*
X123802737Y-68571813D01*
X124339733Y-68749426D01*
X124717199Y-68891520D01*
X124940662Y-69000407D01*
X125015643Y-69078402D01*
X125015667Y-69079541D01*
X125012533Y-69143062D01*
X124994611Y-69191647D01*
X124949119Y-69222088D01*
X124863277Y-69231178D01*
X124724303Y-69215708D01*
X124519417Y-69172471D01*
X124235837Y-69098257D01*
X123860782Y-68989861D01*
X123381471Y-68844072D01*
X122785123Y-68657684D01*
X122058956Y-68427488D01*
X121190191Y-68150276D01*
X120740000Y-68006357D01*
X120029330Y-67779115D01*
X119224867Y-67521870D01*
X118480447Y-67283815D01*
X119783851Y-67283815D01*
X120833426Y-67626089D01*
X121232536Y-67754520D01*
X121575412Y-67861628D01*
X121828990Y-67937315D01*
X121960206Y-67971486D01*
X121967667Y-67972428D01*
X122083338Y-67926021D01*
X122262516Y-67806059D01*
X122306334Y-67771767D01*
X122459443Y-67630478D01*
X122479414Y-67551162D01*
X122433334Y-67523375D01*
X122177121Y-67438101D01*
X121846404Y-67331957D01*
X121477938Y-67216239D01*
X121108477Y-67102248D01*
X120774777Y-67001280D01*
X120513591Y-66924634D01*
X120361674Y-66883608D01*
X120339399Y-66879712D01*
X120236848Y-66930780D01*
X120066966Y-67052895D01*
X120029092Y-67083286D01*
X119783851Y-67283815D01*
X118480447Y-67283815D01*
X118388748Y-67254491D01*
X117583108Y-66996849D01*
X116870086Y-66768815D01*
X116803000Y-66747360D01*
X116134049Y-66533594D01*
X115306268Y-66269392D01*
X114322218Y-65955571D01*
X113184460Y-65592945D01*
X111895554Y-65182331D01*
X110458061Y-64724545D01*
X108874543Y-64220402D01*
X107147561Y-63670717D01*
X105279675Y-63076308D01*
X104653334Y-62877014D01*
X103814528Y-62610186D01*
X103122645Y-62390438D01*
X102563249Y-62213490D01*
X102121905Y-62075062D01*
X101784180Y-61970875D01*
X101535637Y-61896648D01*
X101361843Y-61848102D01*
X101248362Y-61820957D01*
X101180761Y-61810933D01*
X101144603Y-61813752D01*
X101125455Y-61825131D01*
X101120797Y-61829648D01*
X101112851Y-61921711D01*
X101109350Y-62166201D01*
X101110089Y-62546277D01*
X101114867Y-63045096D01*
X101123481Y-63645816D01*
X101135729Y-64331595D01*
X101151408Y-65085591D01*
X101169013Y-65838271D01*
X101223936Y-68097376D01*
X101274827Y-70246734D01*
X101321621Y-72282544D01*
X101364256Y-74201002D01*
X101402668Y-75998306D01*
X101436794Y-77670653D01*
X101466569Y-79214241D01*
X101491932Y-80625266D01*
X101512817Y-81899926D01*
X101529162Y-83034418D01*
X101540904Y-84024940D01*
X101547978Y-84867688D01*
X101550322Y-85558861D01*
X101547872Y-86094655D01*
X101540564Y-86471268D01*
X101528335Y-86684897D01*
X101517717Y-86734555D01*
X101372737Y-86850253D01*
X101246084Y-86808937D01*
X101238445Y-86801556D01*
X101218914Y-86701432D01*
X101202313Y-86462630D01*
X101189917Y-86115796D01*
X101183004Y-85691579D01*
X101182000Y-85446889D01*
X101179214Y-84999722D01*
X101171529Y-84619131D01*
X101159956Y-84334060D01*
X101145504Y-84173457D01*
X101136698Y-84148667D01*
X101054743Y-84196599D01*
X100867868Y-84326385D01*
X100605659Y-84517010D01*
X100359257Y-84700909D01*
X100053294Y-84923138D01*
X99792358Y-85096801D01*
X99607949Y-85201898D01*
X99536725Y-85223177D01*
X99497422Y-85127397D01*
X99461806Y-84876511D01*
X99431271Y-84484730D01*
X99407213Y-83966266D01*
X99404000Y-83870691D01*
X99361667Y-82548178D01*
X98570116Y-83145304D01*
X98184399Y-83425739D01*
X97913729Y-83597168D01*
X97748463Y-83665158D01*
X97689755Y-83653621D01*
X97670309Y-83550660D01*
X97649242Y-83280266D01*
X97626615Y-82844331D01*
X97602490Y-82244749D01*
X97576929Y-81483412D01*
X97549993Y-80562212D01*
X97521745Y-79483041D01*
X97492245Y-78247793D01*
X97461557Y-76858358D01*
X97449802Y-76300239D01*
X97403529Y-74096754D01*
X97358943Y-72015176D01*
X97316161Y-70060443D01*
X97275300Y-68237498D01*
X97236475Y-66551281D01*
X97199804Y-65006732D01*
X97165404Y-63608792D01*
X97133390Y-62362403D01*
X97103879Y-61272504D01*
X97076987Y-60344037D01*
X97062286Y-59870500D01*
X97045013Y-59278036D01*
X97036809Y-58834870D01*
X97037151Y-58766682D01*
X97498798Y-58766682D01*
X97500612Y-59010179D01*
X97505746Y-59397918D01*
X97513940Y-59917374D01*
X97524938Y-60556023D01*
X97538481Y-61301341D01*
X97554313Y-62140803D01*
X97572176Y-63061886D01*
X97591811Y-64052065D01*
X97612962Y-65098816D01*
X97635370Y-66189614D01*
X97658778Y-67311936D01*
X97682928Y-68453257D01*
X97707563Y-69601053D01*
X97732425Y-70742800D01*
X97757257Y-71865974D01*
X97781800Y-72958049D01*
X97805797Y-74006503D01*
X97828990Y-74998811D01*
X97851122Y-75922448D01*
X97871935Y-76764891D01*
X97875591Y-76909667D01*
X97895530Y-77727681D01*
X97913913Y-78542058D01*
X97930243Y-79326233D01*
X97944022Y-80053640D01*
X97954754Y-80697716D01*
X97961942Y-81231893D01*
X97965089Y-81629609D01*
X97965188Y-81700389D01*
X97968425Y-82141126D01*
X97977679Y-82519759D01*
X97991683Y-82804902D01*
X98009170Y-82965168D01*
X98017173Y-82987617D01*
X98102089Y-82962040D01*
X98288650Y-82850923D01*
X98545800Y-82673914D01*
X98735847Y-82533012D01*
X99164147Y-82206974D01*
X99827334Y-82206974D01*
X99827334Y-84578105D01*
X100105213Y-84384552D01*
X100336605Y-84219215D01*
X100620259Y-84011008D01*
X100775804Y-83894667D01*
X101168516Y-83598334D01*
X101121233Y-82455334D01*
X101103151Y-82035967D01*
X101086551Y-81683354D01*
X101073017Y-81428881D01*
X101064133Y-81303933D01*
X101062762Y-81296509D01*
X100995348Y-81336854D01*
X100824035Y-81458195D01*
X100579382Y-81638597D01*
X100439453Y-81743829D01*
X99827334Y-82206974D01*
X99164147Y-82206974D01*
X99402015Y-82025901D01*
X99357458Y-81161117D01*
X99347051Y-80907943D01*
X99334238Y-80510716D01*
X99319260Y-79981730D01*
X99302358Y-79333276D01*
X99283775Y-78577645D01*
X99263751Y-77727129D01*
X99242530Y-76794020D01*
X99220351Y-75790609D01*
X99197458Y-74729188D01*
X99174092Y-73622048D01*
X99150495Y-72481481D01*
X99126907Y-71319780D01*
X99103572Y-70149234D01*
X99080730Y-68982137D01*
X99058623Y-67830779D01*
X99037494Y-66707452D01*
X99017583Y-65624448D01*
X98999133Y-64594059D01*
X98982385Y-63628576D01*
X98967581Y-62740291D01*
X98954963Y-61941495D01*
X98944771Y-61244480D01*
X98937249Y-60661537D01*
X98936148Y-60552442D01*
X99339764Y-60552442D01*
X99341999Y-60940192D01*
X99347684Y-61456734D01*
X99356617Y-62088573D01*
X99368592Y-62822210D01*
X99383405Y-63644148D01*
X99400853Y-64540891D01*
X99420730Y-65498941D01*
X99439162Y-66341528D01*
X99465262Y-67510727D01*
X99493021Y-68760003D01*
X99521751Y-70058063D01*
X99550765Y-71373612D01*
X99579375Y-72675356D01*
X99606893Y-73932002D01*
X99632632Y-75112253D01*
X99655902Y-76184818D01*
X99675439Y-77091434D01*
X99775608Y-81760534D01*
X100436471Y-81257462D01*
X100725386Y-81023431D01*
X100948428Y-80815498D01*
X101077096Y-80661586D01*
X101097309Y-80610029D01*
X101095259Y-80496164D01*
X101089416Y-80231835D01*
X101080231Y-79835859D01*
X101068149Y-79327051D01*
X101053621Y-78724228D01*
X101037093Y-78046205D01*
X101019015Y-77311799D01*
X101012199Y-77036667D01*
X100997777Y-76445137D01*
X100981153Y-75745454D01*
X100962651Y-74952435D01*
X100942595Y-74080900D01*
X100921307Y-73145665D01*
X100899113Y-72161549D01*
X100876336Y-71143369D01*
X100853298Y-70105944D01*
X100830325Y-69064092D01*
X100807739Y-68032629D01*
X100785863Y-67026375D01*
X100765023Y-66060147D01*
X100745541Y-65148763D01*
X100727741Y-64307041D01*
X100711947Y-63549799D01*
X100698482Y-62891855D01*
X100687670Y-62348026D01*
X100679834Y-61933131D01*
X100675299Y-61661988D01*
X100674258Y-61563834D01*
X100703029Y-61358371D01*
X100797816Y-61289059D01*
X100809200Y-61288667D01*
X100909351Y-61313837D01*
X101158314Y-61386758D01*
X101543635Y-61503540D01*
X102052857Y-61660297D01*
X102673525Y-61853141D01*
X103393184Y-62078185D01*
X104199378Y-62331542D01*
X105079652Y-62609324D01*
X106021550Y-62907644D01*
X107012616Y-63222613D01*
X107349700Y-63329980D01*
X108998732Y-63855504D01*
X110493589Y-64331877D01*
X111841428Y-64761379D01*
X113049408Y-65146291D01*
X114124686Y-65488893D01*
X115074422Y-65791465D01*
X115905773Y-66056287D01*
X116625897Y-66285641D01*
X117241952Y-66481806D01*
X117761097Y-66647063D01*
X118190490Y-66783692D01*
X118517073Y-66887546D01*
X119299812Y-67136368D01*
X119554821Y-66947832D01*
X119703161Y-66812923D01*
X119753231Y-66713258D01*
X119745748Y-66698565D01*
X119691443Y-66674251D01*
X119548391Y-66622471D01*
X119311004Y-66541427D01*
X118973691Y-66429323D01*
X118530861Y-66284363D01*
X117976925Y-66104750D01*
X117306292Y-65888688D01*
X116513372Y-65634379D01*
X115592576Y-65340028D01*
X114538312Y-65003838D01*
X113344990Y-64624012D01*
X112007021Y-64198753D01*
X110518815Y-63726266D01*
X108874780Y-63204754D01*
X108844334Y-63195099D01*
X106744775Y-62528337D01*
X104743365Y-61890734D01*
X102862440Y-61289416D01*
X101365439Y-60809052D01*
X100817829Y-60635234D01*
X100324973Y-60483080D01*
X99909247Y-60359147D01*
X99593029Y-60269994D01*
X99398695Y-60222179D01*
X99346467Y-60217311D01*
X99341186Y-60306983D01*
X99339764Y-60552442D01*
X98936148Y-60552442D01*
X98932638Y-60204959D01*
X98931178Y-59887037D01*
X98933113Y-59720062D01*
X98935387Y-59697058D01*
X98949688Y-59690614D01*
X98980609Y-59690614D01*
X99036551Y-59699675D01*
X99125916Y-59720416D01*
X99257108Y-59755453D01*
X99438529Y-59807404D01*
X99678581Y-59878888D01*
X99985667Y-59972523D01*
X100368189Y-60090925D01*
X100834549Y-60236713D01*
X101393151Y-60412504D01*
X102052396Y-60620917D01*
X102820687Y-60864568D01*
X103706427Y-61146077D01*
X104718018Y-61468060D01*
X105863862Y-61833135D01*
X107152362Y-62243921D01*
X108591920Y-62703034D01*
X108929000Y-62810552D01*
X110522918Y-63318891D01*
X111963075Y-63778007D01*
X113256991Y-64190268D01*
X114412187Y-64558042D01*
X115436184Y-64883699D01*
X116336502Y-65169607D01*
X117120663Y-65418135D01*
X117796187Y-65631652D01*
X118370594Y-65812526D01*
X118851407Y-65963125D01*
X119246146Y-66085819D01*
X119562331Y-66182977D01*
X119807483Y-66256967D01*
X119989123Y-66310157D01*
X120114772Y-66344916D01*
X120191951Y-66363614D01*
X120226356Y-66368667D01*
X120365051Y-66319849D01*
X120531644Y-66211856D01*
X120730997Y-66055045D01*
X119528999Y-65669088D01*
X118747117Y-65418378D01*
X117820156Y-65121764D01*
X116764472Y-64784463D01*
X115596415Y-64411694D01*
X114332342Y-64008677D01*
X112988603Y-63580629D01*
X111581554Y-63132770D01*
X111511334Y-63110428D01*
X110744461Y-62866416D01*
X109936299Y-62609226D01*
X109124523Y-62350851D01*
X108346811Y-62103284D01*
X107640838Y-61878519D01*
X107044282Y-61688548D01*
X106854667Y-61628151D01*
X106296864Y-61450567D01*
X105617390Y-61234410D01*
X104855978Y-60992312D01*
X104052363Y-60736903D01*
X103246279Y-60480814D01*
X102477461Y-60236675D01*
X102325000Y-60188277D01*
X101620933Y-59964622D01*
X100917504Y-59740866D01*
X100244288Y-59526439D01*
X99630859Y-59330768D01*
X99106790Y-59163285D01*
X98701654Y-59033417D01*
X98569606Y-58990916D01*
X98178041Y-58867087D01*
X97849565Y-58767853D01*
X97614905Y-58702154D01*
X97504788Y-58678925D01*
X97500560Y-58679950D01*
X97498798Y-58766682D01*
X97037151Y-58766682D01*
X97038383Y-58521174D01*
X97050444Y-58317121D01*
X97073702Y-58202881D01*
X97108867Y-58158627D01*
X97123623Y-58156000D01*
X97237382Y-58180796D01*
G37*
X97237382Y-58180796D02*
X97485310Y-58249857D01*
X97840508Y-58355190D01*
X98276077Y-58488806D01*
X98765116Y-58642712D01*
X98808760Y-58656624D01*
X99295337Y-58811780D01*
X99907100Y-59006687D01*
X100607854Y-59229822D01*
X101361401Y-59469663D01*
X102131544Y-59714688D01*
X102882087Y-59953373D01*
X103087000Y-60018518D01*
X103805398Y-60247081D01*
X104535913Y-60479844D01*
X105246243Y-60706492D01*
X105904087Y-60916708D01*
X106477147Y-61100175D01*
X106933120Y-61246576D01*
X107066334Y-61289493D01*
X107429277Y-61406140D01*
X107935572Y-61568208D01*
X108567151Y-61769949D01*
X109305947Y-62005618D01*
X110133894Y-62269467D01*
X111032924Y-62555751D01*
X111984970Y-62858723D01*
X112971967Y-63172636D01*
X113975846Y-63491744D01*
X114978541Y-63810300D01*
X115961985Y-64122557D01*
X116908112Y-64422770D01*
X117798854Y-64705191D01*
X118616145Y-64964074D01*
X119173667Y-65140479D01*
X119884093Y-65369214D01*
X120467991Y-65565827D01*
X120917103Y-65727291D01*
X121223169Y-65850580D01*
X121377929Y-65932670D01*
X121395885Y-65954464D01*
X121343975Y-66066854D01*
X121188360Y-66224539D01*
X121063486Y-66321367D01*
X120879349Y-66465045D01*
X120785822Y-66566608D01*
X120788601Y-66595677D01*
X120893548Y-66628918D01*
X121129207Y-66703260D01*
X121464760Y-66808991D01*
X121869390Y-66936398D01*
X122049044Y-66992942D01*
X122469040Y-67130348D01*
X122827508Y-67257552D01*
X123095034Y-67363344D01*
X123242204Y-67436513D01*
X123261085Y-67454921D01*
X123215596Y-67551550D01*
X123066406Y-67700078D01*
X122942502Y-67797420D01*
X122742790Y-67954238D01*
X122615680Y-68077355D01*
X122591865Y-68118578D01*
X122667448Y-68166675D01*
X122877066Y-68253615D01*
X123192761Y-68368933D01*
X123586574Y-68502164D01*
X123802737Y-68571813D01*
X124339733Y-68749426D01*
X124717199Y-68891520D01*
X124940662Y-69000407D01*
X125015643Y-69078402D01*
X125015667Y-69079541D01*
X125012533Y-69143062D01*
X124994611Y-69191647D01*
X124949119Y-69222088D01*
X124863277Y-69231178D01*
X124724303Y-69215708D01*
X124519417Y-69172471D01*
X124235837Y-69098257D01*
X123860782Y-68989861D01*
X123381471Y-68844072D01*
X122785123Y-68657684D01*
X122058956Y-68427488D01*
X121190191Y-68150276D01*
X120740000Y-68006357D01*
X120029330Y-67779115D01*
X119224867Y-67521870D01*
X118480447Y-67283815D01*
X119783851Y-67283815D01*
X120833426Y-67626089D01*
X121232536Y-67754520D01*
X121575412Y-67861628D01*
X121828990Y-67937315D01*
X121960206Y-67971486D01*
X121967667Y-67972428D01*
X122083338Y-67926021D01*
X122262516Y-67806059D01*
X122306334Y-67771767D01*
X122459443Y-67630478D01*
X122479414Y-67551162D01*
X122433334Y-67523375D01*
X122177121Y-67438101D01*
X121846404Y-67331957D01*
X121477938Y-67216239D01*
X121108477Y-67102248D01*
X120774777Y-67001280D01*
X120513591Y-66924634D01*
X120361674Y-66883608D01*
X120339399Y-66879712D01*
X120236848Y-66930780D01*
X120066966Y-67052895D01*
X120029092Y-67083286D01*
X119783851Y-67283815D01*
X118480447Y-67283815D01*
X118388748Y-67254491D01*
X117583108Y-66996849D01*
X116870086Y-66768815D01*
X116803000Y-66747360D01*
X116134049Y-66533594D01*
X115306268Y-66269392D01*
X114322218Y-65955571D01*
X113184460Y-65592945D01*
X111895554Y-65182331D01*
X110458061Y-64724545D01*
X108874543Y-64220402D01*
X107147561Y-63670717D01*
X105279675Y-63076308D01*
X104653334Y-62877014D01*
X103814528Y-62610186D01*
X103122645Y-62390438D01*
X102563249Y-62213490D01*
X102121905Y-62075062D01*
X101784180Y-61970875D01*
X101535637Y-61896648D01*
X101361843Y-61848102D01*
X101248362Y-61820957D01*
X101180761Y-61810933D01*
X101144603Y-61813752D01*
X101125455Y-61825131D01*
X101120797Y-61829648D01*
X101112851Y-61921711D01*
X101109350Y-62166201D01*
X101110089Y-62546277D01*
X101114867Y-63045096D01*
X101123481Y-63645816D01*
X101135729Y-64331595D01*
X101151408Y-65085591D01*
X101169013Y-65838271D01*
X101223936Y-68097376D01*
X101274827Y-70246734D01*
X101321621Y-72282544D01*
X101364256Y-74201002D01*
X101402668Y-75998306D01*
X101436794Y-77670653D01*
X101466569Y-79214241D01*
X101491932Y-80625266D01*
X101512817Y-81899926D01*
X101529162Y-83034418D01*
X101540904Y-84024940D01*
X101547978Y-84867688D01*
X101550322Y-85558861D01*
X101547872Y-86094655D01*
X101540564Y-86471268D01*
X101528335Y-86684897D01*
X101517717Y-86734555D01*
X101372737Y-86850253D01*
X101246084Y-86808937D01*
X101238445Y-86801556D01*
X101218914Y-86701432D01*
X101202313Y-86462630D01*
X101189917Y-86115796D01*
X101183004Y-85691579D01*
X101182000Y-85446889D01*
X101179214Y-84999722D01*
X101171529Y-84619131D01*
X101159956Y-84334060D01*
X101145504Y-84173457D01*
X101136698Y-84148667D01*
X101054743Y-84196599D01*
X100867868Y-84326385D01*
X100605659Y-84517010D01*
X100359257Y-84700909D01*
X100053294Y-84923138D01*
X99792358Y-85096801D01*
X99607949Y-85201898D01*
X99536725Y-85223177D01*
X99497422Y-85127397D01*
X99461806Y-84876511D01*
X99431271Y-84484730D01*
X99407213Y-83966266D01*
X99404000Y-83870691D01*
X99361667Y-82548178D01*
X98570116Y-83145304D01*
X98184399Y-83425739D01*
X97913729Y-83597168D01*
X97748463Y-83665158D01*
X97689755Y-83653621D01*
X97670309Y-83550660D01*
X97649242Y-83280266D01*
X97626615Y-82844331D01*
X97602490Y-82244749D01*
X97576929Y-81483412D01*
X97549993Y-80562212D01*
X97521745Y-79483041D01*
X97492245Y-78247793D01*
X97461557Y-76858358D01*
X97449802Y-76300239D01*
X97403529Y-74096754D01*
X97358943Y-72015176D01*
X97316161Y-70060443D01*
X97275300Y-68237498D01*
X97236475Y-66551281D01*
X97199804Y-65006732D01*
X97165404Y-63608792D01*
X97133390Y-62362403D01*
X97103879Y-61272504D01*
X97076987Y-60344037D01*
X97062286Y-59870500D01*
X97045013Y-59278036D01*
X97036809Y-58834870D01*
X97037151Y-58766682D01*
X97498798Y-58766682D01*
X97500612Y-59010179D01*
X97505746Y-59397918D01*
X97513940Y-59917374D01*
X97524938Y-60556023D01*
X97538481Y-61301341D01*
X97554313Y-62140803D01*
X97572176Y-63061886D01*
X97591811Y-64052065D01*
X97612962Y-65098816D01*
X97635370Y-66189614D01*
X97658778Y-67311936D01*
X97682928Y-68453257D01*
X97707563Y-69601053D01*
X97732425Y-70742800D01*
X97757257Y-71865974D01*
X97781800Y-72958049D01*
X97805797Y-74006503D01*
X97828990Y-74998811D01*
X97851122Y-75922448D01*
X97871935Y-76764891D01*
X97875591Y-76909667D01*
X97895530Y-77727681D01*
X97913913Y-78542058D01*
X97930243Y-79326233D01*
X97944022Y-80053640D01*
X97954754Y-80697716D01*
X97961942Y-81231893D01*
X97965089Y-81629609D01*
X97965188Y-81700389D01*
X97968425Y-82141126D01*
X97977679Y-82519759D01*
X97991683Y-82804902D01*
X98009170Y-82965168D01*
X98017173Y-82987617D01*
X98102089Y-82962040D01*
X98288650Y-82850923D01*
X98545800Y-82673914D01*
X98735847Y-82533012D01*
X99164147Y-82206974D01*
X99827334Y-82206974D01*
X99827334Y-84578105D01*
X100105213Y-84384552D01*
X100336605Y-84219215D01*
X100620259Y-84011008D01*
X100775804Y-83894667D01*
X101168516Y-83598334D01*
X101121233Y-82455334D01*
X101103151Y-82035967D01*
X101086551Y-81683354D01*
X101073017Y-81428881D01*
X101064133Y-81303933D01*
X101062762Y-81296509D01*
X100995348Y-81336854D01*
X100824035Y-81458195D01*
X100579382Y-81638597D01*
X100439453Y-81743829D01*
X99827334Y-82206974D01*
X99164147Y-82206974D01*
X99402015Y-82025901D01*
X99357458Y-81161117D01*
X99347051Y-80907943D01*
X99334238Y-80510716D01*
X99319260Y-79981730D01*
X99302358Y-79333276D01*
X99283775Y-78577645D01*
X99263751Y-77727129D01*
X99242530Y-76794020D01*
X99220351Y-75790609D01*
X99197458Y-74729188D01*
X99174092Y-73622048D01*
X99150495Y-72481481D01*
X99126907Y-71319780D01*
X99103572Y-70149234D01*
X99080730Y-68982137D01*
X99058623Y-67830779D01*
X99037494Y-66707452D01*
X99017583Y-65624448D01*
X98999133Y-64594059D01*
X98982385Y-63628576D01*
X98967581Y-62740291D01*
X98954963Y-61941495D01*
X98944771Y-61244480D01*
X98937249Y-60661537D01*
X98936148Y-60552442D01*
X99339764Y-60552442D01*
X99341999Y-60940192D01*
X99347684Y-61456734D01*
X99356617Y-62088573D01*
X99368592Y-62822210D01*
X99383405Y-63644148D01*
X99400853Y-64540891D01*
X99420730Y-65498941D01*
X99439162Y-66341528D01*
X99465262Y-67510727D01*
X99493021Y-68760003D01*
X99521751Y-70058063D01*
X99550765Y-71373612D01*
X99579375Y-72675356D01*
X99606893Y-73932002D01*
X99632632Y-75112253D01*
X99655902Y-76184818D01*
X99675439Y-77091434D01*
X99775608Y-81760534D01*
X100436471Y-81257462D01*
X100725386Y-81023431D01*
X100948428Y-80815498D01*
X101077096Y-80661586D01*
X101097309Y-80610029D01*
X101095259Y-80496164D01*
X101089416Y-80231835D01*
X101080231Y-79835859D01*
X101068149Y-79327051D01*
X101053621Y-78724228D01*
X101037093Y-78046205D01*
X101019015Y-77311799D01*
X101012199Y-77036667D01*
X100997777Y-76445137D01*
X100981153Y-75745454D01*
X100962651Y-74952435D01*
X100942595Y-74080900D01*
X100921307Y-73145665D01*
X100899113Y-72161549D01*
X100876336Y-71143369D01*
X100853298Y-70105944D01*
X100830325Y-69064092D01*
X100807739Y-68032629D01*
X100785863Y-67026375D01*
X100765023Y-66060147D01*
X100745541Y-65148763D01*
X100727741Y-64307041D01*
X100711947Y-63549799D01*
X100698482Y-62891855D01*
X100687670Y-62348026D01*
X100679834Y-61933131D01*
X100675299Y-61661988D01*
X100674258Y-61563834D01*
X100703029Y-61358371D01*
X100797816Y-61289059D01*
X100809200Y-61288667D01*
X100909351Y-61313837D01*
X101158314Y-61386758D01*
X101543635Y-61503540D01*
X102052857Y-61660297D01*
X102673525Y-61853141D01*
X103393184Y-62078185D01*
X104199378Y-62331542D01*
X105079652Y-62609324D01*
X106021550Y-62907644D01*
X107012616Y-63222613D01*
X107349700Y-63329980D01*
X108998732Y-63855504D01*
X110493589Y-64331877D01*
X111841428Y-64761379D01*
X113049408Y-65146291D01*
X114124686Y-65488893D01*
X115074422Y-65791465D01*
X115905773Y-66056287D01*
X116625897Y-66285641D01*
X117241952Y-66481806D01*
X117761097Y-66647063D01*
X118190490Y-66783692D01*
X118517073Y-66887546D01*
X119299812Y-67136368D01*
X119554821Y-66947832D01*
X119703161Y-66812923D01*
X119753231Y-66713258D01*
X119745748Y-66698565D01*
X119691443Y-66674251D01*
X119548391Y-66622471D01*
X119311004Y-66541427D01*
X118973691Y-66429323D01*
X118530861Y-66284363D01*
X117976925Y-66104750D01*
X117306292Y-65888688D01*
X116513372Y-65634379D01*
X115592576Y-65340028D01*
X114538312Y-65003838D01*
X113344990Y-64624012D01*
X112007021Y-64198753D01*
X110518815Y-63726266D01*
X108874780Y-63204754D01*
X108844334Y-63195099D01*
X106744775Y-62528337D01*
X104743365Y-61890734D01*
X102862440Y-61289416D01*
X101365439Y-60809052D01*
X100817829Y-60635234D01*
X100324973Y-60483080D01*
X99909247Y-60359147D01*
X99593029Y-60269994D01*
X99398695Y-60222179D01*
X99346467Y-60217311D01*
X99341186Y-60306983D01*
X99339764Y-60552442D01*
X98936148Y-60552442D01*
X98932638Y-60204959D01*
X98931178Y-59887037D01*
X98933113Y-59720062D01*
X98935387Y-59697058D01*
X98949688Y-59690614D01*
X98980609Y-59690614D01*
X99036551Y-59699675D01*
X99125916Y-59720416D01*
X99257108Y-59755453D01*
X99438529Y-59807404D01*
X99678581Y-59878888D01*
X99985667Y-59972523D01*
X100368189Y-60090925D01*
X100834549Y-60236713D01*
X101393151Y-60412504D01*
X102052396Y-60620917D01*
X102820687Y-60864568D01*
X103706427Y-61146077D01*
X104718018Y-61468060D01*
X105863862Y-61833135D01*
X107152362Y-62243921D01*
X108591920Y-62703034D01*
X108929000Y-62810552D01*
X110522918Y-63318891D01*
X111963075Y-63778007D01*
X113256991Y-64190268D01*
X114412187Y-64558042D01*
X115436184Y-64883699D01*
X116336502Y-65169607D01*
X117120663Y-65418135D01*
X117796187Y-65631652D01*
X118370594Y-65812526D01*
X118851407Y-65963125D01*
X119246146Y-66085819D01*
X119562331Y-66182977D01*
X119807483Y-66256967D01*
X119989123Y-66310157D01*
X120114772Y-66344916D01*
X120191951Y-66363614D01*
X120226356Y-66368667D01*
X120365051Y-66319849D01*
X120531644Y-66211856D01*
X120730997Y-66055045D01*
X119528999Y-65669088D01*
X118747117Y-65418378D01*
X117820156Y-65121764D01*
X116764472Y-64784463D01*
X115596415Y-64411694D01*
X114332342Y-64008677D01*
X112988603Y-63580629D01*
X111581554Y-63132770D01*
X111511334Y-63110428D01*
X110744461Y-62866416D01*
X109936299Y-62609226D01*
X109124523Y-62350851D01*
X108346811Y-62103284D01*
X107640838Y-61878519D01*
X107044282Y-61688548D01*
X106854667Y-61628151D01*
X106296864Y-61450567D01*
X105617390Y-61234410D01*
X104855978Y-60992312D01*
X104052363Y-60736903D01*
X103246279Y-60480814D01*
X102477461Y-60236675D01*
X102325000Y-60188277D01*
X101620933Y-59964622D01*
X100917504Y-59740866D01*
X100244288Y-59526439D01*
X99630859Y-59330768D01*
X99106790Y-59163285D01*
X98701654Y-59033417D01*
X98569606Y-58990916D01*
X98178041Y-58867087D01*
X97849565Y-58767853D01*
X97614905Y-58702154D01*
X97504788Y-58678925D01*
X97500560Y-58679950D01*
X97498798Y-58766682D01*
X97037151Y-58766682D01*
X97038383Y-58521174D01*
X97050444Y-58317121D01*
X97073702Y-58202881D01*
X97108867Y-58158627D01*
X97123623Y-58156000D01*
X97237382Y-58180796D01*
G36*
X134474234Y-74490936D02*
G01*
X134521652Y-74505220D01*
X134792697Y-74651815D01*
X135008758Y-74847210D01*
X135124721Y-75047027D01*
X135133334Y-75106907D01*
X135084453Y-75345633D01*
X134933086Y-75645500D01*
X134672141Y-76016129D01*
X134294529Y-76467139D01*
X133793161Y-77008151D01*
X133540975Y-77267581D01*
X133052557Y-77768104D01*
X132590605Y-78248689D01*
X132169243Y-78694030D01*
X131802601Y-79088821D01*
X131504803Y-79417758D01*
X131289977Y-79665534D01*
X131172249Y-79816845D01*
X131154000Y-79853729D01*
X131172124Y-79872447D01*
X131238852Y-79866737D01*
X131372721Y-79830471D01*
X131592267Y-79757524D01*
X131916026Y-79641769D01*
X132362534Y-79477081D01*
X132889667Y-79280083D01*
X133582564Y-79023144D01*
X134313304Y-78757190D01*
X135033603Y-78499487D01*
X135695178Y-78267301D01*
X136249745Y-78077899D01*
X136276334Y-78069016D01*
X136522565Y-77990694D01*
X136877280Y-77882534D01*
X137286015Y-77760754D01*
X137694303Y-77641574D01*
X138047679Y-77541213D01*
X138063015Y-77536956D01*
X138345088Y-77495006D01*
X138568805Y-77523763D01*
X138712062Y-77602448D01*
X138752756Y-77710281D01*
X138668784Y-77826482D01*
X138470748Y-77920277D01*
X138279570Y-77986236D01*
X137983382Y-78093586D01*
X137635243Y-78222992D01*
X137504000Y-78272549D01*
X137099686Y-78413229D01*
X136676402Y-78540166D01*
X136312982Y-78630117D01*
X136248355Y-78642733D01*
X135746328Y-78761994D01*
X135139558Y-78951479D01*
X134469427Y-79195842D01*
X133777317Y-79479739D01*
X133104608Y-79787826D01*
X132936165Y-79870912D01*
X131983685Y-80348598D01*
X132047874Y-80661133D01*
X132070164Y-80861003D01*
X132086005Y-81188246D01*
X132094167Y-81600977D01*
X132093417Y-82057317D01*
X132091940Y-82159000D01*
X132098628Y-82926189D01*
X132151812Y-83631002D01*
X132259870Y-84310817D01*
X132431183Y-85003010D01*
X132674131Y-85744959D01*
X132997095Y-86574040D01*
X133177658Y-87001526D01*
X133302938Y-87308527D01*
X133395669Y-87566418D01*
X133438814Y-87727082D01*
X133440000Y-87742359D01*
X133391293Y-87861606D01*
X133265502Y-87862349D01*
X133093123Y-87756853D01*
X132904653Y-87557383D01*
X132872602Y-87514167D01*
X132533822Y-86966649D01*
X132201201Y-86292170D01*
X131891509Y-85532769D01*
X131621518Y-84730484D01*
X131407998Y-83927356D01*
X131367396Y-83740965D01*
X131306996Y-83341827D01*
X131263386Y-82830509D01*
X131240835Y-82263700D01*
X131238667Y-82031462D01*
X131232576Y-81606552D01*
X131215809Y-81254235D01*
X131190626Y-81005879D01*
X131159286Y-80892852D01*
X131156487Y-80890537D01*
X131074774Y-80879538D01*
X130933519Y-80923468D01*
X130716197Y-81031198D01*
X130406285Y-81211603D01*
X129987260Y-81473554D01*
X129573178Y-81740758D01*
X129223624Y-81977248D01*
X128886503Y-82226766D01*
X128543135Y-82506298D01*
X128174838Y-82832830D01*
X127762930Y-83223348D01*
X127288730Y-83694838D01*
X126733557Y-84264286D01*
X126296404Y-84720167D01*
X125958395Y-85060190D01*
X125698682Y-85292042D01*
X125524552Y-85411391D01*
X125443289Y-85413906D01*
X125462179Y-85295255D01*
X125513170Y-85185834D01*
X125608501Y-85031781D01*
X125783017Y-84776525D01*
X126013232Y-84453513D01*
X126275658Y-84096195D01*
X126319678Y-84037258D01*
X126615020Y-83633574D01*
X126816124Y-83333121D01*
X126937934Y-83109693D01*
X126995393Y-82937087D01*
X127005334Y-82834919D01*
X127016489Y-82705729D01*
X127064381Y-82585693D01*
X127170650Y-82449722D01*
X127356936Y-82272724D01*
X127644877Y-82029610D01*
X127830834Y-81877771D01*
X128170676Y-81584173D01*
X128600173Y-81185743D01*
X129097340Y-80704969D01*
X129640190Y-80164337D01*
X130206737Y-79586334D01*
X130774996Y-78993447D01*
X131322980Y-78408164D01*
X131828704Y-77852970D01*
X132270182Y-77350354D01*
X132357123Y-77248334D01*
X132823043Y-76682698D01*
X133168019Y-76228224D01*
X133394633Y-75880254D01*
X133505469Y-75634129D01*
X133503112Y-75485190D01*
X133390145Y-75428781D01*
X133366815Y-75428000D01*
X133189656Y-75461549D01*
X132894252Y-75552950D01*
X132515752Y-75688338D01*
X132089306Y-75853847D01*
X131650063Y-76035610D01*
X131233174Y-76219762D01*
X130873788Y-76392437D01*
X130730667Y-76467921D01*
X129501769Y-77180254D01*
X128362287Y-77921705D01*
X127278800Y-78708834D01*
X126971927Y-78927223D01*
X126747617Y-79036599D01*
X126565612Y-79044522D01*
X126385657Y-78958552D01*
X126297085Y-78893188D01*
X126135620Y-78737219D01*
X126083664Y-78590810D01*
X126151332Y-78433936D01*
X126348739Y-78246570D01*
X126686001Y-78008683D01*
X126772148Y-77952622D01*
X127152108Y-77705598D01*
X127551460Y-77442812D01*
X127900324Y-77210332D01*
X127989886Y-77149861D01*
X128572669Y-76778192D01*
X129217961Y-76407747D01*
X129905371Y-76046781D01*
X130614512Y-75703549D01*
X131324993Y-75386306D01*
X132016425Y-75103309D01*
X132668419Y-74862812D01*
X133260587Y-74673071D01*
X133772538Y-74542341D01*
X134183883Y-74478878D01*
X134474234Y-74490936D01*
G37*
X134474234Y-74490936D02*
X134521652Y-74505220D01*
X134792697Y-74651815D01*
X135008758Y-74847210D01*
X135124721Y-75047027D01*
X135133334Y-75106907D01*
X135084453Y-75345633D01*
X134933086Y-75645500D01*
X134672141Y-76016129D01*
X134294529Y-76467139D01*
X133793161Y-77008151D01*
X133540975Y-77267581D01*
X133052557Y-77768104D01*
X132590605Y-78248689D01*
X132169243Y-78694030D01*
X131802601Y-79088821D01*
X131504803Y-79417758D01*
X131289977Y-79665534D01*
X131172249Y-79816845D01*
X131154000Y-79853729D01*
X131172124Y-79872447D01*
X131238852Y-79866737D01*
X131372721Y-79830471D01*
X131592267Y-79757524D01*
X131916026Y-79641769D01*
X132362534Y-79477081D01*
X132889667Y-79280083D01*
X133582564Y-79023144D01*
X134313304Y-78757190D01*
X135033603Y-78499487D01*
X135695178Y-78267301D01*
X136249745Y-78077899D01*
X136276334Y-78069016D01*
X136522565Y-77990694D01*
X136877280Y-77882534D01*
X137286015Y-77760754D01*
X137694303Y-77641574D01*
X138047679Y-77541213D01*
X138063015Y-77536956D01*
X138345088Y-77495006D01*
X138568805Y-77523763D01*
X138712062Y-77602448D01*
X138752756Y-77710281D01*
X138668784Y-77826482D01*
X138470748Y-77920277D01*
X138279570Y-77986236D01*
X137983382Y-78093586D01*
X137635243Y-78222992D01*
X137504000Y-78272549D01*
X137099686Y-78413229D01*
X136676402Y-78540166D01*
X136312982Y-78630117D01*
X136248355Y-78642733D01*
X135746328Y-78761994D01*
X135139558Y-78951479D01*
X134469427Y-79195842D01*
X133777317Y-79479739D01*
X133104608Y-79787826D01*
X132936165Y-79870912D01*
X131983685Y-80348598D01*
X132047874Y-80661133D01*
X132070164Y-80861003D01*
X132086005Y-81188246D01*
X132094167Y-81600977D01*
X132093417Y-82057317D01*
X132091940Y-82159000D01*
X132098628Y-82926189D01*
X132151812Y-83631002D01*
X132259870Y-84310817D01*
X132431183Y-85003010D01*
X132674131Y-85744959D01*
X132997095Y-86574040D01*
X133177658Y-87001526D01*
X133302938Y-87308527D01*
X133395669Y-87566418D01*
X133438814Y-87727082D01*
X133440000Y-87742359D01*
X133391293Y-87861606D01*
X133265502Y-87862349D01*
X133093123Y-87756853D01*
X132904653Y-87557383D01*
X132872602Y-87514167D01*
X132533822Y-86966649D01*
X132201201Y-86292170D01*
X131891509Y-85532769D01*
X131621518Y-84730484D01*
X131407998Y-83927356D01*
X131367396Y-83740965D01*
X131306996Y-83341827D01*
X131263386Y-82830509D01*
X131240835Y-82263700D01*
X131238667Y-82031462D01*
X131232576Y-81606552D01*
X131215809Y-81254235D01*
X131190626Y-81005879D01*
X131159286Y-80892852D01*
X131156487Y-80890537D01*
X131074774Y-80879538D01*
X130933519Y-80923468D01*
X130716197Y-81031198D01*
X130406285Y-81211603D01*
X129987260Y-81473554D01*
X129573178Y-81740758D01*
X129223624Y-81977248D01*
X128886503Y-82226766D01*
X128543135Y-82506298D01*
X128174838Y-82832830D01*
X127762930Y-83223348D01*
X127288730Y-83694838D01*
X126733557Y-84264286D01*
X126296404Y-84720167D01*
X125958395Y-85060190D01*
X125698682Y-85292042D01*
X125524552Y-85411391D01*
X125443289Y-85413906D01*
X125462179Y-85295255D01*
X125513170Y-85185834D01*
X125608501Y-85031781D01*
X125783017Y-84776525D01*
X126013232Y-84453513D01*
X126275658Y-84096195D01*
X126319678Y-84037258D01*
X126615020Y-83633574D01*
X126816124Y-83333121D01*
X126937934Y-83109693D01*
X126995393Y-82937087D01*
X127005334Y-82834919D01*
X127016489Y-82705729D01*
X127064381Y-82585693D01*
X127170650Y-82449722D01*
X127356936Y-82272724D01*
X127644877Y-82029610D01*
X127830834Y-81877771D01*
X128170676Y-81584173D01*
X128600173Y-81185743D01*
X129097340Y-80704969D01*
X129640190Y-80164337D01*
X130206737Y-79586334D01*
X130774996Y-78993447D01*
X131322980Y-78408164D01*
X131828704Y-77852970D01*
X132270182Y-77350354D01*
X132357123Y-77248334D01*
X132823043Y-76682698D01*
X133168019Y-76228224D01*
X133394633Y-75880254D01*
X133505469Y-75634129D01*
X133503112Y-75485190D01*
X133390145Y-75428781D01*
X133366815Y-75428000D01*
X133189656Y-75461549D01*
X132894252Y-75552950D01*
X132515752Y-75688338D01*
X132089306Y-75853847D01*
X131650063Y-76035610D01*
X131233174Y-76219762D01*
X130873788Y-76392437D01*
X130730667Y-76467921D01*
X129501769Y-77180254D01*
X128362287Y-77921705D01*
X127278800Y-78708834D01*
X126971927Y-78927223D01*
X126747617Y-79036599D01*
X126565612Y-79044522D01*
X126385657Y-78958552D01*
X126297085Y-78893188D01*
X126135620Y-78737219D01*
X126083664Y-78590810D01*
X126151332Y-78433936D01*
X126348739Y-78246570D01*
X126686001Y-78008683D01*
X126772148Y-77952622D01*
X127152108Y-77705598D01*
X127551460Y-77442812D01*
X127900324Y-77210332D01*
X127989886Y-77149861D01*
X128572669Y-76778192D01*
X129217961Y-76407747D01*
X129905371Y-76046781D01*
X130614512Y-75703549D01*
X131324993Y-75386306D01*
X132016425Y-75103309D01*
X132668419Y-74862812D01*
X133260587Y-74673071D01*
X133772538Y-74542341D01*
X134183883Y-74478878D01*
X134474234Y-74490936D01*
M02*
