G04 #@! TF.GenerationSoftware,KiCad,Pcbnew,(5.1.9)-1*
G04 #@! TF.CreationDate,2021-05-26T09:14:39+01:00*
G04 #@! TF.ProjectId,EnvMCRO,456e764d-4352-44f2-9e6b-696361645f70,rev?*
G04 #@! TF.SameCoordinates,Original*
G04 #@! TF.FileFunction,Copper,L1,Top*
G04 #@! TF.FilePolarity,Positive*
%FSLAX46Y46*%
G04 Gerber Fmt 4.6, Leading zero omitted, Abs format (unit mm)*
G04 Created by KiCad (PCBNEW (5.1.9)-1) date 2021-05-26 09:14:39*
%MOMM*%
%LPD*%
G01*
G04 APERTURE LIST*
G04 #@! TA.AperFunction,NonConductor*
%ADD10C,0.150000*%
G04 #@! TD*
G04 APERTURE END LIST*
D10*
X113223809Y-40428571D02*
X113557142Y-40428571D01*
X113700000Y-40952380D02*
X113223809Y-40952380D01*
X113223809Y-39952380D01*
X113700000Y-39952380D01*
X114128571Y-40285714D02*
X114128571Y-40952380D01*
X114128571Y-40380952D02*
X114176190Y-40333333D01*
X114271428Y-40285714D01*
X114414285Y-40285714D01*
X114509523Y-40333333D01*
X114557142Y-40428571D01*
X114557142Y-40952380D01*
X114938095Y-40285714D02*
X115176190Y-40952380D01*
X115414285Y-40285714D01*
X115795238Y-40952380D02*
X115795238Y-40285714D01*
X115795238Y-39952380D02*
X115747619Y-40000000D01*
X115795238Y-40047619D01*
X115842857Y-40000000D01*
X115795238Y-39952380D01*
X115795238Y-40047619D01*
X116414285Y-40952380D02*
X116319047Y-40904761D01*
X116271428Y-40857142D01*
X116223809Y-40761904D01*
X116223809Y-40476190D01*
X116271428Y-40380952D01*
X116319047Y-40333333D01*
X116414285Y-40285714D01*
X116557142Y-40285714D01*
X116652380Y-40333333D01*
X116700000Y-40380952D01*
X116747619Y-40476190D01*
X116747619Y-40761904D01*
X116700000Y-40857142D01*
X116652380Y-40904761D01*
X116557142Y-40952380D01*
X116414285Y-40952380D01*
X117604761Y-40285714D02*
X117604761Y-40952380D01*
X117176190Y-40285714D02*
X117176190Y-40809523D01*
X117223809Y-40904761D01*
X117319047Y-40952380D01*
X117461904Y-40952380D01*
X117557142Y-40904761D01*
X117604761Y-40857142D01*
X118033333Y-40904761D02*
X118128571Y-40952380D01*
X118319047Y-40952380D01*
X118414285Y-40904761D01*
X118461904Y-40809523D01*
X118461904Y-40761904D01*
X118414285Y-40666666D01*
X118319047Y-40619047D01*
X118176190Y-40619047D01*
X118080952Y-40571428D01*
X118033333Y-40476190D01*
X118033333Y-40428571D01*
X118080952Y-40333333D01*
X118176190Y-40285714D01*
X118319047Y-40285714D01*
X118414285Y-40333333D01*
X118890476Y-40857142D02*
X118938095Y-40904761D01*
X118890476Y-40952380D01*
X118842857Y-40904761D01*
X118890476Y-40857142D01*
X118890476Y-40952380D01*
X119366666Y-40952380D02*
X119366666Y-39952380D01*
X119700000Y-40666666D01*
X120033333Y-39952380D01*
X120033333Y-40952380D01*
X120890476Y-40904761D02*
X120795238Y-40952380D01*
X120604761Y-40952380D01*
X120509523Y-40904761D01*
X120461904Y-40809523D01*
X120461904Y-40428571D01*
X120509523Y-40333333D01*
X120604761Y-40285714D01*
X120795238Y-40285714D01*
X120890476Y-40333333D01*
X120938095Y-40428571D01*
X120938095Y-40523809D01*
X120461904Y-40619047D01*
X121795238Y-40952380D02*
X121795238Y-39952380D01*
X121795238Y-40904761D02*
X121700000Y-40952380D01*
X121509523Y-40952380D01*
X121414285Y-40904761D01*
X121366666Y-40857142D01*
X121319047Y-40761904D01*
X121319047Y-40476190D01*
X121366666Y-40380952D01*
X121414285Y-40333333D01*
X121509523Y-40285714D01*
X121700000Y-40285714D01*
X121795238Y-40333333D01*
X122271428Y-40952380D02*
X122271428Y-40285714D01*
X122271428Y-39952380D02*
X122223809Y-40000000D01*
X122271428Y-40047619D01*
X122319047Y-40000000D01*
X122271428Y-39952380D01*
X122271428Y-40047619D01*
X123176190Y-40952380D02*
X123176190Y-40428571D01*
X123128571Y-40333333D01*
X123033333Y-40285714D01*
X122842857Y-40285714D01*
X122747619Y-40333333D01*
X123176190Y-40904761D02*
X123080952Y-40952380D01*
X122842857Y-40952380D01*
X122747619Y-40904761D01*
X122700000Y-40809523D01*
X122700000Y-40714285D01*
X122747619Y-40619047D01*
X122842857Y-40571428D01*
X123080952Y-40571428D01*
X123176190Y-40523809D01*
M02*
