%FSLAX45Y45*%
G04 Gerber Fmt 4.5, Leading zero omitted, Abs format (unit mm)*
G04 Created by KiCad (PCBNEW (5.1.9)-1) date 2021-05-26 09:14:38*
%MOMM*%
%LPD*%
G01*
G04 APERTURE LIST*
%TA.AperFunction,Profile*%
%ADD10C,0.100000*%
%TD*%
%ADD11C,0.200000*%
%ADD12C,0.300000*%
G04 APERTURE END LIST*
D10*
X17100000Y-3880000D02*
G75*
G02*
X17300000Y-4080000I0J-200000D01*
G01*
X17300000Y-10650000D02*
G75*
G02*
X17100000Y-10850000I-200000J0D01*
G01*
X6540000Y-10850000D02*
G75*
G02*
X6340000Y-10650000I0J200000D01*
G01*
X6340000Y-4080000D02*
X6340000Y-10650000D01*
X17100000Y-3880000D02*
X6540000Y-3880000D01*
X6340000Y-4080000D02*
G75*
G02*
X6540000Y-3880000I200000J0D01*
G01*
X17300000Y-10650000D02*
X17300000Y-4080000D01*
X6540000Y-10850000D02*
X17100000Y-10850000D01*
D11*
D12*
X6621428Y-11320714D02*
X6621428Y-11020714D01*
X6692857Y-11020714D01*
X6735714Y-11035000D01*
X6764286Y-11063572D01*
X6778571Y-11092143D01*
X6792857Y-11149286D01*
X6792857Y-11192143D01*
X6778571Y-11249286D01*
X6764286Y-11277857D01*
X6735714Y-11306429D01*
X6692857Y-11320714D01*
X6621428Y-11320714D01*
X6921428Y-11320714D02*
X6921428Y-11120714D01*
X6921428Y-11177857D02*
X6935714Y-11149286D01*
X6950000Y-11135000D01*
X6978571Y-11120714D01*
X7007143Y-11120714D01*
X7107143Y-11320714D02*
X7107143Y-11120714D01*
X7107143Y-11020714D02*
X7092857Y-11035000D01*
X7107143Y-11049286D01*
X7121428Y-11035000D01*
X7107143Y-11020714D01*
X7107143Y-11049286D01*
X7292857Y-11320714D02*
X7264286Y-11306429D01*
X7250000Y-11277857D01*
X7250000Y-11020714D01*
X7450000Y-11320714D02*
X7421428Y-11306429D01*
X7407143Y-11277857D01*
X7407143Y-11020714D01*
X7792857Y-11320714D02*
X7792857Y-11020714D01*
X7892857Y-11235000D01*
X7992857Y-11020714D01*
X7992857Y-11320714D01*
X8264286Y-11320714D02*
X8264286Y-11163572D01*
X8250000Y-11135000D01*
X8221428Y-11120714D01*
X8164286Y-11120714D01*
X8135714Y-11135000D01*
X8264286Y-11306429D02*
X8235714Y-11320714D01*
X8164286Y-11320714D01*
X8135714Y-11306429D01*
X8121428Y-11277857D01*
X8121428Y-11249286D01*
X8135714Y-11220714D01*
X8164286Y-11206429D01*
X8235714Y-11206429D01*
X8264286Y-11192143D01*
X8407143Y-11120714D02*
X8407143Y-11420714D01*
X8407143Y-11135000D02*
X8435714Y-11120714D01*
X8492857Y-11120714D01*
X8521428Y-11135000D01*
X8535714Y-11149286D01*
X8550000Y-11177857D01*
X8550000Y-11263571D01*
X8535714Y-11292143D01*
X8521428Y-11306429D01*
X8492857Y-11320714D01*
X8435714Y-11320714D01*
X8407143Y-11306429D01*
X8678571Y-11292143D02*
X8692857Y-11306429D01*
X8678571Y-11320714D01*
X8664286Y-11306429D01*
X8678571Y-11292143D01*
X8678571Y-11320714D01*
X8678571Y-11135000D02*
X8692857Y-11149286D01*
X8678571Y-11163572D01*
X8664286Y-11149286D01*
X8678571Y-11135000D01*
X8678571Y-11163572D01*
M02*
