G04 #@! TF.GenerationSoftware,KiCad,Pcbnew,(5.1.9)-1*
G04 #@! TF.CreationDate,2021-05-26T09:14:39+01:00*
G04 #@! TF.ProjectId,EnvMCRO,456e764d-4352-44f2-9e6b-696361645f70,rev?*
G04 #@! TF.SameCoordinates,Original*
G04 #@! TF.FileFunction,Copper,L2,Bot*
G04 #@! TF.FilePolarity,Positive*
%FSLAX46Y46*%
G04 Gerber Fmt 4.6, Leading zero omitted, Abs format (unit mm)*
G04 Created by KiCad (PCBNEW (5.1.9)-1) date 2021-05-26 09:14:39*
%MOMM*%
%LPD*%
G01*
G04 APERTURE LIST*
G04 #@! TA.AperFunction,NonConductor*
%ADD10C,0.150000*%
G04 #@! TD*
G04 APERTURE END LIST*
D10*
X123176190Y-40428571D02*
X122842857Y-40428571D01*
X122700000Y-40952380D02*
X123176190Y-40952380D01*
X123176190Y-39952380D01*
X122700000Y-39952380D01*
X122271428Y-40285714D02*
X122271428Y-40952380D01*
X122271428Y-40380952D02*
X122223809Y-40333333D01*
X122128571Y-40285714D01*
X121985714Y-40285714D01*
X121890476Y-40333333D01*
X121842857Y-40428571D01*
X121842857Y-40952380D01*
X121461904Y-40285714D02*
X121223809Y-40952380D01*
X120985714Y-40285714D01*
X120604761Y-40952380D02*
X120604761Y-40285714D01*
X120604761Y-39952380D02*
X120652380Y-40000000D01*
X120604761Y-40047619D01*
X120557142Y-40000000D01*
X120604761Y-39952380D01*
X120604761Y-40047619D01*
X119985714Y-40952380D02*
X120080952Y-40904761D01*
X120128571Y-40857142D01*
X120176190Y-40761904D01*
X120176190Y-40476190D01*
X120128571Y-40380952D01*
X120080952Y-40333333D01*
X119985714Y-40285714D01*
X119842857Y-40285714D01*
X119747619Y-40333333D01*
X119700000Y-40380952D01*
X119652380Y-40476190D01*
X119652380Y-40761904D01*
X119700000Y-40857142D01*
X119747619Y-40904761D01*
X119842857Y-40952380D01*
X119985714Y-40952380D01*
X118795238Y-40285714D02*
X118795238Y-40952380D01*
X119223809Y-40285714D02*
X119223809Y-40809523D01*
X119176190Y-40904761D01*
X119080952Y-40952380D01*
X118938095Y-40952380D01*
X118842857Y-40904761D01*
X118795238Y-40857142D01*
X118366666Y-40904761D02*
X118271428Y-40952380D01*
X118080952Y-40952380D01*
X117985714Y-40904761D01*
X117938095Y-40809523D01*
X117938095Y-40761904D01*
X117985714Y-40666666D01*
X118080952Y-40619047D01*
X118223809Y-40619047D01*
X118319047Y-40571428D01*
X118366666Y-40476190D01*
X118366666Y-40428571D01*
X118319047Y-40333333D01*
X118223809Y-40285714D01*
X118080952Y-40285714D01*
X117985714Y-40333333D01*
X117509523Y-40857142D02*
X117461904Y-40904761D01*
X117509523Y-40952380D01*
X117557142Y-40904761D01*
X117509523Y-40857142D01*
X117509523Y-40952380D01*
X117033333Y-40952380D02*
X117033333Y-39952380D01*
X116700000Y-40666666D01*
X116366666Y-39952380D01*
X116366666Y-40952380D01*
X115509523Y-40904761D02*
X115604761Y-40952380D01*
X115795238Y-40952380D01*
X115890476Y-40904761D01*
X115938095Y-40809523D01*
X115938095Y-40428571D01*
X115890476Y-40333333D01*
X115795238Y-40285714D01*
X115604761Y-40285714D01*
X115509523Y-40333333D01*
X115461904Y-40428571D01*
X115461904Y-40523809D01*
X115938095Y-40619047D01*
X114604761Y-40952380D02*
X114604761Y-39952380D01*
X114604761Y-40904761D02*
X114700000Y-40952380D01*
X114890476Y-40952380D01*
X114985714Y-40904761D01*
X115033333Y-40857142D01*
X115080952Y-40761904D01*
X115080952Y-40476190D01*
X115033333Y-40380952D01*
X114985714Y-40333333D01*
X114890476Y-40285714D01*
X114700000Y-40285714D01*
X114604761Y-40333333D01*
X114128571Y-40952380D02*
X114128571Y-40285714D01*
X114128571Y-39952380D02*
X114176190Y-40000000D01*
X114128571Y-40047619D01*
X114080952Y-40000000D01*
X114128571Y-39952380D01*
X114128571Y-40047619D01*
X113223809Y-40952380D02*
X113223809Y-40428571D01*
X113271428Y-40333333D01*
X113366666Y-40285714D01*
X113557142Y-40285714D01*
X113652380Y-40333333D01*
X113223809Y-40904761D02*
X113319047Y-40952380D01*
X113557142Y-40952380D01*
X113652380Y-40904761D01*
X113700000Y-40809523D01*
X113700000Y-40714285D01*
X113652380Y-40619047D01*
X113557142Y-40571428D01*
X113319047Y-40571428D01*
X113223809Y-40523809D01*
M02*
