<?xml version="1.0" standalone="no"?>
 <!DOCTYPE svg PUBLIC "-//W3C//DTD SVG 1.1//EN" 
 "http://www.w3.org/Graphics/SVG/1.1/DTD/svg11.dtd"> 
<svg
  xmlns:svg="http://www.w3.org/2000/svg"
  xmlns="http://www.w3.org/2000/svg"
  xmlns:xlink="http://www.w3.org/1999/xlink"
  version="1.1"
  width="10.967720cm" height="6.979920cm" viewBox="0 0 43180 27480">
<title>SVG Picture created as EnvMCRO-brd.svg date 2021/04/17 13:11:25 </title>
  <desc>Picture generated by PCBNEW </desc>
<g style="fill:#000000; fill-opacity:1;stroke:#000000; stroke-opacity:1;
stroke-linecap:round; stroke-linejoin:round;"
 transform="translate(0 0) scale(1 1)">
</g>
<g style="fill:#000000; fill-opacity:0.0; 
stroke:#000000; stroke-width:-0.000393701; stroke-opacity:1; 
stroke-linecap:round; stroke-linejoin:round;">
<g >
</g>
<g >
</g>
<g >
</g>
<g style="fill:#000000; fill-opacity:0.0; 
stroke:#000000; stroke-width:-0.000393701; stroke-opacity:1; 
stroke-linecap:round; stroke-linejoin:round;">
</g>
<g style="fill:#000000; fill-opacity:0.0; 
stroke:#000000; stroke-width:39.3701; stroke-opacity:1; 
stroke-linecap:round; stroke-linejoin:round;">
<circle cx="42185" cy="26476.4" r="413.386" /> 
</g>
<g >
</g>
<g style="fill:#000000; fill-opacity:0.0; 
stroke:#000000; stroke-width:39.3701; stroke-opacity:1; 
stroke-linecap:round; stroke-linejoin:round;">
<circle cx="1003.94" cy="1003.94" r="413.386" /> 
</g>
<g >
</g>
<g style="fill:#000000; fill-opacity:0.0; 
stroke:#000000; stroke-width:39.3701; stroke-opacity:1; 
stroke-linecap:round; stroke-linejoin:round;">
<circle cx="1003.94" cy="26476.4" r="413.386" /> 
</g>
<g >
</g>
<g style="fill:#000000; fill-opacity:0.0; 
stroke:#000000; stroke-width:39.3701; stroke-opacity:1; 
stroke-linecap:round; stroke-linejoin:round;">
<circle cx="42185" cy="1003.94" r="413.386" /> 
</g>
<g >
</g>
<g >
</g>
<g >
</g>
<g >
</g>
<g >
</g>
<g >
</g>
<g >
</g>
<g >
</g>
<g >
</g>
<g >
</g>
<g >
</g>
<g >
</g>
<g >
</g>
<g >
</g>
<g >
</g>
<g >
</g>
<g >
</g>
<g >
</g>
<g >
</g>
<g >
</g>
<g >
</g>
<g >
</g>
<g >
</g>
<g >
</g>
<g >
</g>
</g>
<g style="fill:#000000; fill-opacity:0.0; 
stroke:#000000; stroke-width:39.3701; stroke-opacity:1; 
stroke-linecap:round; stroke-linejoin:round;">
<path d="M22474 10432
L22474 15944
" />
<path d="M24462 6568
L24462 1057
" />
<path d="M16962 10432
L22474 10432
" />
<path d="M16962 6568
L16962 1057
" />
<path d="M22474 6568
L16962 6568
" />
<path d="M22474 1057
L22474 6568
" />
<path d="M16962 1057
L22474 1057
" />
<path d="M7474 15944
L1962 15944
" />
<path d="M29974 6568
L24462 6568
" />
<path d="M24462 15944
L24462 10432
" />
<path d="M29974 1057
L29974 6568
" />
<path d="M24462 1057
L29974 1057
" />
<path d="M22474 15944
L16962 15944
" />
<path d="M1962 15944
L1962 10432
" />
<path d="M7474 10432
L7474 15944
" />
<path d="M1962 10432
L7474 10432
" />
<path d="M14974 10432
L14974 15944
" />
<path d="M16962 15944
L16962 10432
" />
<path d="M9462 10432
L14974 10432
" />
<path d="M29974 15944
L24462 15944
" />
<path d="M29974 10432
L29974 15944
" />
<path d="M9462 15944
L9462 10432
" />
<path d="M14974 15944
L9462 15944
" />
<path d="M9462 19807
L14974 19807
" />
<path d="M22474 19807
L22474 25319
" />
<path d="M24462 25319
L24462 19807
" />
<path d="M24462 19807
L29974 19807
" />
<path d="M29974 25319
L24462 25319
" />
<path d="M24462 10432
L29974 10432
" />
<path d="M1962 19807
L7474 19807
" />
<path d="M1962 25319
L1962 19807
" />
<path d="M7474 25319
L1962 25319
" />
<path d="M16962 19807
L22474 19807
" />
<path d="M7474 19807
L7474 25319
" />
<path d="M29974 19807
L29974 25319
" />
<path d="M16962 25319
L16962 19807
" />
<path d="M9462 25319
L9462 19807
" />
<path d="M14974 25319
L9462 25319
" />
<path d="M14974 19807
L14974 25319
" />
<path d="M22474 25319
L16962 25319
" />
<path d="M14974 1057
L14974 6568
" />
<path d="M9462 1057
L14974 1057
" />
<path d="M7474 6568
L1962 6568
" />
<path d="M9462 6568
L9462 1057
" />
<path d="M1962 6568
L1962 1057
" />
<path d="M1962 1057
L7474 1057
" />
<path d="M14974 6568
L9462 6568
" />
<path d="M7474 1057
L7474 6568
" />
<g >
</g>
<g >
</g>
<g >
</g>
<g >
</g>
<g >
</g>
<g >
</g>
<g >
</g>
<g >
</g>
<g >
</g>
<g >
</g>
<g >
</g>
<g >
</g>
<g >
</g>
<g >
</g>
<g >
</g>
<g >
</g>
<g >
</g>
<g >
</g>
<g >
</g>
<g >
</g>
<g >
</g>
<g >
</g>
<g >
</g>
<g >
</g>
<g >
</g>
<g >
</g>
<g >
</g>
<g >
</g>
<g >
</g>
<g >
</g>
<g >
</g>
</g>
<g style="fill:#000000; fill-opacity:0.0; 
stroke:#000000; stroke-width:39.3701; stroke-opacity:1; 
stroke-linecap:round; stroke-linejoin:round;">
<path d="M43169.3 807.087 A787.402 787.402 0.0 0 0 42381.9 19.6854" />
<path d="M42381.9 27460.6 A787.402 787.402 0.0 0 0 43169.3 26673.2" />
<path d="M19.6854 26673.2 A787.402 787.402 0.0 0 0 807.087 27460.6" />
<path d="M19 807
L19 26673
" />
<path d="M42381 19
L807 19
" />
<path d="M807.087 19.6854 A787.402 787.402 0.0 0 0 19.6854 807.087" />
<path d="M43169 26673
L43169 807
" />
<path d="M807 27460
L42381 27460
" />
<g >
</g>
<g >
</g>
<g >
</g>
<g >
</g>
<g >
</g>
<g >
</g>
<g >
</g>
<g >
</g>
<g >
</g>
<g >
</g>
<g >
</g>
<g >
</g>
<g >
</g>
<g >
</g>
<g >
</g>
<g >
</g>
<g >
</g>
<g >
</g>
<g >
</g>
<g >
</g>
<g >
</g>
<g >
</g>
<g >
</g>
<g >
</g>
<g >
</g>
<g >
</g>
<g >
</g>
<g >
</g>
<g >
</g>
<g >
</g>
<g >
</g>
</g> 
</svg>
