  0
SECTION
  2
HEADER
  9
$ANGBASE
  50
0.0
  9
$ANGDIR
  70
1
  9
$MEASUREMENT
  70
1
  0
ENDSEC
  0
SECTION
  2
TABLES
  0
TABLE
  2
LTYPE
  70
4
  0
LTYPE
  5
40F
  2
CONTINUOUS
  70
0
  3
Solid line
  72
65
  73
0
  40
0.0
  0
LTYPE
  5
410
  2
DASHDOT
 70
0
  3
Dash Dot ____ _ ____ _
 72
65
 73
4
 40
2.0
 49
1.25
 49
-0.25
 49
0.25
 49
-0.25
  0
LTYPE
  5
411
  2
DASHED
 70
0
  3
Dashed __ __ __ __ __
 72
65
 73
2
 40
0.75
 49
0.5
 49
-0.25
  0
LTYPE
  5
43B
  2
DOTTED
 70
0
  3
Dotted .  .  .  .
 72
65
 73
2
 40
0.2
 49
0.0
 49
-0.2
  0
ENDTAB
  0
TABLE
  2
STYLE
  70
4
  0
STYLE
  2
KICAD
  70
0
  40
0
  41
1
  42
1
  50
0
  71
0
  3
isocp.shx
  0
STYLE
  2
KICADB
  70
0
  40
0
  41
1
  42
1
  50
0
  71
0
  3
isocp.shx
  0
STYLE
  2
KICADI
  70
0
  40
0
  41
1
  42
1
  50
15
  71
0
  3
isocp.shx
  0
STYLE
  2
KICADBI
  70
0
  40
0
  41
1
  42
1
  50
15
  71
0
  3
isocp.shx
  0
ENDTAB
  0
TABLE
  2
LAYER
  70
1
  0
LAYER
  2
BLACK
  70
0
  62
7
  6
CONTINUOUS
  0
ENDTAB
  0
ENDSEC
  0
SECTION
  2
ENTITIES
0
CIRCLE
8
BLACK
10
65.9007
20
-41.3004
40
1.1045
0
CIRCLE
8
BLACK
10
65.9007
20
-105.994
40
1.1045
0
CIRCLE
8
BLACK
10
170.498
20
-105.994
40
1.1045
0
CIRCLE
8
BLACK
10
170.498
20
-41.3004
40
1.1045
0
LINE
8
BLACK
6
CONTINUOUS
10
120.435
20
-65.2485
11
120.435
21
-79.2479
0
LINE
8
BLACK
6
CONTINUOUS
10
125.485
20
-55.4352
11
125.485
21
-41.436
0
LINE
8
BLACK
6
CONTINUOUS
10
106.435
20
-65.2485
11
120.435
21
-65.2485
0
LINE
8
BLACK
6
CONTINUOUS
10
106.435
20
-55.4352
11
106.435
21
-41.436
0
LINE
8
BLACK
6
CONTINUOUS
10
120.435
20
-55.4352
11
106.435
21
-55.4352
0
LINE
8
BLACK
6
CONTINUOUS
10
120.435
20
-41.436
11
120.435
21
-55.4352
0
LINE
8
BLACK
6
CONTINUOUS
10
106.435
20
-41.436
11
120.435
21
-41.436
0
LINE
8
BLACK
6
CONTINUOUS
10
82.335
20
-79.2479
11
68.3354
21
-79.2479
0
LINE
8
BLACK
6
CONTINUOUS
10
139.485
20
-55.4352
11
125.485
21
-55.4352
0
LINE
8
BLACK
6
CONTINUOUS
10
125.485
20
-79.2479
11
125.485
21
-65.2485
0
LINE
8
BLACK
6
CONTINUOUS
10
139.485
20
-41.436
11
139.485
21
-55.4352
0
LINE
8
BLACK
6
CONTINUOUS
10
125.485
20
-41.436
11
139.485
21
-41.436
0
LINE
8
BLACK
6
CONTINUOUS
10
120.435
20
-79.2479
11
106.435
21
-79.2479
0
LINE
8
BLACK
6
CONTINUOUS
10
68.3354
20
-79.2479
11
68.3354
21
-65.2485
0
LINE
8
BLACK
6
CONTINUOUS
10
82.335
20
-65.2485
11
82.335
21
-79.2479
0
LINE
8
BLACK
6
CONTINUOUS
10
68.3354
20
-65.2485
11
82.335
21
-65.2485
0
LINE
8
BLACK
6
CONTINUOUS
10
101.385
20
-65.2485
11
101.385
21
-79.2479
0
LINE
8
BLACK
6
CONTINUOUS
10
106.435
20
-79.2479
11
106.435
21
-65.2485
0
LINE
8
BLACK
6
CONTINUOUS
10
87.3855
20
-65.2485
11
101.385
21
-65.2485
0
LINE
8
BLACK
6
CONTINUOUS
10
139.485
20
-79.2479
11
125.485
21
-79.2479
0
LINE
8
BLACK
6
CONTINUOUS
10
139.485
20
-65.2485
11
139.485
21
-79.2479
0
LINE
8
BLACK
6
CONTINUOUS
10
87.3855
20
-79.2479
11
87.3855
21
-65.2485
0
LINE
8
BLACK
6
CONTINUOUS
10
101.385
20
-79.2479
11
87.3855
21
-79.2479
0
LINE
8
BLACK
6
CONTINUOUS
10
87.3855
20
-89.0609
11
101.385
21
-89.0609
0
LINE
8
BLACK
6
CONTINUOUS
10
120.435
20
-89.0609
11
120.435
21
-103.06
0
LINE
8
BLACK
6
CONTINUOUS
10
125.485
20
-103.06
11
125.485
21
-89.0609
0
LINE
8
BLACK
6
CONTINUOUS
10
125.485
20
-89.0609
11
139.485
21
-89.0609
0
LINE
8
BLACK
6
CONTINUOUS
10
139.485
20
-103.06
11
125.485
21
-103.06
0
LINE
8
BLACK
6
CONTINUOUS
10
125.485
20
-65.2485
11
139.485
21
-65.2485
0
LINE
8
BLACK
6
CONTINUOUS
10
68.3354
20
-89.0609
11
82.335
21
-89.0609
0
LINE
8
BLACK
6
CONTINUOUS
10
68.3354
20
-103.06
11
68.3354
21
-89.0609
0
LINE
8
BLACK
6
CONTINUOUS
10
82.335
20
-103.06
11
68.3354
21
-103.06
0
LINE
8
BLACK
6
CONTINUOUS
10
106.435
20
-89.0609
11
120.435
21
-89.0609
0
LINE
8
BLACK
6
CONTINUOUS
10
82.335
20
-89.0609
11
82.335
21
-103.06
0
LINE
8
BLACK
6
CONTINUOUS
10
139.485
20
-89.0609
11
139.485
21
-103.06
0
LINE
8
BLACK
6
CONTINUOUS
10
106.435
20
-103.06
11
106.435
21
-89.0609
0
LINE
8
BLACK
6
CONTINUOUS
10
87.3855
20
-103.06
11
87.3855
21
-89.0609
0
LINE
8
BLACK
6
CONTINUOUS
10
101.385
20
-103.06
11
87.3855
21
-103.06
0
LINE
8
BLACK
6
CONTINUOUS
10
101.385
20
-89.0609
11
101.385
21
-103.06
0
LINE
8
BLACK
6
CONTINUOUS
10
120.435
20
-103.06
11
106.435
21
-103.06
0
LINE
8
BLACK
6
CONTINUOUS
10
101.385
20
-41.436
11
101.385
21
-55.4352
0
LINE
8
BLACK
6
CONTINUOUS
10
87.3855
20
-41.436
11
101.385
21
-41.436
0
LINE
8
BLACK
6
CONTINUOUS
10
82.335
20
-55.4352
11
68.3354
21
-55.4352
0
LINE
8
BLACK
6
CONTINUOUS
10
87.3855
20
-55.4352
11
87.3855
21
-41.436
0
LINE
8
BLACK
6
CONTINUOUS
10
68.3354
20
-55.4352
11
68.3354
21
-41.436
0
LINE
8
BLACK
6
CONTINUOUS
10
68.3354
20
-41.436
11
82.335
21
-41.436
0
LINE
8
BLACK
6
CONTINUOUS
10
101.385
20
-55.4352
11
87.3855
21
-55.4352
0
LINE
8
BLACK
6
CONTINUOUS
10
82.335
20
-41.436
11
82.335
21
-55.4352
0
ARC
8
BLACK
10
171
20
-40.8
40
2
50
-0
51
90
0
ARC
8
BLACK
10
171
20
-106.5
40
2
50
-90
51
-0
0
ARC
8
BLACK
10
65.4
20
-106.5
40
2
50
180
51
270
0
LINE
8
BLACK
6
CONTINUOUS
10
63.4
20
-40.8
11
63.4
21
-106.5
0
LINE
8
BLACK
6
CONTINUOUS
10
171
20
-38.8
11
65.4
21
-38.8
0
ARC
8
BLACK
10
65.4
20
-40.8
40
2
50
90
51
180
0
LINE
8
BLACK
6
CONTINUOUS
10
173
20
-106.5
11
173
21
-40.8
0
LINE
8
BLACK
6
CONTINUOUS
10
65.4
20
-108.5
11
171
21
-108.5
  0
ENDSEC
  0
EOF
